%TF.GenerationSoftware,KiCad,Pcbnew,9.0.2*%
%TF.CreationDate,2025-07-15T12:28:35-04:00*%
%TF.ProjectId,GPSWatch,47505357-6174-4636-982e-6b696361645f,rev?*%
%TF.SameCoordinates,Original*%
%TF.FileFunction,Legend,Top*%
%TF.FilePolarity,Positive*%
%FSLAX46Y46*%
G04 Gerber Fmt 4.6, Leading zero omitted, Abs format (unit mm)*
G04 Created by KiCad (PCBNEW 9.0.2) date 2025-07-15 12:28:35*
%MOMM*%
%LPD*%
G01*
G04 APERTURE LIST*
%ADD10C,0.120000*%
%ADD11C,0.200000*%
%ADD12C,0.127000*%
%ADD13C,0.100000*%
%ADD14C,0.300000*%
G04 APERTURE END LIST*
D10*
%TO.C,U2*%
X125636200Y-113436594D02*
X125500000Y-113300000D01*
X125750000Y-113300000D01*
X125636200Y-113436594D01*
G36*
X125636200Y-113436594D02*
G01*
X125500000Y-113300000D01*
X125750000Y-113300000D01*
X125636200Y-113436594D01*
G37*
X125990000Y-112590000D02*
X125990000Y-113540000D01*
X125990000Y-122810000D02*
X125990000Y-121860000D01*
X126940000Y-112590000D02*
X125990000Y-112590000D01*
X126940000Y-122810000D02*
X125990000Y-122810000D01*
X135260000Y-112590000D02*
X136210000Y-112590000D01*
X135260000Y-122810000D02*
X136210000Y-122810000D01*
X136210000Y-112590000D02*
X136210000Y-113540000D01*
X136210000Y-122810000D02*
X136210000Y-121860000D01*
%TO.C,C15*%
X124732836Y-113360000D02*
X124517164Y-113360000D01*
X124732836Y-112640000D02*
X124517164Y-112640000D01*
%TO.C,SW1*%
X110300000Y-113050000D02*
X110300000Y-113840000D01*
X112350000Y-114890000D02*
X112150000Y-114890000D01*
X113850000Y-110750000D02*
X113850000Y-112040000D01*
X113850000Y-110750000D02*
X114050000Y-110540000D01*
X114950000Y-110540000D02*
X114050000Y-110540000D01*
X115150000Y-110750000D02*
X114950000Y-110540000D01*
X115150000Y-112040000D02*
X115150000Y-110750000D01*
X115350000Y-114890000D02*
X113650000Y-114890000D01*
X116600000Y-112040000D02*
X110900000Y-112040000D01*
X117200000Y-113840000D02*
X117200000Y-113050000D01*
%TO.C,R11*%
X139820000Y-109746359D02*
X139820000Y-110053641D01*
X140580000Y-109746359D02*
X140580000Y-110053641D01*
%TO.C,C1*%
X146475500Y-115640580D02*
X146475500Y-115359420D01*
X145455500Y-115640580D02*
X145455500Y-115359420D01*
%TO.C,U4*%
X141165000Y-127285000D02*
X140835000Y-127525000D01*
X140835000Y-127045000D01*
X141165000Y-127285000D01*
G36*
X141165000Y-127285000D02*
G01*
X140835000Y-127525000D01*
X140835000Y-127045000D01*
X141165000Y-127285000D01*
G37*
X141165000Y-123065000D02*
X141890000Y-123065000D01*
X141165000Y-123790000D02*
X141165000Y-123065000D01*
X141165000Y-126560000D02*
X141165000Y-126985000D01*
X141890000Y-127285000D02*
X141405000Y-127285000D01*
X145385000Y-123065000D02*
X144660000Y-123065000D01*
X145385000Y-123790000D02*
X145385000Y-123065000D01*
X145385000Y-126560000D02*
X145385000Y-127285000D01*
X145385000Y-127285000D02*
X144660000Y-127285000D01*
%TO.C,C2*%
X142110000Y-129159420D02*
X142110000Y-129440580D01*
X141090000Y-129159420D02*
X141090000Y-129440580D01*
%TO.C,TH1*%
X145580000Y-128346359D02*
X145580000Y-128653641D01*
X144820000Y-128346359D02*
X144820000Y-128653641D01*
%TO.C,J2*%
X144815500Y-119550000D02*
X144815500Y-116650000D01*
X144815500Y-111250000D02*
X144815500Y-114150000D01*
X142015500Y-117100000D02*
X141265500Y-117100000D01*
X141265500Y-119550000D02*
X144815500Y-119550000D01*
X141265500Y-117400000D02*
X141265500Y-119550000D01*
X141265500Y-117100000D02*
X141265500Y-116500000D01*
X141265500Y-113400000D02*
X141265500Y-111250000D01*
X141265500Y-111250000D02*
X144815500Y-111250000D01*
%TO.C,SW5*%
X114110000Y-117350000D02*
X114110000Y-118150000D01*
X114150000Y-118150000D02*
X114110000Y-118150000D01*
X114150000Y-118150000D02*
X114150000Y-121650000D01*
%TO.C,R1*%
X143680000Y-120846359D02*
X143680000Y-121153641D01*
X142920000Y-120846359D02*
X142920000Y-121153641D01*
%TO.C,C18*%
X135492164Y-108960000D02*
X135707836Y-108960000D01*
X135492164Y-108240000D02*
X135707836Y-108240000D01*
%TO.C,R8*%
X113453641Y-126020000D02*
X113146359Y-126020000D01*
X113453641Y-126780000D02*
X113146359Y-126780000D01*
%TO.C,C17*%
X130252164Y-107620000D02*
X130467836Y-107620000D01*
X130252164Y-108340000D02*
X130467836Y-108340000D01*
%TO.C,C20*%
X112607836Y-122940000D02*
X112392164Y-122940000D01*
X112607836Y-123660000D02*
X112392164Y-123660000D01*
D11*
%TO.C,IC2*%
X134050000Y-108100000D02*
X134050000Y-108100000D01*
X134050000Y-108000000D02*
X134050000Y-108000000D01*
X134050000Y-108000000D02*
X134050000Y-108000000D01*
X134050000Y-108100000D02*
G75*
G02*
X134050000Y-108000000I0J50000D01*
G01*
X134050000Y-108100000D02*
G75*
G02*
X134050000Y-108000000I0J50000D01*
G01*
X134050000Y-108000000D02*
G75*
G02*
X134050000Y-108100000I0J-50000D01*
G01*
D10*
%TO.C,R12*%
X139770000Y-138153641D02*
X139770000Y-137846359D01*
X140530000Y-138153641D02*
X140530000Y-137846359D01*
%TO.C,C19*%
X135092164Y-104960000D02*
X135307836Y-104960000D01*
X135092164Y-104240000D02*
X135307836Y-104240000D01*
%TO.C,C3*%
X139390000Y-123359420D02*
X139390000Y-123640580D01*
X140410000Y-123359420D02*
X140410000Y-123640580D01*
%TO.C,C9*%
X139960000Y-114092164D02*
X139960000Y-114307836D01*
X139240000Y-114092164D02*
X139240000Y-114307836D01*
D12*
%TO.C,Y2*%
X121780000Y-111350000D02*
X121020000Y-111350000D01*
X121780000Y-112850000D02*
X121020000Y-112850000D01*
D10*
%TO.C,R3*%
X117196359Y-110660000D02*
X117503641Y-110660000D01*
X117196359Y-111420000D02*
X117503641Y-111420000D01*
%TO.C,J5*%
X121760000Y-104320000D02*
X121760000Y-107080000D01*
X129490000Y-104320000D02*
X121760000Y-104320000D01*
X129490000Y-104320000D02*
X129490000Y-107080000D01*
X129490000Y-107080000D02*
X121760000Y-107080000D01*
X130760000Y-104320000D02*
X132140000Y-104320000D01*
X132140000Y-104320000D02*
X132140000Y-105700000D01*
%TO.C,C10*%
X138860000Y-114092164D02*
X138860000Y-114307836D01*
X138140000Y-114092164D02*
X138140000Y-114307836D01*
%TO.C,C13*%
X118340000Y-117507836D02*
X118340000Y-117292164D01*
X119060000Y-117507836D02*
X119060000Y-117292164D01*
%TO.C,C11*%
X122292164Y-113540000D02*
X122507836Y-113540000D01*
X122292164Y-114260000D02*
X122507836Y-114260000D01*
%TO.C,R10*%
X141246359Y-136070000D02*
X141553641Y-136070000D01*
X141246359Y-136830000D02*
X141553641Y-136830000D01*
%TO.C,R6*%
X111346359Y-123920000D02*
X111653641Y-123920000D01*
X111346359Y-124680000D02*
X111653641Y-124680000D01*
D12*
%TO.C,Y3*%
X114700000Y-117000000D02*
X114700000Y-122000000D01*
X117900000Y-117000000D02*
X117900000Y-122000000D01*
D10*
%TO.C,SW3*%
X143255096Y-109965361D02*
X140780223Y-107490488D01*
X143255096Y-109965361D02*
X143283381Y-109937077D01*
X143849066Y-110502763D02*
X143283381Y-109937077D01*
%TO.C,C12*%
X120507836Y-114260000D02*
X120292164Y-114260000D01*
X120507836Y-113540000D02*
X120292164Y-113540000D01*
%TO.C,R5*%
X125546359Y-108380000D02*
X125853641Y-108380000D01*
X125546359Y-107620000D02*
X125853641Y-107620000D01*
%TO.C,C23*%
X124607836Y-134440000D02*
X124392164Y-134440000D01*
X124607836Y-135160000D02*
X124392164Y-135160000D01*
%TO.C,R4*%
X123453641Y-108380000D02*
X123146359Y-108380000D01*
X123453641Y-107620000D02*
X123146359Y-107620000D01*
%TO.C,C14*%
X118340000Y-120192164D02*
X118340000Y-120407836D01*
X119060000Y-120192164D02*
X119060000Y-120407836D01*
%TO.C,C21*%
X124607836Y-136440000D02*
X124392164Y-136440000D01*
X124607836Y-137160000D02*
X124392164Y-137160000D01*
%TO.C,C6*%
X135440000Y-124392164D02*
X135440000Y-124607836D01*
X136160000Y-124392164D02*
X136160000Y-124607836D01*
%TO.C,C7*%
X128007836Y-124540000D02*
X127792164Y-124540000D01*
X128007836Y-125260000D02*
X127792164Y-125260000D01*
%TO.C,FB1*%
X121915000Y-121437221D02*
X121915000Y-121762779D01*
X122935000Y-121437221D02*
X122935000Y-121762779D01*
%TO.C,C4*%
X124984420Y-111190000D02*
X125265580Y-111190000D01*
X124984420Y-112210000D02*
X125265580Y-112210000D01*
%TO.C,C8*%
X123440000Y-120127836D02*
X123440000Y-119912164D01*
X124160000Y-120127836D02*
X124160000Y-119912164D01*
%TO.C,R2*%
X144680000Y-120846359D02*
X144680000Y-121153641D01*
X143920000Y-120846359D02*
X143920000Y-121153641D01*
%TO.C,R9*%
X117046359Y-126020000D02*
X117353641Y-126020000D01*
X117046359Y-126780000D02*
X117353641Y-126780000D01*
%TO.C,C5*%
X127192164Y-110860000D02*
X127407836Y-110860000D01*
X127192164Y-110140000D02*
X127407836Y-110140000D01*
%TO.C,SW4*%
X140247237Y-139699066D02*
X140812923Y-139133381D01*
X140784639Y-139105096D02*
X140812923Y-139133381D01*
X140784639Y-139105096D02*
X143259512Y-136630223D01*
%TO.C,C22*%
X124607836Y-135440000D02*
X124392164Y-135440000D01*
X124607836Y-136160000D02*
X124392164Y-136160000D01*
D13*
%TO.C,U3*%
X109000000Y-129300000D02*
X111700000Y-129300000D01*
X109000000Y-133400000D02*
X109000000Y-129300000D01*
X109000000Y-142500000D02*
X109000000Y-138400000D01*
X121400000Y-129300000D02*
X119200000Y-129300000D01*
X121400000Y-133400000D02*
X121400000Y-129300000D01*
X121400000Y-138400000D02*
X121400000Y-142500000D01*
X121400000Y-142500000D02*
X109000000Y-142500000D01*
D12*
%TO.C,U1*%
X127625000Y-127925000D02*
X129850000Y-127925000D01*
X127625000Y-141700000D02*
X127625000Y-142075000D01*
X127625000Y-142075000D02*
X137375000Y-142075000D01*
X135150000Y-127925000D02*
X137375000Y-127925000D01*
X137375000Y-142075000D02*
X137375000Y-141700000D01*
D14*
X125900000Y-128800000D02*
G75*
G02*
X125700000Y-128800000I-100000J0D01*
G01*
X125700000Y-128800000D02*
G75*
G02*
X125900000Y-128800000I100000J0D01*
G01*
%TD*%
M02*
