M48
; DRILL file {KiCad 9.0.2} date 2025-07-15T12:28:29-0400
; FORMAT={-:-/ absolute / metric / decimal}
; #@! TF.CreationDate,2025-07-15T12:28:29-04:00
; #@! TF.GenerationSoftware,Kicad,Pcbnew,9.0.2
; #@! TF.FileFunction,MixedPlating,1,2
FMAT,2
METRIC
; #@! TA.AperFunction,Plated,PTH,ViaDrill
T1C0.300
; #@! TA.AperFunction,Plated,PTH,ComponentDrill
T2C0.500
; #@! TA.AperFunction,Plated,PTH,ComponentDrill
T3C0.750
; #@! TA.AperFunction,Plated,PTH,ComponentDrill
T4C1.000
; #@! TA.AperFunction,Plated,PTH,ComponentDrill
T5C1.300
; #@! TA.AperFunction,Plated,PTH,ComponentDrill
T6C3.041
; #@! TA.AperFunction,NonPlated,NPTH,ComponentDrill
T7C0.900
; #@! TA.AperFunction,NonPlated,NPTH,ComponentDrill
T8C2.200
%
G90
G05
T1
X114.0Y-123.0
X118.7Y-115.3
X118.8Y-116.2
X118.8Y-121.5
X119.9Y-114.8
X123.5Y-126.1
X123.5Y-127.3
X123.7Y-133.7
X123.9Y-114.0
X124.5Y-108.0
X124.5Y-137.8
X125.1Y-109.822
X125.25Y-126.1
X125.25Y-127.3
X125.5Y-131.8
X125.5Y-132.8
X125.5Y-137.8
X125.5Y-138.8
X125.5Y-139.8
X125.5Y-141.0
X125.9Y-110.6
X127.1Y-120.5
X127.2Y-108.0
X127.5Y-119.4
X127.7Y-122.169
X127.9Y-116.0
X128.5Y-113.6
X129.6Y-127.9
X130.551Y-122.144
X130.9Y-108.9
X131.25Y-120.35
X131.7Y-108.0
X132.05Y-120.35
X132.9Y-107.0
X132.91Y-108.91
X133.7Y-104.6
X133.9Y-121.9
X134.6Y-110.0
X134.8Y-116.0
X135.6Y-111.3
X135.6Y-127.6
X136.4Y-109.5
X136.7Y-107.7
X136.8Y-124.6
X137.0Y-110.1
X137.0Y-122.5
X137.1Y-112.9
X139.3Y-139.8
X139.3Y-141.0
X139.4Y-132.8
X139.4Y-133.8
X139.4Y-135.8
X139.4Y-136.8
X140.5Y-114.7
X141.25Y-109.45
X141.3Y-137.45
X143.0Y-130.5
X143.1Y-113.3
X143.2Y-128.2
X143.9Y-113.3
X144.3Y-129.5
X144.6Y-113.3
X145.3Y-120.5
X145.3Y-122.0
X145.326Y-122.8
T3
X139.9Y-121.0
X141.9Y-121.0
T4
X123.14Y-105.7
X125.68Y-105.7
X128.22Y-105.7
X130.76Y-105.7
T5
X112.7Y-128.4
X115.2Y-128.4
X117.7Y-128.4
T6
X109.6Y-135.9
X120.8Y-135.9
T7
X112.25Y-113.44
X115.25Y-113.44
T8
X112.2Y-107.15
X144.3Y-133.1
T2
G00X142.016Y-112.95
M15
G01X142.016Y-112.25
M16
G05
G00X142.016Y-118.55
M15
G01X142.016Y-117.85
M16
G05
G00X144.165Y-115.95
M15
G01X144.165Y-114.85
M16
G05
M30
