%TF.GenerationSoftware,KiCad,Pcbnew,9.0.2*%
%TF.CreationDate,2025-07-15T12:28:35-04:00*%
%TF.ProjectId,GPSWatch,47505357-6174-4636-982e-6b696361645f,rev?*%
%TF.SameCoordinates,Original*%
%TF.FileFunction,Paste,Top*%
%TF.FilePolarity,Positive*%
%FSLAX46Y46*%
G04 Gerber Fmt 4.6, Leading zero omitted, Abs format (unit mm)*
G04 Created by KiCad (PCBNEW 9.0.2) date 2025-07-15 12:28:35*
%MOMM*%
%LPD*%
G01*
G04 APERTURE LIST*
G04 Aperture macros list*
%AMRoundRect*
0 Rectangle with rounded corners*
0 $1 Rounding radius*
0 $2 $3 $4 $5 $6 $7 $8 $9 X,Y pos of 4 corners*
0 Add a 4 corners polygon primitive as box body*
4,1,4,$2,$3,$4,$5,$6,$7,$8,$9,$2,$3,0*
0 Add four circle primitives for the rounded corners*
1,1,$1+$1,$2,$3*
1,1,$1+$1,$4,$5*
1,1,$1+$1,$6,$7*
1,1,$1+$1,$8,$9*
0 Add four rect primitives between the rounded corners*
20,1,$1+$1,$2,$3,$4,$5,0*
20,1,$1+$1,$4,$5,$6,$7,0*
20,1,$1+$1,$6,$7,$8,$9,0*
20,1,$1+$1,$8,$9,$2,$3,0*%
G04 Aperture macros list end*
%ADD10C,0.010000*%
%ADD11RoundRect,0.075000X-0.700000X-0.075000X0.700000X-0.075000X0.700000X0.075000X-0.700000X0.075000X0*%
%ADD12RoundRect,0.075000X-0.075000X-0.700000X0.075000X-0.700000X0.075000X0.700000X-0.075000X0.700000X0*%
%ADD13RoundRect,0.140000X0.140000X0.170000X-0.140000X0.170000X-0.140000X-0.170000X0.140000X-0.170000X0*%
%ADD14R,0.700000X1.500000*%
%ADD15R,1.000000X0.800000*%
%ADD16RoundRect,0.135000X-0.185000X0.135000X-0.185000X-0.135000X0.185000X-0.135000X0.185000X0.135000X0*%
%ADD17RoundRect,0.225000X0.250000X-0.225000X0.250000X0.225000X-0.250000X0.225000X-0.250000X-0.225000X0*%
%ADD18RoundRect,0.062500X0.350000X-0.062500X0.350000X0.062500X-0.350000X0.062500X-0.350000X-0.062500X0*%
%ADD19RoundRect,0.062500X0.062500X-0.350000X0.062500X0.350000X-0.062500X0.350000X-0.062500X-0.350000X0*%
%ADD20RoundRect,0.250000X0.255000X-0.255000X0.255000X0.255000X-0.255000X0.255000X-0.255000X-0.255000X0*%
%ADD21RoundRect,0.225000X-0.250000X0.225000X-0.250000X-0.225000X0.250000X-0.225000X0.250000X0.225000X0*%
%ADD22R,1.500000X0.450000*%
%ADD23RoundRect,0.250000X-0.275000X0.450000X-0.275000X-0.450000X0.275000X-0.450000X0.275000X0.450000X0*%
%ADD24RoundRect,0.140000X-0.140000X-0.170000X0.140000X-0.170000X0.140000X0.170000X-0.140000X0.170000X0*%
%ADD25RoundRect,0.135000X0.135000X0.185000X-0.135000X0.185000X-0.135000X-0.185000X0.135000X-0.185000X0*%
%ADD26R,0.300000X0.350000*%
%ADD27R,0.350000X0.300000*%
%ADD28RoundRect,0.135000X0.185000X-0.135000X0.185000X0.135000X-0.185000X0.135000X-0.185000X-0.135000X0*%
%ADD29RoundRect,0.140000X-0.170000X0.140000X-0.170000X-0.140000X0.170000X-0.140000X0.170000X0.140000X0*%
%ADD30R,1.100000X1.900000*%
%ADD31RoundRect,0.135000X-0.135000X-0.185000X0.135000X-0.185000X0.135000X0.185000X-0.135000X0.185000X0*%
%ADD32RoundRect,0.140000X0.170000X-0.140000X0.170000X0.140000X-0.170000X0.140000X-0.170000X-0.140000X0*%
%ADD33R,2.400000X1.900000*%
%ADD34RoundRect,0.250000X0.512652X-0.123744X-0.123744X0.512652X-0.512652X0.123744X0.123744X-0.512652X0*%
%ADD35RoundRect,0.218750X-0.256250X0.218750X-0.256250X-0.218750X0.256250X-0.218750X0.256250X0.218750X0*%
%ADD36RoundRect,0.225000X-0.225000X-0.250000X0.225000X-0.250000X0.225000X0.250000X-0.225000X0.250000X0*%
%ADD37RoundRect,0.250000X-0.123744X-0.512652X0.512652X0.123744X0.123744X0.512652X-0.512652X-0.123744X0*%
G04 APERTURE END LIST*
D10*
%TO.C,U1*%
X128675000Y-129150000D02*
X126225000Y-129150000D01*
X126225000Y-128450000D01*
X128675000Y-128450000D01*
X128675000Y-129150000D01*
G36*
X128675000Y-129150000D02*
G01*
X126225000Y-129150000D01*
X126225000Y-128450000D01*
X128675000Y-128450000D01*
X128675000Y-129150000D01*
G37*
X128675000Y-130150000D02*
X126225000Y-130150000D01*
X126225000Y-129450000D01*
X128675000Y-129450000D01*
X128675000Y-130150000D01*
G36*
X128675000Y-130150000D02*
G01*
X126225000Y-130150000D01*
X126225000Y-129450000D01*
X128675000Y-129450000D01*
X128675000Y-130150000D01*
G37*
X128675000Y-131150000D02*
X126225000Y-131150000D01*
X126225000Y-130450000D01*
X128675000Y-130450000D01*
X128675000Y-131150000D01*
G36*
X128675000Y-131150000D02*
G01*
X126225000Y-131150000D01*
X126225000Y-130450000D01*
X128675000Y-130450000D01*
X128675000Y-131150000D01*
G37*
X128675000Y-132150000D02*
X126225000Y-132150000D01*
X126225000Y-131450000D01*
X128675000Y-131450000D01*
X128675000Y-132150000D01*
G36*
X128675000Y-132150000D02*
G01*
X126225000Y-132150000D01*
X126225000Y-131450000D01*
X128675000Y-131450000D01*
X128675000Y-132150000D01*
G37*
X128675000Y-133150000D02*
X126225000Y-133150000D01*
X126225000Y-132450000D01*
X128675000Y-132450000D01*
X128675000Y-133150000D01*
G36*
X128675000Y-133150000D02*
G01*
X126225000Y-133150000D01*
X126225000Y-132450000D01*
X128675000Y-132450000D01*
X128675000Y-133150000D01*
G37*
X128675000Y-134150000D02*
X126225000Y-134150000D01*
X126225000Y-133450000D01*
X128675000Y-133450000D01*
X128675000Y-134150000D01*
G36*
X128675000Y-134150000D02*
G01*
X126225000Y-134150000D01*
X126225000Y-133450000D01*
X128675000Y-133450000D01*
X128675000Y-134150000D01*
G37*
X128675000Y-135150000D02*
X126225000Y-135150000D01*
X126225000Y-134450000D01*
X128675000Y-134450000D01*
X128675000Y-135150000D01*
G36*
X128675000Y-135150000D02*
G01*
X126225000Y-135150000D01*
X126225000Y-134450000D01*
X128675000Y-134450000D01*
X128675000Y-135150000D01*
G37*
X128675000Y-136150000D02*
X126225000Y-136150000D01*
X126225000Y-135450000D01*
X128675000Y-135450000D01*
X128675000Y-136150000D01*
G36*
X128675000Y-136150000D02*
G01*
X126225000Y-136150000D01*
X126225000Y-135450000D01*
X128675000Y-135450000D01*
X128675000Y-136150000D01*
G37*
X128675000Y-137150000D02*
X126225000Y-137150000D01*
X126225000Y-136450000D01*
X128675000Y-136450000D01*
X128675000Y-137150000D01*
G36*
X128675000Y-137150000D02*
G01*
X126225000Y-137150000D01*
X126225000Y-136450000D01*
X128675000Y-136450000D01*
X128675000Y-137150000D01*
G37*
X128675000Y-138150000D02*
X126225000Y-138150000D01*
X126225000Y-137450000D01*
X128675000Y-137450000D01*
X128675000Y-138150000D01*
G36*
X128675000Y-138150000D02*
G01*
X126225000Y-138150000D01*
X126225000Y-137450000D01*
X128675000Y-137450000D01*
X128675000Y-138150000D01*
G37*
X128675000Y-139150000D02*
X126225000Y-139150000D01*
X126225000Y-138450000D01*
X128675000Y-138450000D01*
X128675000Y-139150000D01*
G36*
X128675000Y-139150000D02*
G01*
X126225000Y-139150000D01*
X126225000Y-138450000D01*
X128675000Y-138450000D01*
X128675000Y-139150000D01*
G37*
X128675000Y-140150000D02*
X126225000Y-140150000D01*
X126225000Y-139450000D01*
X128675000Y-139450000D01*
X128675000Y-140150000D01*
G36*
X128675000Y-140150000D02*
G01*
X126225000Y-140150000D01*
X126225000Y-139450000D01*
X128675000Y-139450000D01*
X128675000Y-140150000D01*
G37*
X128675000Y-141300000D02*
X126225000Y-141300000D01*
X126225000Y-140600000D01*
X128675000Y-140600000D01*
X128675000Y-141300000D01*
G36*
X128675000Y-141300000D02*
G01*
X126225000Y-141300000D01*
X126225000Y-140600000D01*
X128675000Y-140600000D01*
X128675000Y-141300000D01*
G37*
X130850000Y-128975000D02*
X130150000Y-128975000D01*
X130150000Y-126525000D01*
X130850000Y-126525000D01*
X130850000Y-128975000D01*
G36*
X130850000Y-128975000D02*
G01*
X130150000Y-128975000D01*
X130150000Y-126525000D01*
X130850000Y-126525000D01*
X130850000Y-128975000D01*
G37*
X131850000Y-128975000D02*
X131150000Y-128975000D01*
X131150000Y-126525000D01*
X131850000Y-126525000D01*
X131850000Y-128975000D01*
G36*
X131850000Y-128975000D02*
G01*
X131150000Y-128975000D01*
X131150000Y-126525000D01*
X131850000Y-126525000D01*
X131850000Y-128975000D01*
G37*
X132850000Y-128975000D02*
X132150000Y-128975000D01*
X132150000Y-126525000D01*
X132850000Y-126525000D01*
X132850000Y-128975000D01*
G36*
X132850000Y-128975000D02*
G01*
X132150000Y-128975000D01*
X132150000Y-126525000D01*
X132850000Y-126525000D01*
X132850000Y-128975000D01*
G37*
X133850000Y-128975000D02*
X133150000Y-128975000D01*
X133150000Y-126525000D01*
X133850000Y-126525000D01*
X133850000Y-128975000D01*
G36*
X133850000Y-128975000D02*
G01*
X133150000Y-128975000D01*
X133150000Y-126525000D01*
X133850000Y-126525000D01*
X133850000Y-128975000D01*
G37*
X134850000Y-128975000D02*
X134150000Y-128975000D01*
X134150000Y-126525000D01*
X134850000Y-126525000D01*
X134850000Y-128975000D01*
G36*
X134850000Y-128975000D02*
G01*
X134150000Y-128975000D01*
X134150000Y-126525000D01*
X134850000Y-126525000D01*
X134850000Y-128975000D01*
G37*
X138775000Y-129150000D02*
X136325000Y-129150000D01*
X136325000Y-128450000D01*
X138775000Y-128450000D01*
X138775000Y-129150000D01*
G36*
X138775000Y-129150000D02*
G01*
X136325000Y-129150000D01*
X136325000Y-128450000D01*
X138775000Y-128450000D01*
X138775000Y-129150000D01*
G37*
X138775000Y-130150000D02*
X136325000Y-130150000D01*
X136325000Y-129450000D01*
X138775000Y-129450000D01*
X138775000Y-130150000D01*
G36*
X138775000Y-130150000D02*
G01*
X136325000Y-130150000D01*
X136325000Y-129450000D01*
X138775000Y-129450000D01*
X138775000Y-130150000D01*
G37*
X138775000Y-131150000D02*
X136325000Y-131150000D01*
X136325000Y-130450000D01*
X138775000Y-130450000D01*
X138775000Y-131150000D01*
G36*
X138775000Y-131150000D02*
G01*
X136325000Y-131150000D01*
X136325000Y-130450000D01*
X138775000Y-130450000D01*
X138775000Y-131150000D01*
G37*
X138775000Y-132150000D02*
X136325000Y-132150000D01*
X136325000Y-131450000D01*
X138775000Y-131450000D01*
X138775000Y-132150000D01*
G36*
X138775000Y-132150000D02*
G01*
X136325000Y-132150000D01*
X136325000Y-131450000D01*
X138775000Y-131450000D01*
X138775000Y-132150000D01*
G37*
X138775000Y-133150000D02*
X136325000Y-133150000D01*
X136325000Y-132450000D01*
X138775000Y-132450000D01*
X138775000Y-133150000D01*
G36*
X138775000Y-133150000D02*
G01*
X136325000Y-133150000D01*
X136325000Y-132450000D01*
X138775000Y-132450000D01*
X138775000Y-133150000D01*
G37*
X138775000Y-134150000D02*
X136325000Y-134150000D01*
X136325000Y-133450000D01*
X138775000Y-133450000D01*
X138775000Y-134150000D01*
G36*
X138775000Y-134150000D02*
G01*
X136325000Y-134150000D01*
X136325000Y-133450000D01*
X138775000Y-133450000D01*
X138775000Y-134150000D01*
G37*
X138775000Y-135150000D02*
X136325000Y-135150000D01*
X136325000Y-134450000D01*
X138775000Y-134450000D01*
X138775000Y-135150000D01*
G36*
X138775000Y-135150000D02*
G01*
X136325000Y-135150000D01*
X136325000Y-134450000D01*
X138775000Y-134450000D01*
X138775000Y-135150000D01*
G37*
X138775000Y-136150000D02*
X136325000Y-136150000D01*
X136325000Y-135450000D01*
X138775000Y-135450000D01*
X138775000Y-136150000D01*
G36*
X138775000Y-136150000D02*
G01*
X136325000Y-136150000D01*
X136325000Y-135450000D01*
X138775000Y-135450000D01*
X138775000Y-136150000D01*
G37*
X138775000Y-137150000D02*
X136325000Y-137150000D01*
X136325000Y-136450000D01*
X138775000Y-136450000D01*
X138775000Y-137150000D01*
G36*
X138775000Y-137150000D02*
G01*
X136325000Y-137150000D01*
X136325000Y-136450000D01*
X138775000Y-136450000D01*
X138775000Y-137150000D01*
G37*
X138775000Y-138150000D02*
X136325000Y-138150000D01*
X136325000Y-137450000D01*
X138775000Y-137450000D01*
X138775000Y-138150000D01*
G36*
X138775000Y-138150000D02*
G01*
X136325000Y-138150000D01*
X136325000Y-137450000D01*
X138775000Y-137450000D01*
X138775000Y-138150000D01*
G37*
X138775000Y-139150000D02*
X136325000Y-139150000D01*
X136325000Y-138450000D01*
X138775000Y-138450000D01*
X138775000Y-139150000D01*
G36*
X138775000Y-139150000D02*
G01*
X136325000Y-139150000D01*
X136325000Y-138450000D01*
X138775000Y-138450000D01*
X138775000Y-139150000D01*
G37*
X138775000Y-140150000D02*
X136325000Y-140150000D01*
X136325000Y-139450000D01*
X138775000Y-139450000D01*
X138775000Y-140150000D01*
G36*
X138775000Y-140150000D02*
G01*
X136325000Y-140150000D01*
X136325000Y-139450000D01*
X138775000Y-139450000D01*
X138775000Y-140150000D01*
G37*
X138775000Y-141300000D02*
X136325000Y-141300000D01*
X136325000Y-140600000D01*
X138775000Y-140600000D01*
X138775000Y-141300000D01*
G36*
X138775000Y-141300000D02*
G01*
X136325000Y-141300000D01*
X136325000Y-140600000D01*
X138775000Y-140600000D01*
X138775000Y-141300000D01*
G37*
%TD*%
D11*
%TO.C,U2*%
X125425000Y-113950000D03*
X125425000Y-114450000D03*
X125425000Y-114950000D03*
X125425000Y-115450000D03*
X125425000Y-115950000D03*
X125425000Y-116450000D03*
X125425000Y-116950000D03*
X125425000Y-117450000D03*
X125425000Y-117950000D03*
X125425000Y-118450000D03*
X125425000Y-118950000D03*
X125425000Y-119450000D03*
X125425000Y-119950000D03*
X125425000Y-120450000D03*
X125425000Y-120950000D03*
X125425000Y-121450000D03*
D12*
X127350000Y-123375000D03*
X127850000Y-123375000D03*
X128350000Y-123375000D03*
X128850000Y-123375000D03*
X129350000Y-123375000D03*
X129850000Y-123375000D03*
X130350000Y-123375000D03*
X130850000Y-123375000D03*
X131350000Y-123375000D03*
X131850000Y-123375000D03*
X132350000Y-123375000D03*
X132850000Y-123375000D03*
X133350000Y-123375000D03*
X133850000Y-123375000D03*
X134350000Y-123375000D03*
X134850000Y-123375000D03*
D11*
X136775000Y-121450000D03*
X136775000Y-120950000D03*
X136775000Y-120450000D03*
X136775000Y-119950000D03*
X136775000Y-119450000D03*
X136775000Y-118950000D03*
X136775000Y-118450000D03*
X136775000Y-117950000D03*
X136775000Y-117450000D03*
X136775000Y-116950000D03*
X136775000Y-116450000D03*
X136775000Y-115950000D03*
X136775000Y-115450000D03*
X136775000Y-114950000D03*
X136775000Y-114450000D03*
X136775000Y-113950000D03*
D12*
X134850000Y-112025000D03*
X134350000Y-112025000D03*
X133850000Y-112025000D03*
X133350000Y-112025000D03*
X132850000Y-112025000D03*
X132350000Y-112025000D03*
X131850000Y-112025000D03*
X131350000Y-112025000D03*
X130850000Y-112025000D03*
X130350000Y-112025000D03*
X129850000Y-112025000D03*
X129350000Y-112025000D03*
X128850000Y-112025000D03*
X128350000Y-112025000D03*
X127850000Y-112025000D03*
X127350000Y-112025000D03*
%TD*%
D13*
%TO.C,C15*%
X124145000Y-113000000D03*
X125105000Y-113000000D03*
%TD*%
D14*
%TO.C,SW1*%
X111500000Y-115200000D03*
X113000000Y-115200000D03*
X116000000Y-115200000D03*
D15*
X110100000Y-112340000D03*
X110100000Y-114550000D03*
X117400000Y-112340000D03*
X117400000Y-114550000D03*
%TD*%
D16*
%TO.C,R11*%
X140200000Y-110410000D03*
X140200000Y-109390000D03*
%TD*%
D17*
%TO.C,C1*%
X145965500Y-114725000D03*
X145965500Y-116275000D03*
%TD*%
D18*
%TO.C,U4*%
X141337500Y-126175000D03*
X141337500Y-125675000D03*
X141337500Y-125175000D03*
X141337500Y-124675000D03*
X141337500Y-124175000D03*
D19*
X142275000Y-123237500D03*
X142775000Y-123237500D03*
X143275000Y-123237500D03*
X143775000Y-123237500D03*
X144275000Y-123237500D03*
D18*
X145212500Y-124175000D03*
X145212500Y-124675000D03*
X145212500Y-125175000D03*
X145212500Y-125675000D03*
X145212500Y-126175000D03*
D19*
X144275000Y-127112500D03*
X143775000Y-127112500D03*
X143275000Y-127112500D03*
X142775000Y-127112500D03*
X142275000Y-127112500D03*
D20*
X143900000Y-124550000D03*
X142650000Y-124550000D03*
X143900000Y-125800000D03*
X142650000Y-125800000D03*
%TD*%
D21*
%TO.C,C2*%
X141600000Y-128525000D03*
X141600000Y-130075000D03*
%TD*%
D16*
%TO.C,TH1*%
X145200000Y-127990000D03*
X145200000Y-129010000D03*
%TD*%
D22*
%TO.C,J2*%
X142265500Y-114100000D03*
X142265500Y-114750000D03*
X142265500Y-115400000D03*
X142265500Y-116050000D03*
X142265500Y-116700000D03*
%TD*%
D23*
%TO.C,SW5*%
X113320000Y-118100000D03*
X113320000Y-121700000D03*
X111880000Y-118100000D03*
X111880000Y-121700000D03*
%TD*%
D16*
%TO.C,R1*%
X143300000Y-120490000D03*
X143300000Y-121510000D03*
%TD*%
D24*
%TO.C,C18*%
X135120000Y-108600000D03*
X136080000Y-108600000D03*
%TD*%
D25*
%TO.C,R8*%
X113810000Y-126400000D03*
X112790000Y-126400000D03*
%TD*%
D24*
%TO.C,C17*%
X129880000Y-107980000D03*
X130840000Y-107980000D03*
%TD*%
D13*
%TO.C,C20*%
X112980000Y-123300000D03*
X112020000Y-123300000D03*
%TD*%
D26*
%TO.C,IC2*%
X134050000Y-107375000D03*
X134550000Y-107375000D03*
X135050000Y-107375000D03*
X135550000Y-107375000D03*
D27*
X135575000Y-106850000D03*
X135575000Y-106350000D03*
D26*
X135550000Y-105825000D03*
X135050000Y-105825000D03*
X134550000Y-105825000D03*
X134050000Y-105825000D03*
D27*
X134025000Y-106350000D03*
X134025000Y-106850000D03*
%TD*%
D28*
%TO.C,R12*%
X140150000Y-138510000D03*
X140150000Y-137490000D03*
%TD*%
D24*
%TO.C,C19*%
X134720000Y-104600000D03*
X135680000Y-104600000D03*
%TD*%
D21*
%TO.C,C3*%
X139900000Y-122725000D03*
X139900000Y-124275000D03*
%TD*%
D29*
%TO.C,C9*%
X139600000Y-113720000D03*
X139600000Y-114680000D03*
%TD*%
D30*
%TO.C,Y2*%
X122650000Y-112100000D03*
X120150000Y-112100000D03*
%TD*%
D31*
%TO.C,R3*%
X116840000Y-111040000D03*
X117860000Y-111040000D03*
%TD*%
D29*
%TO.C,C10*%
X138500000Y-113720000D03*
X138500000Y-114680000D03*
%TD*%
D32*
%TO.C,C13*%
X118700000Y-117880000D03*
X118700000Y-116920000D03*
%TD*%
D24*
%TO.C,C11*%
X121920000Y-113900000D03*
X122880000Y-113900000D03*
%TD*%
D31*
%TO.C,R10*%
X140890000Y-136450000D03*
X141910000Y-136450000D03*
%TD*%
%TO.C,R6*%
X110990000Y-124300000D03*
X112010000Y-124300000D03*
%TD*%
D33*
%TO.C,Y3*%
X116300000Y-117450000D03*
X116300000Y-121550000D03*
%TD*%
D34*
%TO.C,SW3*%
X143877350Y-109413818D03*
X141331766Y-106868234D03*
X144895584Y-108395584D03*
X142350000Y-105850000D03*
%TD*%
D13*
%TO.C,C12*%
X120880000Y-113900000D03*
X119920000Y-113900000D03*
%TD*%
D31*
%TO.C,R5*%
X125190000Y-108000000D03*
X126210000Y-108000000D03*
%TD*%
D13*
%TO.C,C23*%
X124980000Y-134800000D03*
X124020000Y-134800000D03*
%TD*%
D25*
%TO.C,R4*%
X123810000Y-108000000D03*
X122790000Y-108000000D03*
%TD*%
D29*
%TO.C,C14*%
X118700000Y-119820000D03*
X118700000Y-120780000D03*
%TD*%
D13*
%TO.C,C21*%
X124980000Y-136800000D03*
X124020000Y-136800000D03*
%TD*%
D29*
%TO.C,C6*%
X135800000Y-124020000D03*
X135800000Y-124980000D03*
%TD*%
D13*
%TO.C,C7*%
X128380000Y-124900000D03*
X127420000Y-124900000D03*
%TD*%
D35*
%TO.C,FB1*%
X122425000Y-120812500D03*
X122425000Y-122387500D03*
%TD*%
D36*
%TO.C,C4*%
X124350000Y-111700000D03*
X125900000Y-111700000D03*
%TD*%
D32*
%TO.C,C8*%
X123800000Y-120500000D03*
X123800000Y-119540000D03*
%TD*%
D16*
%TO.C,R2*%
X144300000Y-120490000D03*
X144300000Y-121510000D03*
%TD*%
D31*
%TO.C,R9*%
X116690000Y-126400000D03*
X117710000Y-126400000D03*
%TD*%
D24*
%TO.C,C5*%
X126820000Y-110500000D03*
X127780000Y-110500000D03*
%TD*%
D37*
%TO.C,SW4*%
X141336182Y-139727350D03*
X143881766Y-137181766D03*
X142354416Y-140745584D03*
X144900000Y-138200000D03*
%TD*%
D13*
%TO.C,C22*%
X124980000Y-135800000D03*
X124020000Y-135800000D03*
%TD*%
M02*
