%TF.GenerationSoftware,KiCad,Pcbnew,9.0.2*%
%TF.CreationDate,2025-07-15T12:28:35-04:00*%
%TF.ProjectId,GPSWatch,47505357-6174-4636-982e-6b696361645f,rev?*%
%TF.SameCoordinates,Original*%
%TF.FileFunction,Legend,Bot*%
%TF.FilePolarity,Positive*%
%FSLAX46Y46*%
G04 Gerber Fmt 4.6, Leading zero omitted, Abs format (unit mm)*
G04 Created by KiCad (PCBNEW 9.0.2) date 2025-07-15 12:28:35*
%MOMM*%
%LPD*%
G01*
G04 APERTURE LIST*
%ADD10C,0.150000*%
%ADD11C,0.120000*%
G04 APERTURE END LIST*
D10*
X127699580Y-116957142D02*
X127747200Y-116909523D01*
X127747200Y-116909523D02*
X127794819Y-116766666D01*
X127794819Y-116766666D02*
X127794819Y-116671428D01*
X127794819Y-116671428D02*
X127747200Y-116528571D01*
X127747200Y-116528571D02*
X127651961Y-116433333D01*
X127651961Y-116433333D02*
X127556723Y-116385714D01*
X127556723Y-116385714D02*
X127366247Y-116338095D01*
X127366247Y-116338095D02*
X127223390Y-116338095D01*
X127223390Y-116338095D02*
X127032914Y-116385714D01*
X127032914Y-116385714D02*
X126937676Y-116433333D01*
X126937676Y-116433333D02*
X126842438Y-116528571D01*
X126842438Y-116528571D02*
X126794819Y-116671428D01*
X126794819Y-116671428D02*
X126794819Y-116766666D01*
X126794819Y-116766666D02*
X126842438Y-116909523D01*
X126842438Y-116909523D02*
X126890057Y-116957142D01*
X127794819Y-117909523D02*
X127794819Y-117338095D01*
X127794819Y-117623809D02*
X126794819Y-117623809D01*
X126794819Y-117623809D02*
X126937676Y-117528571D01*
X126937676Y-117528571D02*
X127032914Y-117433333D01*
X127032914Y-117433333D02*
X127080533Y-117338095D01*
X126794819Y-118766666D02*
X126794819Y-118576190D01*
X126794819Y-118576190D02*
X126842438Y-118480952D01*
X126842438Y-118480952D02*
X126890057Y-118433333D01*
X126890057Y-118433333D02*
X127032914Y-118338095D01*
X127032914Y-118338095D02*
X127223390Y-118290476D01*
X127223390Y-118290476D02*
X127604342Y-118290476D01*
X127604342Y-118290476D02*
X127699580Y-118338095D01*
X127699580Y-118338095D02*
X127747200Y-118385714D01*
X127747200Y-118385714D02*
X127794819Y-118480952D01*
X127794819Y-118480952D02*
X127794819Y-118671428D01*
X127794819Y-118671428D02*
X127747200Y-118766666D01*
X127747200Y-118766666D02*
X127699580Y-118814285D01*
X127699580Y-118814285D02*
X127604342Y-118861904D01*
X127604342Y-118861904D02*
X127366247Y-118861904D01*
X127366247Y-118861904D02*
X127271009Y-118814285D01*
X127271009Y-118814285D02*
X127223390Y-118766666D01*
X127223390Y-118766666D02*
X127175771Y-118671428D01*
X127175771Y-118671428D02*
X127175771Y-118480952D01*
X127175771Y-118480952D02*
X127223390Y-118385714D01*
X127223390Y-118385714D02*
X127271009Y-118338095D01*
X127271009Y-118338095D02*
X127366247Y-118290476D01*
X121879819Y-117641666D02*
X122594104Y-117641666D01*
X122594104Y-117641666D02*
X122736961Y-117594047D01*
X122736961Y-117594047D02*
X122832200Y-117498809D01*
X122832200Y-117498809D02*
X122879819Y-117355952D01*
X122879819Y-117355952D02*
X122879819Y-117260714D01*
X122213152Y-118546428D02*
X122879819Y-118546428D01*
X121832200Y-118308333D02*
X122546485Y-118070238D01*
X122546485Y-118070238D02*
X122546485Y-118689285D01*
D11*
%TO.C,J1*%
X143960000Y-127360000D02*
X137840000Y-127360000D01*
X143960000Y-121140000D02*
X143040000Y-121140000D01*
X143960000Y-119540000D02*
X143960000Y-127360000D01*
X143200000Y-125100000D02*
X142200000Y-125100000D01*
X143200000Y-123500000D02*
X143200000Y-125100000D01*
X143040000Y-121140000D02*
X143040000Y-119540000D01*
X143040000Y-119540000D02*
X143960000Y-119540000D01*
X142760000Y-121140000D02*
X143040000Y-121140000D01*
X142760000Y-121140000D02*
X142760000Y-119925000D01*
X142700000Y-125100000D02*
X142700000Y-127360000D01*
X142200000Y-125100000D02*
X142200000Y-127360000D01*
X142200000Y-125100000D02*
X142200000Y-123500000D01*
X142200000Y-123500000D02*
X143200000Y-123500000D01*
X141400000Y-127360000D02*
X141400000Y-123000000D01*
X141400000Y-123000000D02*
X140400000Y-123000000D01*
X140400000Y-123000000D02*
X140400000Y-127360000D01*
X139600000Y-125100000D02*
X139600000Y-123500000D01*
X139600000Y-123500000D02*
X138600000Y-123500000D01*
X138760000Y-121140000D02*
X139040000Y-121140000D01*
X138760000Y-119540000D02*
X138760000Y-121140000D01*
X138600000Y-125100000D02*
X139600000Y-125100000D01*
X138600000Y-123500000D02*
X138600000Y-125100000D01*
X137840000Y-127360000D02*
X137840000Y-119540000D01*
X137840000Y-121140000D02*
X138760000Y-121140000D01*
X137840000Y-119540000D02*
X138760000Y-119540000D01*
%TO.C,C16*%
X128860000Y-117492164D02*
X128860000Y-117707836D01*
X128140000Y-117492164D02*
X128140000Y-117707836D01*
%TO.C,J4*%
X109915000Y-122675000D02*
X109915000Y-120275000D01*
X109925000Y-120265000D02*
X110415000Y-119765000D01*
X110865000Y-111735000D02*
X110415000Y-111735000D01*
X110865000Y-111735000D02*
X110865000Y-119765000D01*
X110865000Y-119765000D02*
X110415000Y-119765000D01*
X114775000Y-110615000D02*
X113675000Y-110615000D01*
X120775000Y-110615000D02*
X116075000Y-110615000D01*
X126085000Y-110615000D02*
X122475000Y-110615000D01*
X126085000Y-111125000D02*
X126085000Y-110615000D01*
X126085000Y-120975000D02*
X126085000Y-121525000D01*
X126085000Y-124585000D02*
X112025000Y-124585000D01*
X126085000Y-124585000D02*
X126085000Y-123025000D01*
%TD*%
M02*
