G04 #@! TF.GenerationSoftware,KiCad,Pcbnew,9.0.2*
G04 #@! TF.CreationDate,2026-01-19T13:25:36-05:00*
G04 #@! TF.ProjectId,RP2040_minimal_r2,52503230-3430-45f6-9d69-6e696d616c5f,REV2*
G04 #@! TF.SameCoordinates,Original*
G04 #@! TF.FileFunction,Copper,L1,Top*
G04 #@! TF.FilePolarity,Positive*
%FSLAX46Y46*%
G04 Gerber Fmt 4.6, Leading zero omitted, Abs format (unit mm)*
G04 Created by KiCad (PCBNEW 9.0.2) date 2026-01-19 13:25:36*
%MOMM*%
%LPD*%
G01*
G04 APERTURE LIST*
G04 Aperture macros list*
%AMRoundRect*
0 Rectangle with rounded corners*
0 $1 Rounding radius*
0 $2 $3 $4 $5 $6 $7 $8 $9 X,Y pos of 4 corners*
0 Add a 4 corners polygon primitive as box body*
4,1,4,$2,$3,$4,$5,$6,$7,$8,$9,$2,$3,0*
0 Add four circle primitives for the rounded corners*
1,1,$1+$1,$2,$3*
1,1,$1+$1,$4,$5*
1,1,$1+$1,$6,$7*
1,1,$1+$1,$8,$9*
0 Add four rect primitives between the rounded corners*
20,1,$1+$1,$2,$3,$4,$5,0*
20,1,$1+$1,$4,$5,$6,$7,0*
20,1,$1+$1,$6,$7,$8,$9,0*
20,1,$1+$1,$8,$9,$2,$3,0*%
G04 Aperture macros list end*
G04 #@! TA.AperFunction,SMDPad,CuDef*
%ADD10RoundRect,0.255000X0.595000X1.045000X-0.595000X1.045000X-0.595000X-1.045000X0.595000X-1.045000X0*%
G04 #@! TD*
G04 #@! TA.AperFunction,SMDPad,CuDef*
%ADD11RoundRect,0.195000X0.555000X0.455000X-0.555000X0.455000X-0.555000X-0.455000X0.555000X-0.455000X0*%
G04 #@! TD*
G04 #@! TA.AperFunction,ComponentPad*
%ADD12C,3.800000*%
G04 #@! TD*
G04 #@! TA.AperFunction,SMDPad,CuDef*
%ADD13R,0.250000X0.900000*%
G04 #@! TD*
G04 #@! TA.AperFunction,SMDPad,CuDef*
%ADD14R,0.900000X0.250000*%
G04 #@! TD*
G04 #@! TA.AperFunction,SMDPad,CuDef*
%ADD15RoundRect,0.250000X0.450000X0.275000X-0.450000X0.275000X-0.450000X-0.275000X0.450000X-0.275000X0*%
G04 #@! TD*
G04 #@! TA.AperFunction,SMDPad,CuDef*
%ADD16RoundRect,0.250000X-0.123744X-0.512652X0.512652X0.123744X0.123744X0.512652X-0.512652X-0.123744X0*%
G04 #@! TD*
G04 #@! TA.AperFunction,SMDPad,CuDef*
%ADD17RoundRect,0.250000X0.512652X-0.123744X-0.123744X0.512652X-0.512652X0.123744X0.123744X-0.512652X0*%
G04 #@! TD*
G04 #@! TA.AperFunction,SMDPad,CuDef*
%ADD18RoundRect,0.175000X0.175000X-0.900000X0.175000X0.900000X-0.175000X0.900000X-0.175000X-0.900000X0*%
G04 #@! TD*
G04 #@! TA.AperFunction,SMDPad,CuDef*
%ADD19RoundRect,0.175000X-0.900000X-0.175000X0.900000X-0.175000X0.900000X0.175000X-0.900000X0.175000X0*%
G04 #@! TD*
G04 #@! TA.AperFunction,SMDPad,CuDef*
%ADD20RoundRect,0.050000X-0.050000X0.387500X-0.050000X-0.387500X0.050000X-0.387500X0.050000X0.387500X0*%
G04 #@! TD*
G04 #@! TA.AperFunction,SMDPad,CuDef*
%ADD21RoundRect,0.050000X-0.387500X0.050000X-0.387500X-0.050000X0.387500X-0.050000X0.387500X0.050000X0*%
G04 #@! TD*
G04 #@! TA.AperFunction,ComponentPad*
%ADD22C,0.600000*%
G04 #@! TD*
G04 #@! TA.AperFunction,SMDPad,CuDef*
%ADD23RoundRect,0.144000X-1.456000X1.456000X-1.456000X-1.456000X1.456000X-1.456000X1.456000X1.456000X0*%
G04 #@! TD*
G04 #@! TA.AperFunction,SMDPad,CuDef*
%ADD24RoundRect,0.250000X-0.250000X-0.475000X0.250000X-0.475000X0.250000X0.475000X-0.250000X0.475000X0*%
G04 #@! TD*
G04 #@! TA.AperFunction,SMDPad,CuDef*
%ADD25RoundRect,0.140000X-0.140000X-0.170000X0.140000X-0.170000X0.140000X0.170000X-0.140000X0.170000X0*%
G04 #@! TD*
G04 #@! TA.AperFunction,SMDPad,CuDef*
%ADD26RoundRect,0.135000X0.135000X0.185000X-0.135000X0.185000X-0.135000X-0.185000X0.135000X-0.185000X0*%
G04 #@! TD*
G04 #@! TA.AperFunction,SMDPad,CuDef*
%ADD27RoundRect,0.140000X0.140000X0.170000X-0.140000X0.170000X-0.140000X-0.170000X0.140000X-0.170000X0*%
G04 #@! TD*
G04 #@! TA.AperFunction,SMDPad,CuDef*
%ADD28RoundRect,0.225000X-0.250000X0.225000X-0.250000X-0.225000X0.250000X-0.225000X0.250000X0.225000X0*%
G04 #@! TD*
G04 #@! TA.AperFunction,ComponentPad*
%ADD29R,1.700000X1.700000*%
G04 #@! TD*
G04 #@! TA.AperFunction,ComponentPad*
%ADD30C,1.700000*%
G04 #@! TD*
G04 #@! TA.AperFunction,SMDPad,CuDef*
%ADD31RoundRect,0.140000X-0.170000X0.140000X-0.170000X-0.140000X0.170000X-0.140000X0.170000X0.140000X0*%
G04 #@! TD*
G04 #@! TA.AperFunction,SMDPad,CuDef*
%ADD32RoundRect,0.135000X-0.185000X0.135000X-0.185000X-0.135000X0.185000X-0.135000X0.185000X0.135000X0*%
G04 #@! TD*
G04 #@! TA.AperFunction,SMDPad,CuDef*
%ADD33RoundRect,0.135000X0.185000X-0.135000X0.185000X0.135000X-0.185000X0.135000X-0.185000X-0.135000X0*%
G04 #@! TD*
G04 #@! TA.AperFunction,SMDPad,CuDef*
%ADD34RoundRect,0.375000X0.375000X-0.625000X0.375000X0.625000X-0.375000X0.625000X-0.375000X-0.625000X0*%
G04 #@! TD*
G04 #@! TA.AperFunction,SMDPad,CuDef*
%ADD35RoundRect,0.500000X1.400000X-0.500000X1.400000X0.500000X-1.400000X0.500000X-1.400000X-0.500000X0*%
G04 #@! TD*
G04 #@! TA.AperFunction,SMDPad,CuDef*
%ADD36R,1.200000X0.700000*%
G04 #@! TD*
G04 #@! TA.AperFunction,SMDPad,CuDef*
%ADD37R,0.800000X1.000000*%
G04 #@! TD*
G04 #@! TA.AperFunction,SMDPad,CuDef*
%ADD38R,1.200000X1.000000*%
G04 #@! TD*
G04 #@! TA.AperFunction,SMDPad,CuDef*
%ADD39R,2.800000X1.000000*%
G04 #@! TD*
G04 #@! TA.AperFunction,SMDPad,CuDef*
%ADD40R,1.900000X1.300000*%
G04 #@! TD*
G04 #@! TA.AperFunction,SMDPad,CuDef*
%ADD41RoundRect,0.162500X-0.650000X-0.162500X0.650000X-0.162500X0.650000X0.162500X-0.650000X0.162500X0*%
G04 #@! TD*
G04 #@! TA.AperFunction,SMDPad,CuDef*
%ADD42R,1.650000X0.400000*%
G04 #@! TD*
G04 #@! TA.AperFunction,SMDPad,CuDef*
%ADD43R,0.700000X1.825000*%
G04 #@! TD*
G04 #@! TA.AperFunction,SMDPad,CuDef*
%ADD44R,1.500000X2.000000*%
G04 #@! TD*
G04 #@! TA.AperFunction,SMDPad,CuDef*
%ADD45R,2.000000X1.350000*%
G04 #@! TD*
G04 #@! TA.AperFunction,HeatsinkPad*
%ADD46O,1.700000X1.350000*%
G04 #@! TD*
G04 #@! TA.AperFunction,HeatsinkPad*
%ADD47O,1.500000X1.100000*%
G04 #@! TD*
G04 #@! TA.AperFunction,SMDPad,CuDef*
%ADD48R,2.500000X1.430000*%
G04 #@! TD*
G04 #@! TA.AperFunction,SMDPad,CuDef*
%ADD49RoundRect,0.250000X0.250000X0.475000X-0.250000X0.475000X-0.250000X-0.475000X0.250000X-0.475000X0*%
G04 #@! TD*
G04 #@! TA.AperFunction,SMDPad,CuDef*
%ADD50RoundRect,0.250000X0.450000X0.350000X-0.450000X0.350000X-0.450000X-0.350000X0.450000X-0.350000X0*%
G04 #@! TD*
G04 #@! TA.AperFunction,ComponentPad*
%ADD51RoundRect,0.250000X-0.350000X-0.625000X0.350000X-0.625000X0.350000X0.625000X-0.350000X0.625000X0*%
G04 #@! TD*
G04 #@! TA.AperFunction,ComponentPad*
%ADD52O,1.200000X1.750000*%
G04 #@! TD*
G04 #@! TA.AperFunction,ViaPad*
%ADD53C,0.600000*%
G04 #@! TD*
G04 #@! TA.AperFunction,Conductor*
%ADD54C,0.200000*%
G04 #@! TD*
G04 #@! TA.AperFunction,Conductor*
%ADD55C,0.400000*%
G04 #@! TD*
G04 #@! TA.AperFunction,Conductor*
%ADD56C,0.800000*%
G04 #@! TD*
G04 #@! TA.AperFunction,Conductor*
%ADD57C,0.600000*%
G04 #@! TD*
G04 APERTURE END LIST*
D10*
X127155000Y-140585000D03*
X119555000Y-140585000D03*
D11*
X121355000Y-136435000D03*
X123355000Y-136435000D03*
X125355000Y-136435000D03*
D12*
X123100000Y-107900000D03*
D13*
X158350000Y-128500000D03*
X157850000Y-128500000D03*
X157350000Y-128500000D03*
X156850000Y-128500000D03*
D14*
X156250000Y-129350000D03*
X156250000Y-129850000D03*
D13*
X156850000Y-130700000D03*
X157350000Y-130700000D03*
X157850000Y-130700000D03*
X158350000Y-130700000D03*
D14*
X158950000Y-129850000D03*
X158950000Y-129350000D03*
D15*
X130325000Y-106370000D03*
X126725000Y-106370000D03*
X130325000Y-104930000D03*
X126725000Y-104930000D03*
D16*
X154518091Y-142063675D03*
X157063675Y-139518091D03*
X155536325Y-143081909D03*
X158081909Y-140536325D03*
D17*
X157063675Y-108481909D03*
X154518091Y-105936325D03*
X158081909Y-107463675D03*
X155536325Y-104918091D03*
D15*
X150300000Y-106420000D03*
X146700000Y-106420000D03*
X150300000Y-104980000D03*
X146700000Y-104980000D03*
D18*
X136300000Y-130000000D03*
X137300000Y-130000000D03*
X138300000Y-130000000D03*
X139300000Y-130000000D03*
X140300000Y-130000000D03*
D19*
X143100000Y-130800000D03*
X143100000Y-131800000D03*
X143100000Y-132800000D03*
X143100000Y-133800000D03*
X143100000Y-134800000D03*
X143100000Y-135800000D03*
X143100000Y-136800000D03*
X143100000Y-137800000D03*
X143100000Y-138800000D03*
X143100000Y-139800000D03*
X143100000Y-140800000D03*
X143100000Y-141800000D03*
X143100000Y-142950000D03*
X133500000Y-142950000D03*
X133500000Y-141800000D03*
X133500000Y-140800000D03*
X133500000Y-139800000D03*
X133500000Y-138800000D03*
X133500000Y-137800000D03*
X133500000Y-136800000D03*
X133500000Y-135800000D03*
X133500000Y-134800000D03*
X133500000Y-133800000D03*
X133500000Y-132800000D03*
X133500000Y-131800000D03*
X133500000Y-130800000D03*
D20*
X147847500Y-116907500D03*
X147447500Y-116907500D03*
X147047500Y-116907500D03*
X146647500Y-116907500D03*
X146247500Y-116907500D03*
X145847500Y-116907500D03*
X145447500Y-116907500D03*
X145047500Y-116907500D03*
X144647500Y-116907500D03*
X144247500Y-116907500D03*
X143847500Y-116907500D03*
X143447500Y-116907500D03*
X143047500Y-116907500D03*
X142647500Y-116907500D03*
D21*
X141810000Y-117745000D03*
X141810000Y-118145000D03*
X141810000Y-118545000D03*
X141810000Y-118945000D03*
X141810000Y-119345000D03*
X141810000Y-119745000D03*
X141810000Y-120145000D03*
X141810000Y-120545000D03*
X141810000Y-120945000D03*
X141810000Y-121345000D03*
X141810000Y-121745000D03*
X141810000Y-122145000D03*
X141810000Y-122545000D03*
X141810000Y-122945000D03*
D20*
X142647500Y-123782500D03*
X143047500Y-123782500D03*
X143447500Y-123782500D03*
X143847500Y-123782500D03*
X144247500Y-123782500D03*
X144647500Y-123782500D03*
X145047500Y-123782500D03*
X145447500Y-123782500D03*
X145847500Y-123782500D03*
X146247500Y-123782500D03*
X146647500Y-123782500D03*
X147047500Y-123782500D03*
X147447500Y-123782500D03*
X147847500Y-123782500D03*
D21*
X148685000Y-122945000D03*
X148685000Y-122545000D03*
X148685000Y-122145000D03*
X148685000Y-121745000D03*
X148685000Y-121345000D03*
X148685000Y-120945000D03*
X148685000Y-120545000D03*
X148685000Y-120145000D03*
X148685000Y-119745000D03*
X148685000Y-119345000D03*
X148685000Y-118945000D03*
X148685000Y-118545000D03*
X148685000Y-118145000D03*
X148685000Y-117745000D03*
D22*
X146522500Y-119070000D03*
X145247500Y-119070000D03*
X143972500Y-119070000D03*
X146522500Y-120345000D03*
X145247500Y-120345000D03*
D23*
X145247500Y-120345000D03*
D22*
X143972500Y-120345000D03*
X146522500Y-121620000D03*
X145247500Y-121620000D03*
X143972500Y-121620000D03*
D24*
X157057500Y-126407500D03*
X158957500Y-126407500D03*
D25*
X137020000Y-117950000D03*
X137980000Y-117950000D03*
D26*
X152810000Y-122100000D03*
X151790000Y-122100000D03*
D27*
X137730000Y-107400000D03*
X136770000Y-107400000D03*
D26*
X138010000Y-118950000D03*
X136990000Y-118950000D03*
D28*
X129400000Y-137825000D03*
X129400000Y-139375000D03*
D29*
X125250000Y-129250000D03*
D30*
X122710000Y-129250000D03*
X120170000Y-129250000D03*
D25*
X152330000Y-118050000D03*
X153290000Y-118050000D03*
D31*
X145750000Y-139970000D03*
X145750000Y-140930000D03*
D27*
X138830000Y-120097500D03*
X137870000Y-120097500D03*
D31*
X130800000Y-138720000D03*
X130800000Y-139680000D03*
D29*
X135190000Y-105100000D03*
D30*
X137730000Y-105100000D03*
X140270000Y-105100000D03*
X142810000Y-105100000D03*
D31*
X153900000Y-131820000D03*
X153900000Y-132780000D03*
X144500000Y-125027500D03*
X144500000Y-125987500D03*
D32*
X152407500Y-125897500D03*
X152407500Y-126917500D03*
D27*
X138830000Y-121097500D03*
X137870000Y-121097500D03*
D25*
X150430000Y-123155000D03*
X151390000Y-123155000D03*
D33*
X148600000Y-110010000D03*
X148600000Y-108990000D03*
D32*
X149800000Y-108990000D03*
X149800000Y-110010000D03*
D25*
X150430000Y-125185000D03*
X151390000Y-125185000D03*
D31*
X148050000Y-124920000D03*
X148050000Y-125880000D03*
D25*
X152340000Y-119100000D03*
X153300000Y-119100000D03*
D34*
X147207500Y-137447500D03*
X149507500Y-137447500D03*
D35*
X149507500Y-131147500D03*
D34*
X151807500Y-137447500D03*
D32*
X153417500Y-125897500D03*
X153417500Y-126917500D03*
D27*
X147830000Y-113600000D03*
X146870000Y-113600000D03*
X153430000Y-128050000D03*
X152470000Y-128050000D03*
D36*
X134625000Y-121175000D03*
X134625000Y-120075000D03*
X134625000Y-118975000D03*
X134625000Y-117875000D03*
X134625000Y-116775000D03*
X134625000Y-115675000D03*
X134625000Y-114575000D03*
X134625000Y-113475000D03*
X134625000Y-112525000D03*
D37*
X124125000Y-111575000D03*
D38*
X130325000Y-111575000D03*
D39*
X119975000Y-111575000D03*
D38*
X134625000Y-122725000D03*
D40*
X119525000Y-125075000D03*
D25*
X152320000Y-120100000D03*
X153280000Y-120100000D03*
D26*
X152810000Y-121085000D03*
X151790000Y-121085000D03*
D41*
X150012500Y-111395000D03*
X150012500Y-112665000D03*
X150012500Y-113935000D03*
X150012500Y-115205000D03*
X157187500Y-115205000D03*
X157187500Y-113935000D03*
X157187500Y-112665000D03*
X157187500Y-111395000D03*
D42*
X155300000Y-122540000D03*
X155300000Y-121890000D03*
X155300000Y-121240000D03*
X155300000Y-120590000D03*
X155300000Y-119940000D03*
D43*
X156500000Y-124190000D03*
D44*
X155200000Y-124090000D03*
D45*
X157250000Y-123970000D03*
D46*
X158180000Y-123970000D03*
D47*
X155180000Y-123660000D03*
D48*
X158450000Y-122200000D03*
X158450000Y-120280000D03*
D47*
X155180000Y-118820000D03*
D46*
X158180000Y-118510000D03*
D45*
X157250000Y-118490000D03*
D44*
X155180000Y-118340000D03*
D43*
X156500000Y-118240000D03*
D49*
X148550000Y-128750000D03*
X146650000Y-128750000D03*
X151450000Y-143550000D03*
X149550000Y-143550000D03*
D50*
X139800000Y-114800000D03*
X137600000Y-114800000D03*
X137600000Y-116500000D03*
X139800000Y-116500000D03*
D25*
X158020000Y-110100000D03*
X158980000Y-110100000D03*
D33*
X140507500Y-123907500D03*
X140507500Y-122887500D03*
D27*
X140380000Y-118050000D03*
X139420000Y-118050000D03*
D31*
X136250000Y-120070000D03*
X136250000Y-121030000D03*
D25*
X150430000Y-124185000D03*
X151390000Y-124185000D03*
D51*
X153907500Y-134597500D03*
D52*
X155907500Y-134597500D03*
D53*
X153500000Y-104800000D03*
X155500000Y-108800000D03*
X157500000Y-138000000D03*
X153400000Y-143000000D03*
X124850000Y-105700000D03*
X143147500Y-120800000D03*
X159100000Y-127550000D03*
X158750000Y-139050000D03*
X146500000Y-115250000D03*
X147230106Y-115751319D03*
X155850000Y-106850000D03*
X146750000Y-114450000D03*
X131200000Y-107400000D03*
X125700000Y-107250000D03*
X149200000Y-125900000D03*
X147251000Y-125200000D03*
X131750000Y-130700000D03*
X130700000Y-115600000D03*
X133500000Y-117650000D03*
X144750000Y-127000000D03*
X146600000Y-131100000D03*
X150350000Y-126150000D03*
X146050000Y-125400000D03*
X146000000Y-127300000D03*
X134300000Y-110800000D03*
X132650000Y-117100000D03*
X132650003Y-112700000D03*
X133273623Y-110674907D03*
X132400000Y-110700000D03*
X131850000Y-112700000D03*
X128450000Y-108550000D03*
X139843683Y-121145000D03*
X140872500Y-118993925D03*
X136300000Y-122000000D03*
X151331375Y-119603937D03*
X147550000Y-121750000D03*
X137100000Y-121050000D03*
X137110000Y-120050000D03*
X142550000Y-124800000D03*
X125350000Y-135345000D03*
X141850000Y-124000000D03*
X121350000Y-135145000D03*
X136450000Y-128300000D03*
X135850000Y-107400000D03*
X151100000Y-107200000D03*
X146000000Y-107250000D03*
X151600000Y-127850000D03*
X145650000Y-128850000D03*
X153900000Y-130750000D03*
X120050000Y-112950000D03*
X130900000Y-112600000D03*
X136050000Y-115800000D03*
X133950000Y-124100000D03*
X119700000Y-126850000D03*
X131900000Y-140800000D03*
X131950000Y-142950000D03*
X144800000Y-142900000D03*
X144800000Y-141800000D03*
X144850000Y-138800000D03*
X144850000Y-137800000D03*
X144850000Y-135800000D03*
X144850000Y-134800000D03*
X141450000Y-129450000D03*
X131800000Y-133800000D03*
X131800000Y-134800000D03*
X131950000Y-141800000D03*
X131900000Y-139850000D03*
X145850000Y-141600000D03*
X152300000Y-123200000D03*
X152300000Y-124150000D03*
X152400000Y-125100000D03*
X151450000Y-126150000D03*
X159100000Y-111300000D03*
X156307500Y-130707500D03*
X147207500Y-139197500D03*
X148300000Y-143550000D03*
X153985000Y-119162500D03*
X138700000Y-113800000D03*
X156707500Y-122107500D03*
X153985000Y-118162500D03*
X119100000Y-143345000D03*
X123400000Y-135345000D03*
X138800000Y-115700000D03*
X156607500Y-119907500D03*
X156807500Y-120607500D03*
X138600000Y-117750000D03*
X153985000Y-120162500D03*
X130800000Y-140700000D03*
X129300000Y-140700000D03*
X127300000Y-143145000D03*
X138800000Y-118350000D03*
X149600000Y-116100000D03*
X155307500Y-127607500D03*
X155707500Y-131707500D03*
X138800000Y-123350000D03*
D54*
X154518091Y-105818091D02*
X153500000Y-104800000D01*
X154518091Y-105936325D02*
X154518091Y-105818091D01*
X155818091Y-108481909D02*
X155500000Y-108800000D01*
X157063675Y-108481909D02*
X155818091Y-108481909D01*
X157063675Y-138436325D02*
X157500000Y-138000000D01*
X157063675Y-139518091D02*
X157063675Y-138436325D01*
X154336325Y-142063675D02*
X153400000Y-143000000D01*
X154518091Y-142063675D02*
X154336325Y-142063675D01*
X158081909Y-140536325D02*
X155536325Y-143081909D01*
X158750000Y-139868234D02*
X158081909Y-140536325D01*
X158750000Y-139050000D02*
X158750000Y-139868234D01*
D55*
X123100000Y-107450000D02*
X124850000Y-105700000D01*
X123100000Y-107900000D02*
X123100000Y-107450000D01*
X158150000Y-128507500D02*
X157883500Y-128507500D01*
X158150000Y-128507500D02*
X158150000Y-127500000D01*
X158150000Y-127500000D02*
X157057500Y-126407500D01*
X158307500Y-128507500D02*
X158150000Y-128507500D01*
X158357500Y-128557500D02*
X158307500Y-128507500D01*
X153900000Y-134590000D02*
X153907500Y-134597500D01*
X153900000Y-132780000D02*
X153900000Y-134590000D01*
D54*
X158957500Y-127407500D02*
X159100000Y-127550000D01*
X158957500Y-126407500D02*
X158957500Y-127407500D01*
X140192500Y-123907500D02*
X139600000Y-124500000D01*
X140507500Y-123907500D02*
X140192500Y-123907500D01*
X148835000Y-124920000D02*
X149100000Y-125185000D01*
X149100000Y-125185000D02*
X150430000Y-125185000D01*
X148050000Y-124920000D02*
X148835000Y-124920000D01*
D55*
X153557500Y-122892500D02*
X153910000Y-122540000D01*
X153557500Y-124955740D02*
X153557500Y-122892500D01*
X155001760Y-126400000D02*
X153557500Y-124955740D01*
X155200000Y-126400000D02*
X155001760Y-126400000D01*
X153910000Y-122540000D02*
X155300000Y-122540000D01*
X155207500Y-126407500D02*
X155200000Y-126400000D01*
X157057500Y-126407500D02*
X155207500Y-126407500D01*
X148500000Y-108890000D02*
X148500000Y-105030000D01*
X148600000Y-108990000D02*
X148500000Y-108890000D01*
D54*
X148550000Y-104980000D02*
X150300000Y-104980000D01*
D55*
X148500000Y-105030000D02*
X148550000Y-104980000D01*
D54*
X146700000Y-104980000D02*
X148550000Y-104980000D01*
X128525000Y-105055000D02*
X128650000Y-104930000D01*
X128525000Y-108475000D02*
X128525000Y-105055000D01*
X128450000Y-108550000D02*
X128525000Y-108475000D01*
X128650000Y-104930000D02*
X126725000Y-104930000D01*
X130325000Y-104930000D02*
X128650000Y-104930000D01*
X146247500Y-116907500D02*
X146247500Y-115502500D01*
X146247500Y-115502500D02*
X146500000Y-115250000D01*
X146647500Y-116252500D02*
X146647500Y-116907500D01*
X147230106Y-115751319D02*
X147148681Y-115751319D01*
X147148681Y-115751319D02*
X146647500Y-116252500D01*
X156620729Y-106279271D02*
X156420729Y-106279271D01*
X156620729Y-106279271D02*
X155347937Y-105006480D01*
X156420729Y-106279271D02*
X155850000Y-106850000D01*
X147830000Y-113600000D02*
X147830000Y-112380000D01*
X147830000Y-112380000D02*
X147800000Y-112350000D01*
X146870000Y-114330000D02*
X146750000Y-114450000D01*
X146870000Y-113600000D02*
X146870000Y-114330000D01*
X147830000Y-115740000D02*
X147830000Y-113600000D01*
X147847500Y-115757500D02*
X147830000Y-115740000D01*
X157893521Y-107552064D02*
X156620729Y-106279271D01*
X131200000Y-107350000D02*
X131200000Y-107400000D01*
X131000000Y-107150000D02*
X131200000Y-107350000D01*
X125950000Y-107000000D02*
X125700000Y-107250000D01*
X152150000Y-118050000D02*
X152330000Y-118050000D01*
X151650000Y-118550000D02*
X152150000Y-118050000D01*
X151650000Y-119285312D02*
X151650000Y-118550000D01*
X151331375Y-119603937D02*
X151650000Y-119285312D01*
X150887900Y-120047412D02*
X151331375Y-119603937D01*
X150887900Y-120145000D02*
X150887900Y-120047412D01*
X121355000Y-135150000D02*
X121350000Y-135145000D01*
X121355000Y-136435000D02*
X121355000Y-135150000D01*
X148590000Y-125900000D02*
X149200000Y-125900000D01*
X148570000Y-125880000D02*
X148590000Y-125900000D01*
X147251000Y-124551000D02*
X147251000Y-125200000D01*
X147047500Y-123782500D02*
X147047500Y-124347500D01*
X147047500Y-124347500D02*
X147251000Y-124551000D01*
X131750000Y-131125000D02*
X131750000Y-130700000D01*
X132425000Y-131800000D02*
X131750000Y-131125000D01*
X133500000Y-131800000D02*
X132425000Y-131800000D01*
D55*
X134625000Y-117875000D02*
X133725000Y-117875000D01*
X133725000Y-117875000D02*
X133500000Y-117650000D01*
D54*
X144500000Y-126750000D02*
X144750000Y-127000000D01*
X144500000Y-125987500D02*
X144500000Y-126750000D01*
X150430000Y-125185000D02*
X150430000Y-126070000D01*
X150430000Y-126070000D02*
X150350000Y-126150000D01*
X144600000Y-115500000D02*
X144650000Y-115500000D01*
X144400000Y-115700000D02*
X144600000Y-115500000D01*
X126501000Y-109199000D02*
X124125000Y-111575000D01*
X141166100Y-109199000D02*
X126501000Y-109199000D01*
X143848500Y-115750000D02*
X143848500Y-111881400D01*
X143847500Y-115751000D02*
X143848500Y-115750000D01*
X143848500Y-111881400D02*
X141166100Y-109199000D01*
X143847500Y-116907500D02*
X143847500Y-115751000D01*
X144247500Y-115852500D02*
X144400000Y-115700000D01*
X144247500Y-116907500D02*
X144247500Y-115852500D01*
X144247500Y-117497500D02*
X144250000Y-117500000D01*
X144247500Y-116907500D02*
X144247500Y-117497500D01*
D56*
X149550000Y-131105000D02*
X149507500Y-131147500D01*
X149550000Y-129750000D02*
X149550000Y-131105000D01*
X148550000Y-128750000D02*
X149550000Y-129750000D01*
D57*
X151807500Y-139847500D02*
X151450000Y-140205000D01*
X151807500Y-137447500D02*
X151807500Y-139847500D01*
X151450000Y-140205000D02*
X151450000Y-143550000D01*
D54*
X144247500Y-124775000D02*
X144500000Y-125027500D01*
X144247500Y-123782500D02*
X144247500Y-124775000D01*
X143447500Y-124484874D02*
X143446500Y-124485874D01*
X143447500Y-123782500D02*
X143447500Y-124484874D01*
X143446500Y-127603500D02*
X143446500Y-124485874D01*
X143100000Y-127950000D02*
X143446500Y-127603500D01*
X143100000Y-130800000D02*
X143100000Y-127950000D01*
X144800000Y-131000000D02*
X144000000Y-131800000D01*
X144800000Y-128350000D02*
X144800000Y-131000000D01*
X143847500Y-127397500D02*
X144800000Y-128350000D01*
X144000000Y-131800000D02*
X143100000Y-131800000D01*
X143847500Y-123782500D02*
X143847500Y-127397500D01*
X146247500Y-124497500D02*
X146247500Y-123782500D01*
X146651000Y-126533900D02*
X146651000Y-124901000D01*
X149348000Y-126648000D02*
X146765100Y-126648000D01*
X151400000Y-128700000D02*
X149348000Y-126648000D01*
X146651000Y-124901000D02*
X146247500Y-124497500D01*
X156664999Y-128700000D02*
X151400000Y-128700000D01*
X146765100Y-126648000D02*
X146651000Y-126533900D01*
X156857499Y-128507500D02*
X156664999Y-128700000D01*
X126400000Y-106550000D02*
X125950000Y-107000000D01*
X127300000Y-106550000D02*
X126400000Y-106550000D01*
X130400000Y-106550000D02*
X131000000Y-107150000D01*
X129750000Y-106550000D02*
X130400000Y-106550000D01*
X145447500Y-124317774D02*
X145446500Y-124318774D01*
X145447500Y-123782500D02*
X145447500Y-124317774D01*
X149116100Y-127049000D02*
X146599000Y-127049000D01*
X145446500Y-125896500D02*
X145446500Y-124318774D01*
X151424600Y-129357500D02*
X149116100Y-127049000D01*
X156257500Y-129357500D02*
X151424600Y-129357500D01*
X146599000Y-127049000D02*
X145446500Y-125896500D01*
X145847500Y-123782500D02*
X145847500Y-125197500D01*
X145847500Y-125197500D02*
X146050000Y-125400000D01*
X146150000Y-127450000D02*
X146000000Y-127300000D01*
X148150000Y-127450000D02*
X146150000Y-127450000D01*
X148950000Y-127450000D02*
X148150000Y-127450000D01*
X150200000Y-128700000D02*
X148950000Y-127450000D01*
X151357500Y-129857500D02*
X150200000Y-128700000D01*
X156257500Y-129857500D02*
X151357500Y-129857500D01*
X142647500Y-113147500D02*
X142647500Y-116907500D01*
X140300000Y-110800000D02*
X142647500Y-113147500D01*
X134300000Y-110800000D02*
X140300000Y-110800000D01*
X132650000Y-117800000D02*
X132650000Y-117100000D01*
X133825000Y-118975000D02*
X132650000Y-117800000D01*
X134625000Y-118975000D02*
X133825000Y-118975000D01*
X133825000Y-116775000D02*
X134625000Y-116775000D01*
X132650003Y-112700000D02*
X132650003Y-115600003D01*
X133947530Y-110001000D02*
X133273623Y-110674907D01*
X141600000Y-110800000D02*
X140801000Y-110001000D01*
X140801000Y-110001000D02*
X135250000Y-110001000D01*
X143047500Y-112247500D02*
X141600000Y-110800000D01*
X132650003Y-115600003D02*
X133825000Y-116775000D01*
X143047500Y-116907500D02*
X143047500Y-112247500D01*
X135250000Y-110001000D02*
X133947530Y-110001000D01*
X143447500Y-112047500D02*
X143447500Y-116907500D01*
X141000000Y-109600000D02*
X143447500Y-112047500D01*
X133500000Y-109600000D02*
X141000000Y-109600000D01*
X132400000Y-110700000D02*
X133500000Y-109600000D01*
X131850000Y-118100000D02*
X131850000Y-112700000D01*
X133825000Y-120075000D02*
X131850000Y-118100000D01*
X134625000Y-120075000D02*
X133825000Y-120075000D01*
X141700000Y-117635000D02*
X141810000Y-117745000D01*
X140449000Y-113199000D02*
X141700000Y-114450000D01*
X141700000Y-114450000D02*
X141700000Y-117635000D01*
X136901000Y-113199000D02*
X140449000Y-113199000D01*
X134625000Y-114575000D02*
X135525000Y-114575000D01*
X135525000Y-114575000D02*
X136901000Y-113199000D01*
X139891183Y-121097500D02*
X139843683Y-121145000D01*
X140407500Y-121097500D02*
X139891183Y-121097500D01*
X140600000Y-120144000D02*
X140294000Y-120144000D01*
X140601000Y-120145000D02*
X140600000Y-120144000D01*
X139100000Y-118950000D02*
X138010000Y-118950000D01*
X141810000Y-120145000D02*
X140601000Y-120145000D01*
X140294000Y-120144000D02*
X139100000Y-118950000D01*
X140150000Y-119121368D02*
X140773632Y-119745000D01*
X140150000Y-118280000D02*
X140150000Y-119121368D01*
X140773632Y-119745000D02*
X141810000Y-119745000D01*
X140380000Y-118050000D02*
X140150000Y-118280000D01*
X141223575Y-119345000D02*
X140872500Y-118993925D01*
X141810000Y-119345000D02*
X141223575Y-119345000D01*
X139147500Y-120097500D02*
X138830000Y-120097500D01*
X139600000Y-120550000D02*
X139147500Y-120097500D01*
X139605000Y-120545000D02*
X139600000Y-120550000D01*
X141810000Y-120545000D02*
X139605000Y-120545000D01*
X140407500Y-121097500D02*
X138830000Y-121097500D01*
X140560000Y-120945000D02*
X140407500Y-121097500D01*
X141810000Y-120945000D02*
X140560000Y-120945000D01*
X136250000Y-121950000D02*
X136300000Y-122000000D01*
X136250000Y-121030000D02*
X136250000Y-121950000D01*
D55*
X136250000Y-119850000D02*
X136250000Y-120070000D01*
X135950000Y-119550000D02*
X136250000Y-119850000D01*
D54*
X147800000Y-122000000D02*
X147550000Y-121750000D01*
X137897500Y-121097500D02*
X137850000Y-121050000D01*
X137870000Y-121097500D02*
X137147500Y-121097500D01*
X137907500Y-120097500D02*
X137860000Y-120050000D01*
X137870000Y-120097500D02*
X137157500Y-120097500D01*
X147945000Y-122145000D02*
X147800000Y-122000000D01*
X148685000Y-122145000D02*
X147945000Y-122145000D01*
X148095000Y-120945000D02*
X147900000Y-120750000D01*
X148685000Y-120945000D02*
X148095000Y-120945000D01*
X147945000Y-120545000D02*
X147900000Y-120500000D01*
X148685000Y-120545000D02*
X147945000Y-120545000D01*
X147847500Y-117752500D02*
X147800000Y-117800000D01*
X147847500Y-116907500D02*
X147847500Y-117752500D01*
X142495000Y-120545000D02*
X142500000Y-120550000D01*
X141810000Y-120545000D02*
X142495000Y-120545000D01*
X144247500Y-122747500D02*
X144200000Y-122700000D01*
X147847500Y-123782500D02*
X147847500Y-122747500D01*
X147847500Y-122747500D02*
X147700000Y-122600000D01*
X148045000Y-122945000D02*
X147700000Y-122600000D01*
X148685000Y-122945000D02*
X148045000Y-122945000D01*
X147755000Y-122545000D02*
X147700000Y-122600000D01*
X148685000Y-122545000D02*
X147755000Y-122545000D01*
X148685000Y-120545000D02*
X148685000Y-120945000D01*
X143047500Y-124317774D02*
X143047500Y-123782500D01*
X142565274Y-124800000D02*
X143047500Y-124317774D01*
X142550000Y-124800000D02*
X142565274Y-124800000D01*
X125355000Y-135350000D02*
X125350000Y-135345000D01*
X125355000Y-136435000D02*
X125355000Y-135350000D01*
X142067500Y-123782500D02*
X141850000Y-124000000D01*
X142647500Y-123782500D02*
X142067500Y-123782500D01*
X136300000Y-128450000D02*
X136450000Y-128300000D01*
X136300000Y-130000000D02*
X136300000Y-128450000D01*
X126388000Y-127112000D02*
X125250000Y-128250000D01*
X125250000Y-128250000D02*
X125250000Y-129250000D01*
X140407500Y-122297500D02*
X137669600Y-122297500D01*
X140960000Y-121745000D02*
X140407500Y-122297500D01*
X137669600Y-122297500D02*
X132855100Y-127112000D01*
X132855100Y-127112000D02*
X126388000Y-127112000D01*
X141810000Y-121745000D02*
X140960000Y-121745000D01*
X132689000Y-126711000D02*
X122709000Y-126711000D01*
X122709000Y-126711000D02*
X120170000Y-129250000D01*
X140307500Y-121797500D02*
X137602500Y-121797500D01*
X140760000Y-121345000D02*
X140307500Y-121797500D01*
X137602500Y-121797500D02*
X132689000Y-126711000D01*
X141810000Y-121345000D02*
X140760000Y-121345000D01*
X140270000Y-106037100D02*
X145447500Y-111214600D01*
X140270000Y-105100000D02*
X140270000Y-106037100D01*
X145447500Y-111214600D02*
X145447500Y-116907500D01*
X142810000Y-108010000D02*
X142810000Y-105100000D01*
X145847500Y-111047500D02*
X142810000Y-108010000D01*
X145847500Y-116907500D02*
X145847500Y-111047500D01*
X147847500Y-116907500D02*
X147847500Y-115757500D01*
X136770000Y-107400000D02*
X135850000Y-107400000D01*
X137730000Y-105100000D02*
X137730000Y-107400000D01*
X150500000Y-106600000D02*
X151100000Y-107200000D01*
X149725000Y-106600000D02*
X150500000Y-106600000D01*
X146650000Y-106600000D02*
X146000000Y-107250000D01*
X147275000Y-106600000D02*
X146650000Y-106600000D01*
X140045000Y-123350000D02*
X140507500Y-122887500D01*
X138800000Y-123350000D02*
X140045000Y-123350000D01*
X151800000Y-128050000D02*
X151600000Y-127850000D01*
X152470000Y-128050000D02*
X151800000Y-128050000D01*
X154071500Y-127408500D02*
X153430000Y-128050000D01*
X154361400Y-127408500D02*
X154071500Y-127408500D01*
X146650000Y-128750000D02*
X145750000Y-128750000D01*
X153900000Y-131820000D02*
X153900000Y-130750000D01*
X119975000Y-112875000D02*
X120050000Y-112950000D01*
X119975000Y-111575000D02*
X119975000Y-112875000D01*
X130325000Y-112025000D02*
X130900000Y-112600000D01*
X130325000Y-111575000D02*
X130325000Y-112025000D01*
X135925000Y-115675000D02*
X136050000Y-115800000D01*
X134625000Y-115675000D02*
X135925000Y-115675000D01*
X134625000Y-123425000D02*
X133950000Y-124100000D01*
X134625000Y-122725000D02*
X134625000Y-123425000D01*
X119525000Y-126675000D02*
X119700000Y-126850000D01*
X119525000Y-125075000D02*
X119525000Y-126675000D01*
X132000000Y-140800000D02*
X131900000Y-140800000D01*
X132000000Y-142950000D02*
X131950000Y-142950000D01*
X144750000Y-142950000D02*
X144800000Y-142900000D01*
X143100000Y-142950000D02*
X144750000Y-142950000D01*
X143100000Y-141800000D02*
X144800000Y-141800000D01*
X143100000Y-139800000D02*
X143100000Y-140800000D01*
X143100000Y-138800000D02*
X144850000Y-138800000D01*
X143100000Y-137800000D02*
X144850000Y-137800000D01*
X143100000Y-135800000D02*
X144850000Y-135800000D01*
X143100000Y-134800000D02*
X144850000Y-134800000D01*
X140900000Y-130000000D02*
X141450000Y-129450000D01*
X140300000Y-130000000D02*
X140900000Y-130000000D01*
X133500000Y-133800000D02*
X131800000Y-133800000D01*
X133500000Y-134800000D02*
X131800000Y-134800000D01*
X133500000Y-142950000D02*
X132000000Y-142950000D01*
X133500000Y-141800000D02*
X131950000Y-141800000D01*
X133500000Y-140800000D02*
X132000000Y-140800000D01*
X131950000Y-139800000D02*
X131900000Y-139850000D01*
X133500000Y-139800000D02*
X131950000Y-139800000D01*
X145750000Y-141500000D02*
X145850000Y-141600000D01*
X145750000Y-140930000D02*
X145750000Y-141500000D01*
X145750000Y-134300000D02*
X145750000Y-139970000D01*
X145250000Y-133800000D02*
X145750000Y-134300000D01*
X143100000Y-133800000D02*
X145250000Y-133800000D01*
X158065000Y-112665000D02*
X157187500Y-112665000D01*
X158801000Y-113401000D02*
X158065000Y-112665000D01*
X158801000Y-115666100D02*
X158801000Y-113401000D01*
X158199000Y-116268100D02*
X158801000Y-115666100D01*
X152233200Y-116268100D02*
X158199000Y-116268100D01*
X151235550Y-117265750D02*
X152233200Y-116268100D01*
X151235550Y-118714450D02*
X151235550Y-117265750D01*
X150205000Y-119745000D02*
X151235550Y-118714450D01*
X148685000Y-119745000D02*
X150205000Y-119745000D01*
D55*
X152255000Y-123155000D02*
X152300000Y-123200000D01*
X151390000Y-123155000D02*
X152255000Y-123155000D01*
X152265000Y-124185000D02*
X152300000Y-124150000D01*
X151390000Y-124185000D02*
X152265000Y-124185000D01*
X152315000Y-125185000D02*
X152400000Y-125100000D01*
X151390000Y-125185000D02*
X152315000Y-125185000D01*
X151702500Y-125897500D02*
X151450000Y-126150000D01*
X152407500Y-125897500D02*
X151702500Y-125897500D01*
X135950000Y-118548000D02*
X135950000Y-119550000D01*
X135277000Y-117875000D02*
X135950000Y-118548000D01*
X134625000Y-117875000D02*
X135277000Y-117875000D01*
X158980000Y-111180000D02*
X159100000Y-111300000D01*
X158980000Y-110100000D02*
X158980000Y-111180000D01*
X158020000Y-110562500D02*
X157187500Y-111395000D01*
X158020000Y-110100000D02*
X158020000Y-110562500D01*
X148627500Y-110010000D02*
X150012500Y-111395000D01*
X148600000Y-110010000D02*
X148627500Y-110010000D01*
X149800000Y-111182500D02*
X150012500Y-111395000D01*
X149800000Y-110010000D02*
X149800000Y-111182500D01*
D54*
X151055000Y-120545000D02*
X148685000Y-120545000D01*
X151400000Y-120200000D02*
X151055000Y-120545000D01*
X152320000Y-120200000D02*
X151400000Y-120200000D01*
X152320000Y-119180000D02*
X152320000Y-120200000D01*
X152310000Y-119170000D02*
X152320000Y-119180000D01*
X152330000Y-118150000D02*
X152250000Y-118150000D01*
X148685000Y-120145000D02*
X150887900Y-120145000D01*
X157999999Y-113935000D02*
X157187500Y-113935000D01*
X158400000Y-114335001D02*
X157999999Y-113935000D01*
X158032900Y-115867100D02*
X158400000Y-115500000D01*
X150834550Y-117099650D02*
X152067100Y-115867100D01*
X152067100Y-115867100D02*
X158032900Y-115867100D01*
X150834550Y-118511250D02*
X150834550Y-117099650D01*
X158400000Y-115500000D02*
X158400000Y-114335001D01*
X150000800Y-119345000D02*
X150834550Y-118511250D01*
X148685000Y-119345000D02*
X150000800Y-119345000D01*
D55*
X151200000Y-122100000D02*
X150946000Y-121846000D01*
X151790000Y-122100000D02*
X151200000Y-122100000D01*
X150946000Y-121846000D02*
X150040000Y-121846000D01*
X151056000Y-121244000D02*
X150110000Y-121244000D01*
X151215000Y-121085000D02*
X151056000Y-121244000D01*
X151790000Y-121085000D02*
X151215000Y-121085000D01*
X153020000Y-121890000D02*
X152810000Y-122100000D01*
X155347500Y-121890000D02*
X153020000Y-121890000D01*
X152965000Y-121240000D02*
X155347500Y-121240000D01*
X152810000Y-121085000D02*
X152965000Y-121240000D01*
D54*
X150433550Y-116933550D02*
X152162100Y-115205000D01*
X152162100Y-115205000D02*
X157187500Y-115205000D01*
X150433550Y-118345150D02*
X150433550Y-116933550D01*
X149833700Y-118945000D02*
X150433550Y-118345150D01*
X148685000Y-118945000D02*
X149833700Y-118945000D01*
X149810010Y-112665000D02*
X150012500Y-112665000D01*
X148899000Y-116899000D02*
X148899000Y-113576010D01*
X148899000Y-113576010D02*
X149810010Y-112665000D01*
X149600000Y-117900000D02*
X149600000Y-117600000D01*
X149355000Y-118145000D02*
X149600000Y-117900000D01*
X148685000Y-118145000D02*
X149355000Y-118145000D01*
X149600000Y-117600000D02*
X148899000Y-116899000D01*
X150032550Y-116767450D02*
X150150000Y-116650000D01*
X150032550Y-118179050D02*
X150032550Y-116767450D01*
X151400000Y-115400000D02*
X150150000Y-116650000D01*
X149666600Y-118545000D02*
X150032550Y-118179050D01*
X148685000Y-118545000D02*
X149666600Y-118545000D01*
X137600000Y-114800000D02*
X137700000Y-114800000D01*
D55*
X153947500Y-120200000D02*
X153985000Y-120162500D01*
D54*
X127155000Y-140585000D02*
X127155000Y-143000000D01*
D55*
X153280000Y-120200000D02*
X153947500Y-120200000D01*
D54*
X119100000Y-143345000D02*
X119200000Y-143245000D01*
D55*
X156575000Y-119940000D02*
X156607500Y-119907500D01*
D54*
X156857499Y-130707500D02*
X156307500Y-130707500D01*
X139600000Y-116500000D02*
X138800000Y-115700000D01*
X150012500Y-115205000D02*
X150012500Y-115687500D01*
D57*
X149550000Y-143550000D02*
X148300000Y-143550000D01*
D54*
X139420000Y-118050000D02*
X139100000Y-118050000D01*
D55*
X153290000Y-118150000D02*
X153972500Y-118150000D01*
X158497500Y-122200000D02*
X156800000Y-122200000D01*
D54*
X129400000Y-140600000D02*
X129300000Y-140700000D01*
D55*
X156800000Y-122200000D02*
X156707500Y-122107500D01*
D54*
X139100000Y-118050000D02*
X138800000Y-118350000D01*
D55*
X155347500Y-119940000D02*
X156575000Y-119940000D01*
X153270000Y-119170000D02*
X153977500Y-119170000D01*
D57*
X147207500Y-137447500D02*
X147207500Y-139197500D01*
D54*
X130800000Y-139680000D02*
X130800000Y-140700000D01*
X119555000Y-142890000D02*
X119100000Y-143345000D01*
X137980000Y-117950000D02*
X138400000Y-117950000D01*
D55*
X153972500Y-118150000D02*
X153985000Y-118162500D01*
D54*
X137700000Y-114800000D02*
X138700000Y-113800000D01*
D55*
X158497500Y-120280000D02*
X157135000Y-120280000D01*
D54*
X138400000Y-117950000D02*
X138600000Y-117750000D01*
X150012500Y-115687500D02*
X149600000Y-116100000D01*
X127155000Y-143000000D02*
X127300000Y-143145000D01*
X119555000Y-140585000D02*
X119555000Y-142890000D01*
D55*
X153977500Y-119170000D02*
X153985000Y-119162500D01*
D54*
X148050000Y-125880000D02*
X148570000Y-125880000D01*
X123355000Y-135390000D02*
X123400000Y-135345000D01*
X129400000Y-139375000D02*
X129400000Y-140600000D01*
X123355000Y-136435000D02*
X123355000Y-135390000D01*
D55*
X157135000Y-120280000D02*
X156807500Y-120607500D01*
D54*
X139800000Y-116500000D02*
X139600000Y-116500000D01*
X139800000Y-114800000D02*
X140801000Y-115801000D01*
X140801000Y-115801000D02*
X140801000Y-117629000D01*
X140801000Y-117629000D02*
X140380000Y-118050000D01*
X148685000Y-122145000D02*
X149222500Y-122145000D01*
X150232500Y-123155000D02*
X150430000Y-123155000D01*
X149222500Y-122145000D02*
X150232500Y-123155000D01*
X148500000Y-117200000D02*
X148498000Y-117198000D01*
X148685000Y-117745000D02*
X148500000Y-117560000D01*
X148500000Y-117560000D02*
X148500000Y-117200000D01*
X149200001Y-111395000D02*
X150012500Y-111395000D01*
X148498000Y-112097001D02*
X149200001Y-111395000D01*
X148498000Y-117198000D02*
X148498000Y-112097001D01*
X148685000Y-121345000D02*
X150110000Y-121345000D01*
X148685000Y-121745000D02*
X150040000Y-121745000D01*
X151400000Y-115100000D02*
X151400000Y-115400000D01*
X150012500Y-113935000D02*
X150235000Y-113935000D01*
X150235000Y-113935000D02*
X151400000Y-115100000D01*
X136990000Y-117980000D02*
X137020000Y-117950000D01*
X137020000Y-117950000D02*
X137020000Y-117080000D01*
X136990000Y-118950000D02*
X136990000Y-117980000D01*
X137020000Y-117080000D02*
X137600000Y-116500000D01*
X149442500Y-124185000D02*
X150430000Y-124185000D01*
X130800000Y-138720000D02*
X133420000Y-138720000D01*
X129400000Y-137825000D02*
X133475000Y-137825000D01*
X149082500Y-125185000D02*
X149100000Y-125185000D01*
X133475000Y-137825000D02*
X133500000Y-137800000D01*
X148685000Y-124787500D02*
X149082500Y-125185000D01*
X147847500Y-124967500D02*
X147907500Y-125027500D01*
X133420000Y-138720000D02*
X133500000Y-138800000D01*
X147847500Y-123782500D02*
X147847500Y-124967500D01*
X149132500Y-123875000D02*
X149442500Y-124185000D01*
D57*
X158107500Y-132206500D02*
X158107500Y-130707500D01*
X157707500Y-132606500D02*
X158107500Y-132206500D01*
X155898500Y-132606500D02*
X153907500Y-134597500D01*
X157707500Y-132606500D02*
X155898500Y-132606500D01*
D54*
X155707500Y-131707500D02*
X155907500Y-131907500D01*
X153870400Y-126917500D02*
X154361400Y-127408500D01*
X156834499Y-131907500D02*
X157357500Y-131384499D01*
X155907500Y-131907500D02*
X156834499Y-131907500D01*
X153417500Y-126917500D02*
X153870400Y-126917500D01*
X157357500Y-131384499D02*
X157357500Y-130707500D01*
X154708500Y-127408500D02*
X155108500Y-127408500D01*
X155108500Y-127408500D02*
X155307500Y-127607500D01*
X154361400Y-127408500D02*
X154708500Y-127408500D01*
D57*
X159306500Y-130306500D02*
X159306500Y-132508500D01*
X158957500Y-129857500D02*
X158957500Y-129957500D01*
X158957500Y-129857500D02*
X158957500Y-129357500D01*
X158957500Y-129957500D02*
X159306500Y-130306500D01*
X158415841Y-134715000D02*
X155683341Y-137447500D01*
X155683341Y-137447500D02*
X151807500Y-137447500D01*
X158415841Y-133399159D02*
X158415841Y-134715000D01*
X159306500Y-132508500D02*
X158415841Y-133399159D01*
D54*
X153417500Y-125907500D02*
X152407500Y-126917500D01*
X153417500Y-125897500D02*
X154527500Y-127007500D01*
X156533500Y-127433500D02*
X156933500Y-127433500D01*
X157357500Y-128507500D02*
X157357500Y-127857500D01*
X157357500Y-127857500D02*
X156933500Y-127433500D01*
X154527500Y-127007500D02*
X156107500Y-127007500D01*
X157357500Y-127830501D02*
X157357500Y-128507500D01*
X156107500Y-127007500D02*
X156533500Y-127433500D01*
D55*
X155347500Y-122540000D02*
X154437500Y-122540000D01*
D54*
X141810000Y-122145000D02*
X141250000Y-122145000D01*
X141250000Y-122145000D02*
X140507500Y-122887500D01*
X149132500Y-122992500D02*
X149132500Y-123875000D01*
X148685000Y-122945000D02*
X148685000Y-124787500D01*
X148685000Y-122545000D02*
X149132500Y-122992500D01*
X144247500Y-123782500D02*
X144247500Y-122747500D01*
G04 #@! TA.AperFunction,Conductor*
G36*
X131965096Y-109819185D02*
G01*
X132010851Y-109871989D01*
X132020795Y-109941147D01*
X131991770Y-110004703D01*
X131966948Y-110026602D01*
X131889711Y-110078210D01*
X131889707Y-110078213D01*
X131778213Y-110189707D01*
X131778210Y-110189711D01*
X131690609Y-110320814D01*
X131690602Y-110320827D01*
X131630264Y-110466498D01*
X131630261Y-110466510D01*
X131599500Y-110621153D01*
X131599500Y-110769344D01*
X131579815Y-110836383D01*
X131527011Y-110882138D01*
X131457853Y-110892082D01*
X131394297Y-110863057D01*
X131374996Y-110839106D01*
X131374112Y-110839769D01*
X131282547Y-110717455D01*
X131282544Y-110717452D01*
X131167335Y-110631206D01*
X131167328Y-110631202D01*
X131032482Y-110580908D01*
X131032483Y-110580908D01*
X130972883Y-110574501D01*
X130972881Y-110574500D01*
X130972873Y-110574500D01*
X130972864Y-110574500D01*
X129677129Y-110574500D01*
X129677123Y-110574501D01*
X129617516Y-110580908D01*
X129482671Y-110631202D01*
X129482664Y-110631206D01*
X129367455Y-110717452D01*
X129367452Y-110717455D01*
X129281206Y-110832664D01*
X129281202Y-110832671D01*
X129230908Y-110967517D01*
X129224501Y-111027116D01*
X129224501Y-111027123D01*
X129224500Y-111027135D01*
X129224500Y-111051000D01*
X129204815Y-111118039D01*
X129152011Y-111163794D01*
X129100500Y-111175000D01*
X126125000Y-111175000D01*
X126125000Y-111925000D01*
X129100501Y-111925000D01*
X129167540Y-111944685D01*
X129213295Y-111997489D01*
X129224501Y-112049000D01*
X129224501Y-112122876D01*
X129230908Y-112182483D01*
X129281202Y-112317328D01*
X129281206Y-112317335D01*
X129367452Y-112432544D01*
X129367455Y-112432547D01*
X129482664Y-112518793D01*
X129482671Y-112518797D01*
X129527618Y-112535561D01*
X129617517Y-112569091D01*
X129677127Y-112575500D01*
X129974902Y-112575499D01*
X130004348Y-112584145D01*
X130034329Y-112590667D01*
X130039342Y-112594419D01*
X130041941Y-112595183D01*
X130062583Y-112611818D01*
X130065425Y-112614660D01*
X130098910Y-112675983D01*
X130099361Y-112678149D01*
X130130261Y-112833491D01*
X130130264Y-112833501D01*
X130190602Y-112979172D01*
X130190609Y-112979185D01*
X130278210Y-113110288D01*
X130278213Y-113110292D01*
X130389707Y-113221786D01*
X130389711Y-113221789D01*
X130520814Y-113309390D01*
X130520827Y-113309397D01*
X130655815Y-113365310D01*
X130666503Y-113369737D01*
X130799717Y-113396235D01*
X130821153Y-113400499D01*
X130821156Y-113400500D01*
X130821158Y-113400500D01*
X130978844Y-113400500D01*
X131101308Y-113376140D01*
X131170900Y-113382367D01*
X131226077Y-113425230D01*
X131249322Y-113491120D01*
X131249500Y-113497757D01*
X131249500Y-118013330D01*
X131249499Y-118013348D01*
X131249499Y-118179054D01*
X131249498Y-118179054D01*
X131290424Y-118331789D01*
X131290425Y-118331790D01*
X131316403Y-118376784D01*
X131316404Y-118376785D01*
X131355999Y-118445366D01*
X131369479Y-118468714D01*
X131369481Y-118468717D01*
X131488349Y-118587585D01*
X131488354Y-118587589D01*
X133456284Y-120555520D01*
X133456285Y-120555521D01*
X133456287Y-120555522D01*
X133476563Y-120567228D01*
X133524780Y-120617794D01*
X133538004Y-120686401D01*
X133532590Y-120709940D01*
X133532693Y-120709965D01*
X133530908Y-120717516D01*
X133524501Y-120777116D01*
X133524500Y-120777135D01*
X133524500Y-121572870D01*
X133524501Y-121572876D01*
X133530908Y-121632483D01*
X133581202Y-121767328D01*
X133581203Y-121767330D01*
X133606176Y-121800690D01*
X133630592Y-121866155D01*
X133615740Y-121934428D01*
X133606176Y-121949310D01*
X133581203Y-121982669D01*
X133581202Y-121982671D01*
X133530908Y-122117517D01*
X133524501Y-122177116D01*
X133524500Y-122177135D01*
X133524500Y-123272870D01*
X133524501Y-123272879D01*
X133531388Y-123336947D01*
X133518981Y-123405706D01*
X133476993Y-123453299D01*
X133439705Y-123478215D01*
X133439704Y-123478217D01*
X133328213Y-123589707D01*
X133328210Y-123589711D01*
X133240609Y-123720814D01*
X133240602Y-123720827D01*
X133180264Y-123866498D01*
X133180261Y-123866510D01*
X133149500Y-124021153D01*
X133149500Y-124178846D01*
X133180261Y-124333489D01*
X133180264Y-124333501D01*
X133240602Y-124479172D01*
X133240609Y-124479185D01*
X133328210Y-124610288D01*
X133328213Y-124610292D01*
X133439707Y-124721786D01*
X133439711Y-124721789D01*
X133547427Y-124793763D01*
X133592232Y-124847375D01*
X133600939Y-124916700D01*
X133570785Y-124979728D01*
X133566217Y-124984546D01*
X132476584Y-126074181D01*
X132415261Y-126107666D01*
X132388903Y-126110500D01*
X122788057Y-126110500D01*
X122629942Y-126110500D01*
X122477215Y-126151423D01*
X122445495Y-126169737D01*
X122392889Y-126200108D01*
X122340285Y-126230479D01*
X122340282Y-126230481D01*
X122228478Y-126342286D01*
X120654522Y-127916241D01*
X120593199Y-127949726D01*
X120528523Y-127946491D01*
X120486245Y-127932754D01*
X120333180Y-127908511D01*
X120276287Y-127899500D01*
X120063713Y-127899500D01*
X120015042Y-127907208D01*
X119853760Y-127932753D01*
X119651585Y-127998444D01*
X119462179Y-128094951D01*
X119290213Y-128219890D01*
X119139890Y-128370213D01*
X119014951Y-128542179D01*
X118918444Y-128731585D01*
X118852753Y-128933760D01*
X118819500Y-129143713D01*
X118819500Y-129356286D01*
X118846830Y-129528844D01*
X118852754Y-129566243D01*
X118916503Y-129762442D01*
X118918444Y-129768414D01*
X119014951Y-129957820D01*
X119139890Y-130129786D01*
X119290213Y-130280109D01*
X119462179Y-130405048D01*
X119462181Y-130405049D01*
X119462184Y-130405051D01*
X119651588Y-130501557D01*
X119853757Y-130567246D01*
X120063713Y-130600500D01*
X120063714Y-130600500D01*
X120276286Y-130600500D01*
X120276287Y-130600500D01*
X120486243Y-130567246D01*
X120688412Y-130501557D01*
X120877816Y-130405051D01*
X120964138Y-130342335D01*
X121049786Y-130280109D01*
X121049788Y-130280106D01*
X121049792Y-130280104D01*
X121200104Y-130129792D01*
X121200106Y-130129788D01*
X121200109Y-130129786D01*
X121325048Y-129957820D01*
X121325047Y-129957820D01*
X121325051Y-129957816D01*
X121329514Y-129949054D01*
X121377488Y-129898259D01*
X121445308Y-129881463D01*
X121511444Y-129903999D01*
X121550484Y-129949054D01*
X121553863Y-129955685D01*
X121554951Y-129957820D01*
X121679890Y-130129786D01*
X121830213Y-130280109D01*
X122002179Y-130405048D01*
X122002181Y-130405049D01*
X122002184Y-130405051D01*
X122191588Y-130501557D01*
X122393757Y-130567246D01*
X122603713Y-130600500D01*
X122603714Y-130600500D01*
X122816286Y-130600500D01*
X122816287Y-130600500D01*
X123026243Y-130567246D01*
X123228412Y-130501557D01*
X123417816Y-130405051D01*
X123533741Y-130320827D01*
X123589784Y-130280110D01*
X123589784Y-130280109D01*
X123589792Y-130280104D01*
X123703329Y-130166566D01*
X123764648Y-130133084D01*
X123834340Y-130138068D01*
X123890274Y-130179939D01*
X123907189Y-130210917D01*
X123956202Y-130342328D01*
X123956206Y-130342335D01*
X124042452Y-130457544D01*
X124042455Y-130457547D01*
X124157664Y-130543793D01*
X124157671Y-130543797D01*
X124292517Y-130594091D01*
X124292516Y-130594091D01*
X124299444Y-130594835D01*
X124352127Y-130600500D01*
X126147872Y-130600499D01*
X126207483Y-130594091D01*
X126342331Y-130543796D01*
X126457546Y-130457546D01*
X126543796Y-130342331D01*
X126594091Y-130207483D01*
X126600500Y-130147873D01*
X126600499Y-128352128D01*
X126594091Y-128292517D01*
X126592810Y-128289083D01*
X126543797Y-128157671D01*
X126543793Y-128157664D01*
X126463569Y-128050500D01*
X126457546Y-128042454D01*
X126457544Y-128042453D01*
X126457392Y-128042249D01*
X126457390Y-128042247D01*
X126436664Y-127986676D01*
X126432974Y-127976784D01*
X126436777Y-127959303D01*
X126442386Y-127933516D01*
X126447825Y-127908511D01*
X126454285Y-127899882D01*
X126468969Y-127880264D01*
X126600417Y-127748816D01*
X126661740Y-127715334D01*
X126688097Y-127712500D01*
X132768431Y-127712500D01*
X132768447Y-127712501D01*
X132776043Y-127712501D01*
X132934154Y-127712501D01*
X132934157Y-127712501D01*
X133086885Y-127671577D01*
X133141084Y-127640285D01*
X133223816Y-127592520D01*
X133335620Y-127480716D01*
X133335620Y-127480714D01*
X133345824Y-127470511D01*
X133345827Y-127470506D01*
X137824103Y-122992231D01*
X137885424Y-122958748D01*
X137955116Y-122963732D01*
X138011049Y-123005604D01*
X138035466Y-123071068D01*
X138031055Y-123110449D01*
X138031451Y-123110528D01*
X138030526Y-123115176D01*
X138030445Y-123115903D01*
X138030261Y-123116508D01*
X137999500Y-123271153D01*
X137999500Y-123428846D01*
X138030261Y-123583489D01*
X138030264Y-123583501D01*
X138090602Y-123729172D01*
X138090609Y-123729185D01*
X138178210Y-123860288D01*
X138178213Y-123860292D01*
X138289707Y-123971786D01*
X138289711Y-123971789D01*
X138420814Y-124059390D01*
X138420827Y-124059397D01*
X138566498Y-124119735D01*
X138566503Y-124119737D01*
X138721153Y-124150499D01*
X138721156Y-124150500D01*
X138721158Y-124150500D01*
X138878844Y-124150500D01*
X138878845Y-124150499D01*
X139033497Y-124119737D01*
X139179179Y-124059394D01*
X139211214Y-124037989D01*
X139310875Y-123971398D01*
X139328921Y-123965747D01*
X139344831Y-123955523D01*
X139375792Y-123951071D01*
X139377553Y-123950520D01*
X139379766Y-123950500D01*
X139563500Y-123950500D01*
X139630539Y-123970185D01*
X139676294Y-124022989D01*
X139687500Y-124074500D01*
X139687500Y-124106635D01*
X139690332Y-124142623D01*
X139690333Y-124142629D01*
X139735092Y-124296688D01*
X139735093Y-124296691D01*
X139816761Y-124434785D01*
X139816768Y-124434794D01*
X139930205Y-124548231D01*
X139930214Y-124548238D01*
X140068308Y-124629906D01*
X140068311Y-124629907D01*
X140222371Y-124674666D01*
X140222377Y-124674667D01*
X140257500Y-124677431D01*
X140257500Y-124031500D01*
X140277185Y-123964461D01*
X140329989Y-123918706D01*
X140381500Y-123907500D01*
X140633500Y-123907500D01*
X140700539Y-123927185D01*
X140746294Y-123979989D01*
X140757500Y-124031500D01*
X140757500Y-124677430D01*
X140792622Y-124674667D01*
X140792628Y-124674666D01*
X140946688Y-124629907D01*
X140946691Y-124629906D01*
X141084783Y-124548239D01*
X141084792Y-124548232D01*
X141087792Y-124545233D01*
X141090721Y-124543633D01*
X141090950Y-124543456D01*
X141090978Y-124543492D01*
X141149115Y-124511748D01*
X141218807Y-124516732D01*
X141263154Y-124545233D01*
X141339707Y-124621786D01*
X141339711Y-124621789D01*
X141470814Y-124709390D01*
X141470827Y-124709397D01*
X141558230Y-124745599D01*
X141616503Y-124769737D01*
X141626990Y-124771823D01*
X141651120Y-124776623D01*
X141713031Y-124809008D01*
X141747605Y-124869724D01*
X141748545Y-124874048D01*
X141780261Y-125033491D01*
X141780264Y-125033501D01*
X141840602Y-125179172D01*
X141840609Y-125179185D01*
X141928210Y-125310288D01*
X141928213Y-125310292D01*
X142039707Y-125421786D01*
X142039711Y-125421789D01*
X142170814Y-125509390D01*
X142170827Y-125509397D01*
X142316498Y-125569735D01*
X142316503Y-125569737D01*
X142471153Y-125600499D01*
X142471156Y-125600500D01*
X142471158Y-125600500D01*
X142628844Y-125600500D01*
X142697808Y-125586782D01*
X142767400Y-125593009D01*
X142822577Y-125635872D01*
X142845822Y-125701761D01*
X142846000Y-125708399D01*
X142846000Y-127303402D01*
X142826315Y-127370441D01*
X142809681Y-127391083D01*
X142619481Y-127581282D01*
X142619480Y-127581284D01*
X142578096Y-127652964D01*
X142562961Y-127679179D01*
X142543723Y-127712500D01*
X142540423Y-127718215D01*
X142499499Y-127870943D01*
X142499499Y-127870945D01*
X142499499Y-128039046D01*
X142499500Y-128039059D01*
X142499500Y-129825500D01*
X142479815Y-129892539D01*
X142427011Y-129938294D01*
X142375500Y-129949500D01*
X142295134Y-129949500D01*
X142228095Y-129929815D01*
X142182340Y-129877011D01*
X142172396Y-129807853D01*
X142180573Y-129778047D01*
X142184564Y-129768412D01*
X142219737Y-129683497D01*
X142250500Y-129528842D01*
X142250500Y-129371158D01*
X142250500Y-129371155D01*
X142250499Y-129371153D01*
X142247542Y-129356286D01*
X142219737Y-129216503D01*
X142184552Y-129131558D01*
X142159397Y-129070827D01*
X142159390Y-129070814D01*
X142071789Y-128939711D01*
X142071786Y-128939707D01*
X141960292Y-128828213D01*
X141960288Y-128828210D01*
X141829185Y-128740609D01*
X141829172Y-128740602D01*
X141683501Y-128680264D01*
X141683489Y-128680261D01*
X141528845Y-128649500D01*
X141528842Y-128649500D01*
X141371158Y-128649500D01*
X141371155Y-128649500D01*
X141216510Y-128680261D01*
X141216498Y-128680264D01*
X141147428Y-128708874D01*
X141077959Y-128716343D01*
X141015480Y-128685067D01*
X141012295Y-128681994D01*
X140894652Y-128564351D01*
X140894648Y-128564348D01*
X140754272Y-128479488D01*
X140754263Y-128479485D01*
X140597664Y-128430687D01*
X140597662Y-128430686D01*
X140597657Y-128430685D01*
X140529594Y-128424500D01*
X140070406Y-128424500D01*
X140002343Y-128430685D01*
X140002341Y-128430685D01*
X140002338Y-128430686D01*
X139838570Y-128481719D01*
X139837720Y-128478991D01*
X139781639Y-128486722D01*
X139761695Y-128480866D01*
X139761430Y-128481719D01*
X139597661Y-128430686D01*
X139597659Y-128430685D01*
X139597657Y-128430685D01*
X139529594Y-128424500D01*
X139070406Y-128424500D01*
X139002343Y-128430685D01*
X139002341Y-128430685D01*
X139002338Y-128430686D01*
X138838570Y-128481719D01*
X138837720Y-128478991D01*
X138781639Y-128486722D01*
X138761695Y-128480866D01*
X138761430Y-128481719D01*
X138597661Y-128430686D01*
X138597659Y-128430685D01*
X138597657Y-128430685D01*
X138529594Y-128424500D01*
X138070406Y-128424500D01*
X138002343Y-128430685D01*
X138002341Y-128430685D01*
X138002338Y-128430686D01*
X137838570Y-128481719D01*
X137837720Y-128478991D01*
X137781639Y-128486722D01*
X137761695Y-128480866D01*
X137761430Y-128481719D01*
X137597661Y-128430686D01*
X137597659Y-128430685D01*
X137597657Y-128430685D01*
X137529594Y-128424500D01*
X137529591Y-128424500D01*
X137374500Y-128424500D01*
X137307461Y-128404815D01*
X137261706Y-128352011D01*
X137250500Y-128300500D01*
X137250500Y-128221155D01*
X137250499Y-128221153D01*
X137240680Y-128171789D01*
X137219737Y-128066503D01*
X137219735Y-128066498D01*
X137159397Y-127920827D01*
X137159390Y-127920814D01*
X137071789Y-127789711D01*
X137071786Y-127789707D01*
X136960292Y-127678213D01*
X136960288Y-127678210D01*
X136829185Y-127590609D01*
X136829172Y-127590602D01*
X136683501Y-127530264D01*
X136683489Y-127530261D01*
X136528845Y-127499500D01*
X136528842Y-127499500D01*
X136371158Y-127499500D01*
X136371155Y-127499500D01*
X136216510Y-127530261D01*
X136216498Y-127530264D01*
X136070827Y-127590602D01*
X136070814Y-127590609D01*
X135939711Y-127678210D01*
X135939707Y-127678213D01*
X135828213Y-127789707D01*
X135828210Y-127789711D01*
X135740609Y-127920814D01*
X135740602Y-127920827D01*
X135680264Y-128066498D01*
X135680261Y-128066510D01*
X135649500Y-128221153D01*
X135649500Y-128378846D01*
X135676612Y-128515149D01*
X135670385Y-128584741D01*
X135642678Y-128627020D01*
X135589351Y-128680348D01*
X135504487Y-128820732D01*
X135504485Y-128820736D01*
X135455687Y-128977335D01*
X135455685Y-128977343D01*
X135449500Y-129045406D01*
X135449500Y-130954594D01*
X135455685Y-131022657D01*
X135455686Y-131022662D01*
X135455687Y-131022664D01*
X135504485Y-131179263D01*
X135504488Y-131179272D01*
X135589348Y-131319648D01*
X135589351Y-131319652D01*
X135705347Y-131435648D01*
X135705351Y-131435651D01*
X135845727Y-131520511D01*
X135845730Y-131520512D01*
X136002343Y-131569315D01*
X136070406Y-131575500D01*
X136070409Y-131575500D01*
X136529591Y-131575500D01*
X136529594Y-131575500D01*
X136597657Y-131569315D01*
X136681088Y-131543316D01*
X136761432Y-131518281D01*
X136762286Y-131521021D01*
X136818273Y-131513264D01*
X136838299Y-131519143D01*
X136838568Y-131518281D01*
X136938236Y-131549338D01*
X137002343Y-131569315D01*
X137070406Y-131575500D01*
X137070409Y-131575500D01*
X137529591Y-131575500D01*
X137529594Y-131575500D01*
X137597657Y-131569315D01*
X137681088Y-131543316D01*
X137761432Y-131518281D01*
X137762286Y-131521021D01*
X137818273Y-131513264D01*
X137838299Y-131519143D01*
X137838568Y-131518281D01*
X137938236Y-131549338D01*
X138002343Y-131569315D01*
X138070406Y-131575500D01*
X138070409Y-131575500D01*
X138529591Y-131575500D01*
X138529594Y-131575500D01*
X138597657Y-131569315D01*
X138681088Y-131543316D01*
X138761432Y-131518281D01*
X138762286Y-131521021D01*
X138818273Y-131513264D01*
X138838299Y-131519143D01*
X138838568Y-131518281D01*
X138938236Y-131549338D01*
X139002343Y-131569315D01*
X139070406Y-131575500D01*
X139070409Y-131575500D01*
X139529591Y-131575500D01*
X139529594Y-131575500D01*
X139597657Y-131569315D01*
X139681088Y-131543316D01*
X139761432Y-131518281D01*
X139762286Y-131521021D01*
X139818273Y-131513264D01*
X139838299Y-131519143D01*
X139838568Y-131518281D01*
X139938236Y-131549338D01*
X140002343Y-131569315D01*
X140070406Y-131575500D01*
X140070409Y-131575500D01*
X140529591Y-131575500D01*
X140529594Y-131575500D01*
X140597657Y-131569315D01*
X140754270Y-131520512D01*
X140784326Y-131502343D01*
X140894648Y-131435651D01*
X140894647Y-131435651D01*
X140894653Y-131435648D01*
X141010648Y-131319653D01*
X141066614Y-131227073D01*
X141095511Y-131179272D01*
X141095514Y-131179263D01*
X141144315Y-131022657D01*
X141150500Y-130954594D01*
X141150500Y-130620363D01*
X141151528Y-130616860D01*
X141150701Y-130613306D01*
X141161298Y-130583586D01*
X141170185Y-130553324D01*
X141173301Y-130549927D01*
X141174169Y-130547495D01*
X141182025Y-130540419D01*
X141198762Y-130522180D01*
X141205319Y-130517121D01*
X141206391Y-130516503D01*
X141268716Y-130480520D01*
X141322529Y-130426706D01*
X141328829Y-130421847D01*
X141354260Y-130411940D01*
X141378208Y-130398864D01*
X141386338Y-130399445D01*
X141393934Y-130396487D01*
X141420680Y-130401901D01*
X141447899Y-130403848D01*
X141454423Y-130408732D01*
X141462415Y-130410350D01*
X141481992Y-130429369D01*
X141503833Y-130445719D01*
X141506681Y-130453354D01*
X141512529Y-130459036D01*
X141518715Y-130485617D01*
X141528251Y-130511183D01*
X141528108Y-130525981D01*
X141528366Y-130527087D01*
X141528090Y-130527859D01*
X141528057Y-130531251D01*
X141524500Y-130570406D01*
X141524500Y-131029594D01*
X141529600Y-131085711D01*
X141530685Y-131097654D01*
X141530686Y-131097661D01*
X141581719Y-131261430D01*
X141578991Y-131262279D01*
X141586722Y-131318361D01*
X141580866Y-131338304D01*
X141581719Y-131338570D01*
X141530686Y-131502338D01*
X141530685Y-131502341D01*
X141530685Y-131502343D01*
X141524500Y-131570406D01*
X141524500Y-132029594D01*
X141529688Y-132086679D01*
X141530685Y-132097654D01*
X141530686Y-132097661D01*
X141581719Y-132261430D01*
X141578991Y-132262279D01*
X141586722Y-132318361D01*
X141580866Y-132338304D01*
X141581719Y-132338570D01*
X141530686Y-132502338D01*
X141530685Y-132502341D01*
X141530685Y-132502343D01*
X141524500Y-132570406D01*
X141524500Y-133029594D01*
X141530685Y-133097657D01*
X141530686Y-133097662D01*
X141530687Y-133097664D01*
X141581719Y-133261432D01*
X141579165Y-133262227D01*
X141587006Y-133318917D01*
X141581262Y-133338490D01*
X141582178Y-133338776D01*
X141531179Y-133502437D01*
X141525000Y-133570443D01*
X141525000Y-134029566D01*
X141531178Y-134097561D01*
X141531181Y-134097572D01*
X141582177Y-134261224D01*
X141579321Y-134262113D01*
X141587005Y-134317702D01*
X141580950Y-134338330D01*
X141581719Y-134338570D01*
X141530686Y-134502338D01*
X141530685Y-134502341D01*
X141530685Y-134502343D01*
X141524500Y-134570406D01*
X141524500Y-135029594D01*
X141530370Y-135094185D01*
X141530685Y-135097654D01*
X141530686Y-135097661D01*
X141581719Y-135261430D01*
X141578991Y-135262279D01*
X141586722Y-135318361D01*
X141580866Y-135338304D01*
X141581719Y-135338570D01*
X141530686Y-135502338D01*
X141530685Y-135502341D01*
X141530685Y-135502343D01*
X141524500Y-135570406D01*
X141524500Y-136029594D01*
X141529162Y-136080890D01*
X141530685Y-136097654D01*
X141530686Y-136097661D01*
X141581719Y-136261430D01*
X141578991Y-136262279D01*
X141586722Y-136318361D01*
X141580866Y-136338304D01*
X141581719Y-136338570D01*
X141530686Y-136502338D01*
X141530685Y-136502341D01*
X141530685Y-136502343D01*
X141524500Y-136570406D01*
X141524500Y-137029594D01*
X141530045Y-137090606D01*
X141530685Y-137097654D01*
X141530686Y-137097661D01*
X141581719Y-137261430D01*
X141578991Y-137262279D01*
X141586722Y-137318361D01*
X141580866Y-137338304D01*
X141581719Y-137338570D01*
X141530686Y-137502338D01*
X141530685Y-137502341D01*
X141530685Y-137502343D01*
X141524500Y-137570406D01*
X141524500Y-138029594D01*
X141530678Y-138097572D01*
X141530685Y-138097654D01*
X141530686Y-138097661D01*
X141581719Y-138261430D01*
X141578991Y-138262279D01*
X141586722Y-138318361D01*
X141580866Y-138338304D01*
X141581719Y-138338570D01*
X141530686Y-138502338D01*
X141530685Y-138502341D01*
X141530685Y-138502343D01*
X141526646Y-138546796D01*
X141524500Y-138570408D01*
X141524500Y-139029593D01*
X141527697Y-139064780D01*
X141514160Y-139133325D01*
X141465712Y-139183671D01*
X141404206Y-139200000D01*
X139224000Y-139200000D01*
X139156961Y-139180315D01*
X139111206Y-139127511D01*
X139100000Y-139076000D01*
X139100000Y-138500000D01*
X137500000Y-138500000D01*
X137500000Y-139076000D01*
X137480315Y-139143039D01*
X137427511Y-139188794D01*
X137376000Y-139200000D01*
X135195290Y-139200000D01*
X135128251Y-139180315D01*
X135082496Y-139127511D01*
X135071799Y-139064777D01*
X135074999Y-139029554D01*
X135074999Y-138570433D01*
X135068821Y-138502438D01*
X135068818Y-138502427D01*
X135017823Y-138338776D01*
X135020495Y-138337943D01*
X135012718Y-138281689D01*
X135018651Y-138261482D01*
X135017822Y-138261224D01*
X135068820Y-138097562D01*
X135074999Y-138029556D01*
X135074999Y-137570433D01*
X135068821Y-137502438D01*
X135068818Y-137502427D01*
X135017823Y-137338776D01*
X135020685Y-137337884D01*
X135012988Y-137282341D01*
X135019056Y-137261673D01*
X135018281Y-137261432D01*
X135043316Y-137181088D01*
X135069315Y-137097657D01*
X135075500Y-137029594D01*
X135075500Y-136570406D01*
X135069315Y-136502343D01*
X135044212Y-136421786D01*
X135018281Y-136338568D01*
X135021021Y-136337713D01*
X135013264Y-136281727D01*
X135019143Y-136261700D01*
X135018281Y-136261432D01*
X135043910Y-136179185D01*
X135069315Y-136097657D01*
X135075500Y-136029594D01*
X135075500Y-135570406D01*
X135069315Y-135502343D01*
X135042147Y-135415157D01*
X135018281Y-135338568D01*
X135021021Y-135337713D01*
X135013264Y-135281727D01*
X135019143Y-135261700D01*
X135018281Y-135261432D01*
X135043910Y-135179185D01*
X135069315Y-135097657D01*
X135075500Y-135029594D01*
X135075500Y-134570406D01*
X135069315Y-134502343D01*
X135048519Y-134435606D01*
X135018281Y-134338568D01*
X135021021Y-134337713D01*
X135013264Y-134281727D01*
X135019143Y-134261700D01*
X135018281Y-134261432D01*
X135043910Y-134179185D01*
X135069315Y-134097657D01*
X135075500Y-134029594D01*
X135075500Y-133570406D01*
X135069315Y-133502343D01*
X135045455Y-133425774D01*
X135018281Y-133338568D01*
X135021021Y-133337713D01*
X135013264Y-133281727D01*
X135019143Y-133261700D01*
X135018281Y-133261432D01*
X135043316Y-133181088D01*
X135069315Y-133097657D01*
X135075500Y-133029594D01*
X135075500Y-132570406D01*
X135069315Y-132502343D01*
X135032316Y-132383609D01*
X135018281Y-132338568D01*
X135021021Y-132337713D01*
X135013264Y-132281727D01*
X135019143Y-132261700D01*
X135018281Y-132261432D01*
X135050128Y-132159229D01*
X135069315Y-132097657D01*
X135075500Y-132029594D01*
X135075500Y-131570406D01*
X135069315Y-131502343D01*
X135044779Y-131423605D01*
X135018281Y-131338568D01*
X135021021Y-131337713D01*
X135013264Y-131281727D01*
X135019143Y-131261700D01*
X135018281Y-131261432D01*
X135049765Y-131160394D01*
X135069315Y-131097657D01*
X135075500Y-131029594D01*
X135075500Y-130570406D01*
X135069315Y-130502343D01*
X135020512Y-130345730D01*
X135020511Y-130345727D01*
X134935651Y-130205351D01*
X134935648Y-130205347D01*
X134819652Y-130089351D01*
X134819648Y-130089348D01*
X134679272Y-130004488D01*
X134679263Y-130004485D01*
X134522664Y-129955687D01*
X134522662Y-129955686D01*
X134522657Y-129955685D01*
X134454594Y-129949500D01*
X132545406Y-129949500D01*
X132477343Y-129955685D01*
X132477341Y-129955685D01*
X132477338Y-129955686D01*
X132320730Y-130004487D01*
X132298548Y-130017897D01*
X132230993Y-130035732D01*
X132165508Y-130014880D01*
X132129187Y-129990610D01*
X132129172Y-129990602D01*
X131983501Y-129930264D01*
X131983489Y-129930261D01*
X131828845Y-129899500D01*
X131828842Y-129899500D01*
X131671158Y-129899500D01*
X131671155Y-129899500D01*
X131516510Y-129930261D01*
X131516498Y-129930264D01*
X131370827Y-129990602D01*
X131370814Y-129990609D01*
X131239711Y-130078210D01*
X131239707Y-130078213D01*
X131128213Y-130189707D01*
X131128210Y-130189711D01*
X131040609Y-130320814D01*
X131040602Y-130320827D01*
X130980264Y-130466498D01*
X130980261Y-130466510D01*
X130949500Y-130621153D01*
X130949500Y-130778846D01*
X130980261Y-130933489D01*
X130980264Y-130933501D01*
X131040602Y-131079172D01*
X131040609Y-131079185D01*
X131128210Y-131210288D01*
X131128213Y-131210292D01*
X131136077Y-131218156D01*
X131141934Y-131227283D01*
X131147761Y-131231657D01*
X131157099Y-131250914D01*
X131164635Y-131262656D01*
X131166664Y-131268119D01*
X131190423Y-131356785D01*
X131210946Y-131392331D01*
X131229004Y-131423609D01*
X131269479Y-131493715D01*
X131388349Y-131612585D01*
X131388355Y-131612590D01*
X131934994Y-132159229D01*
X131942169Y-132171044D01*
X131950235Y-132177750D01*
X131965183Y-132208944D01*
X131965550Y-132209548D01*
X131965689Y-132209988D01*
X131979488Y-132254270D01*
X131979894Y-132254941D01*
X131982326Y-132262638D01*
X131982898Y-132290626D01*
X131986722Y-132318361D01*
X131983678Y-132328724D01*
X131983756Y-132332493D01*
X131981487Y-132336186D01*
X131980866Y-132338304D01*
X131981719Y-132338570D01*
X131930686Y-132502338D01*
X131930685Y-132502345D01*
X131924500Y-132570408D01*
X131924500Y-132875500D01*
X131904815Y-132942539D01*
X131852011Y-132988294D01*
X131800500Y-132999500D01*
X131721155Y-132999500D01*
X131566510Y-133030261D01*
X131566498Y-133030264D01*
X131420827Y-133090602D01*
X131420814Y-133090609D01*
X131289711Y-133178210D01*
X131289707Y-133178213D01*
X131178213Y-133289707D01*
X131178210Y-133289711D01*
X131090609Y-133420814D01*
X131090602Y-133420827D01*
X131030264Y-133566498D01*
X131030261Y-133566510D01*
X130999500Y-133721153D01*
X130999500Y-133878846D01*
X131030261Y-134033489D01*
X131030264Y-134033501D01*
X131090602Y-134179172D01*
X131090609Y-134179185D01*
X131125304Y-134231109D01*
X131146182Y-134297786D01*
X131127698Y-134365167D01*
X131125304Y-134368891D01*
X131090609Y-134420814D01*
X131090602Y-134420827D01*
X131030264Y-134566498D01*
X131030261Y-134566510D01*
X130999500Y-134721153D01*
X130999500Y-134878846D01*
X131030261Y-135033489D01*
X131030264Y-135033501D01*
X131090602Y-135179172D01*
X131090609Y-135179185D01*
X131178210Y-135310288D01*
X131178213Y-135310292D01*
X131289707Y-135421786D01*
X131289711Y-135421789D01*
X131420814Y-135509390D01*
X131420827Y-135509397D01*
X131513846Y-135547926D01*
X131566503Y-135569737D01*
X131721153Y-135600499D01*
X131721156Y-135600500D01*
X131800500Y-135600500D01*
X131867539Y-135620185D01*
X131913294Y-135672989D01*
X131924500Y-135724500D01*
X131924500Y-136029594D01*
X131929162Y-136080890D01*
X131930685Y-136097654D01*
X131930686Y-136097661D01*
X131981719Y-136261430D01*
X131978991Y-136262279D01*
X131986722Y-136318361D01*
X131980866Y-136338304D01*
X131981719Y-136338570D01*
X131930686Y-136502338D01*
X131930685Y-136502341D01*
X131930685Y-136502343D01*
X131924500Y-136570406D01*
X131924500Y-137029594D01*
X131930685Y-137097657D01*
X131930686Y-137097661D01*
X131930687Y-137097664D01*
X131981719Y-137261432D01*
X131979165Y-137262227D01*
X131987006Y-137318917D01*
X131981262Y-137338490D01*
X131982178Y-137338776D01*
X131931179Y-137502437D01*
X131925000Y-137570443D01*
X131925000Y-138029566D01*
X131931178Y-138097561D01*
X131931181Y-138097572D01*
X131982177Y-138261224D01*
X131979512Y-138262054D01*
X131987272Y-138318365D01*
X131981354Y-138338519D01*
X131982178Y-138338776D01*
X131931179Y-138502437D01*
X131925000Y-138570443D01*
X131925000Y-138927079D01*
X131916055Y-138957538D01*
X131908755Y-138988437D01*
X131906282Y-138990822D01*
X131905315Y-138994118D01*
X131881332Y-139014898D01*
X131858477Y-139036954D01*
X131854096Y-139038499D01*
X131852511Y-139039873D01*
X131825193Y-139048696D01*
X131761105Y-139061445D01*
X131691514Y-139055219D01*
X131637751Y-139014280D01*
X131604505Y-138970000D01*
X131298352Y-138970000D01*
X131235233Y-138952732D01*
X131226395Y-138947506D01*
X131226393Y-138947505D01*
X131226389Y-138947503D01*
X131070997Y-138902357D01*
X131070991Y-138902356D01*
X131034697Y-138899500D01*
X131034690Y-138899500D01*
X130924000Y-138899500D01*
X130856961Y-138879815D01*
X130811206Y-138827011D01*
X130800000Y-138775500D01*
X130800000Y-138720000D01*
X130674000Y-138720000D01*
X130606961Y-138700315D01*
X130561206Y-138647511D01*
X130550000Y-138596000D01*
X130550000Y-138470000D01*
X131050000Y-138470000D01*
X131604504Y-138470000D01*
X131562031Y-138323804D01*
X131479721Y-138184625D01*
X131479714Y-138184616D01*
X131365383Y-138070285D01*
X131365374Y-138070278D01*
X131226195Y-137987968D01*
X131226190Y-137987966D01*
X131070918Y-137942855D01*
X131070912Y-137942854D01*
X131050000Y-137941209D01*
X131050000Y-138470000D01*
X130550000Y-138470000D01*
X130550000Y-137941210D01*
X130549999Y-137941209D01*
X130529084Y-137942855D01*
X130505000Y-137949851D01*
X130505000Y-137951000D01*
X130485315Y-138018039D01*
X130432511Y-138063794D01*
X130381000Y-138075000D01*
X128425001Y-138075000D01*
X128425001Y-138098322D01*
X128435144Y-138197607D01*
X128488452Y-138358481D01*
X128488457Y-138358492D01*
X128577424Y-138502728D01*
X128577427Y-138502732D01*
X128586660Y-138511965D01*
X128620145Y-138573288D01*
X128615161Y-138642980D01*
X128586663Y-138687324D01*
X128577033Y-138696953D01*
X128577029Y-138696959D01*
X128488001Y-138841294D01*
X128487997Y-138841303D01*
X128459575Y-138927074D01*
X128419801Y-138984519D01*
X128355285Y-139011341D01*
X128286510Y-138999025D01*
X128254188Y-138975750D01*
X128221778Y-138943340D01*
X128221774Y-138943337D01*
X128071470Y-138850627D01*
X128071464Y-138850624D01*
X128071462Y-138850623D01*
X128000205Y-138827011D01*
X127903816Y-138795071D01*
X127800349Y-138784500D01*
X127800342Y-138784500D01*
X126509658Y-138784500D01*
X126509650Y-138784500D01*
X126406183Y-138795071D01*
X126238540Y-138850622D01*
X126238529Y-138850627D01*
X126088225Y-138943337D01*
X126088221Y-138943340D01*
X125963340Y-139068221D01*
X125963337Y-139068225D01*
X125870627Y-139218529D01*
X125870622Y-139218540D01*
X125815071Y-139386183D01*
X125804500Y-139489650D01*
X125804500Y-141680349D01*
X125815071Y-141783816D01*
X125870622Y-141951459D01*
X125870627Y-141951470D01*
X125963337Y-142101774D01*
X125963340Y-142101778D01*
X126088221Y-142226659D01*
X126088225Y-142226662D01*
X126238529Y-142319372D01*
X126238532Y-142319373D01*
X126238538Y-142319377D01*
X126406185Y-142374929D01*
X126443102Y-142378700D01*
X126507793Y-142405095D01*
X126547945Y-142462275D01*
X126554500Y-142502058D01*
X126554500Y-142828325D01*
X126545061Y-142875777D01*
X126530263Y-142911501D01*
X126530260Y-142911511D01*
X126499500Y-143066153D01*
X126499500Y-143223846D01*
X126530261Y-143378489D01*
X126530264Y-143378501D01*
X126590602Y-143524172D01*
X126590609Y-143524185D01*
X126678210Y-143655288D01*
X126678213Y-143655292D01*
X126789707Y-143766786D01*
X126789711Y-143766789D01*
X126920814Y-143854390D01*
X126920827Y-143854397D01*
X127066498Y-143914735D01*
X127066503Y-143914737D01*
X127221153Y-143945499D01*
X127221156Y-143945500D01*
X127221158Y-143945500D01*
X127378844Y-143945500D01*
X127378845Y-143945499D01*
X127533497Y-143914737D01*
X127679179Y-143854394D01*
X127810289Y-143766789D01*
X127921789Y-143655289D01*
X128009394Y-143524179D01*
X128069737Y-143378497D01*
X128100500Y-143223842D01*
X128100500Y-143066158D01*
X128100500Y-143066155D01*
X128100499Y-143066153D01*
X128095239Y-143039711D01*
X128069737Y-142911503D01*
X128069735Y-142911498D01*
X128009397Y-142765827D01*
X128009390Y-142765814D01*
X127921789Y-142634711D01*
X127921786Y-142634707D01*
X127864344Y-142577265D01*
X127830859Y-142515942D01*
X127835843Y-142446250D01*
X127877715Y-142390317D01*
X127913022Y-142371878D01*
X128071462Y-142319377D01*
X128221778Y-142226660D01*
X128346660Y-142101778D01*
X128439377Y-141951462D01*
X128494929Y-141783815D01*
X128505500Y-141680342D01*
X128505500Y-141336941D01*
X128525185Y-141269902D01*
X128577989Y-141224147D01*
X128647147Y-141214203D01*
X128710703Y-141243228D01*
X128717181Y-141249260D01*
X128789707Y-141321786D01*
X128789711Y-141321789D01*
X128920814Y-141409390D01*
X128920827Y-141409397D01*
X129066498Y-141469735D01*
X129066503Y-141469737D01*
X129221153Y-141500499D01*
X129221156Y-141500500D01*
X129221158Y-141500500D01*
X129378844Y-141500500D01*
X129378845Y-141500499D01*
X129533497Y-141469737D01*
X129679179Y-141409394D01*
X129810289Y-141321789D01*
X129921789Y-141210289D01*
X129943701Y-141177496D01*
X129946898Y-141172712D01*
X130000510Y-141127906D01*
X130069835Y-141119199D01*
X130132862Y-141149353D01*
X130153102Y-141172712D01*
X130178207Y-141210284D01*
X130178213Y-141210292D01*
X130289707Y-141321786D01*
X130289711Y-141321789D01*
X130420814Y-141409390D01*
X130420827Y-141409397D01*
X130566498Y-141469735D01*
X130566503Y-141469737D01*
X130721153Y-141500499D01*
X130721156Y-141500500D01*
X130721158Y-141500500D01*
X130878844Y-141500500D01*
X130947321Y-141486878D01*
X131024336Y-141471559D01*
X131093927Y-141477786D01*
X131149104Y-141520648D01*
X131172349Y-141586538D01*
X131170145Y-141617367D01*
X131149500Y-141721159D01*
X131149500Y-141878846D01*
X131180261Y-142033489D01*
X131180264Y-142033501D01*
X131240602Y-142179172D01*
X131240609Y-142179185D01*
X131325417Y-142306109D01*
X131346295Y-142372787D01*
X131327810Y-142440167D01*
X131325417Y-142443891D01*
X131240609Y-142570814D01*
X131240602Y-142570827D01*
X131180264Y-142716498D01*
X131180261Y-142716510D01*
X131149500Y-142871153D01*
X131149500Y-143028846D01*
X131180261Y-143183489D01*
X131180264Y-143183501D01*
X131240602Y-143329172D01*
X131240609Y-143329185D01*
X131328210Y-143460288D01*
X131328213Y-143460292D01*
X131439707Y-143571786D01*
X131439711Y-143571789D01*
X131570814Y-143659390D01*
X131570827Y-143659397D01*
X131700260Y-143713009D01*
X131716503Y-143719737D01*
X131846082Y-143745512D01*
X131871153Y-143750499D01*
X131871156Y-143750500D01*
X131871158Y-143750500D01*
X132028844Y-143750500D01*
X132028845Y-143750499D01*
X132183497Y-143719737D01*
X132183507Y-143719732D01*
X132189328Y-143717968D01*
X132189827Y-143719614D01*
X132251135Y-143713009D01*
X132293293Y-143728925D01*
X132320730Y-143745512D01*
X132477343Y-143794315D01*
X132545406Y-143800500D01*
X132545409Y-143800500D01*
X134454590Y-143800500D01*
X134454594Y-143800500D01*
X134514780Y-143795030D01*
X134583323Y-143808566D01*
X134633669Y-143857012D01*
X134650000Y-143918521D01*
X134650000Y-144000000D01*
X141950000Y-144000000D01*
X141950000Y-143918521D01*
X141969685Y-143851482D01*
X142022489Y-143805727D01*
X142085218Y-143795030D01*
X142145406Y-143800500D01*
X142145410Y-143800500D01*
X144054591Y-143800500D01*
X144054594Y-143800500D01*
X144122657Y-143794315D01*
X144279270Y-143745512D01*
X144416775Y-143662387D01*
X144484328Y-143644552D01*
X144528375Y-143653943D01*
X144566503Y-143669737D01*
X144721153Y-143700499D01*
X144721156Y-143700500D01*
X144721158Y-143700500D01*
X144878844Y-143700500D01*
X144878845Y-143700499D01*
X145033497Y-143669737D01*
X145179179Y-143609394D01*
X145310289Y-143521789D01*
X145421789Y-143410289D01*
X145509394Y-143279179D01*
X145569737Y-143133497D01*
X145600500Y-142978842D01*
X145600500Y-142821158D01*
X145600500Y-142821155D01*
X145600499Y-142821153D01*
X145587473Y-142755666D01*
X145569737Y-142666503D01*
X145557828Y-142637752D01*
X145520354Y-142547280D01*
X145512885Y-142477811D01*
X145544160Y-142415332D01*
X145604249Y-142379680D01*
X145659104Y-142378211D01*
X145719965Y-142390317D01*
X145771156Y-142400500D01*
X145771158Y-142400500D01*
X145928844Y-142400500D01*
X145928845Y-142400499D01*
X146083497Y-142369737D01*
X146229179Y-142309394D01*
X146360289Y-142221789D01*
X146471789Y-142110289D01*
X146559394Y-141979179D01*
X146570485Y-141952404D01*
X146600953Y-141878846D01*
X146619737Y-141833497D01*
X146650500Y-141678842D01*
X146650500Y-141521158D01*
X146650500Y-141521155D01*
X146650499Y-141521153D01*
X146640271Y-141469735D01*
X146619737Y-141366503D01*
X146607492Y-141336941D01*
X146565852Y-141236411D01*
X146559517Y-141177496D01*
X146557146Y-141177310D01*
X146560499Y-141134697D01*
X146560500Y-141134690D01*
X146560500Y-140725310D01*
X146557643Y-140689007D01*
X146549809Y-140662044D01*
X146513358Y-140536578D01*
X146512494Y-140533605D01*
X146500089Y-140512630D01*
X146482906Y-140444909D01*
X146500091Y-140386384D01*
X146512032Y-140366194D01*
X146554504Y-140220000D01*
X146248352Y-140220000D01*
X146185233Y-140202732D01*
X146176395Y-140197506D01*
X146176393Y-140197505D01*
X146176389Y-140197503D01*
X146020997Y-140152357D01*
X146020991Y-140152356D01*
X145984697Y-140149500D01*
X145984690Y-140149500D01*
X145515310Y-140149500D01*
X145515302Y-140149500D01*
X145479008Y-140152356D01*
X145479002Y-140152357D01*
X145323610Y-140197503D01*
X145323605Y-140197506D01*
X145314766Y-140202732D01*
X145251648Y-140220000D01*
X144945496Y-140220000D01*
X144987968Y-140366194D01*
X144999911Y-140386389D01*
X145004429Y-140404198D01*
X145013639Y-140420096D01*
X145012842Y-140437361D01*
X145017092Y-140454113D01*
X145011265Y-140471536D01*
X145010418Y-140489891D01*
X144999911Y-140512628D01*
X144987506Y-140533604D01*
X144987504Y-140533609D01*
X144942357Y-140689002D01*
X144942356Y-140689008D01*
X144939500Y-140725302D01*
X144939500Y-140875500D01*
X144936949Y-140884185D01*
X144938238Y-140893147D01*
X144927259Y-140917187D01*
X144919815Y-140942539D01*
X144912974Y-140948466D01*
X144909213Y-140956703D01*
X144886978Y-140970992D01*
X144867011Y-140988294D01*
X144856496Y-140990581D01*
X144850435Y-140994477D01*
X144815500Y-140999500D01*
X144799500Y-140999500D01*
X144732461Y-140979815D01*
X144686706Y-140927011D01*
X144675500Y-140875500D01*
X144675500Y-140570408D01*
X144673231Y-140545438D01*
X144669315Y-140502343D01*
X144638732Y-140404198D01*
X144618281Y-140338568D01*
X144620374Y-140337915D01*
X144615449Y-140329413D01*
X144616553Y-140305469D01*
X144613264Y-140281727D01*
X144618467Y-140264003D01*
X144618581Y-140261525D01*
X144618281Y-140261432D01*
X144618639Y-140260281D01*
X144618670Y-140259618D01*
X144618984Y-140259175D01*
X144638201Y-140197503D01*
X144669315Y-140097657D01*
X144675500Y-140029594D01*
X144675500Y-139724500D01*
X144695185Y-139657461D01*
X144747989Y-139611706D01*
X144799500Y-139600500D01*
X144815061Y-139600500D01*
X144882100Y-139620185D01*
X144927855Y-139672989D01*
X144932037Y-139702075D01*
X144945495Y-139720000D01*
X145500000Y-139720000D01*
X145500000Y-139305683D01*
X145519685Y-139238644D01*
X145520857Y-139236853D01*
X145559394Y-139179179D01*
X145619737Y-139033497D01*
X145650500Y-138878842D01*
X145650500Y-138721158D01*
X145650500Y-138721155D01*
X145650499Y-138721153D01*
X145639989Y-138668315D01*
X145619737Y-138566503D01*
X145611574Y-138546795D01*
X145559396Y-138420825D01*
X145559394Y-138420822D01*
X145559394Y-138420821D01*
X145524694Y-138368889D01*
X145503816Y-138302215D01*
X145522300Y-138234835D01*
X145524676Y-138231136D01*
X145559394Y-138179179D01*
X145619737Y-138033497D01*
X145650500Y-137878842D01*
X145650500Y-137721158D01*
X145650500Y-137721155D01*
X145650499Y-137721153D01*
X145639150Y-137664098D01*
X145619737Y-137566503D01*
X145604155Y-137528884D01*
X145559397Y-137420827D01*
X145559390Y-137420814D01*
X145471789Y-137289711D01*
X145471786Y-137289707D01*
X145360292Y-137178213D01*
X145360288Y-137178210D01*
X145229185Y-137090609D01*
X145229172Y-137090602D01*
X145083501Y-137030264D01*
X145083489Y-137030261D01*
X144928845Y-136999500D01*
X144928842Y-136999500D01*
X144799500Y-136999500D01*
X144790814Y-136996949D01*
X144781853Y-136998238D01*
X144757812Y-136987259D01*
X144732461Y-136979815D01*
X144726533Y-136972974D01*
X144718297Y-136969213D01*
X144704007Y-136946978D01*
X144686706Y-136927011D01*
X144684418Y-136916496D01*
X144680523Y-136910435D01*
X144675500Y-136875500D01*
X144675500Y-136746379D01*
X145957000Y-136746379D01*
X145957001Y-138148620D01*
X145959899Y-138191386D01*
X145959899Y-138191387D01*
X145987461Y-138302215D01*
X146004043Y-138368892D01*
X146005860Y-138376196D01*
X146090467Y-138546792D01*
X146090469Y-138546795D01*
X146209777Y-138695221D01*
X146209778Y-138695222D01*
X146360687Y-138816526D01*
X146362042Y-138818473D01*
X146364203Y-138819460D01*
X146381906Y-138847008D01*
X146400606Y-138873869D01*
X146401092Y-138876862D01*
X146401977Y-138878238D01*
X146407000Y-138913173D01*
X146407000Y-139157070D01*
X146387315Y-139224109D01*
X146334511Y-139269864D01*
X146265353Y-139279808D01*
X146219880Y-139263803D01*
X146176193Y-139237967D01*
X146176190Y-139237966D01*
X146020918Y-139192855D01*
X146020912Y-139192854D01*
X146000000Y-139191209D01*
X146000000Y-139720000D01*
X146546559Y-139720000D01*
X146613598Y-139739685D01*
X146634240Y-139756319D01*
X146697207Y-139819286D01*
X146697211Y-139819289D01*
X146828314Y-139906890D01*
X146828327Y-139906897D01*
X146925851Y-139947292D01*
X146974003Y-139967237D01*
X147128653Y-139997999D01*
X147128656Y-139998000D01*
X147128658Y-139998000D01*
X147286344Y-139998000D01*
X147286345Y-139997999D01*
X147440997Y-139967237D01*
X147586679Y-139906894D01*
X147717789Y-139819289D01*
X147829289Y-139707789D01*
X147916894Y-139576679D01*
X147919770Y-139569737D01*
X147944764Y-139509394D01*
X147977237Y-139430997D01*
X148008000Y-139276342D01*
X148008000Y-139118658D01*
X148008000Y-138913173D01*
X148027685Y-138846134D01*
X148054313Y-138816526D01*
X148097839Y-138781539D01*
X148205222Y-138695222D01*
X148261175Y-138625612D01*
X148318515Y-138585696D01*
X148388337Y-138583116D01*
X148448470Y-138618694D01*
X148454467Y-138625615D01*
X148510132Y-138694866D01*
X148510133Y-138694867D01*
X148658474Y-138814107D01*
X148658477Y-138814109D01*
X148828976Y-138898668D01*
X149013675Y-138944602D01*
X149056403Y-138947500D01*
X149257500Y-138947500D01*
X149257500Y-135947500D01*
X149056403Y-135947500D01*
X149013675Y-135950397D01*
X148828976Y-135996331D01*
X148658477Y-136080890D01*
X148658474Y-136080892D01*
X148510135Y-136200131D01*
X148454467Y-136269385D01*
X148397124Y-136309303D01*
X148327301Y-136311883D01*
X148267169Y-136276304D01*
X148261173Y-136269384D01*
X148205222Y-136199778D01*
X148205221Y-136199777D01*
X148056795Y-136080469D01*
X148056792Y-136080467D01*
X147886197Y-135995860D01*
X147701392Y-135949900D01*
X147680006Y-135948450D01*
X147658623Y-135947000D01*
X147658620Y-135947000D01*
X146756377Y-135947000D01*
X146756374Y-135947001D01*
X146713613Y-135949899D01*
X146713612Y-135949899D01*
X146528803Y-135995860D01*
X146358207Y-136080467D01*
X146358204Y-136080469D01*
X146209778Y-136199777D01*
X146209777Y-136199778D01*
X146090469Y-136348204D01*
X146090467Y-136348207D01*
X146005860Y-136518802D01*
X145959900Y-136703607D01*
X145957000Y-136746379D01*
X144675500Y-136746379D01*
X144675500Y-136724500D01*
X144695185Y-136657461D01*
X144747989Y-136611706D01*
X144799500Y-136600500D01*
X144928844Y-136600500D01*
X144928845Y-136600499D01*
X145083497Y-136569737D01*
X145229179Y-136509394D01*
X145360289Y-136421789D01*
X145471789Y-136310289D01*
X145559394Y-136179179D01*
X145619737Y-136033497D01*
X145650500Y-135878842D01*
X145650500Y-135721158D01*
X145650500Y-135721155D01*
X145650499Y-135721153D01*
X145644532Y-135691155D01*
X145619737Y-135566503D01*
X145593158Y-135502335D01*
X145559396Y-135420825D01*
X145559394Y-135420822D01*
X145559394Y-135420821D01*
X145524694Y-135368889D01*
X145503816Y-135302215D01*
X145522300Y-135234835D01*
X145524676Y-135231136D01*
X145559394Y-135179179D01*
X145619737Y-135033497D01*
X145650500Y-134878842D01*
X145650500Y-134721158D01*
X145650500Y-134721155D01*
X145650499Y-134721153D01*
X145633483Y-134635609D01*
X145619737Y-134566503D01*
X145593162Y-134502345D01*
X145559397Y-134420827D01*
X145559390Y-134420814D01*
X145471789Y-134289711D01*
X145471786Y-134289707D01*
X145360292Y-134178213D01*
X145360288Y-134178210D01*
X145229185Y-134090609D01*
X145229172Y-134090602D01*
X145083501Y-134030264D01*
X145083489Y-134030261D01*
X144928845Y-133999500D01*
X144928842Y-133999500D01*
X144798999Y-133999500D01*
X144731960Y-133979815D01*
X144686205Y-133927011D01*
X144674999Y-133875500D01*
X144674999Y-133570433D01*
X144668821Y-133502438D01*
X144668818Y-133502427D01*
X144617823Y-133338776D01*
X144620685Y-133337884D01*
X144612988Y-133282341D01*
X144619056Y-133261673D01*
X144618281Y-133261432D01*
X144643316Y-133181088D01*
X144669315Y-133097657D01*
X144675500Y-133029594D01*
X144675500Y-132570406D01*
X144669315Y-132502343D01*
X144632316Y-132383609D01*
X144618281Y-132338568D01*
X144621021Y-132337713D01*
X144613264Y-132281727D01*
X144619143Y-132261700D01*
X144618281Y-132261432D01*
X144650128Y-132159229D01*
X144669315Y-132097657D01*
X144675500Y-132029594D01*
X144675500Y-132025096D01*
X144695185Y-131958057D01*
X144711815Y-131937419D01*
X144943733Y-131705500D01*
X147107500Y-131705500D01*
X147118108Y-131824825D01*
X147118109Y-131824828D01*
X147174057Y-132020361D01*
X147268221Y-132200629D01*
X147396746Y-132358253D01*
X147554370Y-132486778D01*
X147734638Y-132580942D01*
X147930171Y-132636890D01*
X147930174Y-132636891D01*
X148049499Y-132647499D01*
X148049502Y-132647500D01*
X149257500Y-132647500D01*
X149757500Y-132647500D01*
X150965498Y-132647500D01*
X150965500Y-132647499D01*
X151084825Y-132636891D01*
X151084828Y-132636890D01*
X151280361Y-132580942D01*
X151460629Y-132486778D01*
X151618253Y-132358253D01*
X151746778Y-132200629D01*
X151840942Y-132020361D01*
X151896890Y-131824828D01*
X151896891Y-131824825D01*
X151907499Y-131705500D01*
X151907500Y-131705498D01*
X151907500Y-131397500D01*
X149757500Y-131397500D01*
X149757500Y-132647500D01*
X149257500Y-132647500D01*
X149257500Y-131397500D01*
X147107500Y-131397500D01*
X147107500Y-131705500D01*
X144943733Y-131705500D01*
X145158506Y-131490727D01*
X145158511Y-131490724D01*
X145168714Y-131480520D01*
X145168716Y-131480520D01*
X145280520Y-131368716D01*
X145346595Y-131254270D01*
X145359577Y-131231785D01*
X145400501Y-131079057D01*
X145400501Y-130920943D01*
X145400501Y-130913348D01*
X145400500Y-130913330D01*
X145400500Y-129767648D01*
X145420185Y-129700609D01*
X145472989Y-129654854D01*
X145529001Y-129643730D01*
X145538937Y-129644090D01*
X145571158Y-129650500D01*
X145715376Y-129650500D01*
X145717633Y-129650582D01*
X145748725Y-129660951D01*
X145780171Y-129670185D01*
X145782358Y-129672168D01*
X145783914Y-129672687D01*
X145786568Y-129675984D01*
X145801346Y-129689383D01*
X145802181Y-129688549D01*
X145807288Y-129693656D01*
X145931344Y-129817712D01*
X146080666Y-129909814D01*
X146247203Y-129964999D01*
X146349991Y-129975500D01*
X146950008Y-129975499D01*
X146950016Y-129975498D01*
X146950019Y-129975498D01*
X147006302Y-129969748D01*
X147052797Y-129964999D01*
X147104331Y-129947921D01*
X147174160Y-129945519D01*
X147234202Y-129981250D01*
X147265395Y-130043770D01*
X147257836Y-130113229D01*
X147253246Y-130123038D01*
X147174057Y-130274638D01*
X147118109Y-130470171D01*
X147118108Y-130470174D01*
X147107500Y-130589499D01*
X147107500Y-130897500D01*
X149257500Y-130897500D01*
X149257500Y-129641500D01*
X149277185Y-129574461D01*
X149329989Y-129528706D01*
X149381500Y-129517500D01*
X149493180Y-129517500D01*
X149539505Y-129377697D01*
X149549999Y-129274986D01*
X149549999Y-129198598D01*
X149569683Y-129131558D01*
X149622486Y-129085802D01*
X149691644Y-129075858D01*
X149755201Y-129104882D01*
X149761680Y-129110915D01*
X150086584Y-129435819D01*
X150120069Y-129497142D01*
X150115085Y-129566834D01*
X150073213Y-129622767D01*
X150007749Y-129647184D01*
X149998903Y-129647500D01*
X149757500Y-129647500D01*
X149757500Y-130897500D01*
X151907500Y-130897500D01*
X151907500Y-130589508D01*
X151907411Y-130587506D01*
X151907500Y-130587144D01*
X151907500Y-130586747D01*
X151907598Y-130586747D01*
X151924100Y-130519659D01*
X151974820Y-130471604D01*
X152031289Y-130458000D01*
X152990805Y-130458000D01*
X153057844Y-130477685D01*
X153103599Y-130530489D01*
X153113543Y-130599647D01*
X153112422Y-130606191D01*
X153099500Y-130671153D01*
X153099500Y-130828846D01*
X153130261Y-130983489D01*
X153130264Y-130983501D01*
X153190602Y-131129171D01*
X153190603Y-131129172D01*
X153190606Y-131129179D01*
X153211466Y-131160398D01*
X153232343Y-131227073D01*
X153215095Y-131292408D01*
X153137505Y-131423606D01*
X153137504Y-131423609D01*
X153092357Y-131579002D01*
X153092356Y-131579008D01*
X153089500Y-131615302D01*
X153089500Y-132024697D01*
X153092356Y-132060991D01*
X153092357Y-132060997D01*
X153137504Y-132216391D01*
X153137506Y-132216397D01*
X153149620Y-132236880D01*
X153166801Y-132304604D01*
X153149620Y-132363120D01*
X153137506Y-132383602D01*
X153137504Y-132383608D01*
X153092357Y-132539002D01*
X153092356Y-132539008D01*
X153089500Y-132575302D01*
X153089500Y-132984697D01*
X153092356Y-133020991D01*
X153092357Y-133020997D01*
X153137504Y-133176390D01*
X153137504Y-133176391D01*
X153137505Y-133176393D01*
X153137506Y-133176395D01*
X153150679Y-133198669D01*
X153167860Y-133266393D01*
X153145700Y-133332656D01*
X153109048Y-133367325D01*
X153088843Y-133379788D01*
X152964789Y-133503842D01*
X152872687Y-133653163D01*
X152872686Y-133653166D01*
X152817501Y-133819703D01*
X152817501Y-133819704D01*
X152817500Y-133819704D01*
X152807000Y-133922483D01*
X152807000Y-135272501D01*
X152807001Y-135272518D01*
X152817500Y-135375296D01*
X152817501Y-135375299D01*
X152872685Y-135541831D01*
X152872687Y-135541836D01*
X152889897Y-135569738D01*
X152964788Y-135691156D01*
X153088844Y-135815212D01*
X153238166Y-135907314D01*
X153404703Y-135962499D01*
X153507491Y-135973000D01*
X154307508Y-135972999D01*
X154307516Y-135972998D01*
X154307519Y-135972998D01*
X154365814Y-135967043D01*
X154410297Y-135962499D01*
X154576834Y-135907314D01*
X154726156Y-135815212D01*
X154850212Y-135691156D01*
X154889810Y-135626956D01*
X154941758Y-135580232D01*
X155010720Y-135569009D01*
X155074803Y-135596852D01*
X155083030Y-135604372D01*
X155190572Y-135711914D01*
X155330712Y-135813732D01*
X155485055Y-135892373D01*
X155649799Y-135945902D01*
X155757383Y-135962941D01*
X155820517Y-135992870D01*
X155857449Y-136052181D01*
X155856451Y-136122043D01*
X155825666Y-136173095D01*
X155388082Y-136610681D01*
X155326759Y-136644166D01*
X155300401Y-136647000D01*
X153137961Y-136647000D01*
X153070922Y-136627315D01*
X153025167Y-136574511D01*
X153017627Y-136552927D01*
X153009142Y-136518812D01*
X153009141Y-136518807D01*
X152961023Y-136421786D01*
X152924532Y-136348207D01*
X152924530Y-136348204D01*
X152805222Y-136199778D01*
X152805221Y-136199777D01*
X152656795Y-136080469D01*
X152656792Y-136080467D01*
X152486197Y-135995860D01*
X152301392Y-135949900D01*
X152280006Y-135948450D01*
X152258623Y-135947000D01*
X152258620Y-135947000D01*
X151356377Y-135947000D01*
X151356374Y-135947001D01*
X151313613Y-135949899D01*
X151313612Y-135949899D01*
X151128803Y-135995860D01*
X150958207Y-136080467D01*
X150958204Y-136080469D01*
X150809780Y-136199776D01*
X150809778Y-136199778D01*
X150782125Y-136234178D01*
X150753826Y-136269385D01*
X150696482Y-136309303D01*
X150626660Y-136311883D01*
X150566527Y-136276304D01*
X150560531Y-136269384D01*
X150504864Y-136200130D01*
X150356525Y-136080892D01*
X150356522Y-136080890D01*
X150186023Y-135996331D01*
X150001324Y-135950397D01*
X149958597Y-135947500D01*
X149757500Y-135947500D01*
X149757500Y-138947500D01*
X149958597Y-138947500D01*
X150001324Y-138944602D01*
X150186023Y-138898668D01*
X150356522Y-138814109D01*
X150356525Y-138814107D01*
X150504866Y-138694867D01*
X150504867Y-138694866D01*
X150560533Y-138625615D01*
X150617876Y-138585696D01*
X150687698Y-138583116D01*
X150747831Y-138618694D01*
X150753805Y-138625589D01*
X150809778Y-138695222D01*
X150809780Y-138695224D01*
X150960687Y-138816526D01*
X151000606Y-138873869D01*
X151007000Y-138913173D01*
X151007000Y-139464560D01*
X150998355Y-139494000D01*
X150991832Y-139523987D01*
X150988077Y-139529002D01*
X150987315Y-139531599D01*
X150970681Y-139552241D01*
X150939711Y-139583211D01*
X150911216Y-139611706D01*
X150828209Y-139694712D01*
X150740609Y-139825814D01*
X150740602Y-139825827D01*
X150680264Y-139971498D01*
X150680261Y-139971510D01*
X150649500Y-140126153D01*
X150649500Y-142512770D01*
X150642570Y-142536368D01*
X150639816Y-142560811D01*
X150631960Y-142572501D01*
X150629815Y-142579809D01*
X150621651Y-142591071D01*
X150617659Y-142595972D01*
X150607288Y-142606344D01*
X150601276Y-142616089D01*
X150596151Y-142622384D01*
X150573771Y-142637752D01*
X150553589Y-142655905D01*
X150545396Y-142657237D01*
X150538554Y-142661937D01*
X150511418Y-142662766D01*
X150484626Y-142667126D01*
X150477013Y-142663818D01*
X150468717Y-142664072D01*
X150445441Y-142650100D01*
X150420544Y-142639282D01*
X150413091Y-142630680D01*
X150408812Y-142628112D01*
X150406086Y-142622596D01*
X150394463Y-142609182D01*
X150392714Y-142606346D01*
X150268657Y-142482289D01*
X150268656Y-142482288D01*
X150171297Y-142422237D01*
X150119336Y-142390187D01*
X150119331Y-142390185D01*
X150114128Y-142388461D01*
X149952797Y-142335001D01*
X149952795Y-142335000D01*
X149850010Y-142324500D01*
X149249998Y-142324500D01*
X149249980Y-142324501D01*
X149147203Y-142335000D01*
X149147200Y-142335001D01*
X148980668Y-142390185D01*
X148980663Y-142390187D01*
X148831342Y-142482289D01*
X148707289Y-142606342D01*
X148698355Y-142620827D01*
X148670178Y-142666510D01*
X148655321Y-142690597D01*
X148603373Y-142737321D01*
X148549782Y-142749500D01*
X148221155Y-142749500D01*
X148066510Y-142780261D01*
X148066498Y-142780264D01*
X147920827Y-142840602D01*
X147920814Y-142840609D01*
X147789711Y-142928210D01*
X147789707Y-142928213D01*
X147678213Y-143039707D01*
X147678210Y-143039711D01*
X147590609Y-143170814D01*
X147590602Y-143170827D01*
X147530264Y-143316498D01*
X147530261Y-143316510D01*
X147499500Y-143471153D01*
X147499500Y-143628846D01*
X147530261Y-143783489D01*
X147530264Y-143783501D01*
X147590602Y-143929172D01*
X147590609Y-143929185D01*
X147678210Y-144060288D01*
X147678213Y-144060292D01*
X147789707Y-144171786D01*
X147789711Y-144171789D01*
X147920814Y-144259390D01*
X147920827Y-144259397D01*
X148029961Y-144304601D01*
X148066503Y-144319737D01*
X148153330Y-144337008D01*
X148221153Y-144350499D01*
X148221156Y-144350500D01*
X148221158Y-144350500D01*
X148378842Y-144350500D01*
X148549782Y-144350500D01*
X148558790Y-144353145D01*
X148568091Y-144351859D01*
X148591777Y-144362831D01*
X148616821Y-144370185D01*
X148624655Y-144378061D01*
X148631489Y-144381227D01*
X148652435Y-144405991D01*
X148654458Y-144408025D01*
X148654895Y-144408713D01*
X148707288Y-144493656D01*
X148711537Y-144497905D01*
X148718599Y-144509025D01*
X148726559Y-144536688D01*
X148737329Y-144563382D01*
X148736101Y-144569845D01*
X148737921Y-144576169D01*
X148729661Y-144603747D01*
X148724290Y-144632025D01*
X148719762Y-144636798D01*
X148717875Y-144643102D01*
X148696019Y-144661834D01*
X148676211Y-144682721D01*
X148669560Y-144684512D01*
X148664825Y-144688571D01*
X148643598Y-144691506D01*
X148613923Y-144699500D01*
X121003481Y-144699500D01*
X120996528Y-144699305D01*
X120704703Y-144682916D01*
X120690885Y-144681359D01*
X120406172Y-144632984D01*
X120392615Y-144629890D01*
X120115100Y-144549939D01*
X120101975Y-144545346D01*
X119835165Y-144434830D01*
X119822637Y-144428797D01*
X119733299Y-144379422D01*
X119569863Y-144289094D01*
X119558101Y-144281703D01*
X119518138Y-144253348D01*
X119501683Y-144241672D01*
X119458400Y-144186824D01*
X119451642Y-144117282D01*
X119483553Y-144055125D01*
X119504550Y-144037442D01*
X119560585Y-144000000D01*
X119610289Y-143966789D01*
X119721789Y-143855289D01*
X119809394Y-143724179D01*
X119869737Y-143578497D01*
X119900500Y-143423842D01*
X119900500Y-143423840D01*
X119900637Y-143423152D01*
X119933021Y-143361241D01*
X119934462Y-143359773D01*
X120035520Y-143258716D01*
X120089082Y-143165943D01*
X120114577Y-143121785D01*
X120155500Y-142969057D01*
X120155500Y-142810943D01*
X120155500Y-142502058D01*
X120175185Y-142435019D01*
X120227989Y-142389264D01*
X120266896Y-142378700D01*
X120303815Y-142374929D01*
X120471462Y-142319377D01*
X120621778Y-142226660D01*
X120746660Y-142101778D01*
X120839377Y-141951462D01*
X120894929Y-141783815D01*
X120905500Y-141680342D01*
X120905500Y-139489658D01*
X120894929Y-139386185D01*
X120839377Y-139218538D01*
X120839373Y-139218532D01*
X120839372Y-139218529D01*
X120746662Y-139068225D01*
X120746659Y-139068221D01*
X120621778Y-138943340D01*
X120621774Y-138943337D01*
X120471470Y-138850627D01*
X120471464Y-138850624D01*
X120471462Y-138850623D01*
X120400205Y-138827011D01*
X120303816Y-138795071D01*
X120200349Y-138784500D01*
X120200342Y-138784500D01*
X118909658Y-138784500D01*
X118909650Y-138784500D01*
X118806183Y-138795071D01*
X118638540Y-138850622D01*
X118638529Y-138850627D01*
X118489597Y-138942491D01*
X118422205Y-138960932D01*
X118355541Y-138940010D01*
X118310772Y-138886368D01*
X118300500Y-138836953D01*
X118300500Y-135923791D01*
X120104500Y-135923791D01*
X120104500Y-136946218D01*
X120110866Y-137016281D01*
X120110868Y-137016288D01*
X120161113Y-137177531D01*
X120161116Y-137177540D01*
X120248489Y-137322073D01*
X120248492Y-137322077D01*
X120367922Y-137441507D01*
X120367926Y-137441510D01*
X120512459Y-137528883D01*
X120512462Y-137528884D01*
X120673712Y-137579132D01*
X120743789Y-137585500D01*
X121441019Y-137585499D01*
X121508058Y-137605183D01*
X121553813Y-137657987D01*
X121563757Y-137727146D01*
X121562637Y-137733687D01*
X121544501Y-137824870D01*
X121544500Y-137824873D01*
X121544500Y-137945133D01*
X121567959Y-138063068D01*
X121567961Y-138063076D01*
X121613980Y-138174177D01*
X121613985Y-138174186D01*
X121680793Y-138274170D01*
X121680796Y-138274174D01*
X121765825Y-138359203D01*
X121765829Y-138359206D01*
X121865813Y-138426014D01*
X121865822Y-138426019D01*
X121880501Y-138432099D01*
X121976924Y-138472039D01*
X122057151Y-138487997D01*
X122094866Y-138495499D01*
X122094870Y-138495500D01*
X122094871Y-138495500D01*
X122215130Y-138495500D01*
X122215131Y-138495499D01*
X122333076Y-138472039D01*
X122411468Y-138439567D01*
X122480935Y-138432099D01*
X122543414Y-138463374D01*
X122579067Y-138523462D01*
X122580209Y-138579908D01*
X122557600Y-138686281D01*
X122524408Y-138747762D01*
X122463245Y-138781539D01*
X122436310Y-138784500D01*
X122087333Y-138784500D01*
X121955419Y-138814608D01*
X121955411Y-138814611D01*
X121833495Y-138873323D01*
X121727694Y-138957694D01*
X121643323Y-139063495D01*
X121584611Y-139185411D01*
X121584608Y-139185419D01*
X121554500Y-139317333D01*
X121554500Y-141852666D01*
X121584608Y-141984580D01*
X121584611Y-141984588D01*
X121643323Y-142106504D01*
X121643324Y-142106505D01*
X121643325Y-142106507D01*
X121647284Y-142111471D01*
X121727694Y-142212305D01*
X121788289Y-142260626D01*
X121833493Y-142296675D01*
X121955412Y-142355389D01*
X121955416Y-142355389D01*
X121955419Y-142355391D01*
X122087333Y-142385499D01*
X122087338Y-142385499D01*
X122087340Y-142385500D01*
X122115438Y-142385500D01*
X122436310Y-142385500D01*
X122503349Y-142405185D01*
X122549104Y-142457989D01*
X122557599Y-142483716D01*
X122561498Y-142502058D01*
X122588291Y-142628112D01*
X122589486Y-142633731D01*
X122657928Y-142787455D01*
X122756836Y-142923589D01*
X122756837Y-142923590D01*
X122756838Y-142923591D01*
X122756840Y-142923594D01*
X122818205Y-142978846D01*
X122881886Y-143036185D01*
X123027614Y-143120321D01*
X123027616Y-143120321D01*
X123027619Y-143120323D01*
X123083464Y-143138467D01*
X123187650Y-143172320D01*
X123355000Y-143189909D01*
X123522350Y-143172320D01*
X123682386Y-143120321D01*
X123828114Y-143036185D01*
X123948032Y-142928210D01*
X123953159Y-142923594D01*
X123953159Y-142923592D01*
X123953164Y-142923589D01*
X124052072Y-142787455D01*
X124120514Y-142633731D01*
X124152400Y-142483718D01*
X124185592Y-142422237D01*
X124246755Y-142388461D01*
X124273690Y-142385500D01*
X124622658Y-142385500D01*
X124622660Y-142385500D01*
X124622662Y-142385499D01*
X124622666Y-142385499D01*
X124754580Y-142355391D01*
X124754581Y-142355390D01*
X124754588Y-142355389D01*
X124876507Y-142296675D01*
X124982305Y-142212305D01*
X125066675Y-142106507D01*
X125125389Y-141984588D01*
X125128944Y-141969011D01*
X125155499Y-141852666D01*
X125155500Y-141852658D01*
X125155500Y-139317341D01*
X125155499Y-139317333D01*
X125125391Y-139185419D01*
X125125389Y-139185416D01*
X125125389Y-139185412D01*
X125066675Y-139063493D01*
X125027922Y-139014898D01*
X124982305Y-138957694D01*
X124906319Y-138897099D01*
X124876507Y-138873325D01*
X124876505Y-138873324D01*
X124876504Y-138873323D01*
X124754588Y-138814611D01*
X124754580Y-138814608D01*
X124622666Y-138784500D01*
X124622660Y-138784500D01*
X124594562Y-138784500D01*
X124273690Y-138784500D01*
X124206651Y-138764815D01*
X124160896Y-138712011D01*
X124152400Y-138686281D01*
X124151913Y-138683992D01*
X124129790Y-138579909D01*
X124135106Y-138510243D01*
X124177243Y-138454509D01*
X124242823Y-138430404D01*
X124298532Y-138439567D01*
X124376924Y-138472039D01*
X124457151Y-138487997D01*
X124494866Y-138495499D01*
X124494870Y-138495500D01*
X124494871Y-138495500D01*
X124615130Y-138495500D01*
X124615131Y-138495499D01*
X124733076Y-138472039D01*
X124844180Y-138426018D01*
X124944171Y-138359206D01*
X125029206Y-138274171D01*
X125096018Y-138174180D01*
X125142039Y-138063076D01*
X125165500Y-137945129D01*
X125165500Y-137824871D01*
X125147363Y-137733689D01*
X125153591Y-137664098D01*
X125196455Y-137608921D01*
X125262345Y-137585677D01*
X125268981Y-137585499D01*
X125966217Y-137585499D01*
X126036281Y-137579133D01*
X126036282Y-137579132D01*
X126036288Y-137579132D01*
X126124393Y-137551677D01*
X128425000Y-137551677D01*
X128425000Y-137575000D01*
X129150000Y-137575000D01*
X129650000Y-137575000D01*
X130374999Y-137575000D01*
X130374999Y-137551692D01*
X130374998Y-137551677D01*
X130364855Y-137452392D01*
X130311547Y-137291518D01*
X130311542Y-137291507D01*
X130222575Y-137147271D01*
X130222572Y-137147267D01*
X130102732Y-137027427D01*
X130102728Y-137027424D01*
X129958492Y-136938457D01*
X129958481Y-136938452D01*
X129797606Y-136885144D01*
X129698322Y-136875000D01*
X129650000Y-136875000D01*
X129650000Y-137575000D01*
X129150000Y-137575000D01*
X129150000Y-136875000D01*
X129149999Y-136874999D01*
X129101693Y-136875000D01*
X129101675Y-136875001D01*
X129002392Y-136885144D01*
X128841518Y-136938452D01*
X128841507Y-136938457D01*
X128697271Y-137027424D01*
X128697267Y-137027427D01*
X128577427Y-137147267D01*
X128577424Y-137147271D01*
X128488457Y-137291507D01*
X128488452Y-137291518D01*
X128435144Y-137452393D01*
X128425000Y-137551677D01*
X126124393Y-137551677D01*
X126197538Y-137528884D01*
X126242944Y-137501434D01*
X126340584Y-137442411D01*
X126340585Y-137442410D01*
X126341119Y-137442086D01*
X126342078Y-137441507D01*
X126461507Y-137322078D01*
X126530119Y-137208579D01*
X126548883Y-137177540D01*
X126548886Y-137177531D01*
X126599132Y-137016288D01*
X126605500Y-136946211D01*
X126605499Y-135923790D01*
X126605499Y-135923789D01*
X126605499Y-135923781D01*
X126599133Y-135853718D01*
X126599132Y-135853714D01*
X126599132Y-135853712D01*
X126548884Y-135692462D01*
X126548883Y-135692459D01*
X126461510Y-135547926D01*
X126461507Y-135547922D01*
X126342077Y-135428492D01*
X126342072Y-135428488D01*
X126207818Y-135347330D01*
X126160630Y-135295803D01*
X126150350Y-135265404D01*
X126142371Y-135225292D01*
X126119737Y-135111503D01*
X126114005Y-135097664D01*
X126059397Y-134965827D01*
X126059390Y-134965814D01*
X125971789Y-134834711D01*
X125971786Y-134834707D01*
X125860292Y-134723213D01*
X125860288Y-134723210D01*
X125729185Y-134635609D01*
X125729172Y-134635602D01*
X125583501Y-134575264D01*
X125583489Y-134575261D01*
X125428845Y-134544500D01*
X125428842Y-134544500D01*
X125271158Y-134544500D01*
X125271155Y-134544500D01*
X125116510Y-134575261D01*
X125116498Y-134575264D01*
X124970827Y-134635602D01*
X124970814Y-134635609D01*
X124839711Y-134723210D01*
X124839707Y-134723213D01*
X124728213Y-134834707D01*
X124728210Y-134834711D01*
X124640609Y-134965814D01*
X124640602Y-134965827D01*
X124580264Y-135111498D01*
X124580261Y-135111510D01*
X124548311Y-135272132D01*
X124547475Y-135271965D01*
X124535243Y-135296911D01*
X124523465Y-135325591D01*
X124519461Y-135329099D01*
X124518127Y-135331821D01*
X124490829Y-135354192D01*
X124419148Y-135397524D01*
X124351593Y-135415360D01*
X124290847Y-135397523D01*
X124260348Y-135379085D01*
X124213162Y-135327556D01*
X124200500Y-135272969D01*
X124200500Y-135266155D01*
X124200499Y-135266153D01*
X124192371Y-135225292D01*
X124169737Y-135111503D01*
X124164005Y-135097664D01*
X124109397Y-134965827D01*
X124109390Y-134965814D01*
X124021789Y-134834711D01*
X124021786Y-134834707D01*
X123910292Y-134723213D01*
X123910288Y-134723210D01*
X123779185Y-134635609D01*
X123779172Y-134635602D01*
X123633501Y-134575264D01*
X123633489Y-134575261D01*
X123478845Y-134544500D01*
X123478842Y-134544500D01*
X123321158Y-134544500D01*
X123321155Y-134544500D01*
X123166510Y-134575261D01*
X123166498Y-134575264D01*
X123020827Y-134635602D01*
X123020814Y-134635609D01*
X122889711Y-134723210D01*
X122889707Y-134723213D01*
X122778213Y-134834707D01*
X122778210Y-134834711D01*
X122690609Y-134965814D01*
X122690602Y-134965827D01*
X122630264Y-135111498D01*
X122630261Y-135111508D01*
X122603731Y-135244883D01*
X122571346Y-135306794D01*
X122542397Y-135329051D01*
X122531213Y-135335272D01*
X122512462Y-135341116D01*
X122417263Y-135398665D01*
X122415283Y-135399767D01*
X122383306Y-135406987D01*
X122351594Y-135415360D01*
X122349262Y-135414675D01*
X122347129Y-135415157D01*
X122331388Y-135409426D01*
X122290851Y-135397524D01*
X122209160Y-135348141D01*
X122161972Y-135296614D01*
X122149906Y-135229867D01*
X122150499Y-135223846D01*
X122150500Y-135223842D01*
X122150500Y-135066158D01*
X122150500Y-135066155D01*
X122150499Y-135066153D01*
X122143226Y-135029591D01*
X122119737Y-134911503D01*
X122106209Y-134878844D01*
X122059397Y-134765827D01*
X122059390Y-134765814D01*
X121971789Y-134634711D01*
X121971786Y-134634707D01*
X121860292Y-134523213D01*
X121860288Y-134523210D01*
X121729185Y-134435609D01*
X121729172Y-134435602D01*
X121583501Y-134375264D01*
X121583489Y-134375261D01*
X121428845Y-134344500D01*
X121428842Y-134344500D01*
X121271158Y-134344500D01*
X121271155Y-134344500D01*
X121116510Y-134375261D01*
X121116498Y-134375264D01*
X120970827Y-134435602D01*
X120970814Y-134435609D01*
X120839711Y-134523210D01*
X120839707Y-134523213D01*
X120728213Y-134634707D01*
X120728210Y-134634711D01*
X120640609Y-134765814D01*
X120640602Y-134765827D01*
X120580264Y-134911498D01*
X120580261Y-134911510D01*
X120549500Y-135066153D01*
X120549500Y-135223844D01*
X120550097Y-135229907D01*
X120548772Y-135230037D01*
X120543144Y-135292838D01*
X120500273Y-135348010D01*
X120491910Y-135353539D01*
X120367923Y-135428491D01*
X120248492Y-135547922D01*
X120248489Y-135547926D01*
X120161116Y-135692459D01*
X120161113Y-135692468D01*
X120122865Y-135815212D01*
X120110868Y-135853712D01*
X120108585Y-135878842D01*
X120104500Y-135923791D01*
X118300500Y-135923791D01*
X118300500Y-126335391D01*
X118320185Y-126268352D01*
X118372989Y-126222597D01*
X118442147Y-126212653D01*
X118465577Y-126218633D01*
X118467508Y-126219089D01*
X118467513Y-126219089D01*
X118467517Y-126219091D01*
X118527127Y-126225500D01*
X118800501Y-126225499D01*
X118809186Y-126228049D01*
X118818147Y-126226761D01*
X118842183Y-126237738D01*
X118867539Y-126245183D01*
X118873467Y-126252025D01*
X118881703Y-126255786D01*
X118895989Y-126278017D01*
X118913294Y-126297987D01*
X118915581Y-126308502D01*
X118919477Y-126314564D01*
X118924500Y-126349499D01*
X118924500Y-126588330D01*
X118924499Y-126588348D01*
X118924499Y-126633268D01*
X118922116Y-126657460D01*
X118899500Y-126771155D01*
X118899500Y-126928846D01*
X118930261Y-127083489D01*
X118930264Y-127083501D01*
X118990602Y-127229172D01*
X118990609Y-127229185D01*
X119078210Y-127360288D01*
X119078213Y-127360292D01*
X119189707Y-127471786D01*
X119189711Y-127471789D01*
X119320814Y-127559390D01*
X119320827Y-127559397D01*
X119466498Y-127619735D01*
X119466503Y-127619737D01*
X119621153Y-127650499D01*
X119621156Y-127650500D01*
X119621158Y-127650500D01*
X119778844Y-127650500D01*
X119778845Y-127650499D01*
X119933497Y-127619737D01*
X120079179Y-127559394D01*
X120210289Y-127471789D01*
X120321789Y-127360289D01*
X120409394Y-127229179D01*
X120469737Y-127083497D01*
X120500500Y-126928842D01*
X120500500Y-126771158D01*
X120500500Y-126771155D01*
X120500499Y-126771153D01*
X120478447Y-126660292D01*
X120469737Y-126616503D01*
X120458075Y-126588348D01*
X120409397Y-126470827D01*
X120409390Y-126470814D01*
X120374361Y-126418390D01*
X120353483Y-126351713D01*
X120371967Y-126284333D01*
X120423946Y-126237642D01*
X120477463Y-126225499D01*
X120522871Y-126225499D01*
X120522872Y-126225499D01*
X120582483Y-126219091D01*
X120717331Y-126168796D01*
X120832546Y-126082546D01*
X120918796Y-125967331D01*
X120969091Y-125832483D01*
X120975500Y-125772873D01*
X120975499Y-124377128D01*
X120969091Y-124317517D01*
X120965914Y-124309000D01*
X120918797Y-124182671D01*
X120918793Y-124182664D01*
X120832547Y-124067455D01*
X120832544Y-124067452D01*
X120717335Y-123981206D01*
X120717328Y-123981202D01*
X120582482Y-123930908D01*
X120582483Y-123930908D01*
X120522883Y-123924501D01*
X120522881Y-123924500D01*
X120522873Y-123924500D01*
X120522865Y-123924500D01*
X120049000Y-123924500D01*
X119981961Y-123904815D01*
X119936206Y-123852011D01*
X119925000Y-123800500D01*
X119925000Y-121325000D01*
X118575000Y-121325000D01*
X118575000Y-123807969D01*
X118566879Y-123835622D01*
X118561637Y-123863963D01*
X118557158Y-123868731D01*
X118555315Y-123875008D01*
X118533536Y-123893878D01*
X118513801Y-123914890D01*
X118506507Y-123917300D01*
X118502511Y-123920763D01*
X118481134Y-123928252D01*
X118472791Y-123930341D01*
X118467517Y-123930909D01*
X118461355Y-123933207D01*
X118454634Y-123934891D01*
X118426354Y-123933755D01*
X118398127Y-123935771D01*
X118391904Y-123932372D01*
X118384821Y-123932088D01*
X118361648Y-123915846D01*
X118336808Y-123902279D01*
X118333410Y-123896055D01*
X118327605Y-123891986D01*
X118316890Y-123865790D01*
X118303331Y-123840951D01*
X118302119Y-123829680D01*
X118301153Y-123827317D01*
X118301603Y-123824879D01*
X118300500Y-123814608D01*
X118300500Y-112685391D01*
X118320185Y-112618352D01*
X118372989Y-112572597D01*
X118442147Y-112562653D01*
X118465577Y-112568633D01*
X118467516Y-112569091D01*
X118474444Y-112569835D01*
X118527127Y-112575500D01*
X119157215Y-112575499D01*
X119224254Y-112595183D01*
X119270009Y-112647987D01*
X119279953Y-112717146D01*
X119278832Y-112723690D01*
X119249500Y-112871153D01*
X119249500Y-113028846D01*
X119280261Y-113183489D01*
X119280264Y-113183501D01*
X119340602Y-113329172D01*
X119340609Y-113329185D01*
X119428210Y-113460288D01*
X119428213Y-113460292D01*
X119539707Y-113571786D01*
X119539711Y-113571789D01*
X119670814Y-113659390D01*
X119670827Y-113659397D01*
X119806134Y-113715442D01*
X119816503Y-113719737D01*
X119971153Y-113750499D01*
X119971156Y-113750500D01*
X119971158Y-113750500D01*
X120128844Y-113750500D01*
X120128845Y-113750499D01*
X120283497Y-113719737D01*
X120429179Y-113659394D01*
X120560289Y-113571789D01*
X120671789Y-113460289D01*
X120759394Y-113329179D01*
X120762393Y-113321940D01*
X120779862Y-113279765D01*
X120819737Y-113183497D01*
X120832675Y-113118455D01*
X120841357Y-113074809D01*
X120873742Y-113012898D01*
X120934458Y-112978324D01*
X120962974Y-112975000D01*
X127901000Y-112975000D01*
X127968039Y-112994685D01*
X128013794Y-113047489D01*
X128025000Y-113099000D01*
X128025000Y-121675000D01*
X129625000Y-121675000D01*
X129625000Y-112975000D01*
X128449000Y-112975000D01*
X128381961Y-112955315D01*
X128336206Y-112902511D01*
X128325000Y-112851000D01*
X128325000Y-112275000D01*
X125147190Y-112275000D01*
X125080151Y-112255315D01*
X125034396Y-112202511D01*
X125023901Y-112137744D01*
X125025042Y-112127129D01*
X125025500Y-112122873D01*
X125025499Y-111575095D01*
X125045183Y-111508057D01*
X125061813Y-111487420D01*
X126713416Y-109835819D01*
X126774739Y-109802334D01*
X126801097Y-109799500D01*
X131898057Y-109799500D01*
X131965096Y-109819185D01*
G37*
G04 #@! TD.AperFunction*
G04 #@! TA.AperFunction,Conductor*
G36*
X149570338Y-123371572D02*
G01*
X149586480Y-123372974D01*
X149590050Y-123375732D01*
X149598330Y-123377480D01*
X149627262Y-123398998D01*
X149629066Y-123400802D01*
X149634590Y-123410143D01*
X149641771Y-123415691D01*
X149658212Y-123446921D01*
X149659440Y-123450373D01*
X149697506Y-123581395D01*
X149718953Y-123617661D01*
X149722962Y-123628928D01*
X149726886Y-123698687D01*
X149712868Y-123733609D01*
X149697969Y-123758801D01*
X149697966Y-123758809D01*
X149652855Y-123914081D01*
X149652854Y-123914087D01*
X149651209Y-123934999D01*
X149651210Y-123935000D01*
X150076213Y-123935000D01*
X150092529Y-123936078D01*
X150101811Y-123937310D01*
X150189007Y-123962643D01*
X150225310Y-123965500D01*
X150314194Y-123965500D01*
X150322316Y-123966578D01*
X150347066Y-123977558D01*
X150373039Y-123985185D01*
X150378523Y-123991514D01*
X150386182Y-123994912D01*
X150401066Y-124017530D01*
X150418794Y-124037989D01*
X150420899Y-124047668D01*
X150424591Y-124053278D01*
X150424720Y-124065232D01*
X150430000Y-124089500D01*
X150430000Y-124185000D01*
X150485500Y-124185000D01*
X150552539Y-124204685D01*
X150598294Y-124257489D01*
X150609500Y-124309000D01*
X150609500Y-124419697D01*
X150612356Y-124455991D01*
X150612357Y-124455997D01*
X150657504Y-124611391D01*
X150657507Y-124611399D01*
X150662732Y-124620233D01*
X150667082Y-124636134D01*
X150674977Y-124648419D01*
X150680000Y-124683354D01*
X150680000Y-124686646D01*
X150662734Y-124749764D01*
X150657507Y-124758601D01*
X150657504Y-124758610D01*
X150612357Y-124914002D01*
X150612356Y-124914008D01*
X150609500Y-124950302D01*
X150609500Y-125419697D01*
X150612356Y-125455991D01*
X150612357Y-125455997D01*
X150657503Y-125611389D01*
X150657505Y-125611393D01*
X150657506Y-125611395D01*
X150662732Y-125620233D01*
X150667082Y-125636132D01*
X150674977Y-125648417D01*
X150680000Y-125683352D01*
X150680000Y-125905613D01*
X150677617Y-125929805D01*
X150649500Y-126071155D01*
X150649500Y-126228846D01*
X150680261Y-126383489D01*
X150680264Y-126383501D01*
X150740602Y-126529172D01*
X150740609Y-126529185D01*
X150828210Y-126660288D01*
X150828213Y-126660292D01*
X150939707Y-126771786D01*
X150939711Y-126771789D01*
X151070814Y-126859390D01*
X151070827Y-126859397D01*
X151209521Y-126916845D01*
X151263925Y-126960685D01*
X151285990Y-127026979D01*
X151268711Y-127094679D01*
X151225241Y-127136256D01*
X151225886Y-127137221D01*
X151089711Y-127228210D01*
X151089707Y-127228213D01*
X151021259Y-127296662D01*
X150959936Y-127330147D01*
X150890244Y-127325163D01*
X150845897Y-127296662D01*
X149944262Y-126395027D01*
X149936586Y-126380969D01*
X149924927Y-126369985D01*
X149920184Y-126350932D01*
X149910777Y-126333704D01*
X149911724Y-126316947D01*
X149908050Y-126302184D01*
X149914115Y-126274697D01*
X149914523Y-126267489D01*
X149915825Y-126263651D01*
X149969737Y-126133497D01*
X149983510Y-126064251D01*
X149986121Y-126056562D01*
X150001730Y-126034363D01*
X150014308Y-126010318D01*
X150021529Y-126006205D01*
X150026310Y-125999407D01*
X150051442Y-125989171D01*
X150075023Y-125975743D01*
X150083864Y-125975966D01*
X150091019Y-125973053D01*
X150110217Y-125976634D01*
X150138135Y-125977342D01*
X150180000Y-125989504D01*
X150180000Y-124435000D01*
X149651210Y-124435000D01*
X149652854Y-124455910D01*
X149697968Y-124611195D01*
X149697968Y-124611196D01*
X149704288Y-124621882D01*
X149721468Y-124689607D01*
X149704288Y-124748118D01*
X149697969Y-124758803D01*
X149652854Y-124914089D01*
X149652854Y-124914092D01*
X149650000Y-124950355D01*
X149650000Y-125034362D01*
X149630315Y-125101401D01*
X149577511Y-125147156D01*
X149508353Y-125157100D01*
X149478548Y-125148923D01*
X149433501Y-125130264D01*
X149433489Y-125130261D01*
X149278845Y-125099500D01*
X149278842Y-125099500D01*
X149121158Y-125099500D01*
X149121155Y-125099500D01*
X148966505Y-125130261D01*
X148893353Y-125160562D01*
X148845901Y-125170000D01*
X148548352Y-125170000D01*
X148485233Y-125152732D01*
X148476395Y-125147506D01*
X148476393Y-125147505D01*
X148476389Y-125147503D01*
X148320997Y-125102357D01*
X148320991Y-125102356D01*
X148284697Y-125099500D01*
X148284690Y-125099500D01*
X148174000Y-125099500D01*
X148165314Y-125096949D01*
X148156353Y-125098238D01*
X148132312Y-125087259D01*
X148106961Y-125079815D01*
X148101033Y-125072974D01*
X148092797Y-125069213D01*
X148078507Y-125046978D01*
X148061206Y-125027011D01*
X148058918Y-125016496D01*
X148055023Y-125010435D01*
X148050000Y-124975500D01*
X148050000Y-124794000D01*
X148069685Y-124726961D01*
X148122489Y-124681206D01*
X148174000Y-124670000D01*
X148854504Y-124670000D01*
X148812031Y-124523804D01*
X148729721Y-124384625D01*
X148729714Y-124384616D01*
X148615383Y-124270285D01*
X148615377Y-124270281D01*
X148508378Y-124207001D01*
X148460695Y-124155931D01*
X148447500Y-124100269D01*
X148447500Y-123669000D01*
X148467185Y-123601961D01*
X148519989Y-123556206D01*
X148571500Y-123545000D01*
X149115554Y-123545000D01*
X149203943Y-123534386D01*
X149344597Y-123478919D01*
X149464655Y-123387876D01*
X149509363Y-123370883D01*
X149516872Y-123366930D01*
X149519226Y-123367134D01*
X149529967Y-123363052D01*
X149570338Y-123371572D01*
G37*
G04 #@! TD.AperFunction*
G04 #@! TA.AperFunction,Conductor*
G36*
X142924000Y-121755500D02*
G01*
X143023673Y-121755500D01*
X143090712Y-121775185D01*
X143136467Y-121827989D01*
X143147290Y-121869771D01*
X143149876Y-121902623D01*
X143157892Y-121930215D01*
X143195306Y-122058996D01*
X143278195Y-122199154D01*
X143278202Y-122199163D01*
X143393336Y-122314297D01*
X143393340Y-122314300D01*
X143393342Y-122314302D01*
X143533504Y-122397194D01*
X143689877Y-122442624D01*
X143726420Y-122445500D01*
X146544036Y-122445500D01*
X146550540Y-122447409D01*
X146557211Y-122446202D01*
X146583639Y-122457128D01*
X146611075Y-122465185D01*
X146615513Y-122470307D01*
X146621779Y-122472898D01*
X146652869Y-122510074D01*
X146656446Y-122516626D01*
X146754488Y-122621929D01*
X146756994Y-122623948D01*
X146758828Y-122626590D01*
X146760532Y-122628420D01*
X146760268Y-122628664D01*
X146796842Y-122681340D01*
X146799336Y-122751166D01*
X146763684Y-122811255D01*
X146701205Y-122842530D01*
X146679188Y-122844500D01*
X146554398Y-122844500D01*
X146510940Y-122849718D01*
X146462283Y-122855561D01*
X146435330Y-122855561D01*
X146434325Y-122855743D01*
X146433885Y-122855561D01*
X146432717Y-122855561D01*
X146384059Y-122849718D01*
X146340602Y-122844500D01*
X146154398Y-122844500D01*
X146110940Y-122849718D01*
X146062283Y-122855561D01*
X146032717Y-122855561D01*
X145984059Y-122849718D01*
X145940602Y-122844500D01*
X145754398Y-122844500D01*
X145710940Y-122849718D01*
X145662283Y-122855561D01*
X145632717Y-122855561D01*
X145584059Y-122849718D01*
X145540602Y-122844500D01*
X145354398Y-122844500D01*
X145310940Y-122849718D01*
X145262283Y-122855561D01*
X145232717Y-122855561D01*
X145184059Y-122849718D01*
X145140602Y-122844500D01*
X144954398Y-122844500D01*
X144910940Y-122849718D01*
X144862283Y-122855561D01*
X144832717Y-122855561D01*
X144784059Y-122849718D01*
X144740602Y-122844500D01*
X144554398Y-122844500D01*
X144493728Y-122851785D01*
X144460179Y-122855814D01*
X144430613Y-122855814D01*
X144340555Y-122845000D01*
X144154445Y-122845000D01*
X144064387Y-122855814D01*
X144034821Y-122855814D01*
X144001271Y-122851785D01*
X143940602Y-122844500D01*
X143754398Y-122844500D01*
X143710940Y-122849718D01*
X143662283Y-122855561D01*
X143632717Y-122855561D01*
X143584059Y-122849718D01*
X143540602Y-122844500D01*
X143354398Y-122844500D01*
X143310940Y-122849718D01*
X143262283Y-122855561D01*
X143232717Y-122855561D01*
X143184059Y-122849718D01*
X143140602Y-122844500D01*
X142954398Y-122844500D01*
X142913160Y-122849452D01*
X142876549Y-122853848D01*
X142807641Y-122842296D01*
X142755917Y-122795323D01*
X142737800Y-122727843D01*
X142738649Y-122715967D01*
X142748000Y-122638102D01*
X142748000Y-122451898D01*
X142737377Y-122363436D01*
X142737376Y-122363434D01*
X142736938Y-122359785D01*
X142736938Y-122330215D01*
X142737376Y-122326565D01*
X142737377Y-122326564D01*
X142748000Y-122238102D01*
X142748000Y-122051898D01*
X142737377Y-121963436D01*
X142737376Y-121963434D01*
X142736938Y-121959785D01*
X142736938Y-121930215D01*
X142737376Y-121926566D01*
X142737377Y-121926564D01*
X142745605Y-121858040D01*
X142749743Y-121848392D01*
X142749743Y-121837893D01*
X142763275Y-121816834D01*
X142773142Y-121793828D01*
X142781840Y-121787947D01*
X142787517Y-121779114D01*
X142810288Y-121768714D01*
X142831024Y-121754696D01*
X142843205Y-121753681D01*
X142851073Y-121750089D01*
X142886365Y-121750089D01*
X142924000Y-121755500D01*
G37*
G04 #@! TD.AperFunction*
G04 #@! TA.AperFunction,Conductor*
G36*
X152462539Y-119119685D02*
G01*
X152508294Y-119172489D01*
X152519500Y-119224000D01*
X152519500Y-119334697D01*
X152522356Y-119370991D01*
X152522357Y-119370997D01*
X152567504Y-119526390D01*
X152570603Y-119533551D01*
X152568258Y-119534565D01*
X152574448Y-119543393D01*
X152575353Y-119565864D01*
X152580890Y-119587666D01*
X152576733Y-119600105D01*
X152577261Y-119613206D01*
X152563707Y-119646210D01*
X152547506Y-119673603D01*
X152547504Y-119673610D01*
X152502357Y-119829002D01*
X152502356Y-119829008D01*
X152499500Y-119865302D01*
X152499500Y-119976000D01*
X152496949Y-119984685D01*
X152498238Y-119993647D01*
X152487259Y-120017687D01*
X152479815Y-120043039D01*
X152472974Y-120048966D01*
X152469213Y-120057203D01*
X152446978Y-120071492D01*
X152427011Y-120088794D01*
X152416496Y-120091081D01*
X152410435Y-120094977D01*
X152375500Y-120100000D01*
X152194000Y-120100000D01*
X152126961Y-120080315D01*
X152081206Y-120027511D01*
X152070000Y-119976000D01*
X152070000Y-119937210D01*
X152079439Y-119889757D01*
X152089565Y-119865310D01*
X152101112Y-119837434D01*
X152131875Y-119682779D01*
X152131875Y-119682772D01*
X152132472Y-119676719D01*
X152134027Y-119676872D01*
X152136157Y-119668923D01*
X152135588Y-119654790D01*
X152143601Y-119641142D01*
X152148487Y-119622907D01*
X152209577Y-119517097D01*
X152250501Y-119364369D01*
X152250501Y-119224000D01*
X152253051Y-119215314D01*
X152251763Y-119206353D01*
X152262741Y-119182312D01*
X152270186Y-119156961D01*
X152277026Y-119151033D01*
X152280788Y-119142797D01*
X152303022Y-119128507D01*
X152322990Y-119111206D01*
X152333504Y-119108918D01*
X152339566Y-119105023D01*
X152374501Y-119100000D01*
X152395500Y-119100000D01*
X152462539Y-119119685D01*
G37*
G04 #@! TD.AperFunction*
G04 #@! TA.AperFunction,Conductor*
G36*
X136320900Y-116582367D02*
G01*
X136376077Y-116625230D01*
X136399322Y-116691120D01*
X136399500Y-116697756D01*
X136399500Y-116900000D01*
X136399501Y-116900019D01*
X136410000Y-117002796D01*
X136410002Y-117002801D01*
X136413204Y-117012464D01*
X136413654Y-117015255D01*
X136414476Y-117016534D01*
X136419497Y-117051460D01*
X136419499Y-117051469D01*
X136419499Y-117159057D01*
X136419499Y-117159059D01*
X136419500Y-117169053D01*
X136419500Y-117283333D01*
X136399815Y-117350372D01*
X136383181Y-117371014D01*
X136369887Y-117384307D01*
X136369881Y-117384315D01*
X136287505Y-117523606D01*
X136287504Y-117523609D01*
X136242357Y-117679002D01*
X136242356Y-117679008D01*
X136239500Y-117715302D01*
X136239500Y-118184697D01*
X136242356Y-118220991D01*
X136242357Y-118220997D01*
X136289682Y-118383887D01*
X136288361Y-118384270D01*
X136295900Y-118445366D01*
X136280274Y-118488380D01*
X136267134Y-118510599D01*
X136267129Y-118510611D01*
X136222335Y-118664791D01*
X136222334Y-118664797D01*
X136219500Y-118700811D01*
X136219500Y-119166000D01*
X136199815Y-119233039D01*
X136147011Y-119278794D01*
X136113150Y-119288737D01*
X135867149Y-119324113D01*
X135840824Y-119320329D01*
X135814224Y-119320253D01*
X135806773Y-119315434D01*
X135797990Y-119314172D01*
X135777886Y-119296752D01*
X135755554Y-119282310D01*
X135751891Y-119274228D01*
X135745185Y-119268418D01*
X135737690Y-119242897D01*
X135726711Y-119218672D01*
X135725499Y-119201387D01*
X135725499Y-118577128D01*
X135719091Y-118517517D01*
X135700889Y-118468716D01*
X135700480Y-118467618D01*
X135695495Y-118397927D01*
X135700480Y-118380949D01*
X135718597Y-118332375D01*
X135718598Y-118332372D01*
X135724999Y-118272844D01*
X135725000Y-118272827D01*
X135725000Y-118125000D01*
X135284167Y-118125000D01*
X135276188Y-118124572D01*
X135276183Y-118124678D01*
X135272879Y-118124500D01*
X135272873Y-118124500D01*
X135272866Y-118124500D01*
X134749000Y-118124500D01*
X134681961Y-118104815D01*
X134636206Y-118052011D01*
X134625000Y-118000500D01*
X134625000Y-117749499D01*
X134644685Y-117682460D01*
X134697489Y-117636705D01*
X134748998Y-117625499D01*
X135272872Y-117625499D01*
X135272872Y-117625498D01*
X135276196Y-117625321D01*
X135276201Y-117625426D01*
X135284163Y-117625000D01*
X135725000Y-117625000D01*
X135725000Y-117477172D01*
X135724999Y-117477155D01*
X135718598Y-117417627D01*
X135700479Y-117369048D01*
X135695495Y-117299356D01*
X135700476Y-117282391D01*
X135719091Y-117232483D01*
X135725500Y-117172873D01*
X135725499Y-116702728D01*
X135745183Y-116635690D01*
X135797987Y-116589935D01*
X135867146Y-116579991D01*
X135873673Y-116581109D01*
X135918045Y-116589935D01*
X135971156Y-116600500D01*
X135971158Y-116600500D01*
X136128844Y-116600500D01*
X136251308Y-116576140D01*
X136320900Y-116582367D01*
G37*
G04 #@! TD.AperFunction*
G04 #@! TA.AperFunction,Conductor*
G36*
X154156021Y-103299831D02*
G01*
X154158009Y-103299793D01*
X154158011Y-103299794D01*
X154201209Y-103298983D01*
X154209941Y-103299128D01*
X154415580Y-103309839D01*
X154432958Y-103311983D01*
X154630689Y-103350738D01*
X154647609Y-103355318D01*
X154837880Y-103421570D01*
X154853976Y-103428486D01*
X155003797Y-103505835D01*
X155033004Y-103520914D01*
X155047972Y-103530035D01*
X155060296Y-103538798D01*
X155103526Y-103593686D01*
X155110220Y-103663234D01*
X155078250Y-103725361D01*
X155044096Y-103750668D01*
X155029287Y-103758105D01*
X154997367Y-103774136D01*
X154997365Y-103774137D01*
X154997360Y-103774140D01*
X154917270Y-103839383D01*
X154917252Y-103839399D01*
X154457636Y-104299017D01*
X154457625Y-104299029D01*
X154392367Y-104379135D01*
X154391072Y-104381137D01*
X154389952Y-104382100D01*
X154388093Y-104384383D01*
X154387685Y-104384051D01*
X154338113Y-104426714D01*
X154268922Y-104436424D01*
X154205464Y-104407184D01*
X154183881Y-104382637D01*
X154121789Y-104289711D01*
X154121786Y-104289707D01*
X154010292Y-104178213D01*
X154010288Y-104178210D01*
X153879185Y-104090609D01*
X153879172Y-104090602D01*
X153733501Y-104030264D01*
X153733489Y-104030261D01*
X153578845Y-103999500D01*
X153578842Y-103999500D01*
X153421158Y-103999500D01*
X153421155Y-103999500D01*
X153266510Y-104030261D01*
X153266498Y-104030264D01*
X153120827Y-104090602D01*
X153120814Y-104090609D01*
X152989711Y-104178210D01*
X152989707Y-104178213D01*
X152878213Y-104289707D01*
X152878210Y-104289711D01*
X152790609Y-104420814D01*
X152790602Y-104420827D01*
X152730264Y-104566498D01*
X152730261Y-104566510D01*
X152699500Y-104721153D01*
X152699500Y-104878846D01*
X152730261Y-105033489D01*
X152730264Y-105033501D01*
X152790602Y-105179172D01*
X152790609Y-105179185D01*
X152878210Y-105310288D01*
X152878213Y-105310292D01*
X152989707Y-105421786D01*
X152989711Y-105421789D01*
X153120814Y-105509390D01*
X153120827Y-105509397D01*
X153191893Y-105538833D01*
X153246297Y-105582673D01*
X153268362Y-105648967D01*
X153265098Y-105681991D01*
X153254938Y-105724858D01*
X153254938Y-105900298D01*
X153254939Y-105900309D01*
X153295397Y-106071012D01*
X153321410Y-106122809D01*
X153374136Y-106227796D01*
X153439393Y-106307903D01*
X154146513Y-107015021D01*
X154226620Y-107080280D01*
X154332576Y-107133492D01*
X154383403Y-107159018D01*
X154510711Y-107189191D01*
X154554114Y-107199478D01*
X154554117Y-107199478D01*
X154729553Y-107199478D01*
X154729556Y-107199478D01*
X154900268Y-107159017D01*
X154955986Y-107131034D01*
X155024727Y-107118538D01*
X155089314Y-107145190D01*
X155126196Y-107194390D01*
X155140606Y-107229179D01*
X155140607Y-107229181D01*
X155140609Y-107229185D01*
X155228210Y-107360288D01*
X155228213Y-107360292D01*
X155339707Y-107471786D01*
X155339711Y-107471789D01*
X155470814Y-107559390D01*
X155470827Y-107559397D01*
X155612464Y-107618064D01*
X155616503Y-107619737D01*
X155656234Y-107627640D01*
X155725728Y-107641464D01*
X155787639Y-107673849D01*
X155822214Y-107734565D01*
X155818474Y-107804334D01*
X155777607Y-107861006D01*
X155733632Y-107882855D01*
X155710996Y-107888921D01*
X155586305Y-107922332D01*
X155586304Y-107922333D01*
X155481422Y-107982887D01*
X155427074Y-107997449D01*
X155427218Y-107998903D01*
X155421153Y-107999500D01*
X155266510Y-108030261D01*
X155266498Y-108030264D01*
X155120827Y-108090602D01*
X155120814Y-108090609D01*
X154989711Y-108178210D01*
X154989707Y-108178213D01*
X154878213Y-108289707D01*
X154878210Y-108289711D01*
X154790609Y-108420814D01*
X154790602Y-108420827D01*
X154730264Y-108566498D01*
X154730261Y-108566510D01*
X154699500Y-108721153D01*
X154699500Y-108878846D01*
X154730261Y-109033489D01*
X154730264Y-109033501D01*
X154790602Y-109179172D01*
X154790609Y-109179185D01*
X154878210Y-109310288D01*
X154878213Y-109310292D01*
X154989707Y-109421786D01*
X154989711Y-109421789D01*
X155120814Y-109509390D01*
X155120827Y-109509397D01*
X155266498Y-109569735D01*
X155266503Y-109569737D01*
X155421153Y-109600499D01*
X155421156Y-109600500D01*
X155421158Y-109600500D01*
X155578844Y-109600500D01*
X155578845Y-109600499D01*
X155733497Y-109569737D01*
X155879179Y-109509394D01*
X156010289Y-109421789D01*
X156121789Y-109310289D01*
X156166016Y-109244097D01*
X156219627Y-109199294D01*
X156288952Y-109190586D01*
X156351980Y-109220740D01*
X156356789Y-109225299D01*
X156692097Y-109560605D01*
X156692101Y-109560608D01*
X156692103Y-109560610D01*
X156695183Y-109563119D01*
X156772204Y-109625864D01*
X156928985Y-109704601D01*
X156928987Y-109704602D01*
X157071530Y-109738386D01*
X157099698Y-109745062D01*
X157099701Y-109745062D01*
X157115325Y-109745062D01*
X157182364Y-109764747D01*
X157228119Y-109817551D01*
X157232115Y-109840161D01*
X157241210Y-109850000D01*
X157896000Y-109850000D01*
X157963039Y-109869685D01*
X158008794Y-109922489D01*
X158020000Y-109974000D01*
X158020000Y-110226000D01*
X158000315Y-110293039D01*
X157947511Y-110338794D01*
X157896000Y-110350000D01*
X157241210Y-110350000D01*
X157242855Y-110370917D01*
X157242855Y-110370919D01*
X157262925Y-110439999D01*
X157262926Y-110440000D01*
X157313500Y-110440000D01*
X157380539Y-110459685D01*
X157426294Y-110512489D01*
X157437500Y-110564000D01*
X157437500Y-111271000D01*
X157417815Y-111338039D01*
X157365011Y-111383794D01*
X157313500Y-111395000D01*
X157187500Y-111395000D01*
X157187500Y-111521000D01*
X157167815Y-111588039D01*
X157115011Y-111633794D01*
X157063500Y-111645000D01*
X155878085Y-111645000D01*
X155881064Y-111677792D01*
X155881067Y-111677802D01*
X155928927Y-111831392D01*
X156009918Y-111965366D01*
X156027754Y-112032920D01*
X156009918Y-112093665D01*
X155992263Y-112122870D01*
X155928469Y-112228397D01*
X155880569Y-112382116D01*
X155874500Y-112448911D01*
X155874500Y-112881098D01*
X155880568Y-112947882D01*
X155880571Y-112947893D01*
X155928467Y-113101599D01*
X156009625Y-113235850D01*
X156027461Y-113303405D01*
X156009625Y-113364150D01*
X155928469Y-113498397D01*
X155880569Y-113652116D01*
X155874500Y-113718911D01*
X155874500Y-114151098D01*
X155880568Y-114217882D01*
X155880571Y-114217893D01*
X155928467Y-114371599D01*
X155928468Y-114371601D01*
X155955520Y-114416349D01*
X155973357Y-114483904D01*
X155951840Y-114550378D01*
X155897800Y-114594666D01*
X155849404Y-114604500D01*
X152248769Y-114604500D01*
X152248753Y-114604499D01*
X152241157Y-114604499D01*
X152083043Y-114604499D01*
X151996099Y-114627796D01*
X151930313Y-114645423D01*
X151926710Y-114647504D01*
X151923286Y-114648334D01*
X151922807Y-114648533D01*
X151922776Y-114648458D01*
X151858809Y-114663974D01*
X151792783Y-114641120D01*
X151777032Y-114627796D01*
X151361818Y-114212583D01*
X151328333Y-114151260D01*
X151325499Y-114124910D01*
X151325499Y-113718910D01*
X151325499Y-113718909D01*
X151325499Y-113718901D01*
X151319431Y-113652117D01*
X151319428Y-113652106D01*
X151271532Y-113498401D01*
X151271531Y-113498400D01*
X151271531Y-113498398D01*
X151190373Y-113364147D01*
X151172538Y-113296596D01*
X151190373Y-113235852D01*
X151271531Y-113101602D01*
X151319430Y-112947887D01*
X151325500Y-112881091D01*
X151325499Y-112448910D01*
X151325499Y-112448909D01*
X151325499Y-112448901D01*
X151319431Y-112382117D01*
X151319428Y-112382106D01*
X151271532Y-112228401D01*
X151271531Y-112228400D01*
X151271531Y-112228398D01*
X151190373Y-112094147D01*
X151172538Y-112026596D01*
X151190373Y-111965852D01*
X151271531Y-111831602D01*
X151319430Y-111677887D01*
X151325500Y-111611091D01*
X151325499Y-111178910D01*
X151325499Y-111178901D01*
X151322419Y-111144999D01*
X155878085Y-111144999D01*
X155878085Y-111145000D01*
X156937500Y-111145000D01*
X156937500Y-110570000D01*
X156483957Y-110570000D01*
X156417207Y-110576065D01*
X156263603Y-110623929D01*
X156125919Y-110707163D01*
X156012163Y-110820919D01*
X155928927Y-110958607D01*
X155881067Y-111112197D01*
X155881064Y-111112207D01*
X155878085Y-111144999D01*
X151322419Y-111144999D01*
X151319431Y-111112117D01*
X151319428Y-111112106D01*
X151271532Y-110958401D01*
X151271531Y-110958400D01*
X151271531Y-110958398D01*
X151188236Y-110820612D01*
X151188234Y-110820610D01*
X151188233Y-110820608D01*
X151074391Y-110706766D01*
X151028113Y-110678790D01*
X150936602Y-110623469D01*
X150782887Y-110575570D01*
X150782885Y-110575569D01*
X150782883Y-110575569D01*
X150736117Y-110571319D01*
X150716091Y-110569500D01*
X150716088Y-110569500D01*
X150688029Y-110569500D01*
X150620990Y-110549815D01*
X150575235Y-110497011D01*
X150565291Y-110427853D01*
X150571181Y-110407026D01*
X150570693Y-110406885D01*
X150617664Y-110245208D01*
X150617664Y-110245206D01*
X150617665Y-110245204D01*
X150620500Y-110209181D01*
X150620499Y-109810820D01*
X150617665Y-109774796D01*
X150572869Y-109620607D01*
X150538581Y-109562629D01*
X150521398Y-109494905D01*
X150538582Y-109436386D01*
X150572404Y-109379196D01*
X150572405Y-109379194D01*
X150612844Y-109240000D01*
X150060409Y-109240000D01*
X150059954Y-109239999D01*
X150055305Y-109239981D01*
X150049181Y-109239500D01*
X149923886Y-109239500D01*
X149923545Y-109239499D01*
X149890216Y-109229579D01*
X149856961Y-109219815D01*
X149856806Y-109219636D01*
X149856579Y-109219569D01*
X149833867Y-109193163D01*
X149811206Y-109167011D01*
X149811149Y-109166750D01*
X149811018Y-109166598D01*
X149810840Y-109165331D01*
X149800000Y-109115500D01*
X149800000Y-108990000D01*
X149674000Y-108990000D01*
X149606961Y-108970315D01*
X149561206Y-108917511D01*
X149550000Y-108866000D01*
X149550000Y-108740000D01*
X150050000Y-108740000D01*
X150612844Y-108740000D01*
X150572404Y-108600805D01*
X150490738Y-108462714D01*
X150490731Y-108462705D01*
X150377294Y-108349268D01*
X150377285Y-108349261D01*
X150239191Y-108267593D01*
X150239188Y-108267592D01*
X150085130Y-108222834D01*
X150050000Y-108220068D01*
X150050000Y-108740000D01*
X149550000Y-108740000D01*
X149550000Y-108220068D01*
X149549999Y-108220068D01*
X149514872Y-108222833D01*
X149359094Y-108268091D01*
X149289225Y-108267891D01*
X149230555Y-108229948D01*
X149201712Y-108166310D01*
X149200500Y-108149014D01*
X149200500Y-107398340D01*
X149220185Y-107331301D01*
X149272989Y-107285546D01*
X149342147Y-107275602D01*
X149389591Y-107292798D01*
X149530666Y-107379814D01*
X149697203Y-107434999D01*
X149799991Y-107445500D01*
X150252379Y-107445499D01*
X150319418Y-107465183D01*
X150365173Y-107517987D01*
X150366940Y-107522045D01*
X150390606Y-107579179D01*
X150390609Y-107579185D01*
X150478210Y-107710288D01*
X150478213Y-107710292D01*
X150589707Y-107821786D01*
X150589711Y-107821789D01*
X150720814Y-107909390D01*
X150720827Y-107909397D01*
X150855991Y-107965383D01*
X150866503Y-107969737D01*
X151016131Y-107999500D01*
X151021153Y-108000499D01*
X151021156Y-108000500D01*
X151021158Y-108000500D01*
X151178844Y-108000500D01*
X151178845Y-108000499D01*
X151333497Y-107969737D01*
X151479179Y-107909394D01*
X151610289Y-107821789D01*
X151721789Y-107710289D01*
X151809394Y-107579179D01*
X151869737Y-107433497D01*
X151900500Y-107278842D01*
X151900500Y-107121158D01*
X151900500Y-107121155D01*
X151900499Y-107121153D01*
X151880543Y-107020827D01*
X151869737Y-106966503D01*
X151859089Y-106940796D01*
X151809397Y-106820827D01*
X151809390Y-106820814D01*
X151721789Y-106689711D01*
X151721786Y-106689707D01*
X151610292Y-106578213D01*
X151610288Y-106578210D01*
X151555608Y-106541674D01*
X151510803Y-106488062D01*
X151500499Y-106438572D01*
X151500499Y-106094998D01*
X151500498Y-106094981D01*
X151489999Y-105992203D01*
X151489998Y-105992200D01*
X151485884Y-105979786D01*
X151434814Y-105825666D01*
X151434810Y-105825660D01*
X151434809Y-105825657D01*
X151397455Y-105765097D01*
X151379014Y-105697705D01*
X151397455Y-105634903D01*
X151434809Y-105574342D01*
X151434808Y-105574342D01*
X151434814Y-105574334D01*
X151489999Y-105407797D01*
X151500500Y-105305009D01*
X151500499Y-104654992D01*
X151495391Y-104604992D01*
X151489999Y-104552203D01*
X151489998Y-104552200D01*
X151473431Y-104502204D01*
X151434814Y-104385666D01*
X151342712Y-104236344D01*
X151218656Y-104112288D01*
X151085672Y-104030263D01*
X151069336Y-104020187D01*
X151069331Y-104020185D01*
X151031545Y-104007664D01*
X150902797Y-103965001D01*
X150902795Y-103965000D01*
X150800010Y-103954500D01*
X149799998Y-103954500D01*
X149799980Y-103954501D01*
X149697203Y-103965000D01*
X149697200Y-103965001D01*
X149530668Y-104020185D01*
X149530663Y-104020187D01*
X149381342Y-104112289D01*
X149257289Y-104236342D01*
X149240290Y-104263903D01*
X149207342Y-104317321D01*
X149205321Y-104320597D01*
X149197733Y-104327421D01*
X149193495Y-104336703D01*
X149172195Y-104350391D01*
X149153373Y-104367321D01*
X149141737Y-104369965D01*
X149134717Y-104374477D01*
X149099782Y-104379500D01*
X148949770Y-104379500D01*
X148887630Y-104361253D01*
X148887181Y-104362095D01*
X148883140Y-104359935D01*
X148882731Y-104359815D01*
X148881912Y-104359278D01*
X148881813Y-104359225D01*
X148754329Y-104306420D01*
X148754323Y-104306418D01*
X148618996Y-104279500D01*
X148618994Y-104279500D01*
X148481006Y-104279500D01*
X148481004Y-104279500D01*
X148345677Y-104306418D01*
X148345667Y-104306421D01*
X148218190Y-104359223D01*
X148212819Y-104362095D01*
X148212123Y-104360794D01*
X148152438Y-104379480D01*
X148150230Y-104379500D01*
X147900218Y-104379500D01*
X147833179Y-104359815D01*
X147794679Y-104320597D01*
X147742712Y-104236344D01*
X147618656Y-104112288D01*
X147485672Y-104030263D01*
X147469336Y-104020187D01*
X147469331Y-104020185D01*
X147431545Y-104007664D01*
X147302797Y-103965001D01*
X147302795Y-103965000D01*
X147200010Y-103954500D01*
X146199998Y-103954500D01*
X146199980Y-103954501D01*
X146097203Y-103965000D01*
X146097200Y-103965001D01*
X145930668Y-104020185D01*
X145930663Y-104020187D01*
X145781342Y-104112289D01*
X145657289Y-104236342D01*
X145565187Y-104385663D01*
X145565185Y-104385668D01*
X145543108Y-104452293D01*
X145510001Y-104552203D01*
X145510001Y-104552204D01*
X145510000Y-104552204D01*
X145499500Y-104654983D01*
X145499500Y-105305001D01*
X145499501Y-105305019D01*
X145510000Y-105407796D01*
X145510001Y-105407799D01*
X145529017Y-105465184D01*
X145565186Y-105574334D01*
X145602545Y-105634903D01*
X145602546Y-105634905D01*
X145620985Y-105702297D01*
X145602546Y-105765094D01*
X145565186Y-105825666D01*
X145510001Y-105992203D01*
X145510001Y-105992204D01*
X145510000Y-105992204D01*
X145499500Y-106094983D01*
X145499500Y-106567059D01*
X145479815Y-106634098D01*
X145463181Y-106654740D01*
X145378213Y-106739707D01*
X145378210Y-106739711D01*
X145290609Y-106870814D01*
X145290602Y-106870827D01*
X145230264Y-107016498D01*
X145230261Y-107016510D01*
X145199500Y-107171153D01*
X145199500Y-107328846D01*
X145230261Y-107483489D01*
X145230264Y-107483501D01*
X145290602Y-107629172D01*
X145290609Y-107629185D01*
X145378210Y-107760288D01*
X145378213Y-107760292D01*
X145489707Y-107871786D01*
X145489711Y-107871789D01*
X145620814Y-107959390D01*
X145620827Y-107959397D01*
X145766498Y-108019735D01*
X145766503Y-108019737D01*
X145921153Y-108050499D01*
X145921156Y-108050500D01*
X145921158Y-108050500D01*
X146078844Y-108050500D01*
X146078845Y-108050499D01*
X146233497Y-108019737D01*
X146379179Y-107959394D01*
X146510289Y-107871789D01*
X146621789Y-107760289D01*
X146709394Y-107629179D01*
X146709395Y-107629176D01*
X146709397Y-107629173D01*
X146753769Y-107522047D01*
X146797609Y-107467643D01*
X146863903Y-107445578D01*
X146868330Y-107445499D01*
X147200002Y-107445499D01*
X147200008Y-107445499D01*
X147302797Y-107434999D01*
X147469334Y-107379814D01*
X147610407Y-107292799D01*
X147677795Y-107274361D01*
X147744459Y-107295283D01*
X147789229Y-107348925D01*
X147799500Y-107398340D01*
X147799500Y-108678064D01*
X147794577Y-108712657D01*
X147782336Y-108754792D01*
X147782334Y-108754802D01*
X147779500Y-108790811D01*
X147779500Y-109189169D01*
X147779501Y-109189191D01*
X147782335Y-109225205D01*
X147827129Y-109379388D01*
X147827132Y-109379395D01*
X147861128Y-109436881D01*
X147878309Y-109504605D01*
X147861128Y-109563119D01*
X147827132Y-109620604D01*
X147827129Y-109620611D01*
X147782335Y-109774791D01*
X147782334Y-109774797D01*
X147779500Y-109810811D01*
X147779500Y-110209169D01*
X147779501Y-110209191D01*
X147782335Y-110245205D01*
X147827129Y-110399388D01*
X147827131Y-110399393D01*
X147908863Y-110537595D01*
X147908869Y-110537603D01*
X148022396Y-110651130D01*
X148022400Y-110651133D01*
X148022402Y-110651135D01*
X148160607Y-110732869D01*
X148201268Y-110744682D01*
X148314791Y-110777664D01*
X148314794Y-110777664D01*
X148314796Y-110777665D01*
X148350819Y-110780500D01*
X148355967Y-110780499D01*
X148385416Y-110789142D01*
X148415407Y-110795667D01*
X148420411Y-110799413D01*
X148423006Y-110800175D01*
X148443661Y-110816818D01*
X148598623Y-110971780D01*
X148632108Y-111033103D01*
X148627124Y-111102795D01*
X148598623Y-111147142D01*
X148017482Y-111728282D01*
X148017478Y-111728288D01*
X147970135Y-111810289D01*
X147938424Y-111865213D01*
X147938423Y-111865214D01*
X147917961Y-111941580D01*
X147897499Y-112017944D01*
X147897499Y-112017946D01*
X147897499Y-112186047D01*
X147897500Y-112186060D01*
X147897500Y-113347728D01*
X147877815Y-113414767D01*
X147825011Y-113460522D01*
X147755853Y-113470466D01*
X147692297Y-113441441D01*
X147654523Y-113382663D01*
X147649882Y-113357456D01*
X147647657Y-113329185D01*
X147647643Y-113329007D01*
X147645963Y-113323226D01*
X147602495Y-113173608D01*
X147602492Y-113173600D01*
X147597266Y-113164763D01*
X147580000Y-113101645D01*
X147580000Y-112795494D01*
X147579998Y-112795493D01*
X147433809Y-112837965D01*
X147433806Y-112837967D01*
X147413608Y-112849912D01*
X147345884Y-112867092D01*
X147287370Y-112849910D01*
X147266397Y-112837507D01*
X147266390Y-112837504D01*
X147110997Y-112792357D01*
X147110991Y-112792356D01*
X147074697Y-112789500D01*
X147074690Y-112789500D01*
X146665310Y-112789500D01*
X146665302Y-112789500D01*
X146629008Y-112792356D01*
X146629002Y-112792357D01*
X146606592Y-112798868D01*
X146536722Y-112798667D01*
X146478053Y-112760723D01*
X146449212Y-112697084D01*
X146448000Y-112679791D01*
X146448000Y-111136560D01*
X146448001Y-111136547D01*
X146448001Y-110968444D01*
X146447753Y-110967517D01*
X146407077Y-110815716D01*
X146407073Y-110815709D01*
X146328024Y-110678790D01*
X146328018Y-110678782D01*
X143446819Y-107797583D01*
X143413334Y-107736260D01*
X143410500Y-107709902D01*
X143410500Y-106385718D01*
X143430185Y-106318679D01*
X143478207Y-106275233D01*
X143517815Y-106255052D01*
X143517815Y-106255051D01*
X143517816Y-106255051D01*
X143633554Y-106170963D01*
X143689786Y-106130109D01*
X143689788Y-106130106D01*
X143689792Y-106130104D01*
X143840104Y-105979792D01*
X143840106Y-105979788D01*
X143840109Y-105979786D01*
X143965048Y-105807820D01*
X143965050Y-105807817D01*
X143965051Y-105807816D01*
X144061557Y-105618412D01*
X144127246Y-105416243D01*
X144160500Y-105206287D01*
X144160500Y-104993713D01*
X144127246Y-104783757D01*
X144061557Y-104581588D01*
X143965051Y-104392184D01*
X143965049Y-104392181D01*
X143965048Y-104392179D01*
X143840109Y-104220213D01*
X143689786Y-104069890D01*
X143517820Y-103944951D01*
X143328414Y-103848444D01*
X143328413Y-103848443D01*
X143328412Y-103848443D01*
X143126243Y-103782754D01*
X143126241Y-103782753D01*
X143126240Y-103782753D01*
X142964957Y-103757208D01*
X142916287Y-103749500D01*
X142703713Y-103749500D01*
X142655042Y-103757208D01*
X142493760Y-103782753D01*
X142291585Y-103848444D01*
X142102179Y-103944951D01*
X141930213Y-104069890D01*
X141779890Y-104220213D01*
X141654949Y-104392182D01*
X141650484Y-104400946D01*
X141602509Y-104451742D01*
X141534688Y-104468536D01*
X141468553Y-104445998D01*
X141429516Y-104400946D01*
X141425050Y-104392182D01*
X141300109Y-104220213D01*
X141149786Y-104069890D01*
X140977820Y-103944951D01*
X140788414Y-103848444D01*
X140788413Y-103848443D01*
X140788412Y-103848443D01*
X140586243Y-103782754D01*
X140586241Y-103782753D01*
X140586240Y-103782753D01*
X140424957Y-103757208D01*
X140376287Y-103749500D01*
X140163713Y-103749500D01*
X140115042Y-103757208D01*
X139953760Y-103782753D01*
X139751585Y-103848444D01*
X139562179Y-103944951D01*
X139390213Y-104069890D01*
X139239890Y-104220213D01*
X139114949Y-104392182D01*
X139110202Y-104401499D01*
X139062227Y-104452293D01*
X138994405Y-104469087D01*
X138928271Y-104446548D01*
X138889234Y-104401495D01*
X138884626Y-104392452D01*
X138845270Y-104338282D01*
X138845269Y-104338282D01*
X138212962Y-104970590D01*
X138195925Y-104907007D01*
X138130099Y-104792993D01*
X138037007Y-104699901D01*
X137922993Y-104634075D01*
X137859409Y-104617037D01*
X138491716Y-103984728D01*
X138437550Y-103945375D01*
X138248217Y-103848904D01*
X138046129Y-103783242D01*
X137836246Y-103750000D01*
X137623754Y-103750000D01*
X137413872Y-103783242D01*
X137413869Y-103783242D01*
X137211782Y-103848904D01*
X137022439Y-103945380D01*
X136968282Y-103984727D01*
X136968282Y-103984728D01*
X137600591Y-104617037D01*
X137537007Y-104634075D01*
X137422993Y-104699901D01*
X137329901Y-104792993D01*
X137264075Y-104907007D01*
X137247037Y-104970591D01*
X136576818Y-104300372D01*
X136543333Y-104239049D01*
X136543330Y-104239036D01*
X136540499Y-104226015D01*
X136540499Y-104202128D01*
X136534091Y-104142517D01*
X136504168Y-104062288D01*
X136483798Y-104007673D01*
X136483793Y-104007664D01*
X136397547Y-103892455D01*
X136397544Y-103892452D01*
X136282335Y-103806206D01*
X136282328Y-103806202D01*
X136147482Y-103755908D01*
X136147483Y-103755908D01*
X136087883Y-103749501D01*
X136087881Y-103749500D01*
X136087873Y-103749500D01*
X136087864Y-103749500D01*
X134292129Y-103749500D01*
X134292123Y-103749501D01*
X134232516Y-103755908D01*
X134097671Y-103806202D01*
X134097664Y-103806206D01*
X133982455Y-103892452D01*
X133982452Y-103892455D01*
X133896206Y-104007664D01*
X133896202Y-104007671D01*
X133845908Y-104142517D01*
X133839501Y-104202116D01*
X133839500Y-104202135D01*
X133839500Y-105997870D01*
X133839501Y-105997876D01*
X133845908Y-106057483D01*
X133896202Y-106192328D01*
X133896206Y-106192335D01*
X133982452Y-106307544D01*
X133982455Y-106307547D01*
X134097664Y-106393793D01*
X134097671Y-106393797D01*
X134232517Y-106444091D01*
X134232516Y-106444091D01*
X134239444Y-106444835D01*
X134292127Y-106450500D01*
X135427100Y-106450499D01*
X135494138Y-106470184D01*
X135539893Y-106522987D01*
X135549837Y-106592146D01*
X135520812Y-106655702D01*
X135474556Y-106689058D01*
X135470828Y-106690602D01*
X135470814Y-106690609D01*
X135339711Y-106778210D01*
X135339707Y-106778213D01*
X135228213Y-106889707D01*
X135228210Y-106889711D01*
X135140609Y-107020814D01*
X135140602Y-107020827D01*
X135080264Y-107166498D01*
X135080261Y-107166510D01*
X135049500Y-107321153D01*
X135049500Y-107478846D01*
X135080261Y-107633489D01*
X135080264Y-107633501D01*
X135140602Y-107779172D01*
X135140609Y-107779185D01*
X135228210Y-107910288D01*
X135228213Y-107910292D01*
X135339707Y-108021786D01*
X135339711Y-108021789D01*
X135470814Y-108109390D01*
X135470827Y-108109397D01*
X135608229Y-108166310D01*
X135616503Y-108169737D01*
X135771153Y-108200499D01*
X135771156Y-108200500D01*
X135771158Y-108200500D01*
X135928844Y-108200500D01*
X135928845Y-108200499D01*
X136083497Y-108169737D01*
X136204071Y-108119793D01*
X136273538Y-108112325D01*
X136314642Y-108127623D01*
X136373605Y-108162494D01*
X136402287Y-108170827D01*
X136529002Y-108207642D01*
X136529005Y-108207642D01*
X136529007Y-108207643D01*
X136565310Y-108210500D01*
X136565318Y-108210500D01*
X136974682Y-108210500D01*
X136974690Y-108210500D01*
X137010993Y-108207643D01*
X137010995Y-108207642D01*
X137010997Y-108207642D01*
X137051975Y-108195736D01*
X137166395Y-108162494D01*
X137187369Y-108150089D01*
X137255088Y-108132906D01*
X137313613Y-108150090D01*
X137333803Y-108162031D01*
X137480000Y-108204504D01*
X137480000Y-108204503D01*
X137980000Y-108204503D01*
X138126195Y-108162031D01*
X138265374Y-108079721D01*
X138265383Y-108079714D01*
X138379714Y-107965383D01*
X138379721Y-107965374D01*
X138462031Y-107826195D01*
X138462033Y-107826190D01*
X138507144Y-107670918D01*
X138507145Y-107670912D01*
X138508790Y-107650000D01*
X137980000Y-107650000D01*
X137980000Y-108204503D01*
X137480000Y-108204503D01*
X137480000Y-107898352D01*
X137497267Y-107835233D01*
X137502494Y-107826395D01*
X137508904Y-107804334D01*
X137547642Y-107670997D01*
X137547643Y-107670991D01*
X137547692Y-107670370D01*
X137550500Y-107634690D01*
X137550500Y-107524000D01*
X137570185Y-107456961D01*
X137622989Y-107411206D01*
X137674500Y-107400000D01*
X137730000Y-107400000D01*
X137730000Y-107274000D01*
X137749685Y-107206961D01*
X137802489Y-107161206D01*
X137854000Y-107150000D01*
X138508790Y-107150000D01*
X138507145Y-107129089D01*
X138462031Y-106973804D01*
X138379721Y-106834625D01*
X138379714Y-106834616D01*
X138265383Y-106720285D01*
X138265374Y-106720278D01*
X138126195Y-106637968D01*
X138126191Y-106637966D01*
X138111557Y-106633715D01*
X138052672Y-106596108D01*
X138023466Y-106532635D01*
X138033212Y-106463449D01*
X138078817Y-106410515D01*
X138107835Y-106396708D01*
X138248217Y-106351095D01*
X138437554Y-106254622D01*
X138491716Y-106215270D01*
X138491717Y-106215270D01*
X137859408Y-105582962D01*
X137922993Y-105565925D01*
X138037007Y-105500099D01*
X138130099Y-105407007D01*
X138195925Y-105292993D01*
X138212962Y-105229408D01*
X138845270Y-105861717D01*
X138845270Y-105861716D01*
X138884622Y-105807555D01*
X138889232Y-105798507D01*
X138937205Y-105747709D01*
X139005025Y-105730912D01*
X139071161Y-105753447D01*
X139110204Y-105798504D01*
X139114949Y-105807817D01*
X139239890Y-105979786D01*
X139390213Y-106130109D01*
X139562179Y-106255048D01*
X139562181Y-106255049D01*
X139562184Y-106255051D01*
X139728164Y-106339622D01*
X139763257Y-106366297D01*
X139772453Y-106376325D01*
X139789480Y-106405816D01*
X139901284Y-106517620D01*
X139901286Y-106517621D01*
X139910249Y-106526584D01*
X144810681Y-111427016D01*
X144844166Y-111488339D01*
X144847000Y-111514697D01*
X144847000Y-115845500D01*
X144827315Y-115912539D01*
X144774511Y-115958294D01*
X144723000Y-115969500D01*
X144572000Y-115969500D01*
X144563314Y-115966949D01*
X144554353Y-115968238D01*
X144530312Y-115957259D01*
X144504961Y-115949815D01*
X144499033Y-115942974D01*
X144490797Y-115939213D01*
X144476507Y-115916978D01*
X144459206Y-115897011D01*
X144456918Y-115886496D01*
X144453023Y-115880435D01*
X144448000Y-115845500D01*
X144448000Y-115844779D01*
X144449000Y-115829520D01*
X144449000Y-111802345D01*
X144449000Y-111802343D01*
X144408077Y-111649616D01*
X144381094Y-111602879D01*
X144329024Y-111512690D01*
X144329021Y-111512686D01*
X144329020Y-111512684D01*
X144217216Y-111400880D01*
X144217215Y-111400879D01*
X144212885Y-111396549D01*
X144212874Y-111396539D01*
X141653690Y-108837355D01*
X141653688Y-108837352D01*
X141534817Y-108718481D01*
X141534816Y-108718480D01*
X141448004Y-108668360D01*
X141448004Y-108668359D01*
X141448000Y-108668358D01*
X141397885Y-108639423D01*
X141245157Y-108598499D01*
X141087043Y-108598499D01*
X141079447Y-108598499D01*
X141079431Y-108598500D01*
X129374500Y-108598500D01*
X129307461Y-108578815D01*
X129261706Y-108526011D01*
X129250500Y-108474500D01*
X129250500Y-108471155D01*
X129250499Y-108471153D01*
X129226955Y-108352792D01*
X129219737Y-108316503D01*
X129214033Y-108302732D01*
X129159397Y-108170827D01*
X129159390Y-108170814D01*
X129146398Y-108151370D01*
X129125520Y-108084692D01*
X129125500Y-108082479D01*
X129125500Y-107256230D01*
X129145185Y-107189191D01*
X129197989Y-107143436D01*
X129267147Y-107133492D01*
X129330703Y-107162517D01*
X129337181Y-107168549D01*
X129406344Y-107237712D01*
X129555666Y-107329814D01*
X129722203Y-107384999D01*
X129824991Y-107395500D01*
X130281157Y-107395499D01*
X130348196Y-107415183D01*
X130393951Y-107467987D01*
X130402774Y-107495307D01*
X130430261Y-107633491D01*
X130430264Y-107633501D01*
X130490602Y-107779172D01*
X130490609Y-107779185D01*
X130578210Y-107910288D01*
X130578213Y-107910292D01*
X130689707Y-108021786D01*
X130689711Y-108021789D01*
X130820814Y-108109390D01*
X130820827Y-108109397D01*
X130958229Y-108166310D01*
X130966503Y-108169737D01*
X131121153Y-108200499D01*
X131121156Y-108200500D01*
X131121158Y-108200500D01*
X131278844Y-108200500D01*
X131278845Y-108200499D01*
X131433497Y-108169737D01*
X131579179Y-108109394D01*
X131710289Y-108021789D01*
X131821789Y-107910289D01*
X131909394Y-107779179D01*
X131911012Y-107775274D01*
X131954206Y-107670993D01*
X131969737Y-107633497D01*
X132000500Y-107478842D01*
X132000500Y-107321158D01*
X132000500Y-107321155D01*
X132000499Y-107321153D01*
X131993416Y-107285546D01*
X131969737Y-107166503D01*
X131960909Y-107145190D01*
X131909397Y-107020827D01*
X131909390Y-107020814D01*
X131821789Y-106889711D01*
X131821786Y-106889707D01*
X131710292Y-106778213D01*
X131710288Y-106778210D01*
X131580608Y-106691560D01*
X131535803Y-106637948D01*
X131525499Y-106588458D01*
X131525499Y-106044998D01*
X131525498Y-106044981D01*
X131514999Y-105942203D01*
X131514998Y-105942200D01*
X131506854Y-105917622D01*
X131459814Y-105775666D01*
X131459810Y-105775660D01*
X131459809Y-105775657D01*
X131422455Y-105715097D01*
X131404014Y-105647705D01*
X131422455Y-105584903D01*
X131459809Y-105524342D01*
X131459808Y-105524342D01*
X131459814Y-105524334D01*
X131514999Y-105357797D01*
X131525500Y-105255009D01*
X131525499Y-104604992D01*
X131514999Y-104502203D01*
X131459814Y-104335666D01*
X131367712Y-104186344D01*
X131243656Y-104062288D01*
X131141860Y-103999500D01*
X131094336Y-103970187D01*
X131094331Y-103970185D01*
X131078684Y-103965000D01*
X130927797Y-103915001D01*
X130927795Y-103915000D01*
X130825010Y-103904500D01*
X129824998Y-103904500D01*
X129824980Y-103904501D01*
X129722203Y-103915000D01*
X129722200Y-103915001D01*
X129555668Y-103970185D01*
X129555663Y-103970187D01*
X129406342Y-104062289D01*
X129282289Y-104186342D01*
X129282288Y-104186344D01*
X129234450Y-104263903D01*
X129230321Y-104270597D01*
X129178373Y-104317321D01*
X129124782Y-104329500D01*
X128729062Y-104329500D01*
X128729058Y-104329499D01*
X128570943Y-104329499D01*
X128570939Y-104329500D01*
X127925218Y-104329500D01*
X127858179Y-104309815D01*
X127819679Y-104270597D01*
X127767712Y-104186344D01*
X127643656Y-104062288D01*
X127541860Y-103999500D01*
X127494336Y-103970187D01*
X127494331Y-103970185D01*
X127478684Y-103965000D01*
X127327797Y-103915001D01*
X127327795Y-103915000D01*
X127225010Y-103904500D01*
X126224998Y-103904500D01*
X126224980Y-103904501D01*
X126122203Y-103915000D01*
X126122200Y-103915001D01*
X125955668Y-103970185D01*
X125955663Y-103970187D01*
X125806342Y-104062289D01*
X125682289Y-104186342D01*
X125590187Y-104335663D01*
X125590185Y-104335668D01*
X125573617Y-104385668D01*
X125535001Y-104502203D01*
X125535001Y-104502204D01*
X125535000Y-104502204D01*
X125524500Y-104604983D01*
X125524500Y-104955945D01*
X125504815Y-105022984D01*
X125452011Y-105068739D01*
X125382853Y-105078683D01*
X125331609Y-105059047D01*
X125229185Y-104990609D01*
X125229172Y-104990602D01*
X125083501Y-104930264D01*
X125083489Y-104930261D01*
X124928845Y-104899500D01*
X124928842Y-104899500D01*
X124771158Y-104899500D01*
X124771155Y-104899500D01*
X124616510Y-104930261D01*
X124616498Y-104930264D01*
X124470827Y-104990602D01*
X124470814Y-104990609D01*
X124339711Y-105078210D01*
X124339707Y-105078213D01*
X124228213Y-105189707D01*
X124228210Y-105189711D01*
X124140609Y-105320814D01*
X124140604Y-105320823D01*
X124080809Y-105465184D01*
X124076176Y-105472116D01*
X124075080Y-105477158D01*
X124053929Y-105505412D01*
X123971855Y-105587486D01*
X123910532Y-105620971D01*
X123843220Y-105616847D01*
X123765591Y-105589684D01*
X123765589Y-105589683D01*
X123556779Y-105542024D01*
X123502732Y-105529688D01*
X123502728Y-105529687D01*
X123502719Y-105529686D01*
X123234813Y-105499500D01*
X123234809Y-105499500D01*
X122965191Y-105499500D01*
X122965186Y-105499500D01*
X122697280Y-105529686D01*
X122697268Y-105529688D01*
X122434405Y-105589684D01*
X122434397Y-105589687D01*
X122179917Y-105678734D01*
X121937005Y-105795714D01*
X121708712Y-105939161D01*
X121497915Y-106107265D01*
X121307265Y-106297915D01*
X121139161Y-106508712D01*
X120995714Y-106737005D01*
X120878734Y-106979917D01*
X120789687Y-107234397D01*
X120789684Y-107234405D01*
X120729688Y-107497268D01*
X120729686Y-107497280D01*
X120699500Y-107765186D01*
X120699500Y-108034813D01*
X120729686Y-108302719D01*
X120729688Y-108302731D01*
X120789684Y-108565594D01*
X120789687Y-108565602D01*
X120878734Y-108820082D01*
X120995714Y-109062994D01*
X120995716Y-109062997D01*
X121139162Y-109291289D01*
X121307266Y-109502085D01*
X121497915Y-109692734D01*
X121708711Y-109860838D01*
X121937003Y-110004284D01*
X122179921Y-110121267D01*
X122371049Y-110188145D01*
X122434397Y-110210312D01*
X122434405Y-110210315D01*
X122434408Y-110210315D01*
X122434409Y-110210316D01*
X122697268Y-110270312D01*
X122965187Y-110300499D01*
X122965188Y-110300500D01*
X122965191Y-110300500D01*
X123234812Y-110300500D01*
X123234812Y-110300499D01*
X123502732Y-110270312D01*
X123765591Y-110210316D01*
X124020079Y-110121267D01*
X124262997Y-110004284D01*
X124491289Y-109860838D01*
X124702085Y-109692734D01*
X124892734Y-109502085D01*
X125060838Y-109291289D01*
X125204284Y-109062997D01*
X125321267Y-108820079D01*
X125410316Y-108565591D01*
X125470312Y-108302732D01*
X125470313Y-108302721D01*
X125470314Y-108302718D01*
X125485175Y-108170821D01*
X125486385Y-108160078D01*
X125513451Y-108095665D01*
X125571046Y-108056110D01*
X125615066Y-108051291D01*
X125615066Y-108050500D01*
X125778844Y-108050500D01*
X125778845Y-108050499D01*
X125933497Y-108019737D01*
X126079179Y-107959394D01*
X126210289Y-107871789D01*
X126321789Y-107760289D01*
X126409394Y-107629179D01*
X126410032Y-107627640D01*
X126472068Y-107477869D01*
X126473137Y-107478311D01*
X126508031Y-107425066D01*
X126571842Y-107396609D01*
X126588395Y-107395499D01*
X127225002Y-107395499D01*
X127225008Y-107395499D01*
X127327797Y-107384999D01*
X127494334Y-107329814D01*
X127643656Y-107237712D01*
X127712819Y-107168549D01*
X127774142Y-107135064D01*
X127843834Y-107140048D01*
X127899767Y-107181920D01*
X127924184Y-107247384D01*
X127924500Y-107256230D01*
X127924500Y-107892059D01*
X127904815Y-107959098D01*
X127888181Y-107979740D01*
X127828213Y-108039707D01*
X127828210Y-108039711D01*
X127740609Y-108170814D01*
X127740602Y-108170827D01*
X127680264Y-108316498D01*
X127680261Y-108316510D01*
X127649500Y-108471153D01*
X127649500Y-108474500D01*
X127649004Y-108476187D01*
X127648903Y-108477218D01*
X127648707Y-108477198D01*
X127629815Y-108541539D01*
X127577011Y-108587294D01*
X127525500Y-108598500D01*
X126421941Y-108598500D01*
X126405282Y-108602963D01*
X126405283Y-108602964D01*
X126269214Y-108639423D01*
X126269209Y-108639426D01*
X126132290Y-108718475D01*
X126132282Y-108718481D01*
X126020478Y-108830286D01*
X124312582Y-110538181D01*
X124251259Y-110571666D01*
X124224901Y-110574500D01*
X123677129Y-110574500D01*
X123677123Y-110574501D01*
X123617516Y-110580908D01*
X123482671Y-110631202D01*
X123482664Y-110631206D01*
X123367455Y-110717452D01*
X123367452Y-110717455D01*
X123281206Y-110832664D01*
X123281202Y-110832671D01*
X123230908Y-110967517D01*
X123224501Y-111027116D01*
X123224501Y-111027123D01*
X123224500Y-111027135D01*
X123224500Y-112122870D01*
X123224501Y-112122874D01*
X123226100Y-112137746D01*
X123213694Y-112206505D01*
X123166083Y-112257642D01*
X123102810Y-112275000D01*
X121997190Y-112275000D01*
X121930151Y-112255315D01*
X121884396Y-112202511D01*
X121873901Y-112137744D01*
X121875042Y-112127129D01*
X121875500Y-112122873D01*
X121875499Y-111027128D01*
X121869091Y-110967517D01*
X121856402Y-110933497D01*
X121818797Y-110832671D01*
X121818793Y-110832664D01*
X121732547Y-110717455D01*
X121732544Y-110717452D01*
X121617335Y-110631206D01*
X121617328Y-110631202D01*
X121482482Y-110580908D01*
X121482483Y-110580908D01*
X121422883Y-110574501D01*
X121422881Y-110574500D01*
X121422873Y-110574500D01*
X121422864Y-110574500D01*
X118527129Y-110574500D01*
X118527123Y-110574501D01*
X118467512Y-110580909D01*
X118459969Y-110582692D01*
X118459658Y-110581377D01*
X118398127Y-110585771D01*
X118336808Y-110552279D01*
X118303331Y-110490951D01*
X118300500Y-110464608D01*
X118300500Y-108856571D01*
X118300501Y-108844709D01*
X118301339Y-108841960D01*
X118300505Y-108797567D01*
X118300506Y-108796440D01*
X118300570Y-108796220D01*
X118300673Y-108790021D01*
X118311373Y-108584610D01*
X118313517Y-108567229D01*
X118352233Y-108369707D01*
X118356809Y-108352801D01*
X118422994Y-108162720D01*
X118429902Y-108146642D01*
X118522241Y-107967787D01*
X118531349Y-107952840D01*
X118647990Y-107788797D01*
X118659116Y-107775285D01*
X118799374Y-107627600D01*
X118802636Y-107624295D01*
X118806299Y-107620725D01*
X118809057Y-107618123D01*
X118838895Y-107590857D01*
X118838899Y-107590849D01*
X118840860Y-107588392D01*
X118851251Y-107576912D01*
X122682534Y-103842708D01*
X122690243Y-103838334D01*
X122716479Y-103809624D01*
X122738600Y-103788064D01*
X122738601Y-103788061D01*
X122743813Y-103782982D01*
X122746249Y-103780296D01*
X122864444Y-103667028D01*
X122877006Y-103656494D01*
X122883312Y-103651881D01*
X123029205Y-103545145D01*
X123043055Y-103536357D01*
X123208636Y-103446088D01*
X123223514Y-103439213D01*
X123399569Y-103371610D01*
X123415231Y-103366759D01*
X123598671Y-103323008D01*
X123614845Y-103320267D01*
X123802433Y-103301137D01*
X123814980Y-103300498D01*
X154143416Y-103298957D01*
X154156021Y-103299831D01*
G37*
G04 #@! TD.AperFunction*
G04 #@! TA.AperFunction,Conductor*
G36*
X147861804Y-113765217D02*
G01*
X147894851Y-113826778D01*
X147897500Y-113852271D01*
X147897500Y-115002516D01*
X147877815Y-115069555D01*
X147825011Y-115115310D01*
X147755853Y-115125254D01*
X147704609Y-115105618D01*
X147609291Y-115041928D01*
X147609281Y-115041923D01*
X147519861Y-115004884D01*
X147465458Y-114961043D01*
X147443393Y-114894749D01*
X147457257Y-114834888D01*
X147457063Y-114834808D01*
X147457545Y-114833642D01*
X147457957Y-114831867D01*
X147459390Y-114829184D01*
X147459394Y-114829179D01*
X147519737Y-114683497D01*
X147550500Y-114528842D01*
X147550500Y-114488613D01*
X147570185Y-114421574D01*
X147580000Y-114411016D01*
X147580000Y-114098352D01*
X147597267Y-114035233D01*
X147602494Y-114026395D01*
X147602900Y-114025000D01*
X147647642Y-113870997D01*
X147647643Y-113870991D01*
X147649882Y-113842543D01*
X147674766Y-113777254D01*
X147730996Y-113735783D01*
X147800722Y-113731296D01*
X147861804Y-113765217D01*
G37*
G04 #@! TD.AperFunction*
G04 #@! TA.AperFunction,Conductor*
G36*
X137264075Y-105292993D02*
G01*
X137329901Y-105407007D01*
X137422993Y-105500099D01*
X137537007Y-105565925D01*
X137600590Y-105582962D01*
X136968282Y-106215269D01*
X136968282Y-106215270D01*
X137022449Y-106254624D01*
X137211782Y-106351095D01*
X137352164Y-106396708D01*
X137372822Y-106410833D01*
X137395532Y-106421347D01*
X137401166Y-106430214D01*
X137409839Y-106436145D01*
X137419580Y-106459195D01*
X137433002Y-106480319D01*
X137432947Y-106490825D01*
X137437038Y-106500504D01*
X137432770Y-106525163D01*
X137432641Y-106550188D01*
X137426914Y-106558997D01*
X137425123Y-106569350D01*
X137408202Y-106587786D01*
X137394563Y-106608770D01*
X137383404Y-106614805D01*
X137377879Y-106620826D01*
X137364774Y-106627698D01*
X137301418Y-106656237D01*
X137273348Y-106660124D01*
X137245884Y-106667092D01*
X137238564Y-106664942D01*
X137232209Y-106665823D01*
X137215986Y-106658312D01*
X137187370Y-106649910D01*
X137166397Y-106637507D01*
X137166390Y-106637504D01*
X137010997Y-106592357D01*
X137010991Y-106592356D01*
X136974697Y-106589500D01*
X136974690Y-106589500D01*
X136565310Y-106589500D01*
X136565302Y-106589500D01*
X136529008Y-106592356D01*
X136529002Y-106592357D01*
X136373609Y-106637504D01*
X136373608Y-106637504D01*
X136314641Y-106672377D01*
X136310302Y-106673477D01*
X136307026Y-106676528D01*
X136276736Y-106681993D01*
X136246917Y-106689558D01*
X136241437Y-106688361D01*
X136238267Y-106688934D01*
X136204069Y-106680205D01*
X136168483Y-106665465D01*
X136114079Y-106621625D01*
X136092014Y-106555330D01*
X136109293Y-106487631D01*
X136160430Y-106440020D01*
X136172603Y-106434722D01*
X136282326Y-106393798D01*
X136282326Y-106393797D01*
X136282331Y-106393796D01*
X136397546Y-106307546D01*
X136483796Y-106192331D01*
X136534091Y-106057483D01*
X136540500Y-105997873D01*
X136540499Y-105987312D01*
X136560179Y-105920275D01*
X136576818Y-105899626D01*
X137247037Y-105229408D01*
X137264075Y-105292993D01*
G37*
G04 #@! TD.AperFunction*
G04 #@! TA.AperFunction,Conductor*
G36*
X147428326Y-118071674D02*
G01*
X147450000Y-118124000D01*
X147450000Y-120850000D01*
X147568024Y-120850000D01*
X147577261Y-120853826D01*
X147587175Y-120852521D01*
X147602502Y-120864281D01*
X147620350Y-120871674D01*
X147632108Y-120886997D01*
X147640085Y-120900814D01*
X147650000Y-120937814D01*
X147650000Y-121250000D01*
X147973000Y-121250000D01*
X147998368Y-121260508D01*
X148023980Y-121270362D01*
X148024373Y-121271279D01*
X148025326Y-121271674D01*
X148046976Y-121322120D01*
X148047000Y-121323064D01*
X148047000Y-121419674D01*
X148049814Y-121433825D01*
X148049976Y-121440163D01*
X148049847Y-121440496D01*
X148050000Y-121442043D01*
X148050000Y-121647956D01*
X148048578Y-121662391D01*
X148047000Y-121670325D01*
X148047000Y-121819673D01*
X148048578Y-121827606D01*
X148050000Y-121842043D01*
X148050000Y-122170500D01*
X148028326Y-122222826D01*
X147976000Y-122244500D01*
X147715438Y-122244500D01*
X147704319Y-122247479D01*
X147685168Y-122250000D01*
X147124000Y-122250000D01*
X147071674Y-122228326D01*
X147050000Y-122176000D01*
X147050000Y-118650000D01*
X146982348Y-118650000D01*
X146930022Y-118628326D01*
X146904143Y-118602447D01*
X146794039Y-118551106D01*
X146794037Y-118551105D01*
X146757073Y-118546239D01*
X146743863Y-118544500D01*
X146743861Y-118544500D01*
X143751139Y-118544500D01*
X143700961Y-118551106D01*
X143700959Y-118551106D01*
X143590854Y-118602449D01*
X143504947Y-118688356D01*
X143453606Y-118798460D01*
X143453605Y-118798462D01*
X143447869Y-118842032D01*
X143447000Y-118848637D01*
X143447000Y-120315489D01*
X143447001Y-121176000D01*
X143425327Y-121228326D01*
X143373001Y-121250000D01*
X142924000Y-121250000D01*
X142871674Y-121228326D01*
X142850000Y-121176000D01*
X142850000Y-120524000D01*
X142871674Y-120471674D01*
X142924000Y-120450000D01*
X143050000Y-120450000D01*
X143050000Y-118124000D01*
X143071674Y-118071674D01*
X143124000Y-118050000D01*
X147376000Y-118050000D01*
X147428326Y-118071674D01*
G37*
G04 #@! TD.AperFunction*
G04 #@! TA.AperFunction,Conductor*
G36*
X144416899Y-117475601D02*
G01*
X144499760Y-117530966D01*
X144572826Y-117545500D01*
X144572828Y-117545500D01*
X144722172Y-117545500D01*
X144722174Y-117545500D01*
X144795240Y-117530966D01*
X144806388Y-117523516D01*
X144861937Y-117512468D01*
X144888611Y-117523516D01*
X144899760Y-117530966D01*
X144972826Y-117545500D01*
X144972828Y-117545500D01*
X145122172Y-117545500D01*
X145122174Y-117545500D01*
X145195240Y-117530966D01*
X145206388Y-117523516D01*
X145261937Y-117512468D01*
X145288611Y-117523516D01*
X145299760Y-117530966D01*
X145372826Y-117545500D01*
X145372828Y-117545500D01*
X145522172Y-117545500D01*
X145522174Y-117545500D01*
X145595240Y-117530966D01*
X145606388Y-117523516D01*
X145661937Y-117512468D01*
X145688611Y-117523516D01*
X145699760Y-117530966D01*
X145772826Y-117545500D01*
X145772828Y-117545500D01*
X145922172Y-117545500D01*
X145922174Y-117545500D01*
X145995240Y-117530966D01*
X146006388Y-117523516D01*
X146061937Y-117512468D01*
X146088611Y-117523516D01*
X146099760Y-117530966D01*
X146172826Y-117545500D01*
X146172828Y-117545500D01*
X146322172Y-117545500D01*
X146322174Y-117545500D01*
X146395240Y-117530966D01*
X146406388Y-117523516D01*
X146461937Y-117512468D01*
X146488611Y-117523516D01*
X146499760Y-117530966D01*
X146572826Y-117545500D01*
X146572828Y-117545500D01*
X146722172Y-117545500D01*
X146722174Y-117545500D01*
X146795240Y-117530966D01*
X146806388Y-117523516D01*
X146861937Y-117512468D01*
X146888611Y-117523516D01*
X146899760Y-117530966D01*
X146972826Y-117545500D01*
X146972828Y-117545500D01*
X147122172Y-117545500D01*
X147122174Y-117545500D01*
X147195240Y-117530966D01*
X147206388Y-117523516D01*
X147261937Y-117512468D01*
X147288611Y-117523516D01*
X147299760Y-117530966D01*
X147372826Y-117545500D01*
X147372828Y-117545500D01*
X147522172Y-117545500D01*
X147522174Y-117545500D01*
X147595240Y-117530966D01*
X147678101Y-117475601D01*
X147695207Y-117450000D01*
X148050000Y-117450000D01*
X148050000Y-117655244D01*
X148047000Y-117670327D01*
X148047000Y-117819672D01*
X148050000Y-117834754D01*
X148050000Y-118055244D01*
X148047000Y-118070327D01*
X148047000Y-118219672D01*
X148050000Y-118234754D01*
X148050000Y-118455244D01*
X148047000Y-118470327D01*
X148047000Y-118619672D01*
X148050000Y-118634754D01*
X148050000Y-118855244D01*
X148047000Y-118870327D01*
X148047000Y-119019672D01*
X148050000Y-119034754D01*
X148050000Y-119255244D01*
X148047000Y-119270327D01*
X148047000Y-119419672D01*
X148050000Y-119434754D01*
X148050000Y-119655244D01*
X148047000Y-119670327D01*
X148047000Y-119819672D01*
X148050000Y-119834754D01*
X148050000Y-120055244D01*
X148047000Y-120070327D01*
X148047000Y-120219672D01*
X148050000Y-120234754D01*
X148050000Y-120250000D01*
X148050000Y-121050000D01*
X148050000Y-121059815D01*
X147984039Y-121046695D01*
X147973000Y-121044500D01*
X147972999Y-121044500D01*
X147929500Y-121044500D01*
X147877174Y-121022826D01*
X147855500Y-120970500D01*
X147855500Y-120937815D01*
X147848497Y-120884623D01*
X147838582Y-120847622D01*
X147818057Y-120798072D01*
X147818055Y-120798066D01*
X147810078Y-120784249D01*
X147795141Y-120761895D01*
X147791625Y-120757313D01*
X147783383Y-120746571D01*
X147773580Y-120734741D01*
X147773579Y-120734740D01*
X147743793Y-120713605D01*
X147743793Y-120713604D01*
X147727164Y-120701805D01*
X147727597Y-120701243D01*
X147712270Y-120689483D01*
X147702577Y-120684360D01*
X147698993Y-120681817D01*
X147698989Y-120681815D01*
X147695358Y-120679808D01*
X147696371Y-120677973D01*
X147696299Y-120677858D01*
X147661117Y-120642637D01*
X147655500Y-120614356D01*
X147655500Y-118124001D01*
X147644823Y-118070327D01*
X147639857Y-118045359D01*
X147618183Y-117993033D01*
X147581555Y-117934739D01*
X147506967Y-117881817D01*
X147506966Y-117881816D01*
X147454645Y-117860144D01*
X147454635Y-117860141D01*
X147401974Y-117849666D01*
X147376000Y-117844500D01*
X143124000Y-117844500D01*
X143101707Y-117848934D01*
X143045364Y-117860141D01*
X143045354Y-117860144D01*
X142993037Y-117881814D01*
X142934739Y-117918445D01*
X142934737Y-117918447D01*
X142881816Y-117993033D01*
X142860144Y-118045354D01*
X142860141Y-118045364D01*
X142844500Y-118124001D01*
X142844500Y-120211053D01*
X142822826Y-120263379D01*
X142798820Y-120279419D01*
X142793039Y-120281813D01*
X142734739Y-120318445D01*
X142734737Y-120318447D01*
X142681816Y-120393033D01*
X142660144Y-120445354D01*
X142660141Y-120445364D01*
X142644500Y-120524001D01*
X142644500Y-121175998D01*
X142660141Y-121254635D01*
X142660144Y-121254645D01*
X142681814Y-121306962D01*
X142681816Y-121306966D01*
X142681817Y-121306967D01*
X142718445Y-121365261D01*
X142793033Y-121418183D01*
X142845359Y-121439857D01*
X142924000Y-121455500D01*
X142924002Y-121455500D01*
X143373000Y-121455500D01*
X143425326Y-121477174D01*
X143447000Y-121529500D01*
X143447000Y-121841360D01*
X143453606Y-121891538D01*
X143453606Y-121891540D01*
X143504949Y-122001645D01*
X143590856Y-122087552D01*
X143645908Y-122113222D01*
X143700961Y-122138894D01*
X143751137Y-122145500D01*
X146743862Y-122145499D01*
X146767306Y-122142412D01*
X146822010Y-122157070D01*
X146849541Y-122201342D01*
X146860141Y-122254635D01*
X146860144Y-122254645D01*
X146881814Y-122306962D01*
X146881816Y-122306966D01*
X146881817Y-122306967D01*
X146918445Y-122365261D01*
X146993033Y-122418183D01*
X147045359Y-122439857D01*
X147124000Y-122455500D01*
X147124002Y-122455500D01*
X147685161Y-122455500D01*
X147685168Y-122455500D01*
X147711988Y-122453742D01*
X147731139Y-122451221D01*
X147731157Y-122451217D01*
X147732350Y-122451021D01*
X147732379Y-122451200D01*
X147744568Y-122450000D01*
X147976000Y-122450000D01*
X147991475Y-122446922D01*
X148005911Y-122445500D01*
X148050000Y-122445500D01*
X148050000Y-123050000D01*
X142450000Y-123050000D01*
X142450000Y-117567349D01*
X142496750Y-117536110D01*
X142525620Y-117536110D01*
X142572826Y-117545500D01*
X142572829Y-117545500D01*
X142722172Y-117545500D01*
X142722174Y-117545500D01*
X142795240Y-117530966D01*
X142806388Y-117523516D01*
X142861937Y-117512468D01*
X142888611Y-117523516D01*
X142899760Y-117530966D01*
X142972826Y-117545500D01*
X142972828Y-117545500D01*
X143122172Y-117545500D01*
X143122174Y-117545500D01*
X143195240Y-117530966D01*
X143206388Y-117523516D01*
X143261937Y-117512468D01*
X143288611Y-117523516D01*
X143299760Y-117530966D01*
X143372826Y-117545500D01*
X143372828Y-117545500D01*
X143522172Y-117545500D01*
X143522174Y-117545500D01*
X143595240Y-117530966D01*
X143606388Y-117523516D01*
X143661937Y-117512468D01*
X143688611Y-117523516D01*
X143699760Y-117530966D01*
X143772826Y-117545500D01*
X143772828Y-117545500D01*
X143922172Y-117545500D01*
X143922174Y-117545500D01*
X143995240Y-117530966D01*
X144078101Y-117475601D01*
X144095207Y-117450000D01*
X144399793Y-117450000D01*
X144416899Y-117475601D01*
G37*
G04 #@! TD.AperFunction*
M02*
