M48
; DRILL file {KiCad 9.0.2} date 2026-01-19T13:25:34-0500
; FORMAT={-:-/ absolute / metric / decimal}
; #@! TF.CreationDate,2026-01-19T13:25:34-05:00
; #@! TF.GenerationSoftware,Kicad,Pcbnew,9.0.2
; #@! TF.FileFunction,MixedPlating,1,2
FMAT,2
METRIC
; #@! TA.AperFunction,Plated,PTH,ViaDrill
T1C0.350
; #@! TA.AperFunction,Plated,PTH,ComponentDrill
T2C0.350
; #@! TA.AperFunction,Plated,PTH,ComponentDrill
T3C0.650
; #@! TA.AperFunction,Plated,PTH,ComponentDrill
T4C0.700
; #@! TA.AperFunction,Plated,PTH,ComponentDrill
T5C0.750
; #@! TA.AperFunction,Plated,PTH,ComponentDrill
T6C1.000
; #@! TA.AperFunction,Plated,PTH,ComponentDrill
T7C2.200
%
G90
G05
T1
X119.1Y-143.345
X119.7Y-126.85
X120.05Y-112.95
X121.35Y-135.145
X123.4Y-135.345
X124.85Y-105.7
X125.35Y-135.345
X125.7Y-107.25
X127.3Y-143.145
X128.45Y-108.55
X129.3Y-140.7
X130.7Y-115.6
X130.8Y-140.7
X130.9Y-112.6
X131.2Y-107.4
X131.75Y-130.7
X131.8Y-133.8
X131.8Y-134.8
X131.85Y-112.7
X131.9Y-139.85
X131.9Y-140.8
X131.95Y-141.8
X131.95Y-142.95
X132.4Y-110.7
X132.65Y-117.1
X132.65Y-112.7
X133.274Y-110.675
X133.5Y-117.65
X133.95Y-124.1
X134.3Y-110.8
X135.85Y-107.4
X136.05Y-115.8
X136.3Y-122.0
X136.45Y-128.3
X137.1Y-121.05
X137.11Y-120.05
X138.6Y-117.75
X138.7Y-113.8
X138.8Y-115.7
X138.8Y-118.35
X138.8Y-123.35
X139.844Y-121.145
X140.873Y-118.994
X141.45Y-129.45
X141.85Y-124.0
X142.55Y-124.8
X143.147Y-120.8
X144.75Y-127.0
X144.8Y-141.8
X144.8Y-142.9
X144.85Y-134.8
X144.85Y-135.8
X144.85Y-137.8
X144.85Y-138.8
X145.65Y-128.85
X145.85Y-141.6
X146.0Y-107.25
X146.0Y-127.3
X146.05Y-125.4
X146.5Y-115.25
X146.6Y-131.1
X146.75Y-114.45
X147.207Y-139.197
X147.23Y-115.751
X147.251Y-125.2
X147.55Y-121.75
X148.3Y-143.55
X149.2Y-125.9
X149.6Y-116.1
X150.35Y-126.15
X151.1Y-107.2
X151.331Y-119.604
X151.45Y-126.15
X151.6Y-127.85
X152.3Y-123.2
X152.3Y-124.15
X152.4Y-125.1
X153.4Y-143.0
X153.5Y-104.8
X153.9Y-130.75
X153.985Y-118.162
X153.985Y-119.162
X153.985Y-120.162
X155.308Y-127.607
X155.5Y-108.8
X155.707Y-131.707
X155.85Y-106.85
X156.308Y-130.707
X156.607Y-119.907
X156.707Y-122.107
X156.808Y-120.607
X157.5Y-138.0
X158.75Y-139.05
X159.1Y-111.3
X159.1Y-127.55
T2
X143.972Y-119.07
X143.972Y-120.345
X143.972Y-121.62
X145.248Y-119.07
X145.248Y-120.345
X145.248Y-121.62
X146.522Y-119.07
X146.522Y-120.345
X146.522Y-121.62
T5
X153.907Y-134.597
X155.907Y-134.597
T6
X120.17Y-129.25
X122.71Y-129.25
X125.25Y-129.25
X135.19Y-105.1
X137.73Y-105.1
X140.27Y-105.1
X142.81Y-105.1
T7
X123.1Y-107.9
T3
G00X155.38Y-118.82
M15
G01X154.98Y-118.82
M16
G05
G00X155.38Y-123.66
M15
G01X154.98Y-123.66
M16
G05
T4
G00X158.43Y-118.51
M15
G01X157.93Y-118.51
M16
G05
G00X158.43Y-123.97
M15
G01X157.93Y-123.97
M16
G05
M30
