G04 #@! TF.GenerationSoftware,KiCad,Pcbnew,9.0.2*
G04 #@! TF.CreationDate,2026-01-19T13:25:36-05:00*
G04 #@! TF.ProjectId,RP2040_minimal_r2,52503230-3430-45f6-9d69-6e696d616c5f,REV2*
G04 #@! TF.SameCoordinates,Original*
G04 #@! TF.FileFunction,Legend,Bot*
G04 #@! TF.FilePolarity,Positive*
%FSLAX46Y46*%
G04 Gerber Fmt 4.6, Leading zero omitted, Abs format (unit mm)*
G04 Created by KiCad (PCBNEW 9.0.2) date 2026-01-19 13:25:36*
%MOMM*%
%LPD*%
G01*
G04 APERTURE LIST*
%ADD10C,0.150000*%
%ADD11C,0.120000*%
G04 APERTURE END LIST*
D10*
X155240833Y-136602319D02*
X155240833Y-137316604D01*
X155240833Y-137316604D02*
X155288452Y-137459461D01*
X155288452Y-137459461D02*
X155383690Y-137554700D01*
X155383690Y-137554700D02*
X155526547Y-137602319D01*
X155526547Y-137602319D02*
X155621785Y-137602319D01*
X154288452Y-136602319D02*
X154764642Y-136602319D01*
X154764642Y-136602319D02*
X154812261Y-137078509D01*
X154812261Y-137078509D02*
X154764642Y-137030890D01*
X154764642Y-137030890D02*
X154669404Y-136983271D01*
X154669404Y-136983271D02*
X154431309Y-136983271D01*
X154431309Y-136983271D02*
X154336071Y-137030890D01*
X154336071Y-137030890D02*
X154288452Y-137078509D01*
X154288452Y-137078509D02*
X154240833Y-137173747D01*
X154240833Y-137173747D02*
X154240833Y-137411842D01*
X154240833Y-137411842D02*
X154288452Y-137507080D01*
X154288452Y-137507080D02*
X154336071Y-137554700D01*
X154336071Y-137554700D02*
X154431309Y-137602319D01*
X154431309Y-137602319D02*
X154669404Y-137602319D01*
X154669404Y-137602319D02*
X154764642Y-137554700D01*
X154764642Y-137554700D02*
X154812261Y-137507080D01*
D11*
X151847500Y-128237500D02*
X157967500Y-128237500D01*
X151847500Y-134457500D02*
X152767500Y-134457500D01*
X151847500Y-136057500D02*
X151847500Y-128237500D01*
X152607500Y-130497500D02*
X153607500Y-130497500D01*
X152607500Y-132097500D02*
X152607500Y-130497500D01*
X152767500Y-134457500D02*
X152767500Y-136057500D01*
X152767500Y-136057500D02*
X151847500Y-136057500D01*
X153047500Y-134457500D02*
X152767500Y-134457500D01*
X153047500Y-134457500D02*
X153047500Y-135672500D01*
X153107500Y-130497500D02*
X153107500Y-128237500D01*
X153607500Y-130497500D02*
X153607500Y-128237500D01*
X153607500Y-130497500D02*
X153607500Y-132097500D01*
X153607500Y-132097500D02*
X152607500Y-132097500D01*
X154407500Y-128237500D02*
X154407500Y-132597500D01*
X154407500Y-132597500D02*
X155407500Y-132597500D01*
X155407500Y-132597500D02*
X155407500Y-128237500D01*
X156207500Y-130497500D02*
X156207500Y-132097500D01*
X156207500Y-132097500D02*
X157207500Y-132097500D01*
X157047500Y-134457500D02*
X156767500Y-134457500D01*
X157047500Y-136057500D02*
X157047500Y-134457500D01*
X157207500Y-130497500D02*
X156207500Y-130497500D01*
X157207500Y-132097500D02*
X157207500Y-130497500D01*
X157967500Y-128237500D02*
X157967500Y-136057500D01*
X157967500Y-134457500D02*
X157047500Y-134457500D01*
X157967500Y-136057500D02*
X157047500Y-136057500D01*
M02*
