G04 #@! TF.GenerationSoftware,KiCad,Pcbnew,9.0.2*
G04 #@! TF.CreationDate,2026-01-19T13:25:36-05:00*
G04 #@! TF.ProjectId,RP2040_minimal_r2,52503230-3430-45f6-9d69-6e696d616c5f,REV2*
G04 #@! TF.SameCoordinates,Original*
G04 #@! TF.FileFunction,Soldermask,Top*
G04 #@! TF.FilePolarity,Negative*
%FSLAX46Y46*%
G04 Gerber Fmt 4.6, Leading zero omitted, Abs format (unit mm)*
G04 Created by KiCad (PCBNEW 9.0.2) date 2026-01-19 13:25:36*
%MOMM*%
%LPD*%
G01*
G04 APERTURE LIST*
G04 APERTURE END LIST*
G36*
X149868914Y-142781995D02*
G01*
X149873645Y-142784084D01*
X149876811Y-142784501D01*
X149916442Y-142802981D01*
X149970106Y-142826676D01*
X150048324Y-142904894D01*
X150072028Y-142958579D01*
X150090498Y-142998188D01*
X150090914Y-143001351D01*
X150093005Y-143006086D01*
X150101000Y-143075000D01*
X150101000Y-144025000D01*
X150093005Y-144093914D01*
X150090914Y-144098648D01*
X150090498Y-144101811D01*
X150072036Y-144141402D01*
X150048324Y-144195106D01*
X149970106Y-144273324D01*
X149916402Y-144297036D01*
X149876811Y-144315498D01*
X149873648Y-144315914D01*
X149868914Y-144318005D01*
X149800000Y-144326000D01*
X149300000Y-144326000D01*
X149231086Y-144318005D01*
X149226351Y-144315914D01*
X149223188Y-144315498D01*
X149183579Y-144297028D01*
X149129894Y-144273324D01*
X149051676Y-144195106D01*
X149027981Y-144141442D01*
X149009501Y-144101811D01*
X149009084Y-144098645D01*
X149006995Y-144093914D01*
X148999000Y-144025000D01*
X148999000Y-143075000D01*
X149006995Y-143006086D01*
X149009084Y-143001354D01*
X149009501Y-142998188D01*
X149027989Y-142958538D01*
X149051676Y-142904894D01*
X149129894Y-142826676D01*
X149183538Y-142802989D01*
X149223188Y-142784501D01*
X149226354Y-142784084D01*
X149231086Y-142781995D01*
X149300000Y-142774000D01*
X149800000Y-142774000D01*
X149868914Y-142781995D01*
G37*
G36*
X151768914Y-142781995D02*
G01*
X151773645Y-142784084D01*
X151776811Y-142784501D01*
X151816442Y-142802981D01*
X151870106Y-142826676D01*
X151948324Y-142904894D01*
X151972028Y-142958579D01*
X151990498Y-142998188D01*
X151990914Y-143001351D01*
X151993005Y-143006086D01*
X152001000Y-143075000D01*
X152001000Y-144025000D01*
X151993005Y-144093914D01*
X151990914Y-144098648D01*
X151990498Y-144101811D01*
X151972036Y-144141402D01*
X151948324Y-144195106D01*
X151870106Y-144273324D01*
X151816402Y-144297036D01*
X151776811Y-144315498D01*
X151773648Y-144315914D01*
X151768914Y-144318005D01*
X151700000Y-144326000D01*
X151200000Y-144326000D01*
X151131086Y-144318005D01*
X151126351Y-144315914D01*
X151123188Y-144315498D01*
X151083579Y-144297028D01*
X151029894Y-144273324D01*
X150951676Y-144195106D01*
X150927981Y-144141442D01*
X150909501Y-144101811D01*
X150909084Y-144098645D01*
X150906995Y-144093914D01*
X150899000Y-144025000D01*
X150899000Y-143075000D01*
X150906995Y-143006086D01*
X150909084Y-143001354D01*
X150909501Y-142998188D01*
X150927989Y-142958538D01*
X150951676Y-142904894D01*
X151029894Y-142826676D01*
X151083538Y-142802989D01*
X151123188Y-142784501D01*
X151126354Y-142784084D01*
X151131086Y-142781995D01*
X151200000Y-142774000D01*
X151700000Y-142774000D01*
X151768914Y-142781995D01*
G37*
G36*
X155770063Y-142294567D02*
G01*
X155811168Y-142309528D01*
X155813702Y-142311472D01*
X155818525Y-142313341D01*
X155872908Y-142356417D01*
X156261817Y-142745326D01*
X156304893Y-142799709D01*
X156306760Y-142804530D01*
X156308704Y-142807063D01*
X156323657Y-142848147D01*
X156344852Y-142902857D01*
X156344852Y-143013474D01*
X156323642Y-143068223D01*
X156308704Y-143109265D01*
X156306763Y-143111794D01*
X156304893Y-143116622D01*
X156261817Y-143171004D01*
X155625420Y-143807401D01*
X155571038Y-143850477D01*
X155566214Y-143852345D01*
X155563683Y-143854288D01*
X155522615Y-143869235D01*
X155467890Y-143890436D01*
X155357273Y-143890436D01*
X155302570Y-143869244D01*
X155261481Y-143854289D01*
X155258948Y-143852345D01*
X155254125Y-143850477D01*
X155199742Y-143807401D01*
X154810833Y-143418492D01*
X154767757Y-143364109D01*
X154765889Y-143359287D01*
X154763945Y-143356754D01*
X154748988Y-143315661D01*
X154727798Y-143260961D01*
X154727798Y-143150344D01*
X154748992Y-143095634D01*
X154763945Y-143054552D01*
X154765888Y-143052019D01*
X154767757Y-143047196D01*
X154810833Y-142992814D01*
X154967593Y-142836054D01*
X155445145Y-142358500D01*
X155445153Y-142358493D01*
X155447230Y-142356417D01*
X155501612Y-142313341D01*
X155506431Y-142311474D01*
X155508966Y-142309529D01*
X155550068Y-142294569D01*
X155604760Y-142273382D01*
X155715377Y-142273382D01*
X155770063Y-142294567D01*
G37*
G36*
X134486486Y-142566203D02*
G01*
X134559806Y-142615194D01*
X134608797Y-142688514D01*
X134626000Y-142775000D01*
X134626000Y-143125000D01*
X134608797Y-143211486D01*
X134559806Y-143284806D01*
X134486486Y-143333797D01*
X134400000Y-143351000D01*
X132600000Y-143351000D01*
X132513514Y-143333797D01*
X132440194Y-143284806D01*
X132391203Y-143211486D01*
X132374000Y-143125000D01*
X132374000Y-142775000D01*
X132391203Y-142688514D01*
X132440194Y-142615194D01*
X132513514Y-142566203D01*
X132600000Y-142549000D01*
X134400000Y-142549000D01*
X134486486Y-142566203D01*
G37*
G36*
X144086486Y-142566203D02*
G01*
X144159806Y-142615194D01*
X144208797Y-142688514D01*
X144226000Y-142775000D01*
X144226000Y-143125000D01*
X144208797Y-143211486D01*
X144159806Y-143284806D01*
X144086486Y-143333797D01*
X144000000Y-143351000D01*
X142200000Y-143351000D01*
X142113514Y-143333797D01*
X142040194Y-143284806D01*
X141991203Y-143211486D01*
X141974000Y-143125000D01*
X141974000Y-142775000D01*
X141991203Y-142688514D01*
X142040194Y-142615194D01*
X142113514Y-142566203D01*
X142200000Y-142549000D01*
X144000000Y-142549000D01*
X144086486Y-142566203D01*
G37*
G36*
X154751829Y-141276333D02*
G01*
X154792934Y-141291294D01*
X154795468Y-141293238D01*
X154800291Y-141295107D01*
X154854674Y-141338183D01*
X155243583Y-141727092D01*
X155286659Y-141781475D01*
X155288526Y-141786296D01*
X155290470Y-141788829D01*
X155305423Y-141829913D01*
X155326618Y-141884623D01*
X155326618Y-141995240D01*
X155305408Y-142049989D01*
X155290470Y-142091031D01*
X155288529Y-142093560D01*
X155286659Y-142098388D01*
X155243583Y-142152770D01*
X154607186Y-142789167D01*
X154552804Y-142832243D01*
X154547980Y-142834111D01*
X154545449Y-142836054D01*
X154504381Y-142851001D01*
X154449656Y-142872202D01*
X154339039Y-142872202D01*
X154284336Y-142851010D01*
X154243247Y-142836055D01*
X154240714Y-142834111D01*
X154235891Y-142832243D01*
X154181508Y-142789167D01*
X153792599Y-142400258D01*
X153749523Y-142345875D01*
X153747655Y-142341053D01*
X153745711Y-142338520D01*
X153730754Y-142297427D01*
X153709564Y-142242727D01*
X153709564Y-142132110D01*
X153730758Y-142077400D01*
X153745711Y-142036318D01*
X153747654Y-142033785D01*
X153749523Y-142028962D01*
X153792599Y-141974580D01*
X153888650Y-141878529D01*
X154426911Y-141340266D01*
X154426919Y-141340259D01*
X154428996Y-141338183D01*
X154483378Y-141295107D01*
X154488197Y-141293240D01*
X154490732Y-141291295D01*
X154531834Y-141276335D01*
X154586526Y-141255148D01*
X154697143Y-141255148D01*
X154751829Y-141276333D01*
G37*
G36*
X134486486Y-141416203D02*
G01*
X134559806Y-141465194D01*
X134608797Y-141538514D01*
X134626000Y-141625000D01*
X134626000Y-141975000D01*
X134608797Y-142061486D01*
X134559806Y-142134806D01*
X134486486Y-142183797D01*
X134400000Y-142201000D01*
X132600000Y-142201000D01*
X132513514Y-142183797D01*
X132440194Y-142134806D01*
X132391203Y-142061486D01*
X132374000Y-141975000D01*
X132374000Y-141625000D01*
X132391203Y-141538514D01*
X132440194Y-141465194D01*
X132513514Y-141416203D01*
X132600000Y-141399000D01*
X134400000Y-141399000D01*
X134486486Y-141416203D01*
G37*
G36*
X144086486Y-141416203D02*
G01*
X144159806Y-141465194D01*
X144208797Y-141538514D01*
X144226000Y-141625000D01*
X144226000Y-141975000D01*
X144208797Y-142061486D01*
X144159806Y-142134806D01*
X144086486Y-142183797D01*
X144000000Y-142201000D01*
X142200000Y-142201000D01*
X142113514Y-142183797D01*
X142040194Y-142134806D01*
X141991203Y-142061486D01*
X141974000Y-141975000D01*
X141974000Y-141625000D01*
X141991203Y-141538514D01*
X142040194Y-141465194D01*
X142113514Y-141416203D01*
X142200000Y-141399000D01*
X144000000Y-141399000D01*
X144086486Y-141416203D01*
G37*
G36*
X120220059Y-139242128D02*
G01*
X120228694Y-139245940D01*
X120236705Y-139247108D01*
X120286782Y-139271589D01*
X120322932Y-139287551D01*
X120326279Y-139290898D01*
X120327449Y-139291470D01*
X120398529Y-139362550D01*
X120399100Y-139363719D01*
X120402449Y-139367068D01*
X120418411Y-139403218D01*
X120442892Y-139453294D01*
X120444059Y-139461305D01*
X120447872Y-139469941D01*
X120456000Y-139540000D01*
X120456000Y-141630000D01*
X120447872Y-141700059D01*
X120444057Y-141708697D01*
X120442891Y-141716705D01*
X120418419Y-141766761D01*
X120402449Y-141802932D01*
X120399099Y-141806281D01*
X120398529Y-141807449D01*
X120327449Y-141878529D01*
X120326280Y-141879100D01*
X120322932Y-141882449D01*
X120286771Y-141898415D01*
X120236705Y-141922892D01*
X120228694Y-141924059D01*
X120220059Y-141927872D01*
X120150000Y-141936000D01*
X118960000Y-141936000D01*
X118889941Y-141927872D01*
X118881302Y-141924057D01*
X118873294Y-141922891D01*
X118823228Y-141898415D01*
X118787068Y-141882449D01*
X118783719Y-141879100D01*
X118782550Y-141878529D01*
X118711470Y-141807449D01*
X118710898Y-141806279D01*
X118707551Y-141802932D01*
X118691593Y-141766792D01*
X118667107Y-141716705D01*
X118665939Y-141708691D01*
X118662128Y-141700059D01*
X118654000Y-141630000D01*
X118654000Y-139540000D01*
X118662128Y-139469941D01*
X118665940Y-139461306D01*
X118667108Y-139453294D01*
X118691594Y-139403206D01*
X118707551Y-139367068D01*
X118710897Y-139363721D01*
X118711470Y-139362550D01*
X118782550Y-139291470D01*
X118783721Y-139290897D01*
X118787068Y-139287551D01*
X118823197Y-139271598D01*
X118873294Y-139247107D01*
X118881309Y-139245939D01*
X118889941Y-139242128D01*
X118960000Y-139234000D01*
X120150000Y-139234000D01*
X120220059Y-139242128D01*
G37*
G36*
X127820059Y-139242128D02*
G01*
X127828694Y-139245940D01*
X127836705Y-139247108D01*
X127886782Y-139271589D01*
X127922932Y-139287551D01*
X127926279Y-139290898D01*
X127927449Y-139291470D01*
X127998529Y-139362550D01*
X127999100Y-139363719D01*
X128002449Y-139367068D01*
X128018411Y-139403218D01*
X128042892Y-139453294D01*
X128044059Y-139461305D01*
X128047872Y-139469941D01*
X128056000Y-139540000D01*
X128056000Y-141630000D01*
X128047872Y-141700059D01*
X128044057Y-141708697D01*
X128042891Y-141716705D01*
X128018419Y-141766761D01*
X128002449Y-141802932D01*
X127999099Y-141806281D01*
X127998529Y-141807449D01*
X127927449Y-141878529D01*
X127926280Y-141879100D01*
X127922932Y-141882449D01*
X127886771Y-141898415D01*
X127836705Y-141922892D01*
X127828694Y-141924059D01*
X127820059Y-141927872D01*
X127750000Y-141936000D01*
X126560000Y-141936000D01*
X126489941Y-141927872D01*
X126481302Y-141924057D01*
X126473294Y-141922891D01*
X126423228Y-141898415D01*
X126387068Y-141882449D01*
X126383719Y-141879100D01*
X126382550Y-141878529D01*
X126311470Y-141807449D01*
X126310898Y-141806279D01*
X126307551Y-141802932D01*
X126291593Y-141766792D01*
X126267107Y-141716705D01*
X126265939Y-141708691D01*
X126262128Y-141700059D01*
X126254000Y-141630000D01*
X126254000Y-139540000D01*
X126262128Y-139469941D01*
X126265940Y-139461306D01*
X126267108Y-139453294D01*
X126291594Y-139403206D01*
X126307551Y-139367068D01*
X126310897Y-139363721D01*
X126311470Y-139362550D01*
X126382550Y-139291470D01*
X126383721Y-139290897D01*
X126387068Y-139287551D01*
X126423197Y-139271598D01*
X126473294Y-139247107D01*
X126481309Y-139245939D01*
X126489941Y-139242128D01*
X126560000Y-139234000D01*
X127750000Y-139234000D01*
X127820059Y-139242128D01*
G37*
G36*
X158315647Y-139748983D02*
G01*
X158356752Y-139763944D01*
X158359286Y-139765888D01*
X158364109Y-139767757D01*
X158418492Y-139810833D01*
X158807401Y-140199742D01*
X158850477Y-140254125D01*
X158852344Y-140258946D01*
X158854288Y-140261479D01*
X158869241Y-140302563D01*
X158890436Y-140357273D01*
X158890436Y-140467890D01*
X158869226Y-140522639D01*
X158854288Y-140563681D01*
X158852347Y-140566210D01*
X158850477Y-140571038D01*
X158807401Y-140625420D01*
X158171004Y-141261817D01*
X158116622Y-141304893D01*
X158111798Y-141306761D01*
X158109267Y-141308704D01*
X158068199Y-141323651D01*
X158013474Y-141344852D01*
X157902857Y-141344852D01*
X157848154Y-141323660D01*
X157807065Y-141308705D01*
X157804532Y-141306761D01*
X157799709Y-141304893D01*
X157745326Y-141261817D01*
X157356417Y-140872908D01*
X157313341Y-140818525D01*
X157311473Y-140813703D01*
X157309529Y-140811170D01*
X157294572Y-140770077D01*
X157273382Y-140715377D01*
X157273382Y-140604760D01*
X157294576Y-140550050D01*
X157309529Y-140508968D01*
X157311472Y-140506435D01*
X157313341Y-140501612D01*
X157356417Y-140447230D01*
X157513177Y-140290470D01*
X157990729Y-139812916D01*
X157990737Y-139812909D01*
X157992814Y-139810833D01*
X158047196Y-139767757D01*
X158052015Y-139765890D01*
X158054550Y-139763945D01*
X158095652Y-139748985D01*
X158150344Y-139727798D01*
X158260961Y-139727798D01*
X158315647Y-139748983D01*
G37*
G36*
X145993093Y-140613539D02*
G01*
X146055057Y-140654943D01*
X146096461Y-140716907D01*
X146111000Y-140790000D01*
X146111000Y-141070000D01*
X146096461Y-141143093D01*
X146055057Y-141205057D01*
X145993093Y-141246461D01*
X145920000Y-141261000D01*
X145580000Y-141261000D01*
X145506907Y-141246461D01*
X145444943Y-141205057D01*
X145403539Y-141143093D01*
X145389000Y-141070000D01*
X145389000Y-140790000D01*
X145403539Y-140716907D01*
X145444943Y-140654943D01*
X145506907Y-140613539D01*
X145580000Y-140599000D01*
X145920000Y-140599000D01*
X145993093Y-140613539D01*
G37*
G36*
X134486486Y-140416203D02*
G01*
X134559806Y-140465194D01*
X134608797Y-140538514D01*
X134626000Y-140625000D01*
X134626000Y-140975000D01*
X134608797Y-141061486D01*
X134559806Y-141134806D01*
X134486486Y-141183797D01*
X134400000Y-141201000D01*
X132600000Y-141201000D01*
X132513514Y-141183797D01*
X132440194Y-141134806D01*
X132391203Y-141061486D01*
X132374000Y-140975000D01*
X132374000Y-140625000D01*
X132391203Y-140538514D01*
X132440194Y-140465194D01*
X132513514Y-140416203D01*
X132600000Y-140399000D01*
X134400000Y-140399000D01*
X134486486Y-140416203D01*
G37*
G36*
X144086486Y-140416203D02*
G01*
X144159806Y-140465194D01*
X144208797Y-140538514D01*
X144226000Y-140625000D01*
X144226000Y-140975000D01*
X144208797Y-141061486D01*
X144159806Y-141134806D01*
X144086486Y-141183797D01*
X144000000Y-141201000D01*
X142200000Y-141201000D01*
X142113514Y-141183797D01*
X142040194Y-141134806D01*
X141991203Y-141061486D01*
X141974000Y-140975000D01*
X141974000Y-140625000D01*
X141991203Y-140538514D01*
X142040194Y-140465194D01*
X142113514Y-140416203D01*
X142200000Y-140399000D01*
X144000000Y-140399000D01*
X144086486Y-140416203D01*
G37*
G36*
X157297413Y-138730749D02*
G01*
X157338518Y-138745710D01*
X157341052Y-138747654D01*
X157345875Y-138749523D01*
X157400258Y-138792599D01*
X157789167Y-139181508D01*
X157832243Y-139235891D01*
X157834110Y-139240712D01*
X157836054Y-139243245D01*
X157851007Y-139284329D01*
X157872202Y-139339039D01*
X157872202Y-139449656D01*
X157850992Y-139504405D01*
X157836054Y-139545447D01*
X157834113Y-139547976D01*
X157832243Y-139552804D01*
X157789167Y-139607186D01*
X157152770Y-140243583D01*
X157098388Y-140286659D01*
X157093564Y-140288527D01*
X157091033Y-140290470D01*
X157049965Y-140305417D01*
X156995240Y-140326618D01*
X156884623Y-140326618D01*
X156829920Y-140305426D01*
X156788831Y-140290471D01*
X156786298Y-140288527D01*
X156781475Y-140286659D01*
X156727092Y-140243583D01*
X156338183Y-139854674D01*
X156295107Y-139800291D01*
X156293239Y-139795469D01*
X156291295Y-139792936D01*
X156276338Y-139751843D01*
X156255148Y-139697143D01*
X156255148Y-139586526D01*
X156276342Y-139531816D01*
X156291295Y-139490734D01*
X156293238Y-139488201D01*
X156295107Y-139483378D01*
X156338183Y-139428996D01*
X156479628Y-139287551D01*
X156972495Y-138794682D01*
X156972503Y-138794675D01*
X156974580Y-138792599D01*
X157028962Y-138749523D01*
X157033781Y-138747656D01*
X157036316Y-138745711D01*
X157077418Y-138730751D01*
X157132110Y-138709564D01*
X157242727Y-138709564D01*
X157297413Y-138730749D01*
G37*
G36*
X145993093Y-139653539D02*
G01*
X146055057Y-139694943D01*
X146096461Y-139756907D01*
X146111000Y-139830000D01*
X146111000Y-140110000D01*
X146096461Y-140183093D01*
X146055057Y-140245057D01*
X145993093Y-140286461D01*
X145920000Y-140301000D01*
X145580000Y-140301000D01*
X145506907Y-140286461D01*
X145444943Y-140245057D01*
X145403539Y-140183093D01*
X145389000Y-140110000D01*
X145389000Y-139830000D01*
X145403539Y-139756907D01*
X145444943Y-139694943D01*
X145506907Y-139653539D01*
X145580000Y-139639000D01*
X145920000Y-139639000D01*
X145993093Y-139653539D01*
G37*
G36*
X134486486Y-139416203D02*
G01*
X134559806Y-139465194D01*
X134608797Y-139538514D01*
X134626000Y-139625000D01*
X134626000Y-139975000D01*
X134608797Y-140061486D01*
X134559806Y-140134806D01*
X134486486Y-140183797D01*
X134400000Y-140201000D01*
X132600000Y-140201000D01*
X132513514Y-140183797D01*
X132440194Y-140134806D01*
X132391203Y-140061486D01*
X132374000Y-139975000D01*
X132374000Y-139625000D01*
X132391203Y-139538514D01*
X132440194Y-139465194D01*
X132513514Y-139416203D01*
X132600000Y-139399000D01*
X134400000Y-139399000D01*
X134486486Y-139416203D01*
G37*
G36*
X144086486Y-139416203D02*
G01*
X144159806Y-139465194D01*
X144208797Y-139538514D01*
X144226000Y-139625000D01*
X144226000Y-139975000D01*
X144208797Y-140061486D01*
X144159806Y-140134806D01*
X144086486Y-140183797D01*
X144000000Y-140201000D01*
X142200000Y-140201000D01*
X142113514Y-140183797D01*
X142040194Y-140134806D01*
X141991203Y-140061486D01*
X141974000Y-139975000D01*
X141974000Y-139625000D01*
X141991203Y-139538514D01*
X142040194Y-139465194D01*
X142113514Y-139416203D01*
X142200000Y-139399000D01*
X144000000Y-139399000D01*
X144086486Y-139416203D01*
G37*
G36*
X131043093Y-139363539D02*
G01*
X131105057Y-139404943D01*
X131146461Y-139466907D01*
X131161000Y-139540000D01*
X131161000Y-139820000D01*
X131146461Y-139893093D01*
X131105057Y-139955057D01*
X131043093Y-139996461D01*
X130970000Y-140011000D01*
X130630000Y-140011000D01*
X130556907Y-139996461D01*
X130494943Y-139955057D01*
X130453539Y-139893093D01*
X130439000Y-139820000D01*
X130439000Y-139540000D01*
X130453539Y-139466907D01*
X130494943Y-139404943D01*
X130556907Y-139363539D01*
X130630000Y-139349000D01*
X130970000Y-139349000D01*
X131043093Y-139363539D01*
G37*
G36*
X129655774Y-138875148D02*
G01*
X129720341Y-138883649D01*
X129736580Y-138891221D01*
X129755621Y-138895009D01*
X129780839Y-138911859D01*
X129807908Y-138924482D01*
X129824377Y-138940951D01*
X129845161Y-138954839D01*
X129859048Y-138975622D01*
X129875517Y-138992091D01*
X129888138Y-139019157D01*
X129904991Y-139044379D01*
X129908778Y-139063422D01*
X129916350Y-139079659D01*
X129924848Y-139144212D01*
X129926000Y-139150000D01*
X129926000Y-139600000D01*
X129924848Y-139605789D01*
X129916350Y-139670341D01*
X129908779Y-139686577D01*
X129904991Y-139705621D01*
X129888136Y-139730844D01*
X129875517Y-139757908D01*
X129859050Y-139774374D01*
X129845161Y-139795161D01*
X129824374Y-139809050D01*
X129807908Y-139825517D01*
X129780845Y-139838136D01*
X129755621Y-139854991D01*
X129736575Y-139858779D01*
X129720340Y-139866350D01*
X129655789Y-139874848D01*
X129650000Y-139876000D01*
X129150000Y-139876000D01*
X129144212Y-139874848D01*
X129079658Y-139866350D01*
X129063421Y-139858778D01*
X129044379Y-139854991D01*
X129019157Y-139838138D01*
X128992091Y-139825517D01*
X128975622Y-139809048D01*
X128954839Y-139795161D01*
X128940951Y-139774377D01*
X128924482Y-139757908D01*
X128911860Y-139730840D01*
X128895009Y-139705621D01*
X128891221Y-139686579D01*
X128883649Y-139670340D01*
X128875148Y-139605774D01*
X128874000Y-139600000D01*
X128874000Y-139150000D01*
X128875148Y-139144227D01*
X128883649Y-139079658D01*
X128891222Y-139063417D01*
X128895009Y-139044379D01*
X128911858Y-139019162D01*
X128924482Y-138992091D01*
X128940953Y-138975619D01*
X128954839Y-138954839D01*
X128975619Y-138940953D01*
X128992091Y-138924482D01*
X129019162Y-138911858D01*
X129044379Y-138895009D01*
X129063418Y-138891221D01*
X129079659Y-138883649D01*
X129144227Y-138875148D01*
X129150000Y-138874000D01*
X129650000Y-138874000D01*
X129655774Y-138875148D01*
G37*
G36*
X134486486Y-138416203D02*
G01*
X134559806Y-138465194D01*
X134608797Y-138538514D01*
X134626000Y-138625000D01*
X134626000Y-138975000D01*
X134608797Y-139061486D01*
X134559806Y-139134806D01*
X134486486Y-139183797D01*
X134400000Y-139201000D01*
X132600000Y-139201000D01*
X132513514Y-139183797D01*
X132440194Y-139134806D01*
X132391203Y-139061486D01*
X132374000Y-138975000D01*
X132374000Y-138625000D01*
X132391203Y-138538514D01*
X132440194Y-138465194D01*
X132513514Y-138416203D01*
X132600000Y-138399000D01*
X134400000Y-138399000D01*
X134486486Y-138416203D01*
G37*
G36*
X144086486Y-138416203D02*
G01*
X144159806Y-138465194D01*
X144208797Y-138538514D01*
X144226000Y-138625000D01*
X144226000Y-138975000D01*
X144208797Y-139061486D01*
X144159806Y-139134806D01*
X144086486Y-139183797D01*
X144000000Y-139201000D01*
X142200000Y-139201000D01*
X142113514Y-139183797D01*
X142040194Y-139134806D01*
X141991203Y-139061486D01*
X141974000Y-138975000D01*
X141974000Y-138625000D01*
X141991203Y-138538514D01*
X142040194Y-138465194D01*
X142113514Y-138416203D01*
X142200000Y-138399000D01*
X144000000Y-138399000D01*
X144086486Y-138416203D01*
G37*
G36*
X131043093Y-138403539D02*
G01*
X131105057Y-138444943D01*
X131146461Y-138506907D01*
X131161000Y-138580000D01*
X131161000Y-138860000D01*
X131146461Y-138933093D01*
X131105057Y-138995057D01*
X131043093Y-139036461D01*
X130970000Y-139051000D01*
X130630000Y-139051000D01*
X130556907Y-139036461D01*
X130494943Y-138995057D01*
X130453539Y-138933093D01*
X130439000Y-138860000D01*
X130439000Y-138580000D01*
X130453539Y-138506907D01*
X130494943Y-138444943D01*
X130556907Y-138403539D01*
X130630000Y-138389000D01*
X130970000Y-138389000D01*
X131043093Y-138403539D01*
G37*
G36*
X147587594Y-136397306D02*
G01*
X147672187Y-136406401D01*
X147692243Y-136413881D01*
X147714141Y-136417350D01*
X147748555Y-136434884D01*
X147786437Y-136449014D01*
X147808073Y-136465211D01*
X147832897Y-136477859D01*
X147856500Y-136501462D01*
X147883400Y-136521599D01*
X147903536Y-136548498D01*
X147927141Y-136572103D01*
X147939789Y-136596927D01*
X147955985Y-136618562D01*
X147970112Y-136656440D01*
X147987650Y-136690859D01*
X147991118Y-136712759D01*
X147998598Y-136732812D01*
X148007690Y-136817386D01*
X148008500Y-136822500D01*
X148008500Y-138072500D01*
X148007690Y-138077613D01*
X147998598Y-138162187D01*
X147991118Y-138182239D01*
X147987650Y-138204141D01*
X147970111Y-138238562D01*
X147955985Y-138276437D01*
X147939791Y-138298069D01*
X147927141Y-138322897D01*
X147903533Y-138346504D01*
X147883400Y-138373400D01*
X147856504Y-138393533D01*
X147832897Y-138417141D01*
X147808069Y-138429791D01*
X147786437Y-138445985D01*
X147748562Y-138460111D01*
X147714141Y-138477650D01*
X147692239Y-138481118D01*
X147672187Y-138488598D01*
X147587615Y-138497689D01*
X147582500Y-138498500D01*
X146832500Y-138498500D01*
X146827388Y-138497690D01*
X146742812Y-138488598D01*
X146722759Y-138481118D01*
X146700859Y-138477650D01*
X146666440Y-138460112D01*
X146628562Y-138445985D01*
X146606927Y-138429789D01*
X146582103Y-138417141D01*
X146558498Y-138393536D01*
X146531599Y-138373400D01*
X146511462Y-138346500D01*
X146487859Y-138322897D01*
X146475211Y-138298073D01*
X146459014Y-138276437D01*
X146444884Y-138238555D01*
X146427350Y-138204141D01*
X146423881Y-138182243D01*
X146416401Y-138162187D01*
X146407307Y-138077596D01*
X146406500Y-138072500D01*
X146406500Y-136822500D01*
X146407306Y-136817407D01*
X146416401Y-136732812D01*
X146423882Y-136712754D01*
X146427350Y-136690859D01*
X146444883Y-136656447D01*
X146459014Y-136618562D01*
X146475212Y-136596922D01*
X146487859Y-136572103D01*
X146511459Y-136548502D01*
X146531599Y-136521599D01*
X146558502Y-136501459D01*
X146582103Y-136477859D01*
X146606922Y-136465212D01*
X146628562Y-136449014D01*
X146666447Y-136434883D01*
X146700859Y-136417350D01*
X146722754Y-136413882D01*
X146742812Y-136406401D01*
X146827405Y-136397306D01*
X146832500Y-136396500D01*
X147582500Y-136396500D01*
X147587594Y-136397306D01*
G37*
G36*
X149887594Y-136397306D02*
G01*
X149972187Y-136406401D01*
X149992243Y-136413881D01*
X150014141Y-136417350D01*
X150048555Y-136434884D01*
X150086437Y-136449014D01*
X150108073Y-136465211D01*
X150132897Y-136477859D01*
X150156500Y-136501462D01*
X150183400Y-136521599D01*
X150203536Y-136548498D01*
X150227141Y-136572103D01*
X150239789Y-136596927D01*
X150255985Y-136618562D01*
X150270112Y-136656440D01*
X150287650Y-136690859D01*
X150291118Y-136712759D01*
X150298598Y-136732812D01*
X150307690Y-136817386D01*
X150308500Y-136822500D01*
X150308500Y-138072500D01*
X150307690Y-138077613D01*
X150298598Y-138162187D01*
X150291118Y-138182239D01*
X150287650Y-138204141D01*
X150270111Y-138238562D01*
X150255985Y-138276437D01*
X150239791Y-138298069D01*
X150227141Y-138322897D01*
X150203533Y-138346504D01*
X150183400Y-138373400D01*
X150156504Y-138393533D01*
X150132897Y-138417141D01*
X150108069Y-138429791D01*
X150086437Y-138445985D01*
X150048562Y-138460111D01*
X150014141Y-138477650D01*
X149992239Y-138481118D01*
X149972187Y-138488598D01*
X149887615Y-138497689D01*
X149882500Y-138498500D01*
X149132500Y-138498500D01*
X149127388Y-138497690D01*
X149042812Y-138488598D01*
X149022759Y-138481118D01*
X149000859Y-138477650D01*
X148966440Y-138460112D01*
X148928562Y-138445985D01*
X148906927Y-138429789D01*
X148882103Y-138417141D01*
X148858498Y-138393536D01*
X148831599Y-138373400D01*
X148811462Y-138346500D01*
X148787859Y-138322897D01*
X148775211Y-138298073D01*
X148759014Y-138276437D01*
X148744884Y-138238555D01*
X148727350Y-138204141D01*
X148723881Y-138182243D01*
X148716401Y-138162187D01*
X148707307Y-138077596D01*
X148706500Y-138072500D01*
X148706500Y-136822500D01*
X148707306Y-136817407D01*
X148716401Y-136732812D01*
X148723882Y-136712754D01*
X148727350Y-136690859D01*
X148744883Y-136656447D01*
X148759014Y-136618562D01*
X148775212Y-136596922D01*
X148787859Y-136572103D01*
X148811459Y-136548502D01*
X148831599Y-136521599D01*
X148858502Y-136501459D01*
X148882103Y-136477859D01*
X148906922Y-136465212D01*
X148928562Y-136449014D01*
X148966447Y-136434883D01*
X149000859Y-136417350D01*
X149022754Y-136413882D01*
X149042812Y-136406401D01*
X149127405Y-136397306D01*
X149132500Y-136396500D01*
X149882500Y-136396500D01*
X149887594Y-136397306D01*
G37*
G36*
X152187594Y-136397306D02*
G01*
X152272187Y-136406401D01*
X152292243Y-136413881D01*
X152314141Y-136417350D01*
X152348555Y-136434884D01*
X152386437Y-136449014D01*
X152408073Y-136465211D01*
X152432897Y-136477859D01*
X152456500Y-136501462D01*
X152483400Y-136521599D01*
X152503536Y-136548498D01*
X152527141Y-136572103D01*
X152539789Y-136596927D01*
X152555985Y-136618562D01*
X152570112Y-136656440D01*
X152587650Y-136690859D01*
X152591118Y-136712759D01*
X152598598Y-136732812D01*
X152607690Y-136817386D01*
X152608500Y-136822500D01*
X152608500Y-138072500D01*
X152607690Y-138077613D01*
X152598598Y-138162187D01*
X152591118Y-138182239D01*
X152587650Y-138204141D01*
X152570111Y-138238562D01*
X152555985Y-138276437D01*
X152539791Y-138298069D01*
X152527141Y-138322897D01*
X152503533Y-138346504D01*
X152483400Y-138373400D01*
X152456504Y-138393533D01*
X152432897Y-138417141D01*
X152408069Y-138429791D01*
X152386437Y-138445985D01*
X152348562Y-138460111D01*
X152314141Y-138477650D01*
X152292239Y-138481118D01*
X152272187Y-138488598D01*
X152187615Y-138497689D01*
X152182500Y-138498500D01*
X151432500Y-138498500D01*
X151427388Y-138497690D01*
X151342812Y-138488598D01*
X151322759Y-138481118D01*
X151300859Y-138477650D01*
X151266440Y-138460112D01*
X151228562Y-138445985D01*
X151206927Y-138429789D01*
X151182103Y-138417141D01*
X151158498Y-138393536D01*
X151131599Y-138373400D01*
X151111462Y-138346500D01*
X151087859Y-138322897D01*
X151075211Y-138298073D01*
X151059014Y-138276437D01*
X151044884Y-138238555D01*
X151027350Y-138204141D01*
X151023881Y-138182243D01*
X151016401Y-138162187D01*
X151007307Y-138077596D01*
X151006500Y-138072500D01*
X151006500Y-136822500D01*
X151007306Y-136817407D01*
X151016401Y-136732812D01*
X151023882Y-136712754D01*
X151027350Y-136690859D01*
X151044883Y-136656447D01*
X151059014Y-136618562D01*
X151075212Y-136596922D01*
X151087859Y-136572103D01*
X151111459Y-136548502D01*
X151131599Y-136521599D01*
X151158502Y-136501459D01*
X151182103Y-136477859D01*
X151206922Y-136465212D01*
X151228562Y-136449014D01*
X151266447Y-136434883D01*
X151300859Y-136417350D01*
X151322754Y-136413882D01*
X151342812Y-136406401D01*
X151427405Y-136397306D01*
X151432500Y-136396500D01*
X152182500Y-136396500D01*
X152187594Y-136397306D01*
G37*
G36*
X129655774Y-137325148D02*
G01*
X129720341Y-137333649D01*
X129736580Y-137341221D01*
X129755621Y-137345009D01*
X129780839Y-137361859D01*
X129807908Y-137374482D01*
X129824377Y-137390951D01*
X129845161Y-137404839D01*
X129859048Y-137425622D01*
X129875517Y-137442091D01*
X129888138Y-137469157D01*
X129904991Y-137494379D01*
X129908778Y-137513422D01*
X129916350Y-137529659D01*
X129924848Y-137594212D01*
X129926000Y-137600000D01*
X129926000Y-138050000D01*
X129924848Y-138055789D01*
X129916350Y-138120341D01*
X129908779Y-138136577D01*
X129904991Y-138155621D01*
X129888136Y-138180844D01*
X129875517Y-138207908D01*
X129859050Y-138224374D01*
X129845161Y-138245161D01*
X129824374Y-138259050D01*
X129807908Y-138275517D01*
X129780845Y-138288136D01*
X129755621Y-138304991D01*
X129736575Y-138308779D01*
X129720340Y-138316350D01*
X129655789Y-138324848D01*
X129650000Y-138326000D01*
X129150000Y-138326000D01*
X129144212Y-138324848D01*
X129079658Y-138316350D01*
X129063421Y-138308778D01*
X129044379Y-138304991D01*
X129019157Y-138288138D01*
X128992091Y-138275517D01*
X128975622Y-138259048D01*
X128954839Y-138245161D01*
X128940951Y-138224377D01*
X128924482Y-138207908D01*
X128911860Y-138180840D01*
X128895009Y-138155621D01*
X128891221Y-138136579D01*
X128883649Y-138120340D01*
X128875148Y-138055774D01*
X128874000Y-138050000D01*
X128874000Y-137600000D01*
X128875148Y-137594227D01*
X128883649Y-137529658D01*
X128891222Y-137513417D01*
X128895009Y-137494379D01*
X128911858Y-137469162D01*
X128924482Y-137442091D01*
X128940953Y-137425619D01*
X128954839Y-137404839D01*
X128975619Y-137390953D01*
X128992091Y-137374482D01*
X129019162Y-137361858D01*
X129044379Y-137345009D01*
X129063418Y-137341221D01*
X129079659Y-137333649D01*
X129144227Y-137325148D01*
X129150000Y-137324000D01*
X129650000Y-137324000D01*
X129655774Y-137325148D01*
G37*
G36*
X134486486Y-137416203D02*
G01*
X134559806Y-137465194D01*
X134608797Y-137538514D01*
X134626000Y-137625000D01*
X134626000Y-137975000D01*
X134608797Y-138061486D01*
X134559806Y-138134806D01*
X134486486Y-138183797D01*
X134400000Y-138201000D01*
X132600000Y-138201000D01*
X132513514Y-138183797D01*
X132440194Y-138134806D01*
X132391203Y-138061486D01*
X132374000Y-137975000D01*
X132374000Y-137625000D01*
X132391203Y-137538514D01*
X132440194Y-137465194D01*
X132513514Y-137416203D01*
X132600000Y-137399000D01*
X134400000Y-137399000D01*
X134486486Y-137416203D01*
G37*
G36*
X144086486Y-137416203D02*
G01*
X144159806Y-137465194D01*
X144208797Y-137538514D01*
X144226000Y-137625000D01*
X144226000Y-137975000D01*
X144208797Y-138061486D01*
X144159806Y-138134806D01*
X144086486Y-138183797D01*
X144000000Y-138201000D01*
X142200000Y-138201000D01*
X142113514Y-138183797D01*
X142040194Y-138134806D01*
X141991203Y-138061486D01*
X141974000Y-137975000D01*
X141974000Y-137625000D01*
X141991203Y-137538514D01*
X142040194Y-137465194D01*
X142113514Y-137416203D01*
X142200000Y-137399000D01*
X144000000Y-137399000D01*
X144086486Y-137416203D01*
G37*
G36*
X134486486Y-136416203D02*
G01*
X134559806Y-136465194D01*
X134608797Y-136538514D01*
X134626000Y-136625000D01*
X134626000Y-136975000D01*
X134608797Y-137061486D01*
X134559806Y-137134806D01*
X134486486Y-137183797D01*
X134400000Y-137201000D01*
X132600000Y-137201000D01*
X132513514Y-137183797D01*
X132440194Y-137134806D01*
X132391203Y-137061486D01*
X132374000Y-136975000D01*
X132374000Y-136625000D01*
X132391203Y-136538514D01*
X132440194Y-136465194D01*
X132513514Y-136416203D01*
X132600000Y-136399000D01*
X134400000Y-136399000D01*
X134486486Y-136416203D01*
G37*
G36*
X144086486Y-136416203D02*
G01*
X144159806Y-136465194D01*
X144208797Y-136538514D01*
X144226000Y-136625000D01*
X144226000Y-136975000D01*
X144208797Y-137061486D01*
X144159806Y-137134806D01*
X144086486Y-137183797D01*
X144000000Y-137201000D01*
X142200000Y-137201000D01*
X142113514Y-137183797D01*
X142040194Y-137134806D01*
X141991203Y-137061486D01*
X141974000Y-136975000D01*
X141974000Y-136625000D01*
X141991203Y-136538514D01*
X142040194Y-136465194D01*
X142113514Y-136416203D01*
X142200000Y-136399000D01*
X144000000Y-136399000D01*
X144086486Y-136416203D01*
G37*
G36*
X121913637Y-135734723D02*
G01*
X121964674Y-135740644D01*
X121982114Y-135748344D01*
X122004140Y-135752726D01*
X122027721Y-135768482D01*
X122048583Y-135777694D01*
X122062831Y-135791942D01*
X122083948Y-135806052D01*
X122098057Y-135827168D01*
X122112305Y-135841416D01*
X122121515Y-135862276D01*
X122137274Y-135885860D01*
X122141655Y-135907888D01*
X122149355Y-135925325D01*
X122155274Y-135976351D01*
X122156000Y-135980000D01*
X122156000Y-136890000D01*
X122155274Y-136893649D01*
X122149355Y-136944674D01*
X122141656Y-136962110D01*
X122137274Y-136984140D01*
X122121514Y-137007725D01*
X122112305Y-137028583D01*
X122098059Y-137042828D01*
X122083948Y-137063948D01*
X122062828Y-137078059D01*
X122048583Y-137092305D01*
X122027725Y-137101514D01*
X122004140Y-137117274D01*
X121982110Y-137121656D01*
X121964674Y-137129355D01*
X121913649Y-137135274D01*
X121910000Y-137136000D01*
X120800000Y-137136000D01*
X120796351Y-137135274D01*
X120745325Y-137129355D01*
X120727888Y-137121655D01*
X120705860Y-137117274D01*
X120682276Y-137101515D01*
X120661416Y-137092305D01*
X120647168Y-137078057D01*
X120626052Y-137063948D01*
X120611942Y-137042831D01*
X120597694Y-137028583D01*
X120588482Y-137007721D01*
X120572726Y-136984140D01*
X120568344Y-136962114D01*
X120560644Y-136944674D01*
X120554723Y-136893637D01*
X120554000Y-136890000D01*
X120554000Y-135980000D01*
X120554723Y-135976363D01*
X120560644Y-135925325D01*
X120568345Y-135907884D01*
X120572726Y-135885860D01*
X120588481Y-135862280D01*
X120597694Y-135841416D01*
X120611944Y-135827165D01*
X120626052Y-135806052D01*
X120647165Y-135791944D01*
X120661416Y-135777694D01*
X120682280Y-135768481D01*
X120705860Y-135752726D01*
X120727884Y-135748345D01*
X120745325Y-135740644D01*
X120796363Y-135734723D01*
X120800000Y-135734000D01*
X121910000Y-135734000D01*
X121913637Y-135734723D01*
G37*
G36*
X123913637Y-135734723D02*
G01*
X123964674Y-135740644D01*
X123982114Y-135748344D01*
X124004140Y-135752726D01*
X124027721Y-135768482D01*
X124048583Y-135777694D01*
X124062831Y-135791942D01*
X124083948Y-135806052D01*
X124098057Y-135827168D01*
X124112305Y-135841416D01*
X124121515Y-135862276D01*
X124137274Y-135885860D01*
X124141655Y-135907888D01*
X124149355Y-135925325D01*
X124155274Y-135976351D01*
X124156000Y-135980000D01*
X124156000Y-136890000D01*
X124155274Y-136893649D01*
X124149355Y-136944674D01*
X124141656Y-136962110D01*
X124137274Y-136984140D01*
X124121514Y-137007725D01*
X124112305Y-137028583D01*
X124098059Y-137042828D01*
X124083948Y-137063948D01*
X124062828Y-137078059D01*
X124048583Y-137092305D01*
X124027725Y-137101514D01*
X124004140Y-137117274D01*
X123982110Y-137121656D01*
X123964674Y-137129355D01*
X123913649Y-137135274D01*
X123910000Y-137136000D01*
X122800000Y-137136000D01*
X122796351Y-137135274D01*
X122745325Y-137129355D01*
X122727888Y-137121655D01*
X122705860Y-137117274D01*
X122682276Y-137101515D01*
X122661416Y-137092305D01*
X122647168Y-137078057D01*
X122626052Y-137063948D01*
X122611942Y-137042831D01*
X122597694Y-137028583D01*
X122588482Y-137007721D01*
X122572726Y-136984140D01*
X122568344Y-136962114D01*
X122560644Y-136944674D01*
X122554723Y-136893637D01*
X122554000Y-136890000D01*
X122554000Y-135980000D01*
X122554723Y-135976363D01*
X122560644Y-135925325D01*
X122568345Y-135907884D01*
X122572726Y-135885860D01*
X122588481Y-135862280D01*
X122597694Y-135841416D01*
X122611944Y-135827165D01*
X122626052Y-135806052D01*
X122647165Y-135791944D01*
X122661416Y-135777694D01*
X122682280Y-135768481D01*
X122705860Y-135752726D01*
X122727884Y-135748345D01*
X122745325Y-135740644D01*
X122796363Y-135734723D01*
X122800000Y-135734000D01*
X123910000Y-135734000D01*
X123913637Y-135734723D01*
G37*
G36*
X125913637Y-135734723D02*
G01*
X125964674Y-135740644D01*
X125982114Y-135748344D01*
X126004140Y-135752726D01*
X126027721Y-135768482D01*
X126048583Y-135777694D01*
X126062831Y-135791942D01*
X126083948Y-135806052D01*
X126098057Y-135827168D01*
X126112305Y-135841416D01*
X126121515Y-135862276D01*
X126137274Y-135885860D01*
X126141655Y-135907888D01*
X126149355Y-135925325D01*
X126155274Y-135976351D01*
X126156000Y-135980000D01*
X126156000Y-136890000D01*
X126155274Y-136893649D01*
X126149355Y-136944674D01*
X126141656Y-136962110D01*
X126137274Y-136984140D01*
X126121514Y-137007725D01*
X126112305Y-137028583D01*
X126098059Y-137042828D01*
X126083948Y-137063948D01*
X126062828Y-137078059D01*
X126048583Y-137092305D01*
X126027725Y-137101514D01*
X126004140Y-137117274D01*
X125982110Y-137121656D01*
X125964674Y-137129355D01*
X125913649Y-137135274D01*
X125910000Y-137136000D01*
X124800000Y-137136000D01*
X124796351Y-137135274D01*
X124745325Y-137129355D01*
X124727888Y-137121655D01*
X124705860Y-137117274D01*
X124682276Y-137101515D01*
X124661416Y-137092305D01*
X124647168Y-137078057D01*
X124626052Y-137063948D01*
X124611942Y-137042831D01*
X124597694Y-137028583D01*
X124588482Y-137007721D01*
X124572726Y-136984140D01*
X124568344Y-136962114D01*
X124560644Y-136944674D01*
X124554723Y-136893637D01*
X124554000Y-136890000D01*
X124554000Y-135980000D01*
X124554723Y-135976363D01*
X124560644Y-135925325D01*
X124568345Y-135907884D01*
X124572726Y-135885860D01*
X124588481Y-135862280D01*
X124597694Y-135841416D01*
X124611944Y-135827165D01*
X124626052Y-135806052D01*
X124647165Y-135791944D01*
X124661416Y-135777694D01*
X124682280Y-135768481D01*
X124705860Y-135752726D01*
X124727884Y-135748345D01*
X124745325Y-135740644D01*
X124796363Y-135734723D01*
X124800000Y-135734000D01*
X125910000Y-135734000D01*
X125913637Y-135734723D01*
G37*
G36*
X134486486Y-135416203D02*
G01*
X134559806Y-135465194D01*
X134608797Y-135538514D01*
X134626000Y-135625000D01*
X134626000Y-135975000D01*
X134608797Y-136061486D01*
X134559806Y-136134806D01*
X134486486Y-136183797D01*
X134400000Y-136201000D01*
X132600000Y-136201000D01*
X132513514Y-136183797D01*
X132440194Y-136134806D01*
X132391203Y-136061486D01*
X132374000Y-135975000D01*
X132374000Y-135625000D01*
X132391203Y-135538514D01*
X132440194Y-135465194D01*
X132513514Y-135416203D01*
X132600000Y-135399000D01*
X134400000Y-135399000D01*
X134486486Y-135416203D01*
G37*
G36*
X144086486Y-135416203D02*
G01*
X144159806Y-135465194D01*
X144208797Y-135538514D01*
X144226000Y-135625000D01*
X144226000Y-135975000D01*
X144208797Y-136061486D01*
X144159806Y-136134806D01*
X144086486Y-136183797D01*
X144000000Y-136201000D01*
X142200000Y-136201000D01*
X142113514Y-136183797D01*
X142040194Y-136134806D01*
X141991203Y-136061486D01*
X141974000Y-135975000D01*
X141974000Y-135625000D01*
X141991203Y-135538514D01*
X142040194Y-135465194D01*
X142113514Y-135416203D01*
X142200000Y-135399000D01*
X144000000Y-135399000D01*
X144086486Y-135416203D01*
G37*
G36*
X154326414Y-133679495D02*
G01*
X154331145Y-133681584D01*
X154334311Y-133682001D01*
X154373942Y-133700481D01*
X154427606Y-133724176D01*
X154505824Y-133802394D01*
X154529528Y-133856079D01*
X154547998Y-133895688D01*
X154548414Y-133898851D01*
X154550505Y-133903586D01*
X154558500Y-133972500D01*
X154558500Y-135222500D01*
X154550505Y-135291414D01*
X154548414Y-135296148D01*
X154547998Y-135299311D01*
X154529536Y-135338902D01*
X154505824Y-135392606D01*
X154427606Y-135470824D01*
X154373902Y-135494536D01*
X154334311Y-135512998D01*
X154331148Y-135513414D01*
X154326414Y-135515505D01*
X154257500Y-135523500D01*
X153557500Y-135523500D01*
X153488586Y-135515505D01*
X153483851Y-135513414D01*
X153480688Y-135512998D01*
X153441079Y-135494528D01*
X153387394Y-135470824D01*
X153309176Y-135392606D01*
X153285481Y-135338942D01*
X153267001Y-135299311D01*
X153266584Y-135296145D01*
X153264495Y-135291414D01*
X153256500Y-135222500D01*
X153256500Y-133972500D01*
X153264495Y-133903586D01*
X153266584Y-133898854D01*
X153267001Y-133895688D01*
X153285489Y-133856038D01*
X153309176Y-133802394D01*
X153387394Y-133724176D01*
X153441038Y-133700489D01*
X153480688Y-133682001D01*
X153483854Y-133681584D01*
X153488586Y-133679495D01*
X153557500Y-133671500D01*
X154257500Y-133671500D01*
X154326414Y-133679495D01*
G37*
G36*
X156096475Y-133699532D02*
G01*
X156214379Y-133748369D01*
X156320490Y-133819270D01*
X156410730Y-133909510D01*
X156481631Y-134015621D01*
X156530468Y-134133525D01*
X156555365Y-134258691D01*
X156558500Y-134322500D01*
X156558500Y-134872500D01*
X156555365Y-134936309D01*
X156530468Y-135061475D01*
X156481631Y-135179379D01*
X156410730Y-135285490D01*
X156320490Y-135375730D01*
X156214379Y-135446631D01*
X156096475Y-135495468D01*
X155971309Y-135520365D01*
X155843691Y-135520365D01*
X155718525Y-135495468D01*
X155600621Y-135446631D01*
X155494510Y-135375730D01*
X155404270Y-135285490D01*
X155333369Y-135179379D01*
X155284532Y-135061475D01*
X155259635Y-134936309D01*
X155256500Y-134872500D01*
X155256500Y-134322500D01*
X155259635Y-134258691D01*
X155284532Y-134133525D01*
X155333369Y-134015621D01*
X155404270Y-133909510D01*
X155494510Y-133819270D01*
X155600621Y-133748369D01*
X155718525Y-133699532D01*
X155843691Y-133674635D01*
X155971309Y-133674635D01*
X156096475Y-133699532D01*
G37*
G36*
X134486486Y-134416203D02*
G01*
X134559806Y-134465194D01*
X134608797Y-134538514D01*
X134626000Y-134625000D01*
X134626000Y-134975000D01*
X134608797Y-135061486D01*
X134559806Y-135134806D01*
X134486486Y-135183797D01*
X134400000Y-135201000D01*
X132600000Y-135201000D01*
X132513514Y-135183797D01*
X132440194Y-135134806D01*
X132391203Y-135061486D01*
X132374000Y-134975000D01*
X132374000Y-134625000D01*
X132391203Y-134538514D01*
X132440194Y-134465194D01*
X132513514Y-134416203D01*
X132600000Y-134399000D01*
X134400000Y-134399000D01*
X134486486Y-134416203D01*
G37*
G36*
X144086486Y-134416203D02*
G01*
X144159806Y-134465194D01*
X144208797Y-134538514D01*
X144226000Y-134625000D01*
X144226000Y-134975000D01*
X144208797Y-135061486D01*
X144159806Y-135134806D01*
X144086486Y-135183797D01*
X144000000Y-135201000D01*
X142200000Y-135201000D01*
X142113514Y-135183797D01*
X142040194Y-135134806D01*
X141991203Y-135061486D01*
X141974000Y-134975000D01*
X141974000Y-134625000D01*
X141991203Y-134538514D01*
X142040194Y-134465194D01*
X142113514Y-134416203D01*
X142200000Y-134399000D01*
X144000000Y-134399000D01*
X144086486Y-134416203D01*
G37*
G36*
X134486486Y-133416203D02*
G01*
X134559806Y-133465194D01*
X134608797Y-133538514D01*
X134626000Y-133625000D01*
X134626000Y-133975000D01*
X134608797Y-134061486D01*
X134559806Y-134134806D01*
X134486486Y-134183797D01*
X134400000Y-134201000D01*
X132600000Y-134201000D01*
X132513514Y-134183797D01*
X132440194Y-134134806D01*
X132391203Y-134061486D01*
X132374000Y-133975000D01*
X132374000Y-133625000D01*
X132391203Y-133538514D01*
X132440194Y-133465194D01*
X132513514Y-133416203D01*
X132600000Y-133399000D01*
X134400000Y-133399000D01*
X134486486Y-133416203D01*
G37*
G36*
X144086486Y-133416203D02*
G01*
X144159806Y-133465194D01*
X144208797Y-133538514D01*
X144226000Y-133625000D01*
X144226000Y-133975000D01*
X144208797Y-134061486D01*
X144159806Y-134134806D01*
X144086486Y-134183797D01*
X144000000Y-134201000D01*
X142200000Y-134201000D01*
X142113514Y-134183797D01*
X142040194Y-134134806D01*
X141991203Y-134061486D01*
X141974000Y-133975000D01*
X141974000Y-133625000D01*
X141991203Y-133538514D01*
X142040194Y-133465194D01*
X142113514Y-133416203D01*
X142200000Y-133399000D01*
X144000000Y-133399000D01*
X144086486Y-133416203D01*
G37*
G36*
X134486486Y-132416203D02*
G01*
X134559806Y-132465194D01*
X134608797Y-132538514D01*
X134626000Y-132625000D01*
X134626000Y-132975000D01*
X134608797Y-133061486D01*
X134559806Y-133134806D01*
X134486486Y-133183797D01*
X134400000Y-133201000D01*
X132600000Y-133201000D01*
X132513514Y-133183797D01*
X132440194Y-133134806D01*
X132391203Y-133061486D01*
X132374000Y-132975000D01*
X132374000Y-132625000D01*
X132391203Y-132538514D01*
X132440194Y-132465194D01*
X132513514Y-132416203D01*
X132600000Y-132399000D01*
X134400000Y-132399000D01*
X134486486Y-132416203D01*
G37*
G36*
X144086486Y-132416203D02*
G01*
X144159806Y-132465194D01*
X144208797Y-132538514D01*
X144226000Y-132625000D01*
X144226000Y-132975000D01*
X144208797Y-133061486D01*
X144159806Y-133134806D01*
X144086486Y-133183797D01*
X144000000Y-133201000D01*
X142200000Y-133201000D01*
X142113514Y-133183797D01*
X142040194Y-133134806D01*
X141991203Y-133061486D01*
X141974000Y-132975000D01*
X141974000Y-132625000D01*
X141991203Y-132538514D01*
X142040194Y-132465194D01*
X142113514Y-132416203D01*
X142200000Y-132399000D01*
X144000000Y-132399000D01*
X144086486Y-132416203D01*
G37*
G36*
X154143093Y-132463539D02*
G01*
X154205057Y-132504943D01*
X154246461Y-132566907D01*
X154261000Y-132640000D01*
X154261000Y-132920000D01*
X154246461Y-132993093D01*
X154205057Y-133055057D01*
X154143093Y-133096461D01*
X154070000Y-133111000D01*
X153730000Y-133111000D01*
X153656907Y-133096461D01*
X153594943Y-133055057D01*
X153553539Y-132993093D01*
X153539000Y-132920000D01*
X153539000Y-132640000D01*
X153553539Y-132566907D01*
X153594943Y-132504943D01*
X153656907Y-132463539D01*
X153730000Y-132449000D01*
X154070000Y-132449000D01*
X154143093Y-132463539D01*
G37*
G36*
X134486486Y-131416203D02*
G01*
X134559806Y-131465194D01*
X134608797Y-131538514D01*
X134626000Y-131625000D01*
X134626000Y-131975000D01*
X134608797Y-132061486D01*
X134559806Y-132134806D01*
X134486486Y-132183797D01*
X134400000Y-132201000D01*
X132600000Y-132201000D01*
X132513514Y-132183797D01*
X132440194Y-132134806D01*
X132391203Y-132061486D01*
X132374000Y-131975000D01*
X132374000Y-131625000D01*
X132391203Y-131538514D01*
X132440194Y-131465194D01*
X132513514Y-131416203D01*
X132600000Y-131399000D01*
X134400000Y-131399000D01*
X134486486Y-131416203D01*
G37*
G36*
X144086486Y-131416203D02*
G01*
X144159806Y-131465194D01*
X144208797Y-131538514D01*
X144226000Y-131625000D01*
X144226000Y-131975000D01*
X144208797Y-132061486D01*
X144159806Y-132134806D01*
X144086486Y-132183797D01*
X144000000Y-132201000D01*
X142200000Y-132201000D01*
X142113514Y-132183797D01*
X142040194Y-132134806D01*
X141991203Y-132061486D01*
X141974000Y-131975000D01*
X141974000Y-131625000D01*
X141991203Y-131538514D01*
X142040194Y-131465194D01*
X142113514Y-131416203D01*
X142200000Y-131399000D01*
X144000000Y-131399000D01*
X144086486Y-131416203D01*
G37*
G36*
X151037957Y-130112167D02*
G01*
X151045173Y-130115012D01*
X151050007Y-130115649D01*
X151113918Y-130142121D01*
X151177551Y-130167215D01*
X151181225Y-130170001D01*
X151182806Y-130170656D01*
X151243236Y-130217026D01*
X151297116Y-130257884D01*
X151337993Y-130311789D01*
X151384343Y-130372193D01*
X151384997Y-130373773D01*
X151387785Y-130377449D01*
X151412885Y-130441100D01*
X151439350Y-130504991D01*
X151439986Y-130509824D01*
X151442833Y-130517043D01*
X151458500Y-130647500D01*
X151458500Y-131647500D01*
X151442833Y-131777957D01*
X151439985Y-131785176D01*
X151439350Y-131790007D01*
X151412898Y-131853867D01*
X151387785Y-131917551D01*
X151384996Y-131921228D01*
X151384343Y-131922806D01*
X151338058Y-131983125D01*
X151297116Y-132037116D01*
X151243125Y-132078058D01*
X151182806Y-132124343D01*
X151181228Y-132124996D01*
X151177551Y-132127785D01*
X151113878Y-132152893D01*
X151050008Y-132179350D01*
X151045176Y-132179986D01*
X151037957Y-132182833D01*
X150907500Y-132198500D01*
X148107500Y-132198500D01*
X147977043Y-132182833D01*
X147969823Y-132179986D01*
X147964992Y-132179350D01*
X147901111Y-132152889D01*
X147837449Y-132127785D01*
X147833773Y-132124997D01*
X147832193Y-132124343D01*
X147771789Y-132077993D01*
X147717884Y-132037116D01*
X147677026Y-131983236D01*
X147630656Y-131922806D01*
X147630001Y-131921225D01*
X147627215Y-131917551D01*
X147602126Y-131853928D01*
X147575649Y-131790008D01*
X147575012Y-131785172D01*
X147572167Y-131777957D01*
X147556500Y-131647500D01*
X147556500Y-130647500D01*
X147572167Y-130517043D01*
X147575012Y-130509827D01*
X147575649Y-130504992D01*
X147602129Y-130441061D01*
X147627215Y-130377449D01*
X147630000Y-130373776D01*
X147630656Y-130372193D01*
X147677090Y-130311677D01*
X147717884Y-130257884D01*
X147771677Y-130217090D01*
X147832193Y-130170656D01*
X147833776Y-130170000D01*
X147837449Y-130167215D01*
X147901050Y-130142134D01*
X147964991Y-130115649D01*
X147969827Y-130115012D01*
X147977043Y-130112167D01*
X148107500Y-130096500D01*
X150907500Y-130096500D01*
X151037957Y-130112167D01*
G37*
G36*
X154143093Y-131503539D02*
G01*
X154205057Y-131544943D01*
X154246461Y-131606907D01*
X154261000Y-131680000D01*
X154261000Y-131960000D01*
X154246461Y-132033093D01*
X154205057Y-132095057D01*
X154143093Y-132136461D01*
X154070000Y-132151000D01*
X153730000Y-132151000D01*
X153656907Y-132136461D01*
X153594943Y-132095057D01*
X153553539Y-132033093D01*
X153539000Y-131960000D01*
X153539000Y-131680000D01*
X153553539Y-131606907D01*
X153594943Y-131544943D01*
X153656907Y-131503539D01*
X153730000Y-131489000D01*
X154070000Y-131489000D01*
X154143093Y-131503539D01*
G37*
G36*
X134486486Y-130416203D02*
G01*
X134559806Y-130465194D01*
X134608797Y-130538514D01*
X134626000Y-130625000D01*
X134626000Y-130975000D01*
X134608797Y-131061486D01*
X134559806Y-131134806D01*
X134486486Y-131183797D01*
X134400000Y-131201000D01*
X132600000Y-131201000D01*
X132513514Y-131183797D01*
X132440194Y-131134806D01*
X132391203Y-131061486D01*
X132374000Y-130975000D01*
X132374000Y-130625000D01*
X132391203Y-130538514D01*
X132440194Y-130465194D01*
X132513514Y-130416203D01*
X132600000Y-130399000D01*
X134400000Y-130399000D01*
X134486486Y-130416203D01*
G37*
G36*
X144086486Y-130416203D02*
G01*
X144159806Y-130465194D01*
X144208797Y-130538514D01*
X144226000Y-130625000D01*
X144226000Y-130975000D01*
X144208797Y-131061486D01*
X144159806Y-131134806D01*
X144086486Y-131183797D01*
X144000000Y-131201000D01*
X142200000Y-131201000D01*
X142113514Y-131183797D01*
X142040194Y-131134806D01*
X141991203Y-131061486D01*
X141974000Y-130975000D01*
X141974000Y-130625000D01*
X141991203Y-130538514D01*
X142040194Y-130465194D01*
X142113514Y-130416203D01*
X142200000Y-130399000D01*
X144000000Y-130399000D01*
X144086486Y-130416203D01*
G37*
G36*
X156994517Y-130202882D02*
G01*
X157011062Y-130213938D01*
X157022118Y-130230483D01*
X157026000Y-130250000D01*
X157026000Y-131150000D01*
X157022118Y-131169517D01*
X157011062Y-131186062D01*
X156994517Y-131197118D01*
X156975000Y-131201000D01*
X156725000Y-131201000D01*
X156705483Y-131197118D01*
X156688938Y-131186062D01*
X156677882Y-131169517D01*
X156674000Y-131150000D01*
X156674000Y-130250000D01*
X156677882Y-130230483D01*
X156688938Y-130213938D01*
X156705483Y-130202882D01*
X156725000Y-130199000D01*
X156975000Y-130199000D01*
X156994517Y-130202882D01*
G37*
G36*
X157494517Y-130202882D02*
G01*
X157511062Y-130213938D01*
X157522118Y-130230483D01*
X157526000Y-130250000D01*
X157526000Y-131150000D01*
X157522118Y-131169517D01*
X157511062Y-131186062D01*
X157494517Y-131197118D01*
X157475000Y-131201000D01*
X157225000Y-131201000D01*
X157205483Y-131197118D01*
X157188938Y-131186062D01*
X157177882Y-131169517D01*
X157174000Y-131150000D01*
X157174000Y-130250000D01*
X157177882Y-130230483D01*
X157188938Y-130213938D01*
X157205483Y-130202882D01*
X157225000Y-130199000D01*
X157475000Y-130199000D01*
X157494517Y-130202882D01*
G37*
G36*
X157994517Y-130202882D02*
G01*
X158011062Y-130213938D01*
X158022118Y-130230483D01*
X158026000Y-130250000D01*
X158026000Y-131150000D01*
X158022118Y-131169517D01*
X158011062Y-131186062D01*
X157994517Y-131197118D01*
X157975000Y-131201000D01*
X157725000Y-131201000D01*
X157705483Y-131197118D01*
X157688938Y-131186062D01*
X157677882Y-131169517D01*
X157674000Y-131150000D01*
X157674000Y-130250000D01*
X157677882Y-130230483D01*
X157688938Y-130213938D01*
X157705483Y-130202882D01*
X157725000Y-130199000D01*
X157975000Y-130199000D01*
X157994517Y-130202882D01*
G37*
G36*
X158494517Y-130202882D02*
G01*
X158511062Y-130213938D01*
X158522118Y-130230483D01*
X158526000Y-130250000D01*
X158526000Y-131150000D01*
X158522118Y-131169517D01*
X158511062Y-131186062D01*
X158494517Y-131197118D01*
X158475000Y-131201000D01*
X158225000Y-131201000D01*
X158205483Y-131197118D01*
X158188938Y-131186062D01*
X158177882Y-131169517D01*
X158174000Y-131150000D01*
X158174000Y-130250000D01*
X158177882Y-130230483D01*
X158188938Y-130213938D01*
X158205483Y-130202882D01*
X158225000Y-130199000D01*
X158475000Y-130199000D01*
X158494517Y-130202882D01*
G37*
G36*
X136561486Y-128891203D02*
G01*
X136634806Y-128940194D01*
X136683797Y-129013514D01*
X136701000Y-129100000D01*
X136701000Y-130900000D01*
X136683797Y-130986486D01*
X136634806Y-131059806D01*
X136561486Y-131108797D01*
X136475000Y-131126000D01*
X136125000Y-131126000D01*
X136038514Y-131108797D01*
X135965194Y-131059806D01*
X135916203Y-130986486D01*
X135899000Y-130900000D01*
X135899000Y-129100000D01*
X135916203Y-129013514D01*
X135965194Y-128940194D01*
X136038514Y-128891203D01*
X136125000Y-128874000D01*
X136475000Y-128874000D01*
X136561486Y-128891203D01*
G37*
G36*
X137561486Y-128891203D02*
G01*
X137634806Y-128940194D01*
X137683797Y-129013514D01*
X137701000Y-129100000D01*
X137701000Y-130900000D01*
X137683797Y-130986486D01*
X137634806Y-131059806D01*
X137561486Y-131108797D01*
X137475000Y-131126000D01*
X137125000Y-131126000D01*
X137038514Y-131108797D01*
X136965194Y-131059806D01*
X136916203Y-130986486D01*
X136899000Y-130900000D01*
X136899000Y-129100000D01*
X136916203Y-129013514D01*
X136965194Y-128940194D01*
X137038514Y-128891203D01*
X137125000Y-128874000D01*
X137475000Y-128874000D01*
X137561486Y-128891203D01*
G37*
G36*
X138561486Y-128891203D02*
G01*
X138634806Y-128940194D01*
X138683797Y-129013514D01*
X138701000Y-129100000D01*
X138701000Y-130900000D01*
X138683797Y-130986486D01*
X138634806Y-131059806D01*
X138561486Y-131108797D01*
X138475000Y-131126000D01*
X138125000Y-131126000D01*
X138038514Y-131108797D01*
X137965194Y-131059806D01*
X137916203Y-130986486D01*
X137899000Y-130900000D01*
X137899000Y-129100000D01*
X137916203Y-129013514D01*
X137965194Y-128940194D01*
X138038514Y-128891203D01*
X138125000Y-128874000D01*
X138475000Y-128874000D01*
X138561486Y-128891203D01*
G37*
G36*
X139561486Y-128891203D02*
G01*
X139634806Y-128940194D01*
X139683797Y-129013514D01*
X139701000Y-129100000D01*
X139701000Y-130900000D01*
X139683797Y-130986486D01*
X139634806Y-131059806D01*
X139561486Y-131108797D01*
X139475000Y-131126000D01*
X139125000Y-131126000D01*
X139038514Y-131108797D01*
X138965194Y-131059806D01*
X138916203Y-130986486D01*
X138899000Y-130900000D01*
X138899000Y-129100000D01*
X138916203Y-129013514D01*
X138965194Y-128940194D01*
X139038514Y-128891203D01*
X139125000Y-128874000D01*
X139475000Y-128874000D01*
X139561486Y-128891203D01*
G37*
G36*
X140561486Y-128891203D02*
G01*
X140634806Y-128940194D01*
X140683797Y-129013514D01*
X140701000Y-129100000D01*
X140701000Y-130900000D01*
X140683797Y-130986486D01*
X140634806Y-131059806D01*
X140561486Y-131108797D01*
X140475000Y-131126000D01*
X140125000Y-131126000D01*
X140038514Y-131108797D01*
X139965194Y-131059806D01*
X139916203Y-130986486D01*
X139899000Y-130900000D01*
X139899000Y-129100000D01*
X139916203Y-129013514D01*
X139965194Y-128940194D01*
X140038514Y-128891203D01*
X140125000Y-128874000D01*
X140475000Y-128874000D01*
X140561486Y-128891203D01*
G37*
G36*
X126119517Y-128352882D02*
G01*
X126136062Y-128363938D01*
X126147118Y-128380483D01*
X126151000Y-128400000D01*
X126151000Y-130100000D01*
X126147118Y-130119517D01*
X126136062Y-130136062D01*
X126119517Y-130147118D01*
X126100000Y-130151000D01*
X124400000Y-130151000D01*
X124380483Y-130147118D01*
X124363938Y-130136062D01*
X124352882Y-130119517D01*
X124349000Y-130100000D01*
X124349000Y-128400000D01*
X124352882Y-128380483D01*
X124363938Y-128363938D01*
X124380483Y-128352882D01*
X124400000Y-128349000D01*
X126100000Y-128349000D01*
X126119517Y-128352882D01*
G37*
G36*
X120431546Y-128387797D02*
G01*
X120594728Y-128455389D01*
X120741588Y-128553518D01*
X120866482Y-128678412D01*
X120964611Y-128825272D01*
X121032203Y-128988454D01*
X121066661Y-129161687D01*
X121066661Y-129338313D01*
X121032203Y-129511546D01*
X120964611Y-129674728D01*
X120866482Y-129821588D01*
X120741588Y-129946482D01*
X120594728Y-130044611D01*
X120431546Y-130112203D01*
X120258313Y-130146661D01*
X120081687Y-130146661D01*
X119908454Y-130112203D01*
X119745272Y-130044611D01*
X119598412Y-129946482D01*
X119473518Y-129821588D01*
X119375389Y-129674728D01*
X119307797Y-129511546D01*
X119273339Y-129338313D01*
X119273339Y-129161687D01*
X119307797Y-128988454D01*
X119375389Y-128825272D01*
X119473518Y-128678412D01*
X119598412Y-128553518D01*
X119745272Y-128455389D01*
X119908454Y-128387797D01*
X120081687Y-128353339D01*
X120258313Y-128353339D01*
X120431546Y-128387797D01*
G37*
G36*
X122971546Y-128387797D02*
G01*
X123134728Y-128455389D01*
X123281588Y-128553518D01*
X123406482Y-128678412D01*
X123504611Y-128825272D01*
X123572203Y-128988454D01*
X123606661Y-129161687D01*
X123606661Y-129338313D01*
X123572203Y-129511546D01*
X123504611Y-129674728D01*
X123406482Y-129821588D01*
X123281588Y-129946482D01*
X123134728Y-130044611D01*
X122971546Y-130112203D01*
X122798313Y-130146661D01*
X122621687Y-130146661D01*
X122448454Y-130112203D01*
X122285272Y-130044611D01*
X122138412Y-129946482D01*
X122013518Y-129821588D01*
X121915389Y-129674728D01*
X121847797Y-129511546D01*
X121813339Y-129338313D01*
X121813339Y-129161687D01*
X121847797Y-128988454D01*
X121915389Y-128825272D01*
X122013518Y-128678412D01*
X122138412Y-128553518D01*
X122285272Y-128455389D01*
X122448454Y-128387797D01*
X122621687Y-128353339D01*
X122798313Y-128353339D01*
X122971546Y-128387797D01*
G37*
G36*
X156719517Y-129677882D02*
G01*
X156736062Y-129688938D01*
X156747118Y-129705483D01*
X156751000Y-129725000D01*
X156751000Y-129975000D01*
X156747118Y-129994517D01*
X156736062Y-130011062D01*
X156719517Y-130022118D01*
X156700000Y-130026000D01*
X155800000Y-130026000D01*
X155780483Y-130022118D01*
X155763938Y-130011062D01*
X155752882Y-129994517D01*
X155749000Y-129975000D01*
X155749000Y-129725000D01*
X155752882Y-129705483D01*
X155763938Y-129688938D01*
X155780483Y-129677882D01*
X155800000Y-129674000D01*
X156700000Y-129674000D01*
X156719517Y-129677882D01*
G37*
G36*
X159419517Y-129677882D02*
G01*
X159436062Y-129688938D01*
X159447118Y-129705483D01*
X159451000Y-129725000D01*
X159451000Y-129975000D01*
X159447118Y-129994517D01*
X159436062Y-130011062D01*
X159419517Y-130022118D01*
X159400000Y-130026000D01*
X158500000Y-130026000D01*
X158480483Y-130022118D01*
X158463938Y-130011062D01*
X158452882Y-129994517D01*
X158449000Y-129975000D01*
X158449000Y-129725000D01*
X158452882Y-129705483D01*
X158463938Y-129688938D01*
X158480483Y-129677882D01*
X158500000Y-129674000D01*
X159400000Y-129674000D01*
X159419517Y-129677882D01*
G37*
G36*
X146968914Y-127981995D02*
G01*
X146973645Y-127984084D01*
X146976811Y-127984501D01*
X147016442Y-128002981D01*
X147070106Y-128026676D01*
X147148324Y-128104894D01*
X147172028Y-128158579D01*
X147190498Y-128198188D01*
X147190914Y-128201351D01*
X147193005Y-128206086D01*
X147201000Y-128275000D01*
X147201000Y-129225000D01*
X147193005Y-129293914D01*
X147190914Y-129298648D01*
X147190498Y-129301811D01*
X147172036Y-129341402D01*
X147148324Y-129395106D01*
X147070106Y-129473324D01*
X147016402Y-129497036D01*
X146976811Y-129515498D01*
X146973648Y-129515914D01*
X146968914Y-129518005D01*
X146900000Y-129526000D01*
X146400000Y-129526000D01*
X146331086Y-129518005D01*
X146326351Y-129515914D01*
X146323188Y-129515498D01*
X146283579Y-129497028D01*
X146229894Y-129473324D01*
X146151676Y-129395106D01*
X146127981Y-129341442D01*
X146109501Y-129301811D01*
X146109084Y-129298645D01*
X146106995Y-129293914D01*
X146099000Y-129225000D01*
X146099000Y-128275000D01*
X146106995Y-128206086D01*
X146109084Y-128201354D01*
X146109501Y-128198188D01*
X146127989Y-128158538D01*
X146151676Y-128104894D01*
X146229894Y-128026676D01*
X146283538Y-128002989D01*
X146323188Y-127984501D01*
X146326354Y-127984084D01*
X146331086Y-127981995D01*
X146400000Y-127974000D01*
X146900000Y-127974000D01*
X146968914Y-127981995D01*
G37*
G36*
X148868914Y-127981995D02*
G01*
X148873645Y-127984084D01*
X148876811Y-127984501D01*
X148916442Y-128002981D01*
X148970106Y-128026676D01*
X149048324Y-128104894D01*
X149072028Y-128158579D01*
X149090498Y-128198188D01*
X149090914Y-128201351D01*
X149093005Y-128206086D01*
X149101000Y-128275000D01*
X149101000Y-129225000D01*
X149093005Y-129293914D01*
X149090914Y-129298648D01*
X149090498Y-129301811D01*
X149072036Y-129341402D01*
X149048324Y-129395106D01*
X148970106Y-129473324D01*
X148916402Y-129497036D01*
X148876811Y-129515498D01*
X148873648Y-129515914D01*
X148868914Y-129518005D01*
X148800000Y-129526000D01*
X148300000Y-129526000D01*
X148231086Y-129518005D01*
X148226351Y-129515914D01*
X148223188Y-129515498D01*
X148183579Y-129497028D01*
X148129894Y-129473324D01*
X148051676Y-129395106D01*
X148027981Y-129341442D01*
X148009501Y-129301811D01*
X148009084Y-129298645D01*
X148006995Y-129293914D01*
X147999000Y-129225000D01*
X147999000Y-128275000D01*
X148006995Y-128206086D01*
X148009084Y-128201354D01*
X148009501Y-128198188D01*
X148027989Y-128158538D01*
X148051676Y-128104894D01*
X148129894Y-128026676D01*
X148183538Y-128002989D01*
X148223188Y-127984501D01*
X148226354Y-127984084D01*
X148231086Y-127981995D01*
X148300000Y-127974000D01*
X148800000Y-127974000D01*
X148868914Y-127981995D01*
G37*
G36*
X156719517Y-129177882D02*
G01*
X156736062Y-129188938D01*
X156747118Y-129205483D01*
X156751000Y-129225000D01*
X156751000Y-129475000D01*
X156747118Y-129494517D01*
X156736062Y-129511062D01*
X156719517Y-129522118D01*
X156700000Y-129526000D01*
X155800000Y-129526000D01*
X155780483Y-129522118D01*
X155763938Y-129511062D01*
X155752882Y-129494517D01*
X155749000Y-129475000D01*
X155749000Y-129225000D01*
X155752882Y-129205483D01*
X155763938Y-129188938D01*
X155780483Y-129177882D01*
X155800000Y-129174000D01*
X156700000Y-129174000D01*
X156719517Y-129177882D01*
G37*
G36*
X159419517Y-129177882D02*
G01*
X159436062Y-129188938D01*
X159447118Y-129205483D01*
X159451000Y-129225000D01*
X159451000Y-129475000D01*
X159447118Y-129494517D01*
X159436062Y-129511062D01*
X159419517Y-129522118D01*
X159400000Y-129526000D01*
X158500000Y-129526000D01*
X158480483Y-129522118D01*
X158463938Y-129511062D01*
X158452882Y-129494517D01*
X158449000Y-129475000D01*
X158449000Y-129225000D01*
X158452882Y-129205483D01*
X158463938Y-129188938D01*
X158480483Y-129177882D01*
X158500000Y-129174000D01*
X159400000Y-129174000D01*
X159419517Y-129177882D01*
G37*
G36*
X156994517Y-128002882D02*
G01*
X157011062Y-128013938D01*
X157022118Y-128030483D01*
X157026000Y-128050000D01*
X157026000Y-128950000D01*
X157022118Y-128969517D01*
X157011062Y-128986062D01*
X156994517Y-128997118D01*
X156975000Y-129001000D01*
X156725000Y-129001000D01*
X156705483Y-128997118D01*
X156688938Y-128986062D01*
X156677882Y-128969517D01*
X156674000Y-128950000D01*
X156674000Y-128050000D01*
X156677882Y-128030483D01*
X156688938Y-128013938D01*
X156705483Y-128002882D01*
X156725000Y-127999000D01*
X156975000Y-127999000D01*
X156994517Y-128002882D01*
G37*
G36*
X157494517Y-128002882D02*
G01*
X157511062Y-128013938D01*
X157522118Y-128030483D01*
X157526000Y-128050000D01*
X157526000Y-128950000D01*
X157522118Y-128969517D01*
X157511062Y-128986062D01*
X157494517Y-128997118D01*
X157475000Y-129001000D01*
X157225000Y-129001000D01*
X157205483Y-128997118D01*
X157188938Y-128986062D01*
X157177882Y-128969517D01*
X157174000Y-128950000D01*
X157174000Y-128050000D01*
X157177882Y-128030483D01*
X157188938Y-128013938D01*
X157205483Y-128002882D01*
X157225000Y-127999000D01*
X157475000Y-127999000D01*
X157494517Y-128002882D01*
G37*
G36*
X157994517Y-128002882D02*
G01*
X158011062Y-128013938D01*
X158022118Y-128030483D01*
X158026000Y-128050000D01*
X158026000Y-128950000D01*
X158022118Y-128969517D01*
X158011062Y-128986062D01*
X157994517Y-128997118D01*
X157975000Y-129001000D01*
X157725000Y-129001000D01*
X157705483Y-128997118D01*
X157688938Y-128986062D01*
X157677882Y-128969517D01*
X157674000Y-128950000D01*
X157674000Y-128050000D01*
X157677882Y-128030483D01*
X157688938Y-128013938D01*
X157705483Y-128002882D01*
X157725000Y-127999000D01*
X157975000Y-127999000D01*
X157994517Y-128002882D01*
G37*
G36*
X158494517Y-128002882D02*
G01*
X158511062Y-128013938D01*
X158522118Y-128030483D01*
X158526000Y-128050000D01*
X158526000Y-128950000D01*
X158522118Y-128969517D01*
X158511062Y-128986062D01*
X158494517Y-128997118D01*
X158475000Y-129001000D01*
X158225000Y-129001000D01*
X158205483Y-128997118D01*
X158188938Y-128986062D01*
X158177882Y-128969517D01*
X158174000Y-128950000D01*
X158174000Y-128050000D01*
X158177882Y-128030483D01*
X158188938Y-128013938D01*
X158205483Y-128002882D01*
X158225000Y-127999000D01*
X158475000Y-127999000D01*
X158494517Y-128002882D01*
G37*
G36*
X152683093Y-127703539D02*
G01*
X152745057Y-127744943D01*
X152786461Y-127806907D01*
X152801000Y-127880000D01*
X152801000Y-128220000D01*
X152786461Y-128293093D01*
X152745057Y-128355057D01*
X152683093Y-128396461D01*
X152610000Y-128411000D01*
X152330000Y-128411000D01*
X152256907Y-128396461D01*
X152194943Y-128355057D01*
X152153539Y-128293093D01*
X152139000Y-128220000D01*
X152139000Y-127880000D01*
X152153539Y-127806907D01*
X152194943Y-127744943D01*
X152256907Y-127703539D01*
X152330000Y-127689000D01*
X152610000Y-127689000D01*
X152683093Y-127703539D01*
G37*
G36*
X153643093Y-127703539D02*
G01*
X153705057Y-127744943D01*
X153746461Y-127806907D01*
X153761000Y-127880000D01*
X153761000Y-128220000D01*
X153746461Y-128293093D01*
X153705057Y-128355057D01*
X153643093Y-128396461D01*
X153570000Y-128411000D01*
X153290000Y-128411000D01*
X153216907Y-128396461D01*
X153154943Y-128355057D01*
X153113539Y-128293093D01*
X153099000Y-128220000D01*
X153099000Y-127880000D01*
X153113539Y-127806907D01*
X153154943Y-127744943D01*
X153216907Y-127703539D01*
X153290000Y-127689000D01*
X153570000Y-127689000D01*
X153643093Y-127703539D01*
G37*
G36*
X152663679Y-126610658D02*
G01*
X152724022Y-126650978D01*
X152764342Y-126711321D01*
X152778500Y-126782500D01*
X152778500Y-127052500D01*
X152764342Y-127123679D01*
X152724022Y-127184022D01*
X152663679Y-127224342D01*
X152592500Y-127238500D01*
X152222500Y-127238500D01*
X152151321Y-127224342D01*
X152090978Y-127184022D01*
X152050658Y-127123679D01*
X152036500Y-127052500D01*
X152036500Y-126782500D01*
X152050658Y-126711321D01*
X152090978Y-126650978D01*
X152151321Y-126610658D01*
X152222500Y-126596500D01*
X152592500Y-126596500D01*
X152663679Y-126610658D01*
G37*
G36*
X153673679Y-126610658D02*
G01*
X153734022Y-126650978D01*
X153774342Y-126711321D01*
X153788500Y-126782500D01*
X153788500Y-127052500D01*
X153774342Y-127123679D01*
X153734022Y-127184022D01*
X153673679Y-127224342D01*
X153602500Y-127238500D01*
X153232500Y-127238500D01*
X153161321Y-127224342D01*
X153100978Y-127184022D01*
X153060658Y-127123679D01*
X153046500Y-127052500D01*
X153046500Y-126782500D01*
X153060658Y-126711321D01*
X153100978Y-126650978D01*
X153161321Y-126610658D01*
X153232500Y-126596500D01*
X153602500Y-126596500D01*
X153673679Y-126610658D01*
G37*
G36*
X157376414Y-125639495D02*
G01*
X157381145Y-125641584D01*
X157384311Y-125642001D01*
X157423942Y-125660481D01*
X157477606Y-125684176D01*
X157555824Y-125762394D01*
X157579528Y-125816079D01*
X157597998Y-125855688D01*
X157598414Y-125858851D01*
X157600505Y-125863586D01*
X157608500Y-125932500D01*
X157608500Y-126882500D01*
X157600505Y-126951414D01*
X157598414Y-126956148D01*
X157597998Y-126959311D01*
X157579536Y-126998902D01*
X157555824Y-127052606D01*
X157477606Y-127130824D01*
X157423902Y-127154536D01*
X157384311Y-127172998D01*
X157381148Y-127173414D01*
X157376414Y-127175505D01*
X157307500Y-127183500D01*
X156807500Y-127183500D01*
X156738586Y-127175505D01*
X156733851Y-127173414D01*
X156730688Y-127172998D01*
X156691079Y-127154528D01*
X156637394Y-127130824D01*
X156559176Y-127052606D01*
X156535481Y-126998942D01*
X156517001Y-126959311D01*
X156516584Y-126956145D01*
X156514495Y-126951414D01*
X156506500Y-126882500D01*
X156506500Y-125932500D01*
X156514495Y-125863586D01*
X156516584Y-125858854D01*
X156517001Y-125855688D01*
X156535489Y-125816038D01*
X156559176Y-125762394D01*
X156637394Y-125684176D01*
X156691038Y-125660489D01*
X156730688Y-125642001D01*
X156733854Y-125641584D01*
X156738586Y-125639495D01*
X156807500Y-125631500D01*
X157307500Y-125631500D01*
X157376414Y-125639495D01*
G37*
G36*
X159276414Y-125639495D02*
G01*
X159281145Y-125641584D01*
X159284311Y-125642001D01*
X159323942Y-125660481D01*
X159377606Y-125684176D01*
X159455824Y-125762394D01*
X159479528Y-125816079D01*
X159497998Y-125855688D01*
X159498414Y-125858851D01*
X159500505Y-125863586D01*
X159508500Y-125932500D01*
X159508500Y-126882500D01*
X159500505Y-126951414D01*
X159498414Y-126956148D01*
X159497998Y-126959311D01*
X159479536Y-126998902D01*
X159455824Y-127052606D01*
X159377606Y-127130824D01*
X159323902Y-127154536D01*
X159284311Y-127172998D01*
X159281148Y-127173414D01*
X159276414Y-127175505D01*
X159207500Y-127183500D01*
X158707500Y-127183500D01*
X158638586Y-127175505D01*
X158633851Y-127173414D01*
X158630688Y-127172998D01*
X158591079Y-127154528D01*
X158537394Y-127130824D01*
X158459176Y-127052606D01*
X158435481Y-126998942D01*
X158417001Y-126959311D01*
X158416584Y-126956145D01*
X158414495Y-126951414D01*
X158406500Y-126882500D01*
X158406500Y-125932500D01*
X158414495Y-125863586D01*
X158416584Y-125858854D01*
X158417001Y-125855688D01*
X158435489Y-125816038D01*
X158459176Y-125762394D01*
X158537394Y-125684176D01*
X158591038Y-125660489D01*
X158630688Y-125642001D01*
X158633854Y-125641584D01*
X158638586Y-125639495D01*
X158707500Y-125631500D01*
X159207500Y-125631500D01*
X159276414Y-125639495D01*
G37*
G36*
X144743093Y-125671039D02*
G01*
X144805057Y-125712443D01*
X144846461Y-125774407D01*
X144861000Y-125847500D01*
X144861000Y-126127500D01*
X144846461Y-126200593D01*
X144805057Y-126262557D01*
X144743093Y-126303961D01*
X144670000Y-126318500D01*
X144330000Y-126318500D01*
X144256907Y-126303961D01*
X144194943Y-126262557D01*
X144153539Y-126200593D01*
X144139000Y-126127500D01*
X144139000Y-125847500D01*
X144153539Y-125774407D01*
X144194943Y-125712443D01*
X144256907Y-125671039D01*
X144330000Y-125656500D01*
X144670000Y-125656500D01*
X144743093Y-125671039D01*
G37*
G36*
X152663679Y-125590658D02*
G01*
X152724022Y-125630978D01*
X152764342Y-125691321D01*
X152778500Y-125762500D01*
X152778500Y-126032500D01*
X152764342Y-126103679D01*
X152724022Y-126164022D01*
X152663679Y-126204342D01*
X152592500Y-126218500D01*
X152222500Y-126218500D01*
X152151321Y-126204342D01*
X152090978Y-126164022D01*
X152050658Y-126103679D01*
X152036500Y-126032500D01*
X152036500Y-125762500D01*
X152050658Y-125691321D01*
X152090978Y-125630978D01*
X152151321Y-125590658D01*
X152222500Y-125576500D01*
X152592500Y-125576500D01*
X152663679Y-125590658D01*
G37*
G36*
X153673679Y-125590658D02*
G01*
X153734022Y-125630978D01*
X153774342Y-125691321D01*
X153788500Y-125762500D01*
X153788500Y-126032500D01*
X153774342Y-126103679D01*
X153734022Y-126164022D01*
X153673679Y-126204342D01*
X153602500Y-126218500D01*
X153232500Y-126218500D01*
X153161321Y-126204342D01*
X153100978Y-126164022D01*
X153060658Y-126103679D01*
X153046500Y-126032500D01*
X153046500Y-125762500D01*
X153060658Y-125691321D01*
X153100978Y-125630978D01*
X153161321Y-125590658D01*
X153232500Y-125576500D01*
X153602500Y-125576500D01*
X153673679Y-125590658D01*
G37*
G36*
X148293093Y-125563539D02*
G01*
X148355057Y-125604943D01*
X148396461Y-125666907D01*
X148411000Y-125740000D01*
X148411000Y-126020000D01*
X148396461Y-126093093D01*
X148355057Y-126155057D01*
X148293093Y-126196461D01*
X148220000Y-126211000D01*
X147880000Y-126211000D01*
X147806907Y-126196461D01*
X147744943Y-126155057D01*
X147703539Y-126093093D01*
X147689000Y-126020000D01*
X147689000Y-125740000D01*
X147703539Y-125666907D01*
X147744943Y-125604943D01*
X147806907Y-125563539D01*
X147880000Y-125549000D01*
X148220000Y-125549000D01*
X148293093Y-125563539D01*
G37*
G36*
X120494517Y-124377882D02*
G01*
X120511062Y-124388938D01*
X120522118Y-124405483D01*
X120526000Y-124425000D01*
X120526000Y-125725000D01*
X120522118Y-125744517D01*
X120511062Y-125761062D01*
X120494517Y-125772118D01*
X120475000Y-125776000D01*
X118575000Y-125776000D01*
X118555483Y-125772118D01*
X118538938Y-125761062D01*
X118527882Y-125744517D01*
X118524000Y-125725000D01*
X118524000Y-124425000D01*
X118527882Y-124405483D01*
X118538938Y-124388938D01*
X118555483Y-124377882D01*
X118575000Y-124374000D01*
X120475000Y-124374000D01*
X120494517Y-124377882D01*
G37*
G36*
X150643093Y-124838539D02*
G01*
X150705057Y-124879943D01*
X150746461Y-124941907D01*
X150761000Y-125015000D01*
X150761000Y-125355000D01*
X150746461Y-125428093D01*
X150705057Y-125490057D01*
X150643093Y-125531461D01*
X150570000Y-125546000D01*
X150290000Y-125546000D01*
X150216907Y-125531461D01*
X150154943Y-125490057D01*
X150113539Y-125428093D01*
X150099000Y-125355000D01*
X150099000Y-125015000D01*
X150113539Y-124941907D01*
X150154943Y-124879943D01*
X150216907Y-124838539D01*
X150290000Y-124824000D01*
X150570000Y-124824000D01*
X150643093Y-124838539D01*
G37*
G36*
X151603093Y-124838539D02*
G01*
X151665057Y-124879943D01*
X151706461Y-124941907D01*
X151721000Y-125015000D01*
X151721000Y-125355000D01*
X151706461Y-125428093D01*
X151665057Y-125490057D01*
X151603093Y-125531461D01*
X151530000Y-125546000D01*
X151250000Y-125546000D01*
X151176907Y-125531461D01*
X151114943Y-125490057D01*
X151073539Y-125428093D01*
X151059000Y-125355000D01*
X151059000Y-125015000D01*
X151073539Y-124941907D01*
X151114943Y-124879943D01*
X151176907Y-124838539D01*
X151250000Y-124824000D01*
X151530000Y-124824000D01*
X151603093Y-124838539D01*
G37*
G36*
X144743093Y-124711039D02*
G01*
X144805057Y-124752443D01*
X144846461Y-124814407D01*
X144861000Y-124887500D01*
X144861000Y-125167500D01*
X144846461Y-125240593D01*
X144805057Y-125302557D01*
X144743093Y-125343961D01*
X144670000Y-125358500D01*
X144330000Y-125358500D01*
X144256907Y-125343961D01*
X144194943Y-125302557D01*
X144153539Y-125240593D01*
X144139000Y-125167500D01*
X144139000Y-124887500D01*
X144153539Y-124814407D01*
X144194943Y-124752443D01*
X144256907Y-124711039D01*
X144330000Y-124696500D01*
X144670000Y-124696500D01*
X144743093Y-124711039D01*
G37*
G36*
X148293093Y-124603539D02*
G01*
X148355057Y-124644943D01*
X148396461Y-124706907D01*
X148411000Y-124780000D01*
X148411000Y-125060000D01*
X148396461Y-125133093D01*
X148355057Y-125195057D01*
X148293093Y-125236461D01*
X148220000Y-125251000D01*
X147880000Y-125251000D01*
X147806907Y-125236461D01*
X147744943Y-125195057D01*
X147703539Y-125133093D01*
X147689000Y-125060000D01*
X147689000Y-124780000D01*
X147703539Y-124706907D01*
X147744943Y-124644943D01*
X147806907Y-124603539D01*
X147880000Y-124589000D01*
X148220000Y-124589000D01*
X148293093Y-124603539D01*
G37*
G36*
X156869517Y-123230382D02*
G01*
X156885388Y-123240987D01*
X156895318Y-123244000D01*
X158250000Y-123244000D01*
X158355000Y-123244000D01*
X158426160Y-123247496D01*
X158565747Y-123275261D01*
X158697234Y-123329725D01*
X158815570Y-123408794D01*
X158916206Y-123509430D01*
X158995275Y-123627766D01*
X159049739Y-123759253D01*
X159077504Y-123898840D01*
X159077504Y-124041160D01*
X159049739Y-124180747D01*
X158995275Y-124312234D01*
X158916206Y-124430570D01*
X158815570Y-124531206D01*
X158697234Y-124610275D01*
X158565747Y-124664739D01*
X158426160Y-124692504D01*
X158355000Y-124696000D01*
X158353891Y-124696000D01*
X158005642Y-124696000D01*
X158005000Y-124696000D01*
X156927358Y-124696000D01*
X156901000Y-124722358D01*
X156901000Y-125102500D01*
X156897118Y-125122017D01*
X156886062Y-125138562D01*
X156869517Y-125149618D01*
X156850000Y-125153500D01*
X156150000Y-125153500D01*
X156130483Y-125149618D01*
X156113938Y-125138562D01*
X156102882Y-125122017D01*
X156099000Y-125102500D01*
X156099000Y-123277500D01*
X156102882Y-123257983D01*
X156113938Y-123241438D01*
X156130483Y-123230382D01*
X156150000Y-123226500D01*
X156850000Y-123226500D01*
X156869517Y-123230382D01*
G37*
G36*
X155969517Y-123042882D02*
G01*
X155986062Y-123053938D01*
X155997118Y-123070483D01*
X156001000Y-123090000D01*
X156001000Y-125090000D01*
X155997118Y-125109517D01*
X155986062Y-125126062D01*
X155969517Y-125137118D01*
X155950000Y-125141000D01*
X154450000Y-125141000D01*
X154430483Y-125137118D01*
X154413938Y-125126062D01*
X154402882Y-125109517D01*
X154399000Y-125090000D01*
X154399000Y-123806016D01*
X154398567Y-123801616D01*
X154391359Y-123765383D01*
X154384142Y-123738446D01*
X154384142Y-123729098D01*
X154382111Y-123718888D01*
X154382111Y-123601111D01*
X154384142Y-123590900D01*
X154384142Y-123581554D01*
X154391359Y-123554617D01*
X154398567Y-123518384D01*
X154399000Y-123513984D01*
X154399000Y-123094429D01*
X154399000Y-123090000D01*
X154402882Y-123070483D01*
X154413938Y-123053938D01*
X154430483Y-123042882D01*
X154450000Y-123039000D01*
X155950000Y-123039000D01*
X155969517Y-123042882D01*
G37*
G36*
X150643093Y-123838539D02*
G01*
X150705057Y-123879943D01*
X150746461Y-123941907D01*
X150761000Y-124015000D01*
X150761000Y-124355000D01*
X150746461Y-124428093D01*
X150705057Y-124490057D01*
X150643093Y-124531461D01*
X150570000Y-124546000D01*
X150290000Y-124546000D01*
X150216907Y-124531461D01*
X150154943Y-124490057D01*
X150113539Y-124428093D01*
X150099000Y-124355000D01*
X150099000Y-124015000D01*
X150113539Y-123941907D01*
X150154943Y-123879943D01*
X150216907Y-123838539D01*
X150290000Y-123824000D01*
X150570000Y-123824000D01*
X150643093Y-123838539D01*
G37*
G36*
X151603093Y-123838539D02*
G01*
X151665057Y-123879943D01*
X151706461Y-123941907D01*
X151721000Y-124015000D01*
X151721000Y-124355000D01*
X151706461Y-124428093D01*
X151665057Y-124490057D01*
X151603093Y-124531461D01*
X151530000Y-124546000D01*
X151250000Y-124546000D01*
X151176907Y-124531461D01*
X151114943Y-124490057D01*
X151073539Y-124428093D01*
X151059000Y-124355000D01*
X151059000Y-124015000D01*
X151073539Y-123941907D01*
X151114943Y-123879943D01*
X151176907Y-123838539D01*
X151250000Y-123824000D01*
X151530000Y-123824000D01*
X151603093Y-123838539D01*
G37*
G36*
X142736151Y-123301688D02*
G01*
X142768918Y-123323582D01*
X142790812Y-123356349D01*
X142798500Y-123395000D01*
X142798500Y-124170000D01*
X142790812Y-124208651D01*
X142768918Y-124241418D01*
X142736151Y-124263312D01*
X142697500Y-124271000D01*
X142597500Y-124271000D01*
X142558849Y-124263312D01*
X142526082Y-124241418D01*
X142504188Y-124208651D01*
X142496500Y-124170000D01*
X142496500Y-123395000D01*
X142504188Y-123356349D01*
X142526082Y-123323582D01*
X142558849Y-123301688D01*
X142597500Y-123294000D01*
X142697500Y-123294000D01*
X142736151Y-123301688D01*
G37*
G36*
X143136151Y-123301688D02*
G01*
X143168918Y-123323582D01*
X143190812Y-123356349D01*
X143198500Y-123395000D01*
X143198500Y-124170000D01*
X143190812Y-124208651D01*
X143168918Y-124241418D01*
X143136151Y-124263312D01*
X143097500Y-124271000D01*
X142997500Y-124271000D01*
X142958849Y-124263312D01*
X142926082Y-124241418D01*
X142904188Y-124208651D01*
X142896500Y-124170000D01*
X142896500Y-123395000D01*
X142904188Y-123356349D01*
X142926082Y-123323582D01*
X142958849Y-123301688D01*
X142997500Y-123294000D01*
X143097500Y-123294000D01*
X143136151Y-123301688D01*
G37*
G36*
X143536151Y-123301688D02*
G01*
X143568918Y-123323582D01*
X143590812Y-123356349D01*
X143598500Y-123395000D01*
X143598500Y-124170000D01*
X143590812Y-124208651D01*
X143568918Y-124241418D01*
X143536151Y-124263312D01*
X143497500Y-124271000D01*
X143397500Y-124271000D01*
X143358849Y-124263312D01*
X143326082Y-124241418D01*
X143304188Y-124208651D01*
X143296500Y-124170000D01*
X143296500Y-123395000D01*
X143304188Y-123356349D01*
X143326082Y-123323582D01*
X143358849Y-123301688D01*
X143397500Y-123294000D01*
X143497500Y-123294000D01*
X143536151Y-123301688D01*
G37*
G36*
X143936151Y-123301688D02*
G01*
X143968918Y-123323582D01*
X143990812Y-123356349D01*
X143998500Y-123395000D01*
X143998500Y-124170000D01*
X143990812Y-124208651D01*
X143968918Y-124241418D01*
X143936151Y-124263312D01*
X143897500Y-124271000D01*
X143797500Y-124271000D01*
X143758849Y-124263312D01*
X143726082Y-124241418D01*
X143704188Y-124208651D01*
X143696500Y-124170000D01*
X143696500Y-123395000D01*
X143704188Y-123356349D01*
X143726082Y-123323582D01*
X143758849Y-123301688D01*
X143797500Y-123294000D01*
X143897500Y-123294000D01*
X143936151Y-123301688D01*
G37*
G36*
X144336151Y-123301688D02*
G01*
X144368918Y-123323582D01*
X144390812Y-123356349D01*
X144398500Y-123395000D01*
X144398500Y-124170000D01*
X144390812Y-124208651D01*
X144368918Y-124241418D01*
X144336151Y-124263312D01*
X144297500Y-124271000D01*
X144197500Y-124271000D01*
X144158849Y-124263312D01*
X144126082Y-124241418D01*
X144104188Y-124208651D01*
X144096500Y-124170000D01*
X144096500Y-123395000D01*
X144104188Y-123356349D01*
X144126082Y-123323582D01*
X144158849Y-123301688D01*
X144197500Y-123294000D01*
X144297500Y-123294000D01*
X144336151Y-123301688D01*
G37*
G36*
X144736151Y-123301688D02*
G01*
X144768918Y-123323582D01*
X144790812Y-123356349D01*
X144798500Y-123395000D01*
X144798500Y-124170000D01*
X144790812Y-124208651D01*
X144768918Y-124241418D01*
X144736151Y-124263312D01*
X144697500Y-124271000D01*
X144597500Y-124271000D01*
X144558849Y-124263312D01*
X144526082Y-124241418D01*
X144504188Y-124208651D01*
X144496500Y-124170000D01*
X144496500Y-123395000D01*
X144504188Y-123356349D01*
X144526082Y-123323582D01*
X144558849Y-123301688D01*
X144597500Y-123294000D01*
X144697500Y-123294000D01*
X144736151Y-123301688D01*
G37*
G36*
X145136151Y-123301688D02*
G01*
X145168918Y-123323582D01*
X145190812Y-123356349D01*
X145198500Y-123395000D01*
X145198500Y-124170000D01*
X145190812Y-124208651D01*
X145168918Y-124241418D01*
X145136151Y-124263312D01*
X145097500Y-124271000D01*
X144997500Y-124271000D01*
X144958849Y-124263312D01*
X144926082Y-124241418D01*
X144904188Y-124208651D01*
X144896500Y-124170000D01*
X144896500Y-123395000D01*
X144904188Y-123356349D01*
X144926082Y-123323582D01*
X144958849Y-123301688D01*
X144997500Y-123294000D01*
X145097500Y-123294000D01*
X145136151Y-123301688D01*
G37*
G36*
X145536151Y-123301688D02*
G01*
X145568918Y-123323582D01*
X145590812Y-123356349D01*
X145598500Y-123395000D01*
X145598500Y-124170000D01*
X145590812Y-124208651D01*
X145568918Y-124241418D01*
X145536151Y-124263312D01*
X145497500Y-124271000D01*
X145397500Y-124271000D01*
X145358849Y-124263312D01*
X145326082Y-124241418D01*
X145304188Y-124208651D01*
X145296500Y-124170000D01*
X145296500Y-123395000D01*
X145304188Y-123356349D01*
X145326082Y-123323582D01*
X145358849Y-123301688D01*
X145397500Y-123294000D01*
X145497500Y-123294000D01*
X145536151Y-123301688D01*
G37*
G36*
X145936151Y-123301688D02*
G01*
X145968918Y-123323582D01*
X145990812Y-123356349D01*
X145998500Y-123395000D01*
X145998500Y-124170000D01*
X145990812Y-124208651D01*
X145968918Y-124241418D01*
X145936151Y-124263312D01*
X145897500Y-124271000D01*
X145797500Y-124271000D01*
X145758849Y-124263312D01*
X145726082Y-124241418D01*
X145704188Y-124208651D01*
X145696500Y-124170000D01*
X145696500Y-123395000D01*
X145704188Y-123356349D01*
X145726082Y-123323582D01*
X145758849Y-123301688D01*
X145797500Y-123294000D01*
X145897500Y-123294000D01*
X145936151Y-123301688D01*
G37*
G36*
X146336151Y-123301688D02*
G01*
X146368918Y-123323582D01*
X146390812Y-123356349D01*
X146398500Y-123395000D01*
X146398500Y-124170000D01*
X146390812Y-124208651D01*
X146368918Y-124241418D01*
X146336151Y-124263312D01*
X146297500Y-124271000D01*
X146197500Y-124271000D01*
X146158849Y-124263312D01*
X146126082Y-124241418D01*
X146104188Y-124208651D01*
X146096500Y-124170000D01*
X146096500Y-123395000D01*
X146104188Y-123356349D01*
X146126082Y-123323582D01*
X146158849Y-123301688D01*
X146197500Y-123294000D01*
X146297500Y-123294000D01*
X146336151Y-123301688D01*
G37*
G36*
X146736151Y-123301688D02*
G01*
X146768918Y-123323582D01*
X146790812Y-123356349D01*
X146798500Y-123395000D01*
X146798500Y-124170000D01*
X146790812Y-124208651D01*
X146768918Y-124241418D01*
X146736151Y-124263312D01*
X146697500Y-124271000D01*
X146597500Y-124271000D01*
X146558849Y-124263312D01*
X146526082Y-124241418D01*
X146504188Y-124208651D01*
X146496500Y-124170000D01*
X146496500Y-123395000D01*
X146504188Y-123356349D01*
X146526082Y-123323582D01*
X146558849Y-123301688D01*
X146597500Y-123294000D01*
X146697500Y-123294000D01*
X146736151Y-123301688D01*
G37*
G36*
X147136151Y-123301688D02*
G01*
X147168918Y-123323582D01*
X147190812Y-123356349D01*
X147198500Y-123395000D01*
X147198500Y-124170000D01*
X147190812Y-124208651D01*
X147168918Y-124241418D01*
X147136151Y-124263312D01*
X147097500Y-124271000D01*
X146997500Y-124271000D01*
X146958849Y-124263312D01*
X146926082Y-124241418D01*
X146904188Y-124208651D01*
X146896500Y-124170000D01*
X146896500Y-123395000D01*
X146904188Y-123356349D01*
X146926082Y-123323582D01*
X146958849Y-123301688D01*
X146997500Y-123294000D01*
X147097500Y-123294000D01*
X147136151Y-123301688D01*
G37*
G36*
X147536151Y-123301688D02*
G01*
X147568918Y-123323582D01*
X147590812Y-123356349D01*
X147598500Y-123395000D01*
X147598500Y-124170000D01*
X147590812Y-124208651D01*
X147568918Y-124241418D01*
X147536151Y-124263312D01*
X147497500Y-124271000D01*
X147397500Y-124271000D01*
X147358849Y-124263312D01*
X147326082Y-124241418D01*
X147304188Y-124208651D01*
X147296500Y-124170000D01*
X147296500Y-123395000D01*
X147304188Y-123356349D01*
X147326082Y-123323582D01*
X147358849Y-123301688D01*
X147397500Y-123294000D01*
X147497500Y-123294000D01*
X147536151Y-123301688D01*
G37*
G36*
X147936151Y-123301688D02*
G01*
X147968918Y-123323582D01*
X147990812Y-123356349D01*
X147998500Y-123395000D01*
X147998500Y-124170000D01*
X147990812Y-124208651D01*
X147968918Y-124241418D01*
X147936151Y-124263312D01*
X147897500Y-124271000D01*
X147797500Y-124271000D01*
X147758849Y-124263312D01*
X147726082Y-124241418D01*
X147704188Y-124208651D01*
X147696500Y-124170000D01*
X147696500Y-123395000D01*
X147704188Y-123356349D01*
X147726082Y-123323582D01*
X147758849Y-123301688D01*
X147797500Y-123294000D01*
X147897500Y-123294000D01*
X147936151Y-123301688D01*
G37*
G36*
X140763679Y-123600658D02*
G01*
X140824022Y-123640978D01*
X140864342Y-123701321D01*
X140878500Y-123772500D01*
X140878500Y-124042500D01*
X140864342Y-124113679D01*
X140824022Y-124174022D01*
X140763679Y-124214342D01*
X140692500Y-124228500D01*
X140322500Y-124228500D01*
X140251321Y-124214342D01*
X140190978Y-124174022D01*
X140150658Y-124113679D01*
X140136500Y-124042500D01*
X140136500Y-123772500D01*
X140150658Y-123701321D01*
X140190978Y-123640978D01*
X140251321Y-123600658D01*
X140322500Y-123586500D01*
X140692500Y-123586500D01*
X140763679Y-123600658D01*
G37*
G36*
X150643093Y-122808539D02*
G01*
X150705057Y-122849943D01*
X150746461Y-122911907D01*
X150761000Y-122985000D01*
X150761000Y-123325000D01*
X150746461Y-123398093D01*
X150705057Y-123460057D01*
X150643093Y-123501461D01*
X150570000Y-123516000D01*
X150290000Y-123516000D01*
X150216907Y-123501461D01*
X150154943Y-123460057D01*
X150113539Y-123398093D01*
X150099000Y-123325000D01*
X150099000Y-122985000D01*
X150113539Y-122911907D01*
X150154943Y-122849943D01*
X150216907Y-122808539D01*
X150290000Y-122794000D01*
X150570000Y-122794000D01*
X150643093Y-122808539D01*
G37*
G36*
X151603093Y-122808539D02*
G01*
X151665057Y-122849943D01*
X151706461Y-122911907D01*
X151721000Y-122985000D01*
X151721000Y-123325000D01*
X151706461Y-123398093D01*
X151665057Y-123460057D01*
X151603093Y-123501461D01*
X151530000Y-123516000D01*
X151250000Y-123516000D01*
X151176907Y-123501461D01*
X151114943Y-123460057D01*
X151073539Y-123398093D01*
X151059000Y-123325000D01*
X151059000Y-122985000D01*
X151073539Y-122911907D01*
X151114943Y-122849943D01*
X151176907Y-122808539D01*
X151250000Y-122794000D01*
X151530000Y-122794000D01*
X151603093Y-122808539D01*
G37*
G36*
X135244517Y-122177882D02*
G01*
X135261062Y-122188938D01*
X135272118Y-122205483D01*
X135276000Y-122225000D01*
X135276000Y-123225000D01*
X135272118Y-123244517D01*
X135261062Y-123261062D01*
X135244517Y-123272118D01*
X135225000Y-123276000D01*
X134025000Y-123276000D01*
X134005483Y-123272118D01*
X133988938Y-123261062D01*
X133977882Y-123244517D01*
X133974000Y-123225000D01*
X133974000Y-122225000D01*
X133977882Y-122205483D01*
X133988938Y-122188938D01*
X134005483Y-122177882D01*
X134025000Y-122174000D01*
X135225000Y-122174000D01*
X135244517Y-122177882D01*
G37*
G36*
X140763679Y-122580658D02*
G01*
X140824022Y-122620978D01*
X140864342Y-122681321D01*
X140878500Y-122752500D01*
X140878500Y-123022500D01*
X140864342Y-123093679D01*
X140824022Y-123154022D01*
X140763679Y-123194342D01*
X140692500Y-123208500D01*
X140322500Y-123208500D01*
X140251321Y-123194342D01*
X140190978Y-123154022D01*
X140150658Y-123093679D01*
X140136500Y-123022500D01*
X140136500Y-122752500D01*
X140150658Y-122681321D01*
X140190978Y-122620978D01*
X140251321Y-122580658D01*
X140322500Y-122566500D01*
X140692500Y-122566500D01*
X140763679Y-122580658D01*
G37*
G36*
X142236151Y-122801688D02*
G01*
X142268918Y-122823582D01*
X142290812Y-122856349D01*
X142298500Y-122895000D01*
X142298500Y-122995000D01*
X142290812Y-123033651D01*
X142268918Y-123066418D01*
X142236151Y-123088312D01*
X142197500Y-123096000D01*
X141422500Y-123096000D01*
X141383849Y-123088312D01*
X141351082Y-123066418D01*
X141329188Y-123033651D01*
X141321500Y-122995000D01*
X141321500Y-122895000D01*
X141329188Y-122856349D01*
X141351082Y-122823582D01*
X141383849Y-122801688D01*
X141422500Y-122794000D01*
X142197500Y-122794000D01*
X142236151Y-122801688D01*
G37*
G36*
X149111151Y-122801688D02*
G01*
X149143918Y-122823582D01*
X149165812Y-122856349D01*
X149173500Y-122895000D01*
X149173500Y-122995000D01*
X149165812Y-123033651D01*
X149143918Y-123066418D01*
X149111151Y-123088312D01*
X149072500Y-123096000D01*
X148297500Y-123096000D01*
X148258849Y-123088312D01*
X148226082Y-123066418D01*
X148204188Y-123033651D01*
X148196500Y-122995000D01*
X148196500Y-122895000D01*
X148204188Y-122856349D01*
X148226082Y-122823582D01*
X148258849Y-122801688D01*
X148297500Y-122794000D01*
X149072500Y-122794000D01*
X149111151Y-122801688D01*
G37*
G36*
X159719517Y-121437882D02*
G01*
X159736062Y-121448938D01*
X159747118Y-121465483D01*
X159751000Y-121485000D01*
X159751000Y-122915000D01*
X159747118Y-122934517D01*
X159736062Y-122951062D01*
X159719517Y-122962118D01*
X159700000Y-122966000D01*
X157200000Y-122966000D01*
X157180483Y-122962118D01*
X157163938Y-122951062D01*
X157152882Y-122934517D01*
X157149000Y-122915000D01*
X157149000Y-121485000D01*
X157152882Y-121465483D01*
X157163938Y-121448938D01*
X157180483Y-121437882D01*
X157200000Y-121434000D01*
X159700000Y-121434000D01*
X159719517Y-121437882D01*
G37*
G36*
X156144517Y-122292882D02*
G01*
X156161062Y-122303938D01*
X156172118Y-122320483D01*
X156176000Y-122340000D01*
X156176000Y-122740000D01*
X156172118Y-122759517D01*
X156161062Y-122776062D01*
X156144517Y-122787118D01*
X156125000Y-122791000D01*
X154475000Y-122791000D01*
X154455483Y-122787118D01*
X154438938Y-122776062D01*
X154427882Y-122759517D01*
X154424000Y-122740000D01*
X154424000Y-122340000D01*
X154427882Y-122320483D01*
X154438938Y-122303938D01*
X154455483Y-122292882D01*
X154475000Y-122289000D01*
X156125000Y-122289000D01*
X156144517Y-122292882D01*
G37*
G36*
X142236151Y-122401688D02*
G01*
X142268918Y-122423582D01*
X142290812Y-122456349D01*
X142298500Y-122495000D01*
X142298500Y-122595000D01*
X142290812Y-122633651D01*
X142268918Y-122666418D01*
X142236151Y-122688312D01*
X142197500Y-122696000D01*
X141422500Y-122696000D01*
X141383849Y-122688312D01*
X141351082Y-122666418D01*
X141329188Y-122633651D01*
X141321500Y-122595000D01*
X141321500Y-122495000D01*
X141329188Y-122456349D01*
X141351082Y-122423582D01*
X141383849Y-122401688D01*
X141422500Y-122394000D01*
X142197500Y-122394000D01*
X142236151Y-122401688D01*
G37*
G36*
X149111151Y-122401688D02*
G01*
X149143918Y-122423582D01*
X149165812Y-122456349D01*
X149173500Y-122495000D01*
X149173500Y-122595000D01*
X149165812Y-122633651D01*
X149143918Y-122666418D01*
X149111151Y-122688312D01*
X149072500Y-122696000D01*
X148297500Y-122696000D01*
X148258849Y-122688312D01*
X148226082Y-122666418D01*
X148204188Y-122633651D01*
X148196500Y-122595000D01*
X148196500Y-122495000D01*
X148204188Y-122456349D01*
X148226082Y-122423582D01*
X148258849Y-122401688D01*
X148297500Y-122394000D01*
X149072500Y-122394000D01*
X149111151Y-122401688D01*
G37*
G36*
X151996179Y-121743158D02*
G01*
X152056522Y-121783478D01*
X152096842Y-121843821D01*
X152111000Y-121915000D01*
X152111000Y-122285000D01*
X152096842Y-122356179D01*
X152056522Y-122416522D01*
X151996179Y-122456842D01*
X151925000Y-122471000D01*
X151655000Y-122471000D01*
X151583821Y-122456842D01*
X151523478Y-122416522D01*
X151483158Y-122356179D01*
X151469000Y-122285000D01*
X151469000Y-121915000D01*
X151483158Y-121843821D01*
X151523478Y-121783478D01*
X151583821Y-121743158D01*
X151655000Y-121729000D01*
X151925000Y-121729000D01*
X151996179Y-121743158D01*
G37*
G36*
X153016179Y-121743158D02*
G01*
X153076522Y-121783478D01*
X153116842Y-121843821D01*
X153131000Y-121915000D01*
X153131000Y-122285000D01*
X153116842Y-122356179D01*
X153076522Y-122416522D01*
X153016179Y-122456842D01*
X152945000Y-122471000D01*
X152675000Y-122471000D01*
X152603821Y-122456842D01*
X152543478Y-122416522D01*
X152503158Y-122356179D01*
X152489000Y-122285000D01*
X152489000Y-121915000D01*
X152503158Y-121843821D01*
X152543478Y-121783478D01*
X152603821Y-121743158D01*
X152675000Y-121729000D01*
X152945000Y-121729000D01*
X153016179Y-121743158D01*
G37*
G36*
X142236151Y-122001688D02*
G01*
X142268918Y-122023582D01*
X142290812Y-122056349D01*
X142298500Y-122095000D01*
X142298500Y-122195000D01*
X142290812Y-122233651D01*
X142268918Y-122266418D01*
X142236151Y-122288312D01*
X142197500Y-122296000D01*
X141422500Y-122296000D01*
X141383849Y-122288312D01*
X141351082Y-122266418D01*
X141329188Y-122233651D01*
X141321500Y-122195000D01*
X141321500Y-122095000D01*
X141329188Y-122056349D01*
X141351082Y-122023582D01*
X141383849Y-122001688D01*
X141422500Y-121994000D01*
X142197500Y-121994000D01*
X142236151Y-122001688D01*
G37*
G36*
X149111151Y-122001688D02*
G01*
X149143918Y-122023582D01*
X149165812Y-122056349D01*
X149173500Y-122095000D01*
X149173500Y-122195000D01*
X149165812Y-122233651D01*
X149143918Y-122266418D01*
X149111151Y-122288312D01*
X149072500Y-122296000D01*
X148297500Y-122296000D01*
X148258849Y-122288312D01*
X148226082Y-122266418D01*
X148204188Y-122233651D01*
X148196500Y-122195000D01*
X148196500Y-122095000D01*
X148204188Y-122056349D01*
X148226082Y-122023582D01*
X148258849Y-122001688D01*
X148297500Y-121994000D01*
X149072500Y-121994000D01*
X149111151Y-122001688D01*
G37*
G36*
X156144517Y-121642882D02*
G01*
X156161062Y-121653938D01*
X156172118Y-121670483D01*
X156176000Y-121690000D01*
X156176000Y-122090000D01*
X156172118Y-122109517D01*
X156161062Y-122126062D01*
X156144517Y-122137118D01*
X156125000Y-122141000D01*
X154475000Y-122141000D01*
X154455483Y-122137118D01*
X154438938Y-122126062D01*
X154427882Y-122109517D01*
X154424000Y-122090000D01*
X154424000Y-121690000D01*
X154427882Y-121670483D01*
X154438938Y-121653938D01*
X154455483Y-121642882D01*
X154475000Y-121639000D01*
X156125000Y-121639000D01*
X156144517Y-121642882D01*
G37*
G36*
X146778123Y-118708843D02*
G01*
X146841386Y-118751114D01*
X146883657Y-118814377D01*
X146898500Y-118889000D01*
X146898500Y-121801000D01*
X146883657Y-121875623D01*
X146841386Y-121938886D01*
X146778123Y-121981157D01*
X146703500Y-121996000D01*
X143791500Y-121996000D01*
X143716877Y-121981157D01*
X143653614Y-121938886D01*
X143611343Y-121875623D01*
X143596500Y-121801000D01*
X143596500Y-118889000D01*
X143611343Y-118814377D01*
X143653614Y-118751114D01*
X143716877Y-118708843D01*
X143791500Y-118694000D01*
X146703500Y-118694000D01*
X146778123Y-118708843D01*
G37*
G36*
X142236151Y-121601688D02*
G01*
X142268918Y-121623582D01*
X142290812Y-121656349D01*
X142298500Y-121695000D01*
X142298500Y-121795000D01*
X142290812Y-121833651D01*
X142268918Y-121866418D01*
X142236151Y-121888312D01*
X142197500Y-121896000D01*
X141422500Y-121896000D01*
X141383849Y-121888312D01*
X141351082Y-121866418D01*
X141329188Y-121833651D01*
X141321500Y-121795000D01*
X141321500Y-121695000D01*
X141329188Y-121656349D01*
X141351082Y-121623582D01*
X141383849Y-121601688D01*
X141422500Y-121594000D01*
X142197500Y-121594000D01*
X142236151Y-121601688D01*
G37*
G36*
X149111151Y-121601688D02*
G01*
X149143918Y-121623582D01*
X149165812Y-121656349D01*
X149173500Y-121695000D01*
X149173500Y-121795000D01*
X149165812Y-121833651D01*
X149143918Y-121866418D01*
X149111151Y-121888312D01*
X149072500Y-121896000D01*
X148297500Y-121896000D01*
X148258849Y-121888312D01*
X148226082Y-121866418D01*
X148204188Y-121833651D01*
X148196500Y-121795000D01*
X148196500Y-121695000D01*
X148204188Y-121656349D01*
X148226082Y-121623582D01*
X148258849Y-121601688D01*
X148297500Y-121594000D01*
X149072500Y-121594000D01*
X149111151Y-121601688D01*
G37*
G36*
X135244517Y-120777882D02*
G01*
X135261062Y-120788938D01*
X135272118Y-120805483D01*
X135276000Y-120825000D01*
X135276000Y-121525000D01*
X135272118Y-121544517D01*
X135261062Y-121561062D01*
X135244517Y-121572118D01*
X135225000Y-121576000D01*
X134025000Y-121576000D01*
X134005483Y-121572118D01*
X133988938Y-121561062D01*
X133977882Y-121544517D01*
X133974000Y-121525000D01*
X133974000Y-120825000D01*
X133977882Y-120805483D01*
X133988938Y-120788938D01*
X134005483Y-120777882D01*
X134025000Y-120774000D01*
X135225000Y-120774000D01*
X135244517Y-120777882D01*
G37*
G36*
X142236151Y-121201688D02*
G01*
X142268918Y-121223582D01*
X142290812Y-121256349D01*
X142298500Y-121295000D01*
X142298500Y-121395000D01*
X142290812Y-121433651D01*
X142268918Y-121466418D01*
X142236151Y-121488312D01*
X142197500Y-121496000D01*
X141422500Y-121496000D01*
X141383849Y-121488312D01*
X141351082Y-121466418D01*
X141329188Y-121433651D01*
X141321500Y-121395000D01*
X141321500Y-121295000D01*
X141329188Y-121256349D01*
X141351082Y-121223582D01*
X141383849Y-121201688D01*
X141422500Y-121194000D01*
X142197500Y-121194000D01*
X142236151Y-121201688D01*
G37*
G36*
X149111151Y-121201688D02*
G01*
X149143918Y-121223582D01*
X149165812Y-121256349D01*
X149173500Y-121295000D01*
X149173500Y-121395000D01*
X149165812Y-121433651D01*
X149143918Y-121466418D01*
X149111151Y-121488312D01*
X149072500Y-121496000D01*
X148297500Y-121496000D01*
X148258849Y-121488312D01*
X148226082Y-121466418D01*
X148204188Y-121433651D01*
X148196500Y-121395000D01*
X148196500Y-121295000D01*
X148204188Y-121256349D01*
X148226082Y-121223582D01*
X148258849Y-121201688D01*
X148297500Y-121194000D01*
X149072500Y-121194000D01*
X149111151Y-121201688D01*
G37*
G36*
X156144517Y-120992882D02*
G01*
X156161062Y-121003938D01*
X156172118Y-121020483D01*
X156176000Y-121040000D01*
X156176000Y-121440000D01*
X156172118Y-121459517D01*
X156161062Y-121476062D01*
X156144517Y-121487118D01*
X156125000Y-121491000D01*
X154475000Y-121491000D01*
X154455483Y-121487118D01*
X154438938Y-121476062D01*
X154427882Y-121459517D01*
X154424000Y-121440000D01*
X154424000Y-121040000D01*
X154427882Y-121020483D01*
X154438938Y-121003938D01*
X154455483Y-120992882D01*
X154475000Y-120989000D01*
X156125000Y-120989000D01*
X156144517Y-120992882D01*
G37*
G36*
X138083093Y-120751039D02*
G01*
X138145057Y-120792443D01*
X138186461Y-120854407D01*
X138201000Y-120927500D01*
X138201000Y-121267500D01*
X138186461Y-121340593D01*
X138145057Y-121402557D01*
X138083093Y-121443961D01*
X138010000Y-121458500D01*
X137730000Y-121458500D01*
X137656907Y-121443961D01*
X137594943Y-121402557D01*
X137553539Y-121340593D01*
X137539000Y-121267500D01*
X137539000Y-120927500D01*
X137553539Y-120854407D01*
X137594943Y-120792443D01*
X137656907Y-120751039D01*
X137730000Y-120736500D01*
X138010000Y-120736500D01*
X138083093Y-120751039D01*
G37*
G36*
X139043093Y-120751039D02*
G01*
X139105057Y-120792443D01*
X139146461Y-120854407D01*
X139161000Y-120927500D01*
X139161000Y-121267500D01*
X139146461Y-121340593D01*
X139105057Y-121402557D01*
X139043093Y-121443961D01*
X138970000Y-121458500D01*
X138690000Y-121458500D01*
X138616907Y-121443961D01*
X138554943Y-121402557D01*
X138513539Y-121340593D01*
X138499000Y-121267500D01*
X138499000Y-120927500D01*
X138513539Y-120854407D01*
X138554943Y-120792443D01*
X138616907Y-120751039D01*
X138690000Y-120736500D01*
X138970000Y-120736500D01*
X139043093Y-120751039D01*
G37*
G36*
X151996179Y-120728158D02*
G01*
X152056522Y-120768478D01*
X152096842Y-120828821D01*
X152111000Y-120900000D01*
X152111000Y-121270000D01*
X152096842Y-121341179D01*
X152056522Y-121401522D01*
X151996179Y-121441842D01*
X151925000Y-121456000D01*
X151655000Y-121456000D01*
X151583821Y-121441842D01*
X151523478Y-121401522D01*
X151483158Y-121341179D01*
X151469000Y-121270000D01*
X151469000Y-120900000D01*
X151483158Y-120828821D01*
X151523478Y-120768478D01*
X151583821Y-120728158D01*
X151655000Y-120714000D01*
X151925000Y-120714000D01*
X151996179Y-120728158D01*
G37*
G36*
X153016179Y-120728158D02*
G01*
X153076522Y-120768478D01*
X153116842Y-120828821D01*
X153131000Y-120900000D01*
X153131000Y-121270000D01*
X153116842Y-121341179D01*
X153076522Y-121401522D01*
X153016179Y-121441842D01*
X152945000Y-121456000D01*
X152675000Y-121456000D01*
X152603821Y-121441842D01*
X152543478Y-121401522D01*
X152503158Y-121341179D01*
X152489000Y-121270000D01*
X152489000Y-120900000D01*
X152503158Y-120828821D01*
X152543478Y-120768478D01*
X152603821Y-120728158D01*
X152675000Y-120714000D01*
X152945000Y-120714000D01*
X153016179Y-120728158D01*
G37*
G36*
X136493093Y-120713539D02*
G01*
X136555057Y-120754943D01*
X136596461Y-120816907D01*
X136611000Y-120890000D01*
X136611000Y-121170000D01*
X136596461Y-121243093D01*
X136555057Y-121305057D01*
X136493093Y-121346461D01*
X136420000Y-121361000D01*
X136080000Y-121361000D01*
X136006907Y-121346461D01*
X135944943Y-121305057D01*
X135903539Y-121243093D01*
X135889000Y-121170000D01*
X135889000Y-120890000D01*
X135903539Y-120816907D01*
X135944943Y-120754943D01*
X136006907Y-120713539D01*
X136080000Y-120699000D01*
X136420000Y-120699000D01*
X136493093Y-120713539D01*
G37*
G36*
X142236151Y-120801688D02*
G01*
X142268918Y-120823582D01*
X142290812Y-120856349D01*
X142298500Y-120895000D01*
X142298500Y-120995000D01*
X142290812Y-121033651D01*
X142268918Y-121066418D01*
X142236151Y-121088312D01*
X142197500Y-121096000D01*
X141422500Y-121096000D01*
X141383849Y-121088312D01*
X141351082Y-121066418D01*
X141329188Y-121033651D01*
X141321500Y-120995000D01*
X141321500Y-120895000D01*
X141329188Y-120856349D01*
X141351082Y-120823582D01*
X141383849Y-120801688D01*
X141422500Y-120794000D01*
X142197500Y-120794000D01*
X142236151Y-120801688D01*
G37*
G36*
X149111151Y-120801688D02*
G01*
X149143918Y-120823582D01*
X149165812Y-120856349D01*
X149173500Y-120895000D01*
X149173500Y-120995000D01*
X149165812Y-121033651D01*
X149143918Y-121066418D01*
X149111151Y-121088312D01*
X149072500Y-121096000D01*
X148297500Y-121096000D01*
X148258849Y-121088312D01*
X148226082Y-121066418D01*
X148204188Y-121033651D01*
X148196500Y-120995000D01*
X148196500Y-120895000D01*
X148204188Y-120856349D01*
X148226082Y-120823582D01*
X148258849Y-120801688D01*
X148297500Y-120794000D01*
X149072500Y-120794000D01*
X149111151Y-120801688D01*
G37*
G36*
X159719517Y-119517882D02*
G01*
X159736062Y-119528938D01*
X159747118Y-119545483D01*
X159751000Y-119565000D01*
X159751000Y-120995000D01*
X159747118Y-121014517D01*
X159736062Y-121031062D01*
X159719517Y-121042118D01*
X159700000Y-121046000D01*
X157200000Y-121046000D01*
X157180483Y-121042118D01*
X157163938Y-121031062D01*
X157152882Y-121014517D01*
X157149000Y-120995000D01*
X157149000Y-119565000D01*
X157152882Y-119545483D01*
X157163938Y-119528938D01*
X157180483Y-119517882D01*
X157200000Y-119514000D01*
X159700000Y-119514000D01*
X159719517Y-119517882D01*
G37*
G36*
X156144517Y-120342882D02*
G01*
X156161062Y-120353938D01*
X156172118Y-120370483D01*
X156176000Y-120390000D01*
X156176000Y-120790000D01*
X156172118Y-120809517D01*
X156161062Y-120826062D01*
X156144517Y-120837118D01*
X156125000Y-120841000D01*
X154475000Y-120841000D01*
X154455483Y-120837118D01*
X154438938Y-120826062D01*
X154427882Y-120809517D01*
X154424000Y-120790000D01*
X154424000Y-120390000D01*
X154427882Y-120370483D01*
X154438938Y-120353938D01*
X154455483Y-120342882D01*
X154475000Y-120339000D01*
X156125000Y-120339000D01*
X156144517Y-120342882D01*
G37*
G36*
X142236151Y-120401688D02*
G01*
X142268918Y-120423582D01*
X142290812Y-120456349D01*
X142298500Y-120495000D01*
X142298500Y-120595000D01*
X142290812Y-120633651D01*
X142268918Y-120666418D01*
X142236151Y-120688312D01*
X142197500Y-120696000D01*
X141422500Y-120696000D01*
X141383849Y-120688312D01*
X141351082Y-120666418D01*
X141329188Y-120633651D01*
X141321500Y-120595000D01*
X141321500Y-120495000D01*
X141329188Y-120456349D01*
X141351082Y-120423582D01*
X141383849Y-120401688D01*
X141422500Y-120394000D01*
X142197500Y-120394000D01*
X142236151Y-120401688D01*
G37*
G36*
X149111151Y-120401688D02*
G01*
X149143918Y-120423582D01*
X149165812Y-120456349D01*
X149173500Y-120495000D01*
X149173500Y-120595000D01*
X149165812Y-120633651D01*
X149143918Y-120666418D01*
X149111151Y-120688312D01*
X149072500Y-120696000D01*
X148297500Y-120696000D01*
X148258849Y-120688312D01*
X148226082Y-120666418D01*
X148204188Y-120633651D01*
X148196500Y-120595000D01*
X148196500Y-120495000D01*
X148204188Y-120456349D01*
X148226082Y-120423582D01*
X148258849Y-120401688D01*
X148297500Y-120394000D01*
X149072500Y-120394000D01*
X149111151Y-120401688D01*
G37*
G36*
X135244517Y-119677882D02*
G01*
X135261062Y-119688938D01*
X135272118Y-119705483D01*
X135276000Y-119725000D01*
X135276000Y-120425000D01*
X135272118Y-120444517D01*
X135261062Y-120461062D01*
X135244517Y-120472118D01*
X135225000Y-120476000D01*
X134025000Y-120476000D01*
X134005483Y-120472118D01*
X133988938Y-120461062D01*
X133977882Y-120444517D01*
X133974000Y-120425000D01*
X133974000Y-119725000D01*
X133977882Y-119705483D01*
X133988938Y-119688938D01*
X134005483Y-119677882D01*
X134025000Y-119674000D01*
X135225000Y-119674000D01*
X135244517Y-119677882D01*
G37*
G36*
X152533093Y-119753539D02*
G01*
X152595057Y-119794943D01*
X152636461Y-119856907D01*
X152651000Y-119930000D01*
X152651000Y-120270000D01*
X152636461Y-120343093D01*
X152595057Y-120405057D01*
X152533093Y-120446461D01*
X152460000Y-120461000D01*
X152180000Y-120461000D01*
X152106907Y-120446461D01*
X152044943Y-120405057D01*
X152003539Y-120343093D01*
X151989000Y-120270000D01*
X151989000Y-119930000D01*
X152003539Y-119856907D01*
X152044943Y-119794943D01*
X152106907Y-119753539D01*
X152180000Y-119739000D01*
X152460000Y-119739000D01*
X152533093Y-119753539D01*
G37*
G36*
X153493093Y-119753539D02*
G01*
X153555057Y-119794943D01*
X153596461Y-119856907D01*
X153611000Y-119930000D01*
X153611000Y-120270000D01*
X153596461Y-120343093D01*
X153555057Y-120405057D01*
X153493093Y-120446461D01*
X153420000Y-120461000D01*
X153140000Y-120461000D01*
X153066907Y-120446461D01*
X153004943Y-120405057D01*
X152963539Y-120343093D01*
X152949000Y-120270000D01*
X152949000Y-119930000D01*
X152963539Y-119856907D01*
X153004943Y-119794943D01*
X153066907Y-119753539D01*
X153140000Y-119739000D01*
X153420000Y-119739000D01*
X153493093Y-119753539D01*
G37*
G36*
X138083093Y-119751039D02*
G01*
X138145057Y-119792443D01*
X138186461Y-119854407D01*
X138201000Y-119927500D01*
X138201000Y-120267500D01*
X138186461Y-120340593D01*
X138145057Y-120402557D01*
X138083093Y-120443961D01*
X138010000Y-120458500D01*
X137730000Y-120458500D01*
X137656907Y-120443961D01*
X137594943Y-120402557D01*
X137553539Y-120340593D01*
X137539000Y-120267500D01*
X137539000Y-119927500D01*
X137553539Y-119854407D01*
X137594943Y-119792443D01*
X137656907Y-119751039D01*
X137730000Y-119736500D01*
X138010000Y-119736500D01*
X138083093Y-119751039D01*
G37*
G36*
X139043093Y-119751039D02*
G01*
X139105057Y-119792443D01*
X139146461Y-119854407D01*
X139161000Y-119927500D01*
X139161000Y-120267500D01*
X139146461Y-120340593D01*
X139105057Y-120402557D01*
X139043093Y-120443961D01*
X138970000Y-120458500D01*
X138690000Y-120458500D01*
X138616907Y-120443961D01*
X138554943Y-120402557D01*
X138513539Y-120340593D01*
X138499000Y-120267500D01*
X138499000Y-119927500D01*
X138513539Y-119854407D01*
X138554943Y-119792443D01*
X138616907Y-119751039D01*
X138690000Y-119736500D01*
X138970000Y-119736500D01*
X139043093Y-119751039D01*
G37*
G36*
X136493093Y-119753539D02*
G01*
X136555057Y-119794943D01*
X136596461Y-119856907D01*
X136611000Y-119930000D01*
X136611000Y-120210000D01*
X136596461Y-120283093D01*
X136555057Y-120345057D01*
X136493093Y-120386461D01*
X136420000Y-120401000D01*
X136080000Y-120401000D01*
X136006907Y-120386461D01*
X135944943Y-120345057D01*
X135903539Y-120283093D01*
X135889000Y-120210000D01*
X135889000Y-119930000D01*
X135903539Y-119856907D01*
X135944943Y-119794943D01*
X136006907Y-119753539D01*
X136080000Y-119739000D01*
X136420000Y-119739000D01*
X136493093Y-119753539D01*
G37*
G36*
X142236151Y-120001688D02*
G01*
X142268918Y-120023582D01*
X142290812Y-120056349D01*
X142298500Y-120095000D01*
X142298500Y-120195000D01*
X142290812Y-120233651D01*
X142268918Y-120266418D01*
X142236151Y-120288312D01*
X142197500Y-120296000D01*
X141422500Y-120296000D01*
X141383849Y-120288312D01*
X141351082Y-120266418D01*
X141329188Y-120233651D01*
X141321500Y-120195000D01*
X141321500Y-120095000D01*
X141329188Y-120056349D01*
X141351082Y-120023582D01*
X141383849Y-120001688D01*
X141422500Y-119994000D01*
X142197500Y-119994000D01*
X142236151Y-120001688D01*
G37*
G36*
X149111151Y-120001688D02*
G01*
X149143918Y-120023582D01*
X149165812Y-120056349D01*
X149173500Y-120095000D01*
X149173500Y-120195000D01*
X149165812Y-120233651D01*
X149143918Y-120266418D01*
X149111151Y-120288312D01*
X149072500Y-120296000D01*
X148297500Y-120296000D01*
X148258849Y-120288312D01*
X148226082Y-120266418D01*
X148204188Y-120233651D01*
X148196500Y-120195000D01*
X148196500Y-120095000D01*
X148204188Y-120056349D01*
X148226082Y-120023582D01*
X148258849Y-120001688D01*
X148297500Y-119994000D01*
X149072500Y-119994000D01*
X149111151Y-120001688D01*
G37*
G36*
X156144517Y-119692882D02*
G01*
X156161062Y-119703938D01*
X156172118Y-119720483D01*
X156176000Y-119740000D01*
X156176000Y-120140000D01*
X156172118Y-120159517D01*
X156161062Y-120176062D01*
X156144517Y-120187118D01*
X156125000Y-120191000D01*
X154475000Y-120191000D01*
X154455483Y-120187118D01*
X154438938Y-120176062D01*
X154427882Y-120159517D01*
X154424000Y-120140000D01*
X154424000Y-119740000D01*
X154427882Y-119720483D01*
X154438938Y-119703938D01*
X154455483Y-119692882D01*
X154475000Y-119689000D01*
X156125000Y-119689000D01*
X156144517Y-119692882D01*
G37*
G36*
X142236151Y-119601688D02*
G01*
X142268918Y-119623582D01*
X142290812Y-119656349D01*
X142298500Y-119695000D01*
X142298500Y-119795000D01*
X142290812Y-119833651D01*
X142268918Y-119866418D01*
X142236151Y-119888312D01*
X142197500Y-119896000D01*
X141422500Y-119896000D01*
X141383849Y-119888312D01*
X141351082Y-119866418D01*
X141329188Y-119833651D01*
X141321500Y-119795000D01*
X141321500Y-119695000D01*
X141329188Y-119656349D01*
X141351082Y-119623582D01*
X141383849Y-119601688D01*
X141422500Y-119594000D01*
X142197500Y-119594000D01*
X142236151Y-119601688D01*
G37*
G36*
X149111151Y-119601688D02*
G01*
X149143918Y-119623582D01*
X149165812Y-119656349D01*
X149173500Y-119695000D01*
X149173500Y-119795000D01*
X149165812Y-119833651D01*
X149143918Y-119866418D01*
X149111151Y-119888312D01*
X149072500Y-119896000D01*
X148297500Y-119896000D01*
X148258849Y-119888312D01*
X148226082Y-119866418D01*
X148204188Y-119833651D01*
X148196500Y-119795000D01*
X148196500Y-119695000D01*
X148204188Y-119656349D01*
X148226082Y-119623582D01*
X148258849Y-119601688D01*
X148297500Y-119594000D01*
X149072500Y-119594000D01*
X149111151Y-119601688D01*
G37*
G36*
X142236151Y-119201688D02*
G01*
X142268918Y-119223582D01*
X142290812Y-119256349D01*
X142298500Y-119295000D01*
X142298500Y-119395000D01*
X142290812Y-119433651D01*
X142268918Y-119466418D01*
X142236151Y-119488312D01*
X142197500Y-119496000D01*
X141422500Y-119496000D01*
X141383849Y-119488312D01*
X141351082Y-119466418D01*
X141329188Y-119433651D01*
X141321500Y-119395000D01*
X141321500Y-119295000D01*
X141329188Y-119256349D01*
X141351082Y-119223582D01*
X141383849Y-119201688D01*
X141422500Y-119194000D01*
X142197500Y-119194000D01*
X142236151Y-119201688D01*
G37*
G36*
X149111151Y-119201688D02*
G01*
X149143918Y-119223582D01*
X149165812Y-119256349D01*
X149173500Y-119295000D01*
X149173500Y-119395000D01*
X149165812Y-119433651D01*
X149143918Y-119466418D01*
X149111151Y-119488312D01*
X149072500Y-119496000D01*
X148297500Y-119496000D01*
X148258849Y-119488312D01*
X148226082Y-119466418D01*
X148204188Y-119433651D01*
X148196500Y-119395000D01*
X148196500Y-119295000D01*
X148204188Y-119256349D01*
X148226082Y-119223582D01*
X148258849Y-119201688D01*
X148297500Y-119194000D01*
X149072500Y-119194000D01*
X149111151Y-119201688D01*
G37*
G36*
X152553093Y-118753539D02*
G01*
X152615057Y-118794943D01*
X152656461Y-118856907D01*
X152671000Y-118930000D01*
X152671000Y-119270000D01*
X152656461Y-119343093D01*
X152615057Y-119405057D01*
X152553093Y-119446461D01*
X152480000Y-119461000D01*
X152200000Y-119461000D01*
X152126907Y-119446461D01*
X152064943Y-119405057D01*
X152023539Y-119343093D01*
X152009000Y-119270000D01*
X152009000Y-118930000D01*
X152023539Y-118856907D01*
X152064943Y-118794943D01*
X152126907Y-118753539D01*
X152200000Y-118739000D01*
X152480000Y-118739000D01*
X152553093Y-118753539D01*
G37*
G36*
X153513093Y-118753539D02*
G01*
X153575057Y-118794943D01*
X153616461Y-118856907D01*
X153631000Y-118930000D01*
X153631000Y-119270000D01*
X153616461Y-119343093D01*
X153575057Y-119405057D01*
X153513093Y-119446461D01*
X153440000Y-119461000D01*
X153160000Y-119461000D01*
X153086907Y-119446461D01*
X153024943Y-119405057D01*
X152983539Y-119343093D01*
X152969000Y-119270000D01*
X152969000Y-118930000D01*
X152983539Y-118856907D01*
X153024943Y-118794943D01*
X153086907Y-118753539D01*
X153160000Y-118739000D01*
X153440000Y-118739000D01*
X153513093Y-118753539D01*
G37*
G36*
X155949517Y-117292882D02*
G01*
X155966062Y-117303938D01*
X155977118Y-117320483D01*
X155981000Y-117340000D01*
X155981000Y-119340000D01*
X155977118Y-119359517D01*
X155966062Y-119376062D01*
X155949517Y-119387118D01*
X155930000Y-119391000D01*
X155568358Y-119391000D01*
X155559669Y-119392729D01*
X155554396Y-119394912D01*
X155485392Y-119408637D01*
X155458446Y-119415858D01*
X155444499Y-119416772D01*
X155437799Y-119418105D01*
X155383322Y-119420782D01*
X155380000Y-119421000D01*
X155378891Y-119421000D01*
X154981109Y-119421000D01*
X154980000Y-119421000D01*
X154976677Y-119420782D01*
X154922200Y-119418105D01*
X154915498Y-119416772D01*
X154901554Y-119415858D01*
X154874613Y-119408639D01*
X154805606Y-119394913D01*
X154800334Y-119392729D01*
X154791643Y-119391000D01*
X154430000Y-119391000D01*
X154410483Y-119387118D01*
X154393938Y-119376062D01*
X154382882Y-119359517D01*
X154379000Y-119340000D01*
X154379000Y-117340000D01*
X154382882Y-117320483D01*
X154393938Y-117303938D01*
X154410483Y-117292882D01*
X154430000Y-117289000D01*
X155930000Y-117289000D01*
X155949517Y-117292882D01*
G37*
G36*
X135244517Y-118577882D02*
G01*
X135261062Y-118588938D01*
X135272118Y-118605483D01*
X135276000Y-118625000D01*
X135276000Y-119325000D01*
X135272118Y-119344517D01*
X135261062Y-119361062D01*
X135244517Y-119372118D01*
X135225000Y-119376000D01*
X134025000Y-119376000D01*
X134005483Y-119372118D01*
X133988938Y-119361062D01*
X133977882Y-119344517D01*
X133974000Y-119325000D01*
X133974000Y-118625000D01*
X133977882Y-118605483D01*
X133988938Y-118588938D01*
X134005483Y-118577882D01*
X134025000Y-118574000D01*
X135225000Y-118574000D01*
X135244517Y-118577882D01*
G37*
G36*
X137196179Y-118593158D02*
G01*
X137256522Y-118633478D01*
X137296842Y-118693821D01*
X137311000Y-118765000D01*
X137311000Y-119135000D01*
X137296842Y-119206179D01*
X137256522Y-119266522D01*
X137196179Y-119306842D01*
X137125000Y-119321000D01*
X136855000Y-119321000D01*
X136783821Y-119306842D01*
X136723478Y-119266522D01*
X136683158Y-119206179D01*
X136669000Y-119135000D01*
X136669000Y-118765000D01*
X136683158Y-118693821D01*
X136723478Y-118633478D01*
X136783821Y-118593158D01*
X136855000Y-118579000D01*
X137125000Y-118579000D01*
X137196179Y-118593158D01*
G37*
G36*
X138216179Y-118593158D02*
G01*
X138276522Y-118633478D01*
X138316842Y-118693821D01*
X138331000Y-118765000D01*
X138331000Y-119135000D01*
X138316842Y-119206179D01*
X138276522Y-119266522D01*
X138216179Y-119306842D01*
X138145000Y-119321000D01*
X137875000Y-119321000D01*
X137803821Y-119306842D01*
X137743478Y-119266522D01*
X137703158Y-119206179D01*
X137689000Y-119135000D01*
X137689000Y-118765000D01*
X137703158Y-118693821D01*
X137743478Y-118633478D01*
X137803821Y-118593158D01*
X137875000Y-118579000D01*
X138145000Y-118579000D01*
X138216179Y-118593158D01*
G37*
G36*
X156869517Y-117280382D02*
G01*
X156886062Y-117291438D01*
X156897118Y-117307983D01*
X156901000Y-117327500D01*
X156901000Y-117737641D01*
X156927359Y-117764000D01*
X158250000Y-117764000D01*
X158269517Y-117767882D01*
X158286062Y-117778938D01*
X158287000Y-117780342D01*
X158299059Y-117784000D01*
X158355000Y-117784000D01*
X158426160Y-117787496D01*
X158565747Y-117815261D01*
X158697234Y-117869725D01*
X158815570Y-117948794D01*
X158916206Y-118049430D01*
X158995275Y-118167766D01*
X159049739Y-118299253D01*
X159077504Y-118438840D01*
X159077504Y-118581160D01*
X159049739Y-118720747D01*
X158995275Y-118852234D01*
X158916206Y-118970570D01*
X158815570Y-119071206D01*
X158697234Y-119150275D01*
X158565747Y-119204739D01*
X158426160Y-119232504D01*
X158355000Y-119236000D01*
X158353891Y-119236000D01*
X158006109Y-119236000D01*
X158005000Y-119236000D01*
X157933840Y-119232504D01*
X157851947Y-119216214D01*
X157849764Y-119216000D01*
X156250000Y-119216000D01*
X156230483Y-119212118D01*
X156222089Y-119206509D01*
X156212168Y-119203500D01*
X156150000Y-119203500D01*
X156130483Y-119199618D01*
X156113938Y-119188562D01*
X156102882Y-119172017D01*
X156099000Y-119152500D01*
X156099000Y-117327500D01*
X156102882Y-117307983D01*
X156113938Y-117291438D01*
X156130483Y-117280382D01*
X156150000Y-117276500D01*
X156850000Y-117276500D01*
X156869517Y-117280382D01*
G37*
G36*
X142236151Y-118801688D02*
G01*
X142268918Y-118823582D01*
X142290812Y-118856349D01*
X142298500Y-118895000D01*
X142298500Y-118995000D01*
X142290812Y-119033651D01*
X142268918Y-119066418D01*
X142236151Y-119088312D01*
X142197500Y-119096000D01*
X141422500Y-119096000D01*
X141383849Y-119088312D01*
X141351082Y-119066418D01*
X141329188Y-119033651D01*
X141321500Y-118995000D01*
X141321500Y-118895000D01*
X141329188Y-118856349D01*
X141351082Y-118823582D01*
X141383849Y-118801688D01*
X141422500Y-118794000D01*
X142197500Y-118794000D01*
X142236151Y-118801688D01*
G37*
G36*
X149111151Y-118801688D02*
G01*
X149143918Y-118823582D01*
X149165812Y-118856349D01*
X149173500Y-118895000D01*
X149173500Y-118995000D01*
X149165812Y-119033651D01*
X149143918Y-119066418D01*
X149111151Y-119088312D01*
X149072500Y-119096000D01*
X148297500Y-119096000D01*
X148258849Y-119088312D01*
X148226082Y-119066418D01*
X148204188Y-119033651D01*
X148196500Y-118995000D01*
X148196500Y-118895000D01*
X148204188Y-118856349D01*
X148226082Y-118823582D01*
X148258849Y-118801688D01*
X148297500Y-118794000D01*
X149072500Y-118794000D01*
X149111151Y-118801688D01*
G37*
G36*
X142236151Y-118401688D02*
G01*
X142268918Y-118423582D01*
X142290812Y-118456349D01*
X142298500Y-118495000D01*
X142298500Y-118595000D01*
X142290812Y-118633651D01*
X142268918Y-118666418D01*
X142236151Y-118688312D01*
X142197500Y-118696000D01*
X141422500Y-118696000D01*
X141383849Y-118688312D01*
X141351082Y-118666418D01*
X141329188Y-118633651D01*
X141321500Y-118595000D01*
X141321500Y-118495000D01*
X141329188Y-118456349D01*
X141351082Y-118423582D01*
X141383849Y-118401688D01*
X141422500Y-118394000D01*
X142197500Y-118394000D01*
X142236151Y-118401688D01*
G37*
G36*
X149111151Y-118401688D02*
G01*
X149143918Y-118423582D01*
X149165812Y-118456349D01*
X149173500Y-118495000D01*
X149173500Y-118595000D01*
X149165812Y-118633651D01*
X149143918Y-118666418D01*
X149111151Y-118688312D01*
X149072500Y-118696000D01*
X148297500Y-118696000D01*
X148258849Y-118688312D01*
X148226082Y-118666418D01*
X148204188Y-118633651D01*
X148196500Y-118595000D01*
X148196500Y-118495000D01*
X148204188Y-118456349D01*
X148226082Y-118423582D01*
X148258849Y-118401688D01*
X148297500Y-118394000D01*
X149072500Y-118394000D01*
X149111151Y-118401688D01*
G37*
G36*
X139633093Y-117703539D02*
G01*
X139695057Y-117744943D01*
X139736461Y-117806907D01*
X139751000Y-117880000D01*
X139751000Y-118220000D01*
X139736461Y-118293093D01*
X139695057Y-118355057D01*
X139633093Y-118396461D01*
X139560000Y-118411000D01*
X139280000Y-118411000D01*
X139206907Y-118396461D01*
X139144943Y-118355057D01*
X139103539Y-118293093D01*
X139089000Y-118220000D01*
X139089000Y-117880000D01*
X139103539Y-117806907D01*
X139144943Y-117744943D01*
X139206907Y-117703539D01*
X139280000Y-117689000D01*
X139560000Y-117689000D01*
X139633093Y-117703539D01*
G37*
G36*
X140593093Y-117703539D02*
G01*
X140655057Y-117744943D01*
X140696461Y-117806907D01*
X140711000Y-117880000D01*
X140711000Y-118220000D01*
X140696461Y-118293093D01*
X140655057Y-118355057D01*
X140593093Y-118396461D01*
X140520000Y-118411000D01*
X140240000Y-118411000D01*
X140166907Y-118396461D01*
X140104943Y-118355057D01*
X140063539Y-118293093D01*
X140049000Y-118220000D01*
X140049000Y-117880000D01*
X140063539Y-117806907D01*
X140104943Y-117744943D01*
X140166907Y-117703539D01*
X140240000Y-117689000D01*
X140520000Y-117689000D01*
X140593093Y-117703539D01*
G37*
G36*
X152543093Y-117703539D02*
G01*
X152605057Y-117744943D01*
X152646461Y-117806907D01*
X152661000Y-117880000D01*
X152661000Y-118220000D01*
X152646461Y-118293093D01*
X152605057Y-118355057D01*
X152543093Y-118396461D01*
X152470000Y-118411000D01*
X152190000Y-118411000D01*
X152116907Y-118396461D01*
X152054943Y-118355057D01*
X152013539Y-118293093D01*
X151999000Y-118220000D01*
X151999000Y-117880000D01*
X152013539Y-117806907D01*
X152054943Y-117744943D01*
X152116907Y-117703539D01*
X152190000Y-117689000D01*
X152470000Y-117689000D01*
X152543093Y-117703539D01*
G37*
G36*
X153503093Y-117703539D02*
G01*
X153565057Y-117744943D01*
X153606461Y-117806907D01*
X153621000Y-117880000D01*
X153621000Y-118220000D01*
X153606461Y-118293093D01*
X153565057Y-118355057D01*
X153503093Y-118396461D01*
X153430000Y-118411000D01*
X153150000Y-118411000D01*
X153076907Y-118396461D01*
X153014943Y-118355057D01*
X152973539Y-118293093D01*
X152959000Y-118220000D01*
X152959000Y-117880000D01*
X152973539Y-117806907D01*
X153014943Y-117744943D01*
X153076907Y-117703539D01*
X153150000Y-117689000D01*
X153430000Y-117689000D01*
X153503093Y-117703539D01*
G37*
G36*
X137233093Y-117603539D02*
G01*
X137295057Y-117644943D01*
X137336461Y-117706907D01*
X137351000Y-117780000D01*
X137351000Y-118120000D01*
X137336461Y-118193093D01*
X137295057Y-118255057D01*
X137233093Y-118296461D01*
X137160000Y-118311000D01*
X136880000Y-118311000D01*
X136806907Y-118296461D01*
X136744943Y-118255057D01*
X136703539Y-118193093D01*
X136689000Y-118120000D01*
X136689000Y-117780000D01*
X136703539Y-117706907D01*
X136744943Y-117644943D01*
X136806907Y-117603539D01*
X136880000Y-117589000D01*
X137160000Y-117589000D01*
X137233093Y-117603539D01*
G37*
G36*
X138193093Y-117603539D02*
G01*
X138255057Y-117644943D01*
X138296461Y-117706907D01*
X138311000Y-117780000D01*
X138311000Y-118120000D01*
X138296461Y-118193093D01*
X138255057Y-118255057D01*
X138193093Y-118296461D01*
X138120000Y-118311000D01*
X137840000Y-118311000D01*
X137766907Y-118296461D01*
X137704943Y-118255057D01*
X137663539Y-118193093D01*
X137649000Y-118120000D01*
X137649000Y-117780000D01*
X137663539Y-117706907D01*
X137704943Y-117644943D01*
X137766907Y-117603539D01*
X137840000Y-117589000D01*
X138120000Y-117589000D01*
X138193093Y-117603539D01*
G37*
G36*
X142236151Y-118001688D02*
G01*
X142268918Y-118023582D01*
X142290812Y-118056349D01*
X142298500Y-118095000D01*
X142298500Y-118195000D01*
X142290812Y-118233651D01*
X142268918Y-118266418D01*
X142236151Y-118288312D01*
X142197500Y-118296000D01*
X141422500Y-118296000D01*
X141383849Y-118288312D01*
X141351082Y-118266418D01*
X141329188Y-118233651D01*
X141321500Y-118195000D01*
X141321500Y-118095000D01*
X141329188Y-118056349D01*
X141351082Y-118023582D01*
X141383849Y-118001688D01*
X141422500Y-117994000D01*
X142197500Y-117994000D01*
X142236151Y-118001688D01*
G37*
G36*
X149111151Y-118001688D02*
G01*
X149143918Y-118023582D01*
X149165812Y-118056349D01*
X149173500Y-118095000D01*
X149173500Y-118195000D01*
X149165812Y-118233651D01*
X149143918Y-118266418D01*
X149111151Y-118288312D01*
X149072500Y-118296000D01*
X148297500Y-118296000D01*
X148258849Y-118288312D01*
X148226082Y-118266418D01*
X148204188Y-118233651D01*
X148196500Y-118195000D01*
X148196500Y-118095000D01*
X148204188Y-118056349D01*
X148226082Y-118023582D01*
X148258849Y-118001688D01*
X148297500Y-117994000D01*
X149072500Y-117994000D01*
X149111151Y-118001688D01*
G37*
G36*
X135244517Y-117477882D02*
G01*
X135261062Y-117488938D01*
X135272118Y-117505483D01*
X135276000Y-117525000D01*
X135276000Y-118225000D01*
X135272118Y-118244517D01*
X135261062Y-118261062D01*
X135244517Y-118272118D01*
X135225000Y-118276000D01*
X134025000Y-118276000D01*
X134005483Y-118272118D01*
X133988938Y-118261062D01*
X133977882Y-118244517D01*
X133974000Y-118225000D01*
X133974000Y-117525000D01*
X133977882Y-117505483D01*
X133988938Y-117488938D01*
X134005483Y-117477882D01*
X134025000Y-117474000D01*
X135225000Y-117474000D01*
X135244517Y-117477882D01*
G37*
G36*
X142236151Y-117601688D02*
G01*
X142268918Y-117623582D01*
X142290812Y-117656349D01*
X142298500Y-117695000D01*
X142298500Y-117795000D01*
X142290812Y-117833651D01*
X142268918Y-117866418D01*
X142236151Y-117888312D01*
X142197500Y-117896000D01*
X141422500Y-117896000D01*
X141383849Y-117888312D01*
X141351082Y-117866418D01*
X141329188Y-117833651D01*
X141321500Y-117795000D01*
X141321500Y-117695000D01*
X141329188Y-117656349D01*
X141351082Y-117623582D01*
X141383849Y-117601688D01*
X141422500Y-117594000D01*
X142197500Y-117594000D01*
X142236151Y-117601688D01*
G37*
G36*
X149111151Y-117601688D02*
G01*
X149143918Y-117623582D01*
X149165812Y-117656349D01*
X149173500Y-117695000D01*
X149173500Y-117795000D01*
X149165812Y-117833651D01*
X149143918Y-117866418D01*
X149111151Y-117888312D01*
X149072500Y-117896000D01*
X148297500Y-117896000D01*
X148258849Y-117888312D01*
X148226082Y-117866418D01*
X148204188Y-117833651D01*
X148196500Y-117795000D01*
X148196500Y-117695000D01*
X148204188Y-117656349D01*
X148226082Y-117623582D01*
X148258849Y-117601688D01*
X148297500Y-117594000D01*
X149072500Y-117594000D01*
X149111151Y-117601688D01*
G37*
G36*
X142736151Y-116426688D02*
G01*
X142768918Y-116448582D01*
X142790812Y-116481349D01*
X142798500Y-116520000D01*
X142798500Y-117295000D01*
X142790812Y-117333651D01*
X142768918Y-117366418D01*
X142736151Y-117388312D01*
X142697500Y-117396000D01*
X142597500Y-117396000D01*
X142558849Y-117388312D01*
X142526082Y-117366418D01*
X142504188Y-117333651D01*
X142496500Y-117295000D01*
X142496500Y-116520000D01*
X142504188Y-116481349D01*
X142526082Y-116448582D01*
X142558849Y-116426688D01*
X142597500Y-116419000D01*
X142697500Y-116419000D01*
X142736151Y-116426688D01*
G37*
G36*
X143136151Y-116426688D02*
G01*
X143168918Y-116448582D01*
X143190812Y-116481349D01*
X143198500Y-116520000D01*
X143198500Y-117295000D01*
X143190812Y-117333651D01*
X143168918Y-117366418D01*
X143136151Y-117388312D01*
X143097500Y-117396000D01*
X142997500Y-117396000D01*
X142958849Y-117388312D01*
X142926082Y-117366418D01*
X142904188Y-117333651D01*
X142896500Y-117295000D01*
X142896500Y-116520000D01*
X142904188Y-116481349D01*
X142926082Y-116448582D01*
X142958849Y-116426688D01*
X142997500Y-116419000D01*
X143097500Y-116419000D01*
X143136151Y-116426688D01*
G37*
G36*
X143536151Y-116426688D02*
G01*
X143568918Y-116448582D01*
X143590812Y-116481349D01*
X143598500Y-116520000D01*
X143598500Y-117295000D01*
X143590812Y-117333651D01*
X143568918Y-117366418D01*
X143536151Y-117388312D01*
X143497500Y-117396000D01*
X143397500Y-117396000D01*
X143358849Y-117388312D01*
X143326082Y-117366418D01*
X143304188Y-117333651D01*
X143296500Y-117295000D01*
X143296500Y-116520000D01*
X143304188Y-116481349D01*
X143326082Y-116448582D01*
X143358849Y-116426688D01*
X143397500Y-116419000D01*
X143497500Y-116419000D01*
X143536151Y-116426688D01*
G37*
G36*
X143936151Y-116426688D02*
G01*
X143968918Y-116448582D01*
X143990812Y-116481349D01*
X143998500Y-116520000D01*
X143998500Y-117295000D01*
X143990812Y-117333651D01*
X143968918Y-117366418D01*
X143936151Y-117388312D01*
X143897500Y-117396000D01*
X143797500Y-117396000D01*
X143758849Y-117388312D01*
X143726082Y-117366418D01*
X143704188Y-117333651D01*
X143696500Y-117295000D01*
X143696500Y-116520000D01*
X143704188Y-116481349D01*
X143726082Y-116448582D01*
X143758849Y-116426688D01*
X143797500Y-116419000D01*
X143897500Y-116419000D01*
X143936151Y-116426688D01*
G37*
G36*
X144336151Y-116426688D02*
G01*
X144368918Y-116448582D01*
X144390812Y-116481349D01*
X144398500Y-116520000D01*
X144398500Y-117295000D01*
X144390812Y-117333651D01*
X144368918Y-117366418D01*
X144336151Y-117388312D01*
X144297500Y-117396000D01*
X144197500Y-117396000D01*
X144158849Y-117388312D01*
X144126082Y-117366418D01*
X144104188Y-117333651D01*
X144096500Y-117295000D01*
X144096500Y-116520000D01*
X144104188Y-116481349D01*
X144126082Y-116448582D01*
X144158849Y-116426688D01*
X144197500Y-116419000D01*
X144297500Y-116419000D01*
X144336151Y-116426688D01*
G37*
G36*
X144736151Y-116426688D02*
G01*
X144768918Y-116448582D01*
X144790812Y-116481349D01*
X144798500Y-116520000D01*
X144798500Y-117295000D01*
X144790812Y-117333651D01*
X144768918Y-117366418D01*
X144736151Y-117388312D01*
X144697500Y-117396000D01*
X144597500Y-117396000D01*
X144558849Y-117388312D01*
X144526082Y-117366418D01*
X144504188Y-117333651D01*
X144496500Y-117295000D01*
X144496500Y-116520000D01*
X144504188Y-116481349D01*
X144526082Y-116448582D01*
X144558849Y-116426688D01*
X144597500Y-116419000D01*
X144697500Y-116419000D01*
X144736151Y-116426688D01*
G37*
G36*
X145136151Y-116426688D02*
G01*
X145168918Y-116448582D01*
X145190812Y-116481349D01*
X145198500Y-116520000D01*
X145198500Y-117295000D01*
X145190812Y-117333651D01*
X145168918Y-117366418D01*
X145136151Y-117388312D01*
X145097500Y-117396000D01*
X144997500Y-117396000D01*
X144958849Y-117388312D01*
X144926082Y-117366418D01*
X144904188Y-117333651D01*
X144896500Y-117295000D01*
X144896500Y-116520000D01*
X144904188Y-116481349D01*
X144926082Y-116448582D01*
X144958849Y-116426688D01*
X144997500Y-116419000D01*
X145097500Y-116419000D01*
X145136151Y-116426688D01*
G37*
G36*
X145536151Y-116426688D02*
G01*
X145568918Y-116448582D01*
X145590812Y-116481349D01*
X145598500Y-116520000D01*
X145598500Y-117295000D01*
X145590812Y-117333651D01*
X145568918Y-117366418D01*
X145536151Y-117388312D01*
X145497500Y-117396000D01*
X145397500Y-117396000D01*
X145358849Y-117388312D01*
X145326082Y-117366418D01*
X145304188Y-117333651D01*
X145296500Y-117295000D01*
X145296500Y-116520000D01*
X145304188Y-116481349D01*
X145326082Y-116448582D01*
X145358849Y-116426688D01*
X145397500Y-116419000D01*
X145497500Y-116419000D01*
X145536151Y-116426688D01*
G37*
G36*
X145936151Y-116426688D02*
G01*
X145968918Y-116448582D01*
X145990812Y-116481349D01*
X145998500Y-116520000D01*
X145998500Y-117295000D01*
X145990812Y-117333651D01*
X145968918Y-117366418D01*
X145936151Y-117388312D01*
X145897500Y-117396000D01*
X145797500Y-117396000D01*
X145758849Y-117388312D01*
X145726082Y-117366418D01*
X145704188Y-117333651D01*
X145696500Y-117295000D01*
X145696500Y-116520000D01*
X145704188Y-116481349D01*
X145726082Y-116448582D01*
X145758849Y-116426688D01*
X145797500Y-116419000D01*
X145897500Y-116419000D01*
X145936151Y-116426688D01*
G37*
G36*
X146336151Y-116426688D02*
G01*
X146368918Y-116448582D01*
X146390812Y-116481349D01*
X146398500Y-116520000D01*
X146398500Y-117295000D01*
X146390812Y-117333651D01*
X146368918Y-117366418D01*
X146336151Y-117388312D01*
X146297500Y-117396000D01*
X146197500Y-117396000D01*
X146158849Y-117388312D01*
X146126082Y-117366418D01*
X146104188Y-117333651D01*
X146096500Y-117295000D01*
X146096500Y-116520000D01*
X146104188Y-116481349D01*
X146126082Y-116448582D01*
X146158849Y-116426688D01*
X146197500Y-116419000D01*
X146297500Y-116419000D01*
X146336151Y-116426688D01*
G37*
G36*
X146736151Y-116426688D02*
G01*
X146768918Y-116448582D01*
X146790812Y-116481349D01*
X146798500Y-116520000D01*
X146798500Y-117295000D01*
X146790812Y-117333651D01*
X146768918Y-117366418D01*
X146736151Y-117388312D01*
X146697500Y-117396000D01*
X146597500Y-117396000D01*
X146558849Y-117388312D01*
X146526082Y-117366418D01*
X146504188Y-117333651D01*
X146496500Y-117295000D01*
X146496500Y-116520000D01*
X146504188Y-116481349D01*
X146526082Y-116448582D01*
X146558849Y-116426688D01*
X146597500Y-116419000D01*
X146697500Y-116419000D01*
X146736151Y-116426688D01*
G37*
G36*
X147136151Y-116426688D02*
G01*
X147168918Y-116448582D01*
X147190812Y-116481349D01*
X147198500Y-116520000D01*
X147198500Y-117295000D01*
X147190812Y-117333651D01*
X147168918Y-117366418D01*
X147136151Y-117388312D01*
X147097500Y-117396000D01*
X146997500Y-117396000D01*
X146958849Y-117388312D01*
X146926082Y-117366418D01*
X146904188Y-117333651D01*
X146896500Y-117295000D01*
X146896500Y-116520000D01*
X146904188Y-116481349D01*
X146926082Y-116448582D01*
X146958849Y-116426688D01*
X146997500Y-116419000D01*
X147097500Y-116419000D01*
X147136151Y-116426688D01*
G37*
G36*
X147536151Y-116426688D02*
G01*
X147568918Y-116448582D01*
X147590812Y-116481349D01*
X147598500Y-116520000D01*
X147598500Y-117295000D01*
X147590812Y-117333651D01*
X147568918Y-117366418D01*
X147536151Y-117388312D01*
X147497500Y-117396000D01*
X147397500Y-117396000D01*
X147358849Y-117388312D01*
X147326082Y-117366418D01*
X147304188Y-117333651D01*
X147296500Y-117295000D01*
X147296500Y-116520000D01*
X147304188Y-116481349D01*
X147326082Y-116448582D01*
X147358849Y-116426688D01*
X147397500Y-116419000D01*
X147497500Y-116419000D01*
X147536151Y-116426688D01*
G37*
G36*
X147936151Y-116426688D02*
G01*
X147968918Y-116448582D01*
X147990812Y-116481349D01*
X147998500Y-116520000D01*
X147998500Y-117295000D01*
X147990812Y-117333651D01*
X147968918Y-117366418D01*
X147936151Y-117388312D01*
X147897500Y-117396000D01*
X147797500Y-117396000D01*
X147758849Y-117388312D01*
X147726082Y-117366418D01*
X147704188Y-117333651D01*
X147696500Y-117295000D01*
X147696500Y-116520000D01*
X147704188Y-116481349D01*
X147726082Y-116448582D01*
X147758849Y-116426688D01*
X147797500Y-116419000D01*
X147897500Y-116419000D01*
X147936151Y-116426688D01*
G37*
G36*
X135244517Y-116377882D02*
G01*
X135261062Y-116388938D01*
X135272118Y-116405483D01*
X135276000Y-116425000D01*
X135276000Y-117125000D01*
X135272118Y-117144517D01*
X135261062Y-117161062D01*
X135244517Y-117172118D01*
X135225000Y-117176000D01*
X134025000Y-117176000D01*
X134005483Y-117172118D01*
X133988938Y-117161062D01*
X133977882Y-117144517D01*
X133974000Y-117125000D01*
X133974000Y-116425000D01*
X133977882Y-116405483D01*
X133988938Y-116388938D01*
X134005483Y-116377882D01*
X134025000Y-116374000D01*
X135225000Y-116374000D01*
X135244517Y-116377882D01*
G37*
G36*
X138118914Y-115856995D02*
G01*
X138123645Y-115859084D01*
X138126811Y-115859501D01*
X138166442Y-115877981D01*
X138220106Y-115901676D01*
X138298324Y-115979894D01*
X138322028Y-116033579D01*
X138340498Y-116073188D01*
X138340914Y-116076351D01*
X138343005Y-116081086D01*
X138351000Y-116150000D01*
X138351000Y-116850000D01*
X138343005Y-116918914D01*
X138340914Y-116923648D01*
X138340498Y-116926811D01*
X138322036Y-116966402D01*
X138298324Y-117020106D01*
X138220106Y-117098324D01*
X138166402Y-117122036D01*
X138126811Y-117140498D01*
X138123648Y-117140914D01*
X138118914Y-117143005D01*
X138050000Y-117151000D01*
X137150000Y-117151000D01*
X137081086Y-117143005D01*
X137076351Y-117140914D01*
X137073188Y-117140498D01*
X137033579Y-117122028D01*
X136979894Y-117098324D01*
X136901676Y-117020106D01*
X136877981Y-116966442D01*
X136859501Y-116926811D01*
X136859084Y-116923645D01*
X136856995Y-116918914D01*
X136849000Y-116850000D01*
X136849000Y-116150000D01*
X136856995Y-116081086D01*
X136859084Y-116076354D01*
X136859501Y-116073188D01*
X136877989Y-116033538D01*
X136901676Y-115979894D01*
X136979894Y-115901676D01*
X137033538Y-115877989D01*
X137073188Y-115859501D01*
X137076354Y-115859084D01*
X137081086Y-115856995D01*
X137150000Y-115849000D01*
X138050000Y-115849000D01*
X138118914Y-115856995D01*
G37*
G36*
X140318914Y-115856995D02*
G01*
X140323645Y-115859084D01*
X140326811Y-115859501D01*
X140366442Y-115877981D01*
X140420106Y-115901676D01*
X140498324Y-115979894D01*
X140522028Y-116033579D01*
X140540498Y-116073188D01*
X140540914Y-116076351D01*
X140543005Y-116081086D01*
X140551000Y-116150000D01*
X140551000Y-116850000D01*
X140543005Y-116918914D01*
X140540914Y-116923648D01*
X140540498Y-116926811D01*
X140522036Y-116966402D01*
X140498324Y-117020106D01*
X140420106Y-117098324D01*
X140366402Y-117122036D01*
X140326811Y-117140498D01*
X140323648Y-117140914D01*
X140318914Y-117143005D01*
X140250000Y-117151000D01*
X139350000Y-117151000D01*
X139281086Y-117143005D01*
X139276351Y-117140914D01*
X139273188Y-117140498D01*
X139233579Y-117122028D01*
X139179894Y-117098324D01*
X139101676Y-117020106D01*
X139077981Y-116966442D01*
X139059501Y-116926811D01*
X139059084Y-116923645D01*
X139056995Y-116918914D01*
X139049000Y-116850000D01*
X139049000Y-116150000D01*
X139056995Y-116081086D01*
X139059084Y-116076354D01*
X139059501Y-116073188D01*
X139077989Y-116033538D01*
X139101676Y-115979894D01*
X139179894Y-115901676D01*
X139233538Y-115877989D01*
X139273188Y-115859501D01*
X139276354Y-115859084D01*
X139281086Y-115856995D01*
X139350000Y-115849000D01*
X140250000Y-115849000D01*
X140318914Y-115856995D01*
G37*
G36*
X135244517Y-115277882D02*
G01*
X135261062Y-115288938D01*
X135272118Y-115305483D01*
X135276000Y-115325000D01*
X135276000Y-116025000D01*
X135272118Y-116044517D01*
X135261062Y-116061062D01*
X135244517Y-116072118D01*
X135225000Y-116076000D01*
X134025000Y-116076000D01*
X134005483Y-116072118D01*
X133988938Y-116061062D01*
X133977882Y-116044517D01*
X133974000Y-116025000D01*
X133974000Y-115325000D01*
X133977882Y-115305483D01*
X133988938Y-115288938D01*
X134005483Y-115277882D01*
X134025000Y-115274000D01*
X135225000Y-115274000D01*
X135244517Y-115277882D01*
G37*
G36*
X150744203Y-114845252D02*
G01*
X150813467Y-114891533D01*
X150859748Y-114960797D01*
X150876000Y-115042500D01*
X150876000Y-115367500D01*
X150859748Y-115449203D01*
X150813467Y-115518467D01*
X150744203Y-115564748D01*
X150662500Y-115581000D01*
X149362500Y-115581000D01*
X149280797Y-115564748D01*
X149211533Y-115518467D01*
X149165252Y-115449203D01*
X149149000Y-115367500D01*
X149149000Y-115042500D01*
X149165252Y-114960797D01*
X149211533Y-114891533D01*
X149280797Y-114845252D01*
X149362500Y-114829000D01*
X150662500Y-114829000D01*
X150744203Y-114845252D01*
G37*
G36*
X157919203Y-114845252D02*
G01*
X157988467Y-114891533D01*
X158034748Y-114960797D01*
X158051000Y-115042500D01*
X158051000Y-115367500D01*
X158034748Y-115449203D01*
X157988467Y-115518467D01*
X157919203Y-115564748D01*
X157837500Y-115581000D01*
X156537500Y-115581000D01*
X156455797Y-115564748D01*
X156386533Y-115518467D01*
X156340252Y-115449203D01*
X156324000Y-115367500D01*
X156324000Y-115042500D01*
X156340252Y-114960797D01*
X156386533Y-114891533D01*
X156455797Y-114845252D01*
X156537500Y-114829000D01*
X157837500Y-114829000D01*
X157919203Y-114845252D01*
G37*
G36*
X138118914Y-114156995D02*
G01*
X138123645Y-114159084D01*
X138126811Y-114159501D01*
X138166442Y-114177981D01*
X138220106Y-114201676D01*
X138298324Y-114279894D01*
X138322028Y-114333579D01*
X138340498Y-114373188D01*
X138340914Y-114376351D01*
X138343005Y-114381086D01*
X138351000Y-114450000D01*
X138351000Y-115150000D01*
X138343005Y-115218914D01*
X138340914Y-115223648D01*
X138340498Y-115226811D01*
X138322036Y-115266402D01*
X138298324Y-115320106D01*
X138220106Y-115398324D01*
X138166402Y-115422036D01*
X138126811Y-115440498D01*
X138123648Y-115440914D01*
X138118914Y-115443005D01*
X138050000Y-115451000D01*
X137150000Y-115451000D01*
X137081086Y-115443005D01*
X137076351Y-115440914D01*
X137073188Y-115440498D01*
X137033579Y-115422028D01*
X136979894Y-115398324D01*
X136901676Y-115320106D01*
X136877981Y-115266442D01*
X136859501Y-115226811D01*
X136859084Y-115223645D01*
X136856995Y-115218914D01*
X136849000Y-115150000D01*
X136849000Y-114450000D01*
X136856995Y-114381086D01*
X136859084Y-114376354D01*
X136859501Y-114373188D01*
X136877989Y-114333538D01*
X136901676Y-114279894D01*
X136979894Y-114201676D01*
X137033538Y-114177989D01*
X137073188Y-114159501D01*
X137076354Y-114159084D01*
X137081086Y-114156995D01*
X137150000Y-114149000D01*
X138050000Y-114149000D01*
X138118914Y-114156995D01*
G37*
G36*
X140318914Y-114156995D02*
G01*
X140323645Y-114159084D01*
X140326811Y-114159501D01*
X140366442Y-114177981D01*
X140420106Y-114201676D01*
X140498324Y-114279894D01*
X140522028Y-114333579D01*
X140540498Y-114373188D01*
X140540914Y-114376351D01*
X140543005Y-114381086D01*
X140551000Y-114450000D01*
X140551000Y-115150000D01*
X140543005Y-115218914D01*
X140540914Y-115223648D01*
X140540498Y-115226811D01*
X140522036Y-115266402D01*
X140498324Y-115320106D01*
X140420106Y-115398324D01*
X140366402Y-115422036D01*
X140326811Y-115440498D01*
X140323648Y-115440914D01*
X140318914Y-115443005D01*
X140250000Y-115451000D01*
X139350000Y-115451000D01*
X139281086Y-115443005D01*
X139276351Y-115440914D01*
X139273188Y-115440498D01*
X139233579Y-115422028D01*
X139179894Y-115398324D01*
X139101676Y-115320106D01*
X139077981Y-115266442D01*
X139059501Y-115226811D01*
X139059084Y-115223645D01*
X139056995Y-115218914D01*
X139049000Y-115150000D01*
X139049000Y-114450000D01*
X139056995Y-114381086D01*
X139059084Y-114376354D01*
X139059501Y-114373188D01*
X139077989Y-114333538D01*
X139101676Y-114279894D01*
X139179894Y-114201676D01*
X139233538Y-114177989D01*
X139273188Y-114159501D01*
X139276354Y-114159084D01*
X139281086Y-114156995D01*
X139350000Y-114149000D01*
X140250000Y-114149000D01*
X140318914Y-114156995D01*
G37*
G36*
X135244517Y-114177882D02*
G01*
X135261062Y-114188938D01*
X135272118Y-114205483D01*
X135276000Y-114225000D01*
X135276000Y-114925000D01*
X135272118Y-114944517D01*
X135261062Y-114961062D01*
X135244517Y-114972118D01*
X135225000Y-114976000D01*
X134025000Y-114976000D01*
X134005483Y-114972118D01*
X133988938Y-114961062D01*
X133977882Y-114944517D01*
X133974000Y-114925000D01*
X133974000Y-114225000D01*
X133977882Y-114205483D01*
X133988938Y-114188938D01*
X134005483Y-114177882D01*
X134025000Y-114174000D01*
X135225000Y-114174000D01*
X135244517Y-114177882D01*
G37*
G36*
X150744203Y-113575252D02*
G01*
X150813467Y-113621533D01*
X150859748Y-113690797D01*
X150876000Y-113772500D01*
X150876000Y-114097500D01*
X150859748Y-114179203D01*
X150813467Y-114248467D01*
X150744203Y-114294748D01*
X150662500Y-114311000D01*
X149362500Y-114311000D01*
X149280797Y-114294748D01*
X149211533Y-114248467D01*
X149165252Y-114179203D01*
X149149000Y-114097500D01*
X149149000Y-113772500D01*
X149165252Y-113690797D01*
X149211533Y-113621533D01*
X149280797Y-113575252D01*
X149362500Y-113559000D01*
X150662500Y-113559000D01*
X150744203Y-113575252D01*
G37*
G36*
X157919203Y-113575252D02*
G01*
X157988467Y-113621533D01*
X158034748Y-113690797D01*
X158051000Y-113772500D01*
X158051000Y-114097500D01*
X158034748Y-114179203D01*
X157988467Y-114248467D01*
X157919203Y-114294748D01*
X157837500Y-114311000D01*
X156537500Y-114311000D01*
X156455797Y-114294748D01*
X156386533Y-114248467D01*
X156340252Y-114179203D01*
X156324000Y-114097500D01*
X156324000Y-113772500D01*
X156340252Y-113690797D01*
X156386533Y-113621533D01*
X156455797Y-113575252D01*
X156537500Y-113559000D01*
X157837500Y-113559000D01*
X157919203Y-113575252D01*
G37*
G36*
X147083093Y-113253539D02*
G01*
X147145057Y-113294943D01*
X147186461Y-113356907D01*
X147201000Y-113430000D01*
X147201000Y-113770000D01*
X147186461Y-113843093D01*
X147145057Y-113905057D01*
X147083093Y-113946461D01*
X147010000Y-113961000D01*
X146730000Y-113961000D01*
X146656907Y-113946461D01*
X146594943Y-113905057D01*
X146553539Y-113843093D01*
X146539000Y-113770000D01*
X146539000Y-113430000D01*
X146553539Y-113356907D01*
X146594943Y-113294943D01*
X146656907Y-113253539D01*
X146730000Y-113239000D01*
X147010000Y-113239000D01*
X147083093Y-113253539D01*
G37*
G36*
X148043093Y-113253539D02*
G01*
X148105057Y-113294943D01*
X148146461Y-113356907D01*
X148161000Y-113430000D01*
X148161000Y-113770000D01*
X148146461Y-113843093D01*
X148105057Y-113905057D01*
X148043093Y-113946461D01*
X147970000Y-113961000D01*
X147690000Y-113961000D01*
X147616907Y-113946461D01*
X147554943Y-113905057D01*
X147513539Y-113843093D01*
X147499000Y-113770000D01*
X147499000Y-113430000D01*
X147513539Y-113356907D01*
X147554943Y-113294943D01*
X147616907Y-113253539D01*
X147690000Y-113239000D01*
X147970000Y-113239000D01*
X148043093Y-113253539D01*
G37*
G36*
X135244517Y-113077882D02*
G01*
X135261062Y-113088938D01*
X135272118Y-113105483D01*
X135276000Y-113125000D01*
X135276000Y-113825000D01*
X135272118Y-113844517D01*
X135261062Y-113861062D01*
X135244517Y-113872118D01*
X135225000Y-113876000D01*
X134025000Y-113876000D01*
X134005483Y-113872118D01*
X133988938Y-113861062D01*
X133977882Y-113844517D01*
X133974000Y-113825000D01*
X133974000Y-113125000D01*
X133977882Y-113105483D01*
X133988938Y-113088938D01*
X134005483Y-113077882D01*
X134025000Y-113074000D01*
X135225000Y-113074000D01*
X135244517Y-113077882D01*
G37*
G36*
X150744203Y-112305252D02*
G01*
X150813467Y-112351533D01*
X150859748Y-112420797D01*
X150876000Y-112502500D01*
X150876000Y-112827500D01*
X150859748Y-112909203D01*
X150813467Y-112978467D01*
X150744203Y-113024748D01*
X150662500Y-113041000D01*
X149362500Y-113041000D01*
X149280797Y-113024748D01*
X149211533Y-112978467D01*
X149165252Y-112909203D01*
X149149000Y-112827500D01*
X149149000Y-112502500D01*
X149165252Y-112420797D01*
X149211533Y-112351533D01*
X149280797Y-112305252D01*
X149362500Y-112289000D01*
X150662500Y-112289000D01*
X150744203Y-112305252D01*
G37*
G36*
X157919203Y-112305252D02*
G01*
X157988467Y-112351533D01*
X158034748Y-112420797D01*
X158051000Y-112502500D01*
X158051000Y-112827500D01*
X158034748Y-112909203D01*
X157988467Y-112978467D01*
X157919203Y-113024748D01*
X157837500Y-113041000D01*
X156537500Y-113041000D01*
X156455797Y-113024748D01*
X156386533Y-112978467D01*
X156340252Y-112909203D01*
X156324000Y-112827500D01*
X156324000Y-112502500D01*
X156340252Y-112420797D01*
X156386533Y-112351533D01*
X156455797Y-112305252D01*
X156537500Y-112289000D01*
X157837500Y-112289000D01*
X157919203Y-112305252D01*
G37*
G36*
X135244517Y-112127882D02*
G01*
X135261062Y-112138938D01*
X135272118Y-112155483D01*
X135276000Y-112175000D01*
X135276000Y-112875000D01*
X135272118Y-112894517D01*
X135261062Y-112911062D01*
X135244517Y-112922118D01*
X135225000Y-112926000D01*
X134025000Y-112926000D01*
X134005483Y-112922118D01*
X133988938Y-112911062D01*
X133977882Y-112894517D01*
X133974000Y-112875000D01*
X133974000Y-112175000D01*
X133977882Y-112155483D01*
X133988938Y-112138938D01*
X134005483Y-112127882D01*
X134025000Y-112124000D01*
X135225000Y-112124000D01*
X135244517Y-112127882D01*
G37*
G36*
X121394517Y-111027882D02*
G01*
X121411062Y-111038938D01*
X121422118Y-111055483D01*
X121426000Y-111075000D01*
X121426000Y-112075000D01*
X121422118Y-112094517D01*
X121411062Y-112111062D01*
X121394517Y-112122118D01*
X121375000Y-112126000D01*
X118575000Y-112126000D01*
X118555483Y-112122118D01*
X118538938Y-112111062D01*
X118527882Y-112094517D01*
X118524000Y-112075000D01*
X118524000Y-111075000D01*
X118527882Y-111055483D01*
X118538938Y-111038938D01*
X118555483Y-111027882D01*
X118575000Y-111024000D01*
X121375000Y-111024000D01*
X121394517Y-111027882D01*
G37*
G36*
X124544517Y-111027882D02*
G01*
X124561062Y-111038938D01*
X124572118Y-111055483D01*
X124576000Y-111075000D01*
X124576000Y-112075000D01*
X124572118Y-112094517D01*
X124561062Y-112111062D01*
X124544517Y-112122118D01*
X124525000Y-112126000D01*
X123725000Y-112126000D01*
X123705483Y-112122118D01*
X123688938Y-112111062D01*
X123677882Y-112094517D01*
X123674000Y-112075000D01*
X123674000Y-111075000D01*
X123677882Y-111055483D01*
X123688938Y-111038938D01*
X123705483Y-111027882D01*
X123725000Y-111024000D01*
X124525000Y-111024000D01*
X124544517Y-111027882D01*
G37*
G36*
X130944517Y-111027882D02*
G01*
X130961062Y-111038938D01*
X130972118Y-111055483D01*
X130976000Y-111075000D01*
X130976000Y-112075000D01*
X130972118Y-112094517D01*
X130961062Y-112111062D01*
X130944517Y-112122118D01*
X130925000Y-112126000D01*
X129725000Y-112126000D01*
X129705483Y-112122118D01*
X129688938Y-112111062D01*
X129677882Y-112094517D01*
X129674000Y-112075000D01*
X129674000Y-111075000D01*
X129677882Y-111055483D01*
X129688938Y-111038938D01*
X129705483Y-111027882D01*
X129725000Y-111024000D01*
X130925000Y-111024000D01*
X130944517Y-111027882D01*
G37*
G36*
X150744203Y-111035252D02*
G01*
X150813467Y-111081533D01*
X150859748Y-111150797D01*
X150876000Y-111232500D01*
X150876000Y-111557500D01*
X150859748Y-111639203D01*
X150813467Y-111708467D01*
X150744203Y-111754748D01*
X150662500Y-111771000D01*
X149362500Y-111771000D01*
X149280797Y-111754748D01*
X149211533Y-111708467D01*
X149165252Y-111639203D01*
X149149000Y-111557500D01*
X149149000Y-111232500D01*
X149165252Y-111150797D01*
X149211533Y-111081533D01*
X149280797Y-111035252D01*
X149362500Y-111019000D01*
X150662500Y-111019000D01*
X150744203Y-111035252D01*
G37*
G36*
X157919203Y-111035252D02*
G01*
X157988467Y-111081533D01*
X158034748Y-111150797D01*
X158051000Y-111232500D01*
X158051000Y-111557500D01*
X158034748Y-111639203D01*
X157988467Y-111708467D01*
X157919203Y-111754748D01*
X157837500Y-111771000D01*
X156537500Y-111771000D01*
X156455797Y-111754748D01*
X156386533Y-111708467D01*
X156340252Y-111639203D01*
X156324000Y-111557500D01*
X156324000Y-111232500D01*
X156340252Y-111150797D01*
X156386533Y-111081533D01*
X156455797Y-111035252D01*
X156537500Y-111019000D01*
X157837500Y-111019000D01*
X157919203Y-111035252D01*
G37*
G36*
X158233093Y-109753539D02*
G01*
X158295057Y-109794943D01*
X158336461Y-109856907D01*
X158351000Y-109930000D01*
X158351000Y-110270000D01*
X158336461Y-110343093D01*
X158295057Y-110405057D01*
X158233093Y-110446461D01*
X158160000Y-110461000D01*
X157880000Y-110461000D01*
X157806907Y-110446461D01*
X157744943Y-110405057D01*
X157703539Y-110343093D01*
X157689000Y-110270000D01*
X157689000Y-109930000D01*
X157703539Y-109856907D01*
X157744943Y-109794943D01*
X157806907Y-109753539D01*
X157880000Y-109739000D01*
X158160000Y-109739000D01*
X158233093Y-109753539D01*
G37*
G36*
X159193093Y-109753539D02*
G01*
X159255057Y-109794943D01*
X159296461Y-109856907D01*
X159311000Y-109930000D01*
X159311000Y-110270000D01*
X159296461Y-110343093D01*
X159255057Y-110405057D01*
X159193093Y-110446461D01*
X159120000Y-110461000D01*
X158840000Y-110461000D01*
X158766907Y-110446461D01*
X158704943Y-110405057D01*
X158663539Y-110343093D01*
X158649000Y-110270000D01*
X158649000Y-109930000D01*
X158663539Y-109856907D01*
X158704943Y-109794943D01*
X158766907Y-109753539D01*
X158840000Y-109739000D01*
X159120000Y-109739000D01*
X159193093Y-109753539D01*
G37*
G36*
X148856179Y-109703158D02*
G01*
X148916522Y-109743478D01*
X148956842Y-109803821D01*
X148971000Y-109875000D01*
X148971000Y-110145000D01*
X148956842Y-110216179D01*
X148916522Y-110276522D01*
X148856179Y-110316842D01*
X148785000Y-110331000D01*
X148415000Y-110331000D01*
X148343821Y-110316842D01*
X148283478Y-110276522D01*
X148243158Y-110216179D01*
X148229000Y-110145000D01*
X148229000Y-109875000D01*
X148243158Y-109803821D01*
X148283478Y-109743478D01*
X148343821Y-109703158D01*
X148415000Y-109689000D01*
X148785000Y-109689000D01*
X148856179Y-109703158D01*
G37*
G36*
X150056179Y-109703158D02*
G01*
X150116522Y-109743478D01*
X150156842Y-109803821D01*
X150171000Y-109875000D01*
X150171000Y-110145000D01*
X150156842Y-110216179D01*
X150116522Y-110276522D01*
X150056179Y-110316842D01*
X149985000Y-110331000D01*
X149615000Y-110331000D01*
X149543821Y-110316842D01*
X149483478Y-110276522D01*
X149443158Y-110216179D01*
X149429000Y-110145000D01*
X149429000Y-109875000D01*
X149443158Y-109803821D01*
X149483478Y-109743478D01*
X149543821Y-109703158D01*
X149615000Y-109689000D01*
X149985000Y-109689000D01*
X150056179Y-109703158D01*
G37*
G36*
X123480621Y-105986488D02*
G01*
X123727128Y-106052539D01*
X123962905Y-106150201D01*
X124183918Y-106277803D01*
X124386384Y-106433161D01*
X124566839Y-106613616D01*
X124722197Y-106816082D01*
X124849799Y-107037095D01*
X124947461Y-107272872D01*
X125013512Y-107519379D01*
X125046823Y-107772398D01*
X125046823Y-108027602D01*
X125013512Y-108280621D01*
X124947461Y-108527128D01*
X124849799Y-108762905D01*
X124722197Y-108983918D01*
X124566839Y-109186384D01*
X124386384Y-109366839D01*
X124183918Y-109522197D01*
X123962905Y-109649799D01*
X123727128Y-109747461D01*
X123480621Y-109813512D01*
X123227602Y-109846823D01*
X122972398Y-109846823D01*
X122719379Y-109813512D01*
X122472872Y-109747461D01*
X122237095Y-109649799D01*
X122016082Y-109522197D01*
X121813616Y-109366839D01*
X121633161Y-109186384D01*
X121477803Y-108983918D01*
X121350201Y-108762905D01*
X121252539Y-108527128D01*
X121186488Y-108280621D01*
X121153177Y-108027602D01*
X121153177Y-107772398D01*
X121186488Y-107519379D01*
X121252539Y-107272872D01*
X121350201Y-107037095D01*
X121477803Y-106816082D01*
X121633161Y-106613616D01*
X121813616Y-106433161D01*
X122016082Y-106277803D01*
X122237095Y-106150201D01*
X122472872Y-106052539D01*
X122719379Y-105986488D01*
X122972398Y-105953177D01*
X123227602Y-105953177D01*
X123480621Y-105986488D01*
G37*
G36*
X148856179Y-108683158D02*
G01*
X148916522Y-108723478D01*
X148956842Y-108783821D01*
X148971000Y-108855000D01*
X148971000Y-109125000D01*
X148956842Y-109196179D01*
X148916522Y-109256522D01*
X148856179Y-109296842D01*
X148785000Y-109311000D01*
X148415000Y-109311000D01*
X148343821Y-109296842D01*
X148283478Y-109256522D01*
X148243158Y-109196179D01*
X148229000Y-109125000D01*
X148229000Y-108855000D01*
X148243158Y-108783821D01*
X148283478Y-108723478D01*
X148343821Y-108683158D01*
X148415000Y-108669000D01*
X148785000Y-108669000D01*
X148856179Y-108683158D01*
G37*
G36*
X150056179Y-108683158D02*
G01*
X150116522Y-108723478D01*
X150156842Y-108783821D01*
X150171000Y-108855000D01*
X150171000Y-109125000D01*
X150156842Y-109196179D01*
X150116522Y-109256522D01*
X150056179Y-109296842D01*
X149985000Y-109311000D01*
X149615000Y-109311000D01*
X149543821Y-109296842D01*
X149483478Y-109256522D01*
X149443158Y-109196179D01*
X149429000Y-109125000D01*
X149429000Y-108855000D01*
X149443158Y-108783821D01*
X149483478Y-108723478D01*
X149543821Y-108683158D01*
X149615000Y-108669000D01*
X149985000Y-108669000D01*
X150056179Y-108683158D01*
G37*
G36*
X157049958Y-107694579D02*
G01*
X157091031Y-107709529D01*
X157093562Y-107711471D01*
X157098388Y-107713341D01*
X157152770Y-107756417D01*
X157423948Y-108027595D01*
X157787083Y-108390729D01*
X157787086Y-108390733D01*
X157789167Y-108392814D01*
X157832243Y-108447196D01*
X157834110Y-108452017D01*
X157836054Y-108454550D01*
X157851005Y-108495627D01*
X157872202Y-108550344D01*
X157872202Y-108660961D01*
X157851004Y-108715679D01*
X157836055Y-108756752D01*
X157834112Y-108759283D01*
X157832243Y-108764109D01*
X157789167Y-108818492D01*
X157400258Y-109207401D01*
X157345875Y-109250477D01*
X157341051Y-109252345D01*
X157338520Y-109254288D01*
X157297445Y-109269238D01*
X157242727Y-109290436D01*
X157132110Y-109290436D01*
X157077375Y-109269232D01*
X157036318Y-109254288D01*
X157033787Y-109252346D01*
X157028962Y-109250477D01*
X156974580Y-109207401D01*
X156523931Y-108756752D01*
X156340266Y-108573088D01*
X156340262Y-108573083D01*
X156338183Y-108571004D01*
X156295107Y-108516622D01*
X156293239Y-108511800D01*
X156291295Y-108509267D01*
X156276341Y-108468180D01*
X156255148Y-108413474D01*
X156255148Y-108302857D01*
X156276329Y-108248179D01*
X156291294Y-108207065D01*
X156293239Y-108204529D01*
X156295107Y-108199709D01*
X156338183Y-108145326D01*
X156532639Y-107950869D01*
X156725008Y-107758500D01*
X156725012Y-107758496D01*
X156727092Y-107756417D01*
X156781475Y-107713341D01*
X156786294Y-107711474D01*
X156788829Y-107709529D01*
X156829938Y-107694566D01*
X156884623Y-107673382D01*
X156995240Y-107673382D01*
X157049958Y-107694579D01*
G37*
G36*
X158068192Y-106676345D02*
G01*
X158109265Y-106691295D01*
X158111796Y-106693237D01*
X158116622Y-106695107D01*
X158171004Y-106738183D01*
X158368319Y-106935498D01*
X158805317Y-107372495D01*
X158805320Y-107372499D01*
X158807401Y-107374580D01*
X158850477Y-107428962D01*
X158852344Y-107433783D01*
X158854288Y-107436316D01*
X158869239Y-107477393D01*
X158890436Y-107532110D01*
X158890436Y-107642727D01*
X158869238Y-107697445D01*
X158854289Y-107738518D01*
X158852346Y-107741049D01*
X158850477Y-107745875D01*
X158807401Y-107800258D01*
X158418492Y-108189167D01*
X158364109Y-108232243D01*
X158359285Y-108234111D01*
X158356754Y-108236054D01*
X158315679Y-108251004D01*
X158260961Y-108272202D01*
X158150344Y-108272202D01*
X158095609Y-108250998D01*
X158054552Y-108236054D01*
X158052021Y-108234112D01*
X158047196Y-108232243D01*
X157992814Y-108189167D01*
X157516988Y-107713341D01*
X157358500Y-107554854D01*
X157358496Y-107554849D01*
X157356417Y-107552770D01*
X157313341Y-107498388D01*
X157311473Y-107493566D01*
X157309529Y-107491033D01*
X157294575Y-107449946D01*
X157273382Y-107395240D01*
X157273382Y-107284623D01*
X157294563Y-107229945D01*
X157309528Y-107188831D01*
X157311473Y-107186295D01*
X157313341Y-107181475D01*
X157356417Y-107127092D01*
X157618403Y-106865106D01*
X157743242Y-106740266D01*
X157743246Y-106740262D01*
X157745326Y-106738183D01*
X157799709Y-106695107D01*
X157804528Y-106693240D01*
X157807063Y-106691295D01*
X157848172Y-106676332D01*
X157902857Y-106655148D01*
X158013474Y-106655148D01*
X158068192Y-106676345D01*
G37*
G36*
X136983093Y-107053539D02*
G01*
X137045057Y-107094943D01*
X137086461Y-107156907D01*
X137101000Y-107230000D01*
X137101000Y-107570000D01*
X137086461Y-107643093D01*
X137045057Y-107705057D01*
X136983093Y-107746461D01*
X136910000Y-107761000D01*
X136630000Y-107761000D01*
X136556907Y-107746461D01*
X136494943Y-107705057D01*
X136453539Y-107643093D01*
X136439000Y-107570000D01*
X136439000Y-107230000D01*
X136453539Y-107156907D01*
X136494943Y-107094943D01*
X136556907Y-107053539D01*
X136630000Y-107039000D01*
X136910000Y-107039000D01*
X136983093Y-107053539D01*
G37*
G36*
X137943093Y-107053539D02*
G01*
X138005057Y-107094943D01*
X138046461Y-107156907D01*
X138061000Y-107230000D01*
X138061000Y-107570000D01*
X138046461Y-107643093D01*
X138005057Y-107705057D01*
X137943093Y-107746461D01*
X137870000Y-107761000D01*
X137590000Y-107761000D01*
X137516907Y-107746461D01*
X137454943Y-107705057D01*
X137413539Y-107643093D01*
X137399000Y-107570000D01*
X137399000Y-107230000D01*
X137413539Y-107156907D01*
X137454943Y-107094943D01*
X137516907Y-107053539D01*
X137590000Y-107039000D01*
X137870000Y-107039000D01*
X137943093Y-107053539D01*
G37*
G36*
X147218914Y-105851995D02*
G01*
X147223645Y-105854084D01*
X147226811Y-105854501D01*
X147266442Y-105872981D01*
X147320106Y-105896676D01*
X147398324Y-105974894D01*
X147422028Y-106028579D01*
X147440498Y-106068188D01*
X147440914Y-106071351D01*
X147443005Y-106076086D01*
X147451000Y-106145000D01*
X147451000Y-106695000D01*
X147443005Y-106763914D01*
X147440914Y-106768648D01*
X147440498Y-106771811D01*
X147422036Y-106811402D01*
X147398324Y-106865106D01*
X147320106Y-106943324D01*
X147266402Y-106967036D01*
X147226811Y-106985498D01*
X147223648Y-106985914D01*
X147218914Y-106988005D01*
X147150000Y-106996000D01*
X146250000Y-106996000D01*
X146181086Y-106988005D01*
X146176351Y-106985914D01*
X146173188Y-106985498D01*
X146133579Y-106967028D01*
X146079894Y-106943324D01*
X146001676Y-106865106D01*
X145977981Y-106811442D01*
X145959501Y-106771811D01*
X145959084Y-106768645D01*
X145956995Y-106763914D01*
X145949000Y-106695000D01*
X145949000Y-106145000D01*
X145956995Y-106076086D01*
X145959084Y-106071354D01*
X145959501Y-106068188D01*
X145977989Y-106028538D01*
X146001676Y-105974894D01*
X146079894Y-105896676D01*
X146133538Y-105872989D01*
X146173188Y-105854501D01*
X146176354Y-105854084D01*
X146181086Y-105851995D01*
X146250000Y-105844000D01*
X147150000Y-105844000D01*
X147218914Y-105851995D01*
G37*
G36*
X150818914Y-105851995D02*
G01*
X150823645Y-105854084D01*
X150826811Y-105854501D01*
X150866442Y-105872981D01*
X150920106Y-105896676D01*
X150998324Y-105974894D01*
X151022028Y-106028579D01*
X151040498Y-106068188D01*
X151040914Y-106071351D01*
X151043005Y-106076086D01*
X151051000Y-106145000D01*
X151051000Y-106695000D01*
X151043005Y-106763914D01*
X151040914Y-106768648D01*
X151040498Y-106771811D01*
X151022036Y-106811402D01*
X150998324Y-106865106D01*
X150920106Y-106943324D01*
X150866402Y-106967036D01*
X150826811Y-106985498D01*
X150823648Y-106985914D01*
X150818914Y-106988005D01*
X150750000Y-106996000D01*
X149850000Y-106996000D01*
X149781086Y-106988005D01*
X149776351Y-106985914D01*
X149773188Y-106985498D01*
X149733579Y-106967028D01*
X149679894Y-106943324D01*
X149601676Y-106865106D01*
X149577981Y-106811442D01*
X149559501Y-106771811D01*
X149559084Y-106768645D01*
X149556995Y-106763914D01*
X149549000Y-106695000D01*
X149549000Y-106145000D01*
X149556995Y-106076086D01*
X149559084Y-106071354D01*
X149559501Y-106068188D01*
X149577989Y-106028538D01*
X149601676Y-105974894D01*
X149679894Y-105896676D01*
X149733538Y-105872989D01*
X149773188Y-105854501D01*
X149776354Y-105854084D01*
X149781086Y-105851995D01*
X149850000Y-105844000D01*
X150750000Y-105844000D01*
X150818914Y-105851995D01*
G37*
G36*
X127243914Y-105801995D02*
G01*
X127248645Y-105804084D01*
X127251811Y-105804501D01*
X127291442Y-105822981D01*
X127345106Y-105846676D01*
X127423324Y-105924894D01*
X127447028Y-105978579D01*
X127465498Y-106018188D01*
X127465914Y-106021351D01*
X127468005Y-106026086D01*
X127476000Y-106095000D01*
X127476000Y-106645000D01*
X127468005Y-106713914D01*
X127465914Y-106718648D01*
X127465498Y-106721811D01*
X127447036Y-106761402D01*
X127423324Y-106815106D01*
X127345106Y-106893324D01*
X127291402Y-106917036D01*
X127251811Y-106935498D01*
X127248648Y-106935914D01*
X127243914Y-106938005D01*
X127175000Y-106946000D01*
X126275000Y-106946000D01*
X126206086Y-106938005D01*
X126201351Y-106935914D01*
X126198188Y-106935498D01*
X126158579Y-106917028D01*
X126104894Y-106893324D01*
X126026676Y-106815106D01*
X126002981Y-106761442D01*
X125984501Y-106721811D01*
X125984084Y-106718645D01*
X125981995Y-106713914D01*
X125974000Y-106645000D01*
X125974000Y-106095000D01*
X125981995Y-106026086D01*
X125984084Y-106021354D01*
X125984501Y-106018188D01*
X126002989Y-105978538D01*
X126026676Y-105924894D01*
X126104894Y-105846676D01*
X126158538Y-105822989D01*
X126198188Y-105804501D01*
X126201354Y-105804084D01*
X126206086Y-105801995D01*
X126275000Y-105794000D01*
X127175000Y-105794000D01*
X127243914Y-105801995D01*
G37*
G36*
X130843914Y-105801995D02*
G01*
X130848645Y-105804084D01*
X130851811Y-105804501D01*
X130891442Y-105822981D01*
X130945106Y-105846676D01*
X131023324Y-105924894D01*
X131047028Y-105978579D01*
X131065498Y-106018188D01*
X131065914Y-106021351D01*
X131068005Y-106026086D01*
X131076000Y-106095000D01*
X131076000Y-106645000D01*
X131068005Y-106713914D01*
X131065914Y-106718648D01*
X131065498Y-106721811D01*
X131047036Y-106761402D01*
X131023324Y-106815106D01*
X130945106Y-106893324D01*
X130891402Y-106917036D01*
X130851811Y-106935498D01*
X130848648Y-106935914D01*
X130843914Y-106938005D01*
X130775000Y-106946000D01*
X129875000Y-106946000D01*
X129806086Y-106938005D01*
X129801351Y-106935914D01*
X129798188Y-106935498D01*
X129758579Y-106917028D01*
X129704894Y-106893324D01*
X129626676Y-106815106D01*
X129602981Y-106761442D01*
X129584501Y-106721811D01*
X129584084Y-106718645D01*
X129581995Y-106713914D01*
X129574000Y-106645000D01*
X129574000Y-106095000D01*
X129581995Y-106026086D01*
X129584084Y-106021354D01*
X129584501Y-106018188D01*
X129602989Y-105978538D01*
X129626676Y-105924894D01*
X129704894Y-105846676D01*
X129758538Y-105822989D01*
X129798188Y-105804501D01*
X129801354Y-105804084D01*
X129806086Y-105801995D01*
X129875000Y-105794000D01*
X130775000Y-105794000D01*
X130843914Y-105801995D01*
G37*
G36*
X154504374Y-105148995D02*
G01*
X154545447Y-105163945D01*
X154547978Y-105165887D01*
X154552804Y-105167757D01*
X154607186Y-105210833D01*
X154771459Y-105375106D01*
X155241499Y-105845145D01*
X155241502Y-105845149D01*
X155243583Y-105847230D01*
X155286659Y-105901612D01*
X155288526Y-105906433D01*
X155290470Y-105908966D01*
X155305421Y-105950043D01*
X155326618Y-106004760D01*
X155326618Y-106115377D01*
X155305420Y-106170095D01*
X155290471Y-106211168D01*
X155288528Y-106213699D01*
X155286659Y-106218525D01*
X155243583Y-106272908D01*
X154854674Y-106661817D01*
X154800291Y-106704893D01*
X154795467Y-106706761D01*
X154792936Y-106708704D01*
X154751861Y-106723654D01*
X154697143Y-106744852D01*
X154586526Y-106744852D01*
X154531791Y-106723648D01*
X154490734Y-106708704D01*
X154488203Y-106706762D01*
X154483378Y-106704893D01*
X154428996Y-106661817D01*
X153978347Y-106211168D01*
X153794682Y-106027504D01*
X153794678Y-106027499D01*
X153792599Y-106025420D01*
X153749523Y-105971038D01*
X153747655Y-105966216D01*
X153745711Y-105963683D01*
X153730757Y-105922596D01*
X153709564Y-105867890D01*
X153709564Y-105757273D01*
X153730745Y-105702595D01*
X153745710Y-105661481D01*
X153747655Y-105658945D01*
X153749523Y-105654125D01*
X153792599Y-105599742D01*
X154068427Y-105323914D01*
X154179424Y-105212916D01*
X154179428Y-105212912D01*
X154181508Y-105210833D01*
X154235891Y-105167757D01*
X154240710Y-105165890D01*
X154243245Y-105163945D01*
X154284354Y-105148982D01*
X154339039Y-105127798D01*
X154449656Y-105127798D01*
X154504374Y-105148995D01*
G37*
G36*
X136059517Y-104202882D02*
G01*
X136076062Y-104213938D01*
X136087118Y-104230483D01*
X136091000Y-104250000D01*
X136091000Y-105950000D01*
X136087118Y-105969517D01*
X136076062Y-105986062D01*
X136059517Y-105997118D01*
X136040000Y-106001000D01*
X134340000Y-106001000D01*
X134320483Y-105997118D01*
X134303938Y-105986062D01*
X134292882Y-105969517D01*
X134289000Y-105950000D01*
X134289000Y-104250000D01*
X134292882Y-104230483D01*
X134303938Y-104213938D01*
X134320483Y-104202882D01*
X134340000Y-104199000D01*
X136040000Y-104199000D01*
X136059517Y-104202882D01*
G37*
G36*
X137991546Y-104237797D02*
G01*
X138154728Y-104305389D01*
X138301588Y-104403518D01*
X138426482Y-104528412D01*
X138524611Y-104675272D01*
X138592203Y-104838454D01*
X138626661Y-105011687D01*
X138626661Y-105188313D01*
X138592203Y-105361546D01*
X138524611Y-105524728D01*
X138426482Y-105671588D01*
X138301588Y-105796482D01*
X138154728Y-105894611D01*
X137991546Y-105962203D01*
X137818313Y-105996661D01*
X137641687Y-105996661D01*
X137468454Y-105962203D01*
X137305272Y-105894611D01*
X137158412Y-105796482D01*
X137033518Y-105671588D01*
X136935389Y-105524728D01*
X136867797Y-105361546D01*
X136833339Y-105188313D01*
X136833339Y-105011687D01*
X136867797Y-104838454D01*
X136935389Y-104675272D01*
X137033518Y-104528412D01*
X137158412Y-104403518D01*
X137305272Y-104305389D01*
X137468454Y-104237797D01*
X137641687Y-104203339D01*
X137818313Y-104203339D01*
X137991546Y-104237797D01*
G37*
G36*
X140531546Y-104237797D02*
G01*
X140694728Y-104305389D01*
X140841588Y-104403518D01*
X140966482Y-104528412D01*
X141064611Y-104675272D01*
X141132203Y-104838454D01*
X141166661Y-105011687D01*
X141166661Y-105188313D01*
X141132203Y-105361546D01*
X141064611Y-105524728D01*
X140966482Y-105671588D01*
X140841588Y-105796482D01*
X140694728Y-105894611D01*
X140531546Y-105962203D01*
X140358313Y-105996661D01*
X140181687Y-105996661D01*
X140008454Y-105962203D01*
X139845272Y-105894611D01*
X139698412Y-105796482D01*
X139573518Y-105671588D01*
X139475389Y-105524728D01*
X139407797Y-105361546D01*
X139373339Y-105188313D01*
X139373339Y-105011687D01*
X139407797Y-104838454D01*
X139475389Y-104675272D01*
X139573518Y-104528412D01*
X139698412Y-104403518D01*
X139845272Y-104305389D01*
X140008454Y-104237797D01*
X140181687Y-104203339D01*
X140358313Y-104203339D01*
X140531546Y-104237797D01*
G37*
G36*
X143071546Y-104237797D02*
G01*
X143234728Y-104305389D01*
X143381588Y-104403518D01*
X143506482Y-104528412D01*
X143604611Y-104675272D01*
X143672203Y-104838454D01*
X143706661Y-105011687D01*
X143706661Y-105188313D01*
X143672203Y-105361546D01*
X143604611Y-105524728D01*
X143506482Y-105671588D01*
X143381588Y-105796482D01*
X143234728Y-105894611D01*
X143071546Y-105962203D01*
X142898313Y-105996661D01*
X142721687Y-105996661D01*
X142548454Y-105962203D01*
X142385272Y-105894611D01*
X142238412Y-105796482D01*
X142113518Y-105671588D01*
X142015389Y-105524728D01*
X141947797Y-105361546D01*
X141913339Y-105188313D01*
X141913339Y-105011687D01*
X141947797Y-104838454D01*
X142015389Y-104675272D01*
X142113518Y-104528412D01*
X142238412Y-104403518D01*
X142385272Y-104305389D01*
X142548454Y-104237797D01*
X142721687Y-104203339D01*
X142898313Y-104203339D01*
X143071546Y-104237797D01*
G37*
G36*
X155522608Y-104130761D02*
G01*
X155563681Y-104145711D01*
X155566212Y-104147653D01*
X155571038Y-104149523D01*
X155625420Y-104192599D01*
X155786821Y-104354000D01*
X156259733Y-104826911D01*
X156259736Y-104826915D01*
X156261817Y-104828996D01*
X156304893Y-104883378D01*
X156306760Y-104888199D01*
X156308704Y-104890732D01*
X156323655Y-104931809D01*
X156344852Y-104986526D01*
X156344852Y-105097143D01*
X156323654Y-105151861D01*
X156308705Y-105192934D01*
X156306762Y-105195465D01*
X156304893Y-105200291D01*
X156261817Y-105254674D01*
X155872908Y-105643583D01*
X155818525Y-105686659D01*
X155813701Y-105688527D01*
X155811170Y-105690470D01*
X155770095Y-105705420D01*
X155715377Y-105726618D01*
X155604760Y-105726618D01*
X155550025Y-105705414D01*
X155508968Y-105690470D01*
X155506437Y-105688528D01*
X155501612Y-105686659D01*
X155447230Y-105643583D01*
X154971404Y-105167757D01*
X154812916Y-105009270D01*
X154812912Y-105009265D01*
X154810833Y-105007186D01*
X154767757Y-104952804D01*
X154765889Y-104947982D01*
X154763945Y-104945449D01*
X154748991Y-104904362D01*
X154727798Y-104849656D01*
X154727798Y-104739039D01*
X154748979Y-104684361D01*
X154763944Y-104643247D01*
X154765889Y-104640711D01*
X154767757Y-104635891D01*
X154810833Y-104581508D01*
X155086952Y-104305389D01*
X155197658Y-104194682D01*
X155197662Y-104194678D01*
X155199742Y-104192599D01*
X155254125Y-104149523D01*
X155258944Y-104147656D01*
X155261479Y-104145711D01*
X155302588Y-104130748D01*
X155357273Y-104109564D01*
X155467890Y-104109564D01*
X155522608Y-104130761D01*
G37*
G36*
X147218914Y-104411995D02*
G01*
X147223645Y-104414084D01*
X147226811Y-104414501D01*
X147266442Y-104432981D01*
X147320106Y-104456676D01*
X147398324Y-104534894D01*
X147422028Y-104588579D01*
X147440498Y-104628188D01*
X147440914Y-104631351D01*
X147443005Y-104636086D01*
X147451000Y-104705000D01*
X147451000Y-105255000D01*
X147443005Y-105323914D01*
X147440914Y-105328648D01*
X147440498Y-105331811D01*
X147422036Y-105371402D01*
X147398324Y-105425106D01*
X147320106Y-105503324D01*
X147266402Y-105527036D01*
X147226811Y-105545498D01*
X147223648Y-105545914D01*
X147218914Y-105548005D01*
X147150000Y-105556000D01*
X146250000Y-105556000D01*
X146181086Y-105548005D01*
X146176351Y-105545914D01*
X146173188Y-105545498D01*
X146133579Y-105527028D01*
X146079894Y-105503324D01*
X146001676Y-105425106D01*
X145977981Y-105371442D01*
X145959501Y-105331811D01*
X145959084Y-105328645D01*
X145956995Y-105323914D01*
X145949000Y-105255000D01*
X145949000Y-104705000D01*
X145956995Y-104636086D01*
X145959084Y-104631354D01*
X145959501Y-104628188D01*
X145977989Y-104588538D01*
X146001676Y-104534894D01*
X146079894Y-104456676D01*
X146133538Y-104432989D01*
X146173188Y-104414501D01*
X146176354Y-104414084D01*
X146181086Y-104411995D01*
X146250000Y-104404000D01*
X147150000Y-104404000D01*
X147218914Y-104411995D01*
G37*
G36*
X150818914Y-104411995D02*
G01*
X150823645Y-104414084D01*
X150826811Y-104414501D01*
X150866442Y-104432981D01*
X150920106Y-104456676D01*
X150998324Y-104534894D01*
X151022028Y-104588579D01*
X151040498Y-104628188D01*
X151040914Y-104631351D01*
X151043005Y-104636086D01*
X151051000Y-104705000D01*
X151051000Y-105255000D01*
X151043005Y-105323914D01*
X151040914Y-105328648D01*
X151040498Y-105331811D01*
X151022036Y-105371402D01*
X150998324Y-105425106D01*
X150920106Y-105503324D01*
X150866402Y-105527036D01*
X150826811Y-105545498D01*
X150823648Y-105545914D01*
X150818914Y-105548005D01*
X150750000Y-105556000D01*
X149850000Y-105556000D01*
X149781086Y-105548005D01*
X149776351Y-105545914D01*
X149773188Y-105545498D01*
X149733579Y-105527028D01*
X149679894Y-105503324D01*
X149601676Y-105425106D01*
X149577981Y-105371442D01*
X149559501Y-105331811D01*
X149559084Y-105328645D01*
X149556995Y-105323914D01*
X149549000Y-105255000D01*
X149549000Y-104705000D01*
X149556995Y-104636086D01*
X149559084Y-104631354D01*
X149559501Y-104628188D01*
X149577989Y-104588538D01*
X149601676Y-104534894D01*
X149679894Y-104456676D01*
X149733538Y-104432989D01*
X149773188Y-104414501D01*
X149776354Y-104414084D01*
X149781086Y-104411995D01*
X149850000Y-104404000D01*
X150750000Y-104404000D01*
X150818914Y-104411995D01*
G37*
G36*
X127243914Y-104361995D02*
G01*
X127248645Y-104364084D01*
X127251811Y-104364501D01*
X127291442Y-104382981D01*
X127345106Y-104406676D01*
X127423324Y-104484894D01*
X127447028Y-104538579D01*
X127465498Y-104578188D01*
X127465914Y-104581351D01*
X127468005Y-104586086D01*
X127476000Y-104655000D01*
X127476000Y-105205000D01*
X127468005Y-105273914D01*
X127465914Y-105278648D01*
X127465498Y-105281811D01*
X127447036Y-105321402D01*
X127423324Y-105375106D01*
X127345106Y-105453324D01*
X127291402Y-105477036D01*
X127251811Y-105495498D01*
X127248648Y-105495914D01*
X127243914Y-105498005D01*
X127175000Y-105506000D01*
X126275000Y-105506000D01*
X126206086Y-105498005D01*
X126201351Y-105495914D01*
X126198188Y-105495498D01*
X126158579Y-105477028D01*
X126104894Y-105453324D01*
X126026676Y-105375106D01*
X126002981Y-105321442D01*
X125984501Y-105281811D01*
X125984084Y-105278645D01*
X125981995Y-105273914D01*
X125974000Y-105205000D01*
X125974000Y-104655000D01*
X125981995Y-104586086D01*
X125984084Y-104581354D01*
X125984501Y-104578188D01*
X126002989Y-104538538D01*
X126026676Y-104484894D01*
X126104894Y-104406676D01*
X126158538Y-104382989D01*
X126198188Y-104364501D01*
X126201354Y-104364084D01*
X126206086Y-104361995D01*
X126275000Y-104354000D01*
X127175000Y-104354000D01*
X127243914Y-104361995D01*
G37*
G36*
X130843914Y-104361995D02*
G01*
X130848645Y-104364084D01*
X130851811Y-104364501D01*
X130891442Y-104382981D01*
X130945106Y-104406676D01*
X131023324Y-104484894D01*
X131047028Y-104538579D01*
X131065498Y-104578188D01*
X131065914Y-104581351D01*
X131068005Y-104586086D01*
X131076000Y-104655000D01*
X131076000Y-105205000D01*
X131068005Y-105273914D01*
X131065914Y-105278648D01*
X131065498Y-105281811D01*
X131047036Y-105321402D01*
X131023324Y-105375106D01*
X130945106Y-105453324D01*
X130891402Y-105477036D01*
X130851811Y-105495498D01*
X130848648Y-105495914D01*
X130843914Y-105498005D01*
X130775000Y-105506000D01*
X129875000Y-105506000D01*
X129806086Y-105498005D01*
X129801351Y-105495914D01*
X129798188Y-105495498D01*
X129758579Y-105477028D01*
X129704894Y-105453324D01*
X129626676Y-105375106D01*
X129602981Y-105321442D01*
X129584501Y-105281811D01*
X129584084Y-105278645D01*
X129581995Y-105273914D01*
X129574000Y-105205000D01*
X129574000Y-104655000D01*
X129581995Y-104586086D01*
X129584084Y-104581354D01*
X129584501Y-104578188D01*
X129602989Y-104538538D01*
X129626676Y-104484894D01*
X129704894Y-104406676D01*
X129758538Y-104382989D01*
X129798188Y-104364501D01*
X129801354Y-104364084D01*
X129806086Y-104361995D01*
X129875000Y-104354000D01*
X130775000Y-104354000D01*
X130843914Y-104361995D01*
G37*
M02*
