G04 #@! TF.GenerationSoftware,KiCad,Pcbnew,9.0.2*
G04 #@! TF.CreationDate,2026-01-19T13:25:36-05:00*
G04 #@! TF.ProjectId,RP2040_minimal_r2,52503230-3430-45f6-9d69-6e696d616c5f,REV2*
G04 #@! TF.SameCoordinates,Original*
G04 #@! TF.FileFunction,Soldermask,Bot*
G04 #@! TF.FilePolarity,Negative*
%FSLAX46Y46*%
G04 Gerber Fmt 4.6, Leading zero omitted, Abs format (unit mm)*
G04 Created by KiCad (PCBNEW 9.0.2) date 2026-01-19 13:25:36*
%MOMM*%
%LPD*%
G01*
G04 APERTURE LIST*
G04 APERTURE END LIST*
G36*
X154326414Y-133679495D02*
G01*
X154331145Y-133681584D01*
X154334311Y-133682001D01*
X154373942Y-133700481D01*
X154427606Y-133724176D01*
X154505824Y-133802394D01*
X154529528Y-133856079D01*
X154547998Y-133895688D01*
X154548414Y-133898851D01*
X154550505Y-133903586D01*
X154558500Y-133972500D01*
X154558500Y-135222500D01*
X154550505Y-135291414D01*
X154548414Y-135296148D01*
X154547998Y-135299311D01*
X154529536Y-135338902D01*
X154505824Y-135392606D01*
X154427606Y-135470824D01*
X154373902Y-135494536D01*
X154334311Y-135512998D01*
X154331148Y-135513414D01*
X154326414Y-135515505D01*
X154257500Y-135523500D01*
X153557500Y-135523500D01*
X153488586Y-135515505D01*
X153483851Y-135513414D01*
X153480688Y-135512998D01*
X153441079Y-135494528D01*
X153387394Y-135470824D01*
X153309176Y-135392606D01*
X153285481Y-135338942D01*
X153267001Y-135299311D01*
X153266584Y-135296145D01*
X153264495Y-135291414D01*
X153256500Y-135222500D01*
X153256500Y-133972500D01*
X153264495Y-133903586D01*
X153266584Y-133898854D01*
X153267001Y-133895688D01*
X153285489Y-133856038D01*
X153309176Y-133802394D01*
X153387394Y-133724176D01*
X153441038Y-133700489D01*
X153480688Y-133682001D01*
X153483854Y-133681584D01*
X153488586Y-133679495D01*
X153557500Y-133671500D01*
X154257500Y-133671500D01*
X154326414Y-133679495D01*
G37*
G36*
X156096475Y-133699532D02*
G01*
X156214379Y-133748369D01*
X156320490Y-133819270D01*
X156410730Y-133909510D01*
X156481631Y-134015621D01*
X156530468Y-134133525D01*
X156555365Y-134258691D01*
X156558500Y-134322500D01*
X156558500Y-134872500D01*
X156555365Y-134936309D01*
X156530468Y-135061475D01*
X156481631Y-135179379D01*
X156410730Y-135285490D01*
X156320490Y-135375730D01*
X156214379Y-135446631D01*
X156096475Y-135495468D01*
X155971309Y-135520365D01*
X155843691Y-135520365D01*
X155718525Y-135495468D01*
X155600621Y-135446631D01*
X155494510Y-135375730D01*
X155404270Y-135285490D01*
X155333369Y-135179379D01*
X155284532Y-135061475D01*
X155259635Y-134936309D01*
X155256500Y-134872500D01*
X155256500Y-134322500D01*
X155259635Y-134258691D01*
X155284532Y-134133525D01*
X155333369Y-134015621D01*
X155404270Y-133909510D01*
X155494510Y-133819270D01*
X155600621Y-133748369D01*
X155718525Y-133699532D01*
X155843691Y-133674635D01*
X155971309Y-133674635D01*
X156096475Y-133699532D01*
G37*
G36*
X126119517Y-128352882D02*
G01*
X126136062Y-128363938D01*
X126147118Y-128380483D01*
X126151000Y-128400000D01*
X126151000Y-130100000D01*
X126147118Y-130119517D01*
X126136062Y-130136062D01*
X126119517Y-130147118D01*
X126100000Y-130151000D01*
X124400000Y-130151000D01*
X124380483Y-130147118D01*
X124363938Y-130136062D01*
X124352882Y-130119517D01*
X124349000Y-130100000D01*
X124349000Y-128400000D01*
X124352882Y-128380483D01*
X124363938Y-128363938D01*
X124380483Y-128352882D01*
X124400000Y-128349000D01*
X126100000Y-128349000D01*
X126119517Y-128352882D01*
G37*
G36*
X120431546Y-128387797D02*
G01*
X120594728Y-128455389D01*
X120741588Y-128553518D01*
X120866482Y-128678412D01*
X120964611Y-128825272D01*
X121032203Y-128988454D01*
X121066661Y-129161687D01*
X121066661Y-129338313D01*
X121032203Y-129511546D01*
X120964611Y-129674728D01*
X120866482Y-129821588D01*
X120741588Y-129946482D01*
X120594728Y-130044611D01*
X120431546Y-130112203D01*
X120258313Y-130146661D01*
X120081687Y-130146661D01*
X119908454Y-130112203D01*
X119745272Y-130044611D01*
X119598412Y-129946482D01*
X119473518Y-129821588D01*
X119375389Y-129674728D01*
X119307797Y-129511546D01*
X119273339Y-129338313D01*
X119273339Y-129161687D01*
X119307797Y-128988454D01*
X119375389Y-128825272D01*
X119473518Y-128678412D01*
X119598412Y-128553518D01*
X119745272Y-128455389D01*
X119908454Y-128387797D01*
X120081687Y-128353339D01*
X120258313Y-128353339D01*
X120431546Y-128387797D01*
G37*
G36*
X122971546Y-128387797D02*
G01*
X123134728Y-128455389D01*
X123281588Y-128553518D01*
X123406482Y-128678412D01*
X123504611Y-128825272D01*
X123572203Y-128988454D01*
X123606661Y-129161687D01*
X123606661Y-129338313D01*
X123572203Y-129511546D01*
X123504611Y-129674728D01*
X123406482Y-129821588D01*
X123281588Y-129946482D01*
X123134728Y-130044611D01*
X122971546Y-130112203D01*
X122798313Y-130146661D01*
X122621687Y-130146661D01*
X122448454Y-130112203D01*
X122285272Y-130044611D01*
X122138412Y-129946482D01*
X122013518Y-129821588D01*
X121915389Y-129674728D01*
X121847797Y-129511546D01*
X121813339Y-129338313D01*
X121813339Y-129161687D01*
X121847797Y-128988454D01*
X121915389Y-128825272D01*
X122013518Y-128678412D01*
X122138412Y-128553518D01*
X122285272Y-128455389D01*
X122448454Y-128387797D01*
X122621687Y-128353339D01*
X122798313Y-128353339D01*
X122971546Y-128387797D01*
G37*
G36*
X158426160Y-123247496D02*
G01*
X158565747Y-123275261D01*
X158697234Y-123329725D01*
X158815570Y-123408794D01*
X158916206Y-123509430D01*
X158995275Y-123627766D01*
X159049739Y-123759253D01*
X159077504Y-123898840D01*
X159077504Y-124041160D01*
X159049739Y-124180747D01*
X158995275Y-124312234D01*
X158916206Y-124430570D01*
X158815570Y-124531206D01*
X158697234Y-124610275D01*
X158565747Y-124664739D01*
X158426160Y-124692504D01*
X158355000Y-124696000D01*
X158353891Y-124696000D01*
X158006109Y-124696000D01*
X158005000Y-124696000D01*
X157933840Y-124692504D01*
X157794253Y-124664739D01*
X157662766Y-124610275D01*
X157544430Y-124531206D01*
X157443794Y-124430570D01*
X157364725Y-124312234D01*
X157310261Y-124180747D01*
X157282496Y-124041160D01*
X157282496Y-123898840D01*
X157310261Y-123759253D01*
X157364725Y-123627766D01*
X157443794Y-123509430D01*
X157544430Y-123408794D01*
X157662766Y-123329725D01*
X157794253Y-123275261D01*
X157933840Y-123247496D01*
X158005000Y-123244000D01*
X158355000Y-123244000D01*
X158426160Y-123247496D01*
G37*
G36*
X155383317Y-123059217D02*
G01*
X155437799Y-123061894D01*
X155444507Y-123063228D01*
X155458446Y-123064142D01*
X155485372Y-123071356D01*
X155554395Y-123085086D01*
X155586971Y-123098579D01*
X155609993Y-123104748D01*
X155630633Y-123116664D01*
X155663209Y-123130158D01*
X155721720Y-123169254D01*
X155745866Y-123183195D01*
X155752475Y-123189804D01*
X155761131Y-123195588D01*
X155844411Y-123278868D01*
X155850194Y-123287523D01*
X155856805Y-123294134D01*
X155870747Y-123318283D01*
X155909841Y-123376790D01*
X155923333Y-123409363D01*
X155935252Y-123430007D01*
X155941421Y-123453032D01*
X155954913Y-123485604D01*
X155968641Y-123554620D01*
X155975858Y-123581554D01*
X155975858Y-123590900D01*
X155977889Y-123601111D01*
X155977889Y-123718888D01*
X155975858Y-123729098D01*
X155975858Y-123738446D01*
X155968640Y-123765382D01*
X155954913Y-123834395D01*
X155941422Y-123866964D01*
X155935252Y-123889993D01*
X155923331Y-123910639D01*
X155909841Y-123943209D01*
X155870752Y-124001709D01*
X155856805Y-124025866D01*
X155850192Y-124032478D01*
X155844411Y-124041131D01*
X155761131Y-124124411D01*
X155752478Y-124130192D01*
X155745866Y-124136805D01*
X155721709Y-124150752D01*
X155663209Y-124189841D01*
X155630639Y-124203331D01*
X155609993Y-124215252D01*
X155586964Y-124221422D01*
X155554395Y-124234913D01*
X155485387Y-124248639D01*
X155458446Y-124255858D01*
X155444499Y-124256772D01*
X155437799Y-124258105D01*
X155383322Y-124260782D01*
X155380000Y-124261000D01*
X155378891Y-124261000D01*
X154981109Y-124261000D01*
X154980000Y-124261000D01*
X154976677Y-124260782D01*
X154922200Y-124258105D01*
X154915498Y-124256772D01*
X154901554Y-124255858D01*
X154874615Y-124248640D01*
X154805604Y-124234913D01*
X154773032Y-124221421D01*
X154750007Y-124215252D01*
X154729363Y-124203333D01*
X154696790Y-124189841D01*
X154638283Y-124150747D01*
X154614134Y-124136805D01*
X154607523Y-124130194D01*
X154598868Y-124124411D01*
X154515588Y-124041131D01*
X154509804Y-124032475D01*
X154503195Y-124025866D01*
X154489254Y-124001720D01*
X154450158Y-123943209D01*
X154436664Y-123910633D01*
X154424748Y-123889993D01*
X154418579Y-123866971D01*
X154405086Y-123834395D01*
X154391357Y-123765376D01*
X154384142Y-123738446D01*
X154384142Y-123729098D01*
X154382111Y-123718888D01*
X154382111Y-123601111D01*
X154384142Y-123590900D01*
X154384142Y-123581554D01*
X154391357Y-123554626D01*
X154405086Y-123485604D01*
X154418580Y-123453025D01*
X154424748Y-123430007D01*
X154436663Y-123409369D01*
X154450158Y-123376790D01*
X154489258Y-123318272D01*
X154503195Y-123294134D01*
X154509802Y-123287526D01*
X154515588Y-123278868D01*
X154598868Y-123195588D01*
X154607526Y-123189802D01*
X154614134Y-123183195D01*
X154638272Y-123169258D01*
X154696790Y-123130158D01*
X154729369Y-123116663D01*
X154750007Y-123104748D01*
X154773025Y-123098580D01*
X154805604Y-123085086D01*
X154874630Y-123071356D01*
X154901554Y-123064142D01*
X154915491Y-123063228D01*
X154922200Y-123061894D01*
X154976682Y-123059217D01*
X154980000Y-123059000D01*
X155380000Y-123059000D01*
X155383317Y-123059217D01*
G37*
G36*
X155383317Y-118219217D02*
G01*
X155437799Y-118221894D01*
X155444507Y-118223228D01*
X155458446Y-118224142D01*
X155485372Y-118231356D01*
X155554395Y-118245086D01*
X155586971Y-118258579D01*
X155609993Y-118264748D01*
X155630633Y-118276664D01*
X155663209Y-118290158D01*
X155721720Y-118329254D01*
X155745866Y-118343195D01*
X155752475Y-118349804D01*
X155761131Y-118355588D01*
X155844411Y-118438868D01*
X155850194Y-118447523D01*
X155856805Y-118454134D01*
X155870747Y-118478283D01*
X155909841Y-118536790D01*
X155923333Y-118569363D01*
X155935252Y-118590007D01*
X155941421Y-118613032D01*
X155954913Y-118645604D01*
X155968641Y-118714620D01*
X155975858Y-118741554D01*
X155975858Y-118750900D01*
X155977889Y-118761111D01*
X155977889Y-118878888D01*
X155975858Y-118889098D01*
X155975858Y-118898446D01*
X155968640Y-118925382D01*
X155954913Y-118994395D01*
X155941422Y-119026964D01*
X155935252Y-119049993D01*
X155923331Y-119070639D01*
X155909841Y-119103209D01*
X155870752Y-119161709D01*
X155856805Y-119185866D01*
X155850192Y-119192478D01*
X155844411Y-119201131D01*
X155761131Y-119284411D01*
X155752478Y-119290192D01*
X155745866Y-119296805D01*
X155721709Y-119310752D01*
X155663209Y-119349841D01*
X155630639Y-119363331D01*
X155609993Y-119375252D01*
X155586964Y-119381422D01*
X155554395Y-119394913D01*
X155485387Y-119408639D01*
X155458446Y-119415858D01*
X155444499Y-119416772D01*
X155437799Y-119418105D01*
X155383322Y-119420782D01*
X155380000Y-119421000D01*
X155378891Y-119421000D01*
X154981109Y-119421000D01*
X154980000Y-119421000D01*
X154976677Y-119420782D01*
X154922200Y-119418105D01*
X154915498Y-119416772D01*
X154901554Y-119415858D01*
X154874615Y-119408640D01*
X154805604Y-119394913D01*
X154773032Y-119381421D01*
X154750007Y-119375252D01*
X154729363Y-119363333D01*
X154696790Y-119349841D01*
X154638283Y-119310747D01*
X154614134Y-119296805D01*
X154607523Y-119290194D01*
X154598868Y-119284411D01*
X154515588Y-119201131D01*
X154509804Y-119192475D01*
X154503195Y-119185866D01*
X154489254Y-119161720D01*
X154450158Y-119103209D01*
X154436664Y-119070633D01*
X154424748Y-119049993D01*
X154418579Y-119026971D01*
X154405086Y-118994395D01*
X154391357Y-118925376D01*
X154384142Y-118898446D01*
X154384142Y-118889098D01*
X154382111Y-118878888D01*
X154382111Y-118761111D01*
X154384142Y-118750900D01*
X154384142Y-118741554D01*
X154391357Y-118714626D01*
X154405086Y-118645604D01*
X154418580Y-118613025D01*
X154424748Y-118590007D01*
X154436663Y-118569369D01*
X154450158Y-118536790D01*
X154489258Y-118478272D01*
X154503195Y-118454134D01*
X154509802Y-118447526D01*
X154515588Y-118438868D01*
X154598868Y-118355588D01*
X154607526Y-118349802D01*
X154614134Y-118343195D01*
X154638272Y-118329258D01*
X154696790Y-118290158D01*
X154729369Y-118276663D01*
X154750007Y-118264748D01*
X154773025Y-118258580D01*
X154805604Y-118245086D01*
X154874630Y-118231356D01*
X154901554Y-118224142D01*
X154915491Y-118223228D01*
X154922200Y-118221894D01*
X154976682Y-118219217D01*
X154980000Y-118219000D01*
X155380000Y-118219000D01*
X155383317Y-118219217D01*
G37*
G36*
X158426160Y-117787496D02*
G01*
X158565747Y-117815261D01*
X158697234Y-117869725D01*
X158815570Y-117948794D01*
X158916206Y-118049430D01*
X158995275Y-118167766D01*
X159049739Y-118299253D01*
X159077504Y-118438840D01*
X159077504Y-118581160D01*
X159049739Y-118720747D01*
X158995275Y-118852234D01*
X158916206Y-118970570D01*
X158815570Y-119071206D01*
X158697234Y-119150275D01*
X158565747Y-119204739D01*
X158426160Y-119232504D01*
X158355000Y-119236000D01*
X158353891Y-119236000D01*
X158006109Y-119236000D01*
X158005000Y-119236000D01*
X157933840Y-119232504D01*
X157794253Y-119204739D01*
X157662766Y-119150275D01*
X157544430Y-119071206D01*
X157443794Y-118970570D01*
X157364725Y-118852234D01*
X157310261Y-118720747D01*
X157282496Y-118581160D01*
X157282496Y-118438840D01*
X157310261Y-118299253D01*
X157364725Y-118167766D01*
X157443794Y-118049430D01*
X157544430Y-117948794D01*
X157662766Y-117869725D01*
X157794253Y-117815261D01*
X157933840Y-117787496D01*
X158005000Y-117784000D01*
X158355000Y-117784000D01*
X158426160Y-117787496D01*
G37*
G36*
X123480621Y-105986488D02*
G01*
X123727128Y-106052539D01*
X123962905Y-106150201D01*
X124183918Y-106277803D01*
X124386384Y-106433161D01*
X124566839Y-106613616D01*
X124722197Y-106816082D01*
X124849799Y-107037095D01*
X124947461Y-107272872D01*
X125013512Y-107519379D01*
X125046823Y-107772398D01*
X125046823Y-108027602D01*
X125013512Y-108280621D01*
X124947461Y-108527128D01*
X124849799Y-108762905D01*
X124722197Y-108983918D01*
X124566839Y-109186384D01*
X124386384Y-109366839D01*
X124183918Y-109522197D01*
X123962905Y-109649799D01*
X123727128Y-109747461D01*
X123480621Y-109813512D01*
X123227602Y-109846823D01*
X122972398Y-109846823D01*
X122719379Y-109813512D01*
X122472872Y-109747461D01*
X122237095Y-109649799D01*
X122016082Y-109522197D01*
X121813616Y-109366839D01*
X121633161Y-109186384D01*
X121477803Y-108983918D01*
X121350201Y-108762905D01*
X121252539Y-108527128D01*
X121186488Y-108280621D01*
X121153177Y-108027602D01*
X121153177Y-107772398D01*
X121186488Y-107519379D01*
X121252539Y-107272872D01*
X121350201Y-107037095D01*
X121477803Y-106816082D01*
X121633161Y-106613616D01*
X121813616Y-106433161D01*
X122016082Y-106277803D01*
X122237095Y-106150201D01*
X122472872Y-106052539D01*
X122719379Y-105986488D01*
X122972398Y-105953177D01*
X123227602Y-105953177D01*
X123480621Y-105986488D01*
G37*
G36*
X136059517Y-104202882D02*
G01*
X136076062Y-104213938D01*
X136087118Y-104230483D01*
X136091000Y-104250000D01*
X136091000Y-105950000D01*
X136087118Y-105969517D01*
X136076062Y-105986062D01*
X136059517Y-105997118D01*
X136040000Y-106001000D01*
X134340000Y-106001000D01*
X134320483Y-105997118D01*
X134303938Y-105986062D01*
X134292882Y-105969517D01*
X134289000Y-105950000D01*
X134289000Y-104250000D01*
X134292882Y-104230483D01*
X134303938Y-104213938D01*
X134320483Y-104202882D01*
X134340000Y-104199000D01*
X136040000Y-104199000D01*
X136059517Y-104202882D01*
G37*
G36*
X137991546Y-104237797D02*
G01*
X138154728Y-104305389D01*
X138301588Y-104403518D01*
X138426482Y-104528412D01*
X138524611Y-104675272D01*
X138592203Y-104838454D01*
X138626661Y-105011687D01*
X138626661Y-105188313D01*
X138592203Y-105361546D01*
X138524611Y-105524728D01*
X138426482Y-105671588D01*
X138301588Y-105796482D01*
X138154728Y-105894611D01*
X137991546Y-105962203D01*
X137818313Y-105996661D01*
X137641687Y-105996661D01*
X137468454Y-105962203D01*
X137305272Y-105894611D01*
X137158412Y-105796482D01*
X137033518Y-105671588D01*
X136935389Y-105524728D01*
X136867797Y-105361546D01*
X136833339Y-105188313D01*
X136833339Y-105011687D01*
X136867797Y-104838454D01*
X136935389Y-104675272D01*
X137033518Y-104528412D01*
X137158412Y-104403518D01*
X137305272Y-104305389D01*
X137468454Y-104237797D01*
X137641687Y-104203339D01*
X137818313Y-104203339D01*
X137991546Y-104237797D01*
G37*
G36*
X140531546Y-104237797D02*
G01*
X140694728Y-104305389D01*
X140841588Y-104403518D01*
X140966482Y-104528412D01*
X141064611Y-104675272D01*
X141132203Y-104838454D01*
X141166661Y-105011687D01*
X141166661Y-105188313D01*
X141132203Y-105361546D01*
X141064611Y-105524728D01*
X140966482Y-105671588D01*
X140841588Y-105796482D01*
X140694728Y-105894611D01*
X140531546Y-105962203D01*
X140358313Y-105996661D01*
X140181687Y-105996661D01*
X140008454Y-105962203D01*
X139845272Y-105894611D01*
X139698412Y-105796482D01*
X139573518Y-105671588D01*
X139475389Y-105524728D01*
X139407797Y-105361546D01*
X139373339Y-105188313D01*
X139373339Y-105011687D01*
X139407797Y-104838454D01*
X139475389Y-104675272D01*
X139573518Y-104528412D01*
X139698412Y-104403518D01*
X139845272Y-104305389D01*
X140008454Y-104237797D01*
X140181687Y-104203339D01*
X140358313Y-104203339D01*
X140531546Y-104237797D01*
G37*
G36*
X143071546Y-104237797D02*
G01*
X143234728Y-104305389D01*
X143381588Y-104403518D01*
X143506482Y-104528412D01*
X143604611Y-104675272D01*
X143672203Y-104838454D01*
X143706661Y-105011687D01*
X143706661Y-105188313D01*
X143672203Y-105361546D01*
X143604611Y-105524728D01*
X143506482Y-105671588D01*
X143381588Y-105796482D01*
X143234728Y-105894611D01*
X143071546Y-105962203D01*
X142898313Y-105996661D01*
X142721687Y-105996661D01*
X142548454Y-105962203D01*
X142385272Y-105894611D01*
X142238412Y-105796482D01*
X142113518Y-105671588D01*
X142015389Y-105524728D01*
X141947797Y-105361546D01*
X141913339Y-105188313D01*
X141913339Y-105011687D01*
X141947797Y-104838454D01*
X142015389Y-104675272D01*
X142113518Y-104528412D01*
X142238412Y-104403518D01*
X142385272Y-104305389D01*
X142548454Y-104237797D01*
X142721687Y-104203339D01*
X142898313Y-104203339D01*
X143071546Y-104237797D01*
G37*
M02*
