G04 #@! TF.GenerationSoftware,KiCad,Pcbnew,9.0.2*
G04 #@! TF.CreationDate,2026-01-19T13:25:36-05:00*
G04 #@! TF.ProjectId,RP2040_minimal_r2,52503230-3430-45f6-9d69-6e696d616c5f,REV2*
G04 #@! TF.SameCoordinates,Original*
G04 #@! TF.FileFunction,Copper,L2,Bot*
G04 #@! TF.FilePolarity,Positive*
%FSLAX46Y46*%
G04 Gerber Fmt 4.6, Leading zero omitted, Abs format (unit mm)*
G04 Created by KiCad (PCBNEW 9.0.2) date 2026-01-19 13:25:36*
%MOMM*%
%LPD*%
G01*
G04 APERTURE LIST*
G04 Aperture macros list*
%AMRoundRect*
0 Rectangle with rounded corners*
0 $1 Rounding radius*
0 $2 $3 $4 $5 $6 $7 $8 $9 X,Y pos of 4 corners*
0 Add a 4 corners polygon primitive as box body*
4,1,4,$2,$3,$4,$5,$6,$7,$8,$9,$2,$3,0*
0 Add four circle primitives for the rounded corners*
1,1,$1+$1,$2,$3*
1,1,$1+$1,$4,$5*
1,1,$1+$1,$6,$7*
1,1,$1+$1,$8,$9*
0 Add four rect primitives between the rounded corners*
20,1,$1+$1,$2,$3,$4,$5,0*
20,1,$1+$1,$4,$5,$6,$7,0*
20,1,$1+$1,$6,$7,$8,$9,0*
20,1,$1+$1,$8,$9,$2,$3,0*%
G04 Aperture macros list end*
G04 #@! TA.AperFunction,ComponentPad*
%ADD10C,3.800000*%
G04 #@! TD*
G04 #@! TA.AperFunction,ComponentPad*
%ADD11C,0.600000*%
G04 #@! TD*
G04 #@! TA.AperFunction,ComponentPad*
%ADD12R,1.700000X1.700000*%
G04 #@! TD*
G04 #@! TA.AperFunction,ComponentPad*
%ADD13C,1.700000*%
G04 #@! TD*
G04 #@! TA.AperFunction,HeatsinkPad*
%ADD14O,1.700000X1.350000*%
G04 #@! TD*
G04 #@! TA.AperFunction,HeatsinkPad*
%ADD15O,1.500000X1.100000*%
G04 #@! TD*
G04 #@! TA.AperFunction,ComponentPad*
%ADD16RoundRect,0.250000X-0.350000X-0.625000X0.350000X-0.625000X0.350000X0.625000X-0.350000X0.625000X0*%
G04 #@! TD*
G04 #@! TA.AperFunction,ComponentPad*
%ADD17O,1.200000X1.750000*%
G04 #@! TD*
G04 #@! TA.AperFunction,ViaPad*
%ADD18C,0.600000*%
G04 #@! TD*
G04 #@! TA.AperFunction,Conductor*
%ADD19C,0.200000*%
G04 #@! TD*
G04 #@! TA.AperFunction,Conductor*
%ADD20C,0.400000*%
G04 #@! TD*
G04 APERTURE END LIST*
D10*
X123100000Y-107900000D03*
D11*
X146522500Y-119070000D03*
X145247500Y-119070000D03*
X143972500Y-119070000D03*
X146522500Y-120345000D03*
X145247500Y-120345000D03*
X143972500Y-120345000D03*
X146522500Y-121620000D03*
X145247500Y-121620000D03*
X143972500Y-121620000D03*
D12*
X125250000Y-129250000D03*
D13*
X122710000Y-129250000D03*
X120170000Y-129250000D03*
D12*
X135190000Y-105100000D03*
D13*
X137730000Y-105100000D03*
X140270000Y-105100000D03*
X142810000Y-105100000D03*
D14*
X158180000Y-123970000D03*
D15*
X155180000Y-123660000D03*
X155180000Y-118820000D03*
D14*
X158180000Y-118510000D03*
D16*
X153907500Y-134597500D03*
D17*
X155907500Y-134597500D03*
D18*
X153500000Y-104800000D03*
X155500000Y-108800000D03*
X157500000Y-138000000D03*
X153400000Y-143000000D03*
X124850000Y-105700000D03*
X143147500Y-120800000D03*
X159100000Y-127550000D03*
X158750000Y-139050000D03*
X146500000Y-115250000D03*
X147230106Y-115751319D03*
X155850000Y-106850000D03*
X146750000Y-114450000D03*
X131200000Y-107400000D03*
X125700000Y-107250000D03*
X149200000Y-125900000D03*
X147251000Y-125200000D03*
X131750000Y-130700000D03*
X130700000Y-115600000D03*
X133500000Y-117650000D03*
X144750000Y-127000000D03*
X146600000Y-131100000D03*
X150350000Y-126150000D03*
X146050000Y-125400000D03*
X146000000Y-127300000D03*
X134300000Y-110800000D03*
X132650000Y-117100000D03*
X132650003Y-112700000D03*
X133273623Y-110674907D03*
X132400000Y-110700000D03*
X131850000Y-112700000D03*
X128450000Y-108550000D03*
X139843683Y-121145000D03*
X140872500Y-118993925D03*
X136300000Y-122000000D03*
X151331375Y-119603937D03*
X147550000Y-121750000D03*
X137100000Y-121050000D03*
X137110000Y-120050000D03*
X142550000Y-124800000D03*
X125350000Y-135345000D03*
X141850000Y-124000000D03*
X121350000Y-135145000D03*
X136450000Y-128300000D03*
X135850000Y-107400000D03*
X151100000Y-107200000D03*
X146000000Y-107250000D03*
X151600000Y-127850000D03*
X145650000Y-128850000D03*
X153900000Y-130750000D03*
X120050000Y-112950000D03*
X130900000Y-112600000D03*
X136050000Y-115800000D03*
X133950000Y-124100000D03*
X119700000Y-126850000D03*
X131900000Y-140800000D03*
X131950000Y-142950000D03*
X144800000Y-142900000D03*
X144800000Y-141800000D03*
X144850000Y-138800000D03*
X144850000Y-137800000D03*
X144850000Y-135800000D03*
X144850000Y-134800000D03*
X141450000Y-129450000D03*
X131800000Y-133800000D03*
X131800000Y-134800000D03*
X131950000Y-141800000D03*
X131900000Y-139850000D03*
X145850000Y-141600000D03*
X152300000Y-123200000D03*
X152300000Y-124150000D03*
X152400000Y-125100000D03*
X151450000Y-126150000D03*
X159100000Y-111300000D03*
X156307500Y-130707500D03*
X147207500Y-139197500D03*
X148300000Y-143550000D03*
X153985000Y-119162500D03*
X138700000Y-113800000D03*
X156707500Y-122107500D03*
X153985000Y-118162500D03*
X119100000Y-143345000D03*
X123400000Y-135345000D03*
X138800000Y-115700000D03*
X156607500Y-119907500D03*
X156807500Y-120607500D03*
X138600000Y-117750000D03*
X153985000Y-120162500D03*
X130800000Y-140700000D03*
X129300000Y-140700000D03*
X127300000Y-143145000D03*
X138800000Y-118350000D03*
X149600000Y-116100000D03*
X155307500Y-127607500D03*
X155707500Y-131707500D03*
X138800000Y-123350000D03*
D19*
X126650000Y-133450000D02*
X123045000Y-133450000D01*
X133100000Y-127000000D02*
X126650000Y-133450000D01*
X138850000Y-127000000D02*
X133100000Y-127000000D01*
X123045000Y-133450000D02*
X121350000Y-135145000D01*
X141850000Y-124000000D02*
X138850000Y-127000000D01*
X141617100Y-124800000D02*
X142550000Y-124800000D01*
X139016100Y-127401000D02*
X141617100Y-124800000D01*
X133266100Y-127401000D02*
X139016100Y-127401000D01*
X125350000Y-135317100D02*
X133266100Y-127401000D01*
X125350000Y-135345000D02*
X125350000Y-135317100D01*
X143147500Y-120802500D02*
X143147500Y-120800000D01*
X143050000Y-120900000D02*
X143147500Y-120802500D01*
X158750000Y-135050000D02*
X158750000Y-139050000D01*
X157450000Y-133750000D02*
X158750000Y-135050000D01*
X156550000Y-132850000D02*
X157450000Y-133750000D01*
X155300000Y-132850000D02*
X156550000Y-132850000D01*
X154706500Y-126556557D02*
X154706500Y-132256500D01*
X152901000Y-124751057D02*
X154706500Y-126556557D01*
X152901000Y-120451000D02*
X152901000Y-124751057D01*
X152700000Y-120250000D02*
X152901000Y-120451000D01*
X152700000Y-120122619D02*
X152700000Y-120250000D01*
X151427381Y-118850000D02*
X152700000Y-120122619D01*
X149478844Y-118850000D02*
X150300000Y-118850000D01*
X146500000Y-115871156D02*
X149478844Y-118850000D01*
X146500000Y-115250000D02*
X146500000Y-115871156D01*
X154706500Y-132256500D02*
X155300000Y-132850000D01*
X150300000Y-118850000D02*
X151427381Y-118850000D01*
X147230106Y-115469894D02*
X147230106Y-115751319D01*
X155850000Y-106850000D02*
X147230106Y-115469894D01*
X147150000Y-125301000D02*
X147251000Y-125200000D01*
X147150000Y-126999943D02*
X147150000Y-126450000D01*
X146248943Y-127901000D02*
X147150000Y-126999943D01*
X139350057Y-130700000D02*
X142149057Y-127901000D01*
X131750000Y-130700000D02*
X139350057Y-130700000D01*
X142149057Y-127901000D02*
X146248943Y-127901000D01*
X147150000Y-126450000D02*
X147150000Y-125301000D01*
D20*
X130700000Y-116141364D02*
X130700000Y-115600000D01*
X132359636Y-117801000D02*
X130700000Y-116141364D01*
X133349000Y-117801000D02*
X132359636Y-117801000D01*
X133500000Y-117650000D02*
X133349000Y-117801000D01*
D19*
X150350000Y-126150000D02*
X150350000Y-127350000D01*
X150350000Y-127350000D02*
X146600000Y-131100000D01*
X146000000Y-125450000D02*
X146050000Y-125400000D01*
X146000000Y-127300000D02*
X146000000Y-125450000D01*
X133450000Y-111650000D02*
X134300000Y-110800000D01*
X133450000Y-116300000D02*
X133450000Y-114800000D01*
X133450000Y-114800000D02*
X133450000Y-111650000D01*
X132650000Y-117100000D02*
X133450000Y-116300000D01*
X132650003Y-111298527D02*
X132650003Y-112700000D01*
X133273623Y-110674907D02*
X132650003Y-111298527D01*
X131850000Y-112700000D02*
X131850000Y-111250000D01*
X131850000Y-111250000D02*
X132400000Y-110700000D01*
X128450000Y-115950000D02*
X128450000Y-108550000D01*
X135850000Y-123350000D02*
X128450000Y-115950000D01*
X142805000Y-121145000D02*
X143050000Y-120900000D01*
X139843683Y-121145000D02*
X142805000Y-121145000D01*
X138800000Y-123350000D02*
X135850000Y-123350000D01*
X147550000Y-121750000D02*
X149696063Y-119603937D01*
X149696063Y-119603937D02*
X151331375Y-119603937D01*
X143048137Y-120898137D02*
X143050000Y-120900000D01*
X125350000Y-135345000D02*
X125367100Y-135345000D01*
X121350000Y-135095000D02*
X121350000Y-135145000D01*
X155307500Y-127607500D02*
X155121415Y-127793585D01*
X155121415Y-127793585D02*
X155121415Y-131121415D01*
X155121415Y-131121415D02*
X155707500Y-131707500D01*
G04 #@! TA.AperFunction,Conductor*
G36*
X154158011Y-103299794D02*
G01*
X154202406Y-103298960D01*
X154203522Y-103298961D01*
X154209933Y-103299128D01*
X154415580Y-103309839D01*
X154432958Y-103311983D01*
X154630689Y-103350738D01*
X154647609Y-103355318D01*
X154837880Y-103421570D01*
X154853976Y-103428486D01*
X155003797Y-103505835D01*
X155033004Y-103520914D01*
X155047975Y-103530038D01*
X155069222Y-103545145D01*
X155212175Y-103646790D01*
X155225705Y-103657931D01*
X155369070Y-103794088D01*
X155371392Y-103796352D01*
X155380747Y-103805714D01*
X155384568Y-103809712D01*
X155410284Y-103837852D01*
X155417539Y-103843639D01*
X155427929Y-103852927D01*
X156780345Y-105206286D01*
X158932851Y-107360292D01*
X159157454Y-107585051D01*
X159160886Y-107591097D01*
X159190953Y-107618573D01*
X159192939Y-107620560D01*
X159192940Y-107620562D01*
X159192945Y-107620567D01*
X159203919Y-107631550D01*
X159205981Y-107633663D01*
X159337677Y-107771898D01*
X159348618Y-107785101D01*
X159463397Y-107944934D01*
X159472412Y-107959520D01*
X159564047Y-108133663D01*
X159570963Y-108149353D01*
X159637696Y-108334464D01*
X159642382Y-108350958D01*
X159682941Y-108543509D01*
X159685307Y-108560492D01*
X159699203Y-108760941D01*
X159699500Y-108769517D01*
X159699500Y-138627097D01*
X159679815Y-138694136D01*
X159627011Y-138739891D01*
X159557853Y-138749835D01*
X159494297Y-138720810D01*
X159471242Y-138694226D01*
X159465204Y-138684849D01*
X159459394Y-138670821D01*
X159371789Y-138539711D01*
X159371690Y-138539612D01*
X159370242Y-138537363D01*
X159360652Y-138504806D01*
X159350520Y-138472447D01*
X159350500Y-138470343D01*
X159350500Y-135139060D01*
X159350501Y-135139047D01*
X159350501Y-134970944D01*
X159349130Y-134965827D01*
X159309577Y-134818216D01*
X159309573Y-134818209D01*
X159230524Y-134681290D01*
X159230518Y-134681282D01*
X157818716Y-133269481D01*
X157037590Y-132488355D01*
X157037588Y-132488352D01*
X156918717Y-132369481D01*
X156918712Y-132369477D01*
X156812229Y-132308000D01*
X156812227Y-132307999D01*
X156781787Y-132290424D01*
X156781786Y-132290423D01*
X156781785Y-132290423D01*
X156629057Y-132249499D01*
X156535031Y-132249499D01*
X156467992Y-132229814D01*
X156422237Y-132177010D01*
X156412293Y-132107852D01*
X156420470Y-132078047D01*
X156477235Y-131941001D01*
X156477237Y-131940997D01*
X156508000Y-131786342D01*
X156508000Y-131628658D01*
X156508000Y-131628655D01*
X156507999Y-131628653D01*
X156504346Y-131610288D01*
X156477237Y-131474003D01*
X156450477Y-131409397D01*
X156416897Y-131328327D01*
X156416890Y-131328314D01*
X156329289Y-131197211D01*
X156329286Y-131197207D01*
X156217792Y-131085713D01*
X156217788Y-131085710D01*
X156086685Y-130998109D01*
X156086672Y-130998102D01*
X155941001Y-130937764D01*
X155940991Y-130937761D01*
X155821723Y-130914037D01*
X155759812Y-130881652D01*
X155725238Y-130820936D01*
X155721915Y-130792420D01*
X155721915Y-128359629D01*
X155741600Y-128292590D01*
X155777023Y-128256527D01*
X155817789Y-128229289D01*
X155929289Y-128117789D01*
X156016894Y-127986679D01*
X156077237Y-127840997D01*
X156108000Y-127686342D01*
X156108000Y-127528658D01*
X156108000Y-127528655D01*
X156107999Y-127528653D01*
X156100443Y-127490667D01*
X156077237Y-127374003D01*
X156075024Y-127368660D01*
X156016897Y-127228327D01*
X156016890Y-127228314D01*
X155929289Y-127097211D01*
X155929286Y-127097207D01*
X155817792Y-126985713D01*
X155817788Y-126985710D01*
X155686685Y-126898109D01*
X155686672Y-126898102D01*
X155541001Y-126837764D01*
X155540991Y-126837761D01*
X155406808Y-126811070D01*
X155378677Y-126796355D01*
X155349797Y-126783166D01*
X155347940Y-126780276D01*
X155344897Y-126778685D01*
X155329184Y-126751092D01*
X155312023Y-126724388D01*
X155311362Y-126719794D01*
X155310323Y-126717969D01*
X155307000Y-126689453D01*
X155307000Y-126645617D01*
X155307001Y-126645604D01*
X155307001Y-126477501D01*
X155297066Y-126440423D01*
X155266077Y-126324773D01*
X155210692Y-126228842D01*
X155187024Y-126187847D01*
X155187018Y-126187839D01*
X153537819Y-124538640D01*
X153504334Y-124477317D01*
X153501500Y-124450959D01*
X153501500Y-120540059D01*
X153501501Y-120540046D01*
X153501501Y-120371945D01*
X153501501Y-120371943D01*
X153460577Y-120219215D01*
X153420881Y-120150460D01*
X153381520Y-120082284D01*
X153303428Y-120004192D01*
X153298964Y-119998552D01*
X153291142Y-119979190D01*
X153276419Y-119953689D01*
X153259577Y-119890834D01*
X153227757Y-119835721D01*
X153227757Y-119835720D01*
X153180522Y-119753906D01*
X153180521Y-119753905D01*
X153180520Y-119753903D01*
X153068716Y-119642099D01*
X153068715Y-119642098D01*
X153064385Y-119637768D01*
X153064374Y-119637758D01*
X151914971Y-118488355D01*
X151914969Y-118488352D01*
X151796098Y-118369481D01*
X151796097Y-118369480D01*
X151709285Y-118319360D01*
X151709285Y-118319359D01*
X151709281Y-118319358D01*
X151659166Y-118290423D01*
X151506438Y-118249499D01*
X151348324Y-118249499D01*
X151340728Y-118249499D01*
X151340712Y-118249500D01*
X149778942Y-118249500D01*
X149711903Y-118229815D01*
X149691261Y-118213181D01*
X147878909Y-116400829D01*
X147845424Y-116339506D01*
X147850408Y-116269814D01*
X147863483Y-116244263D01*
X147939500Y-116130498D01*
X147999843Y-115984816D01*
X148030606Y-115830161D01*
X148030606Y-115672477D01*
X148030606Y-115672474D01*
X148018011Y-115609159D01*
X148024238Y-115539568D01*
X148051945Y-115497288D01*
X155864662Y-107684572D01*
X155925983Y-107651089D01*
X155928150Y-107650638D01*
X155986085Y-107639113D01*
X156083497Y-107619737D01*
X156229179Y-107559394D01*
X156360289Y-107471789D01*
X156471789Y-107360289D01*
X156559394Y-107229179D01*
X156619737Y-107083497D01*
X156650500Y-106928842D01*
X156650500Y-106771158D01*
X156650500Y-106771155D01*
X156650499Y-106771153D01*
X156619738Y-106616510D01*
X156619738Y-106616508D01*
X156619737Y-106616503D01*
X156619735Y-106616498D01*
X156559397Y-106470827D01*
X156559390Y-106470814D01*
X156471789Y-106339711D01*
X156471786Y-106339707D01*
X156360292Y-106228213D01*
X156360288Y-106228210D01*
X156229185Y-106140609D01*
X156229172Y-106140602D01*
X156083501Y-106080264D01*
X156083489Y-106080261D01*
X155928845Y-106049500D01*
X155928842Y-106049500D01*
X155771158Y-106049500D01*
X155771155Y-106049500D01*
X155616510Y-106080261D01*
X155616498Y-106080264D01*
X155470827Y-106140602D01*
X155470814Y-106140609D01*
X155339711Y-106228210D01*
X155339707Y-106228213D01*
X155228213Y-106339707D01*
X155228210Y-106339711D01*
X155140609Y-106470814D01*
X155140602Y-106470827D01*
X155080264Y-106616498D01*
X155080261Y-106616508D01*
X155049361Y-106771850D01*
X155016976Y-106833761D01*
X155015425Y-106835339D01*
X147204102Y-114646661D01*
X147142779Y-114680146D01*
X147073087Y-114675162D01*
X147028740Y-114646661D01*
X147010292Y-114628213D01*
X147010288Y-114628210D01*
X146879185Y-114540609D01*
X146879172Y-114540602D01*
X146733501Y-114480264D01*
X146733489Y-114480261D01*
X146578845Y-114449500D01*
X146578842Y-114449500D01*
X146421158Y-114449500D01*
X146421155Y-114449500D01*
X146266510Y-114480261D01*
X146266498Y-114480264D01*
X146120827Y-114540602D01*
X146120814Y-114540609D01*
X145989711Y-114628210D01*
X145989707Y-114628213D01*
X145878213Y-114739707D01*
X145878210Y-114739711D01*
X145790609Y-114870814D01*
X145790602Y-114870827D01*
X145730264Y-115016498D01*
X145730261Y-115016510D01*
X145699500Y-115171153D01*
X145699500Y-115328846D01*
X145730261Y-115483489D01*
X145730264Y-115483501D01*
X145790602Y-115629172D01*
X145790609Y-115629185D01*
X145878601Y-115760873D01*
X145899479Y-115827550D01*
X145899499Y-115829764D01*
X145899499Y-115950210D01*
X145899498Y-115950210D01*
X145940423Y-116102942D01*
X145952981Y-116124691D01*
X145952982Y-116124696D01*
X145952983Y-116124696D01*
X146019475Y-116239865D01*
X146019481Y-116239873D01*
X146138349Y-116358741D01*
X146138355Y-116358746D01*
X149027505Y-119247897D01*
X149060990Y-119309220D01*
X149056006Y-119378912D01*
X149027505Y-119423259D01*
X147535339Y-120915425D01*
X147474016Y-120948910D01*
X147471850Y-120949361D01*
X147316508Y-120980261D01*
X147316498Y-120980264D01*
X147170827Y-121040602D01*
X147170814Y-121040609D01*
X147039711Y-121128210D01*
X147039707Y-121128213D01*
X146928213Y-121239707D01*
X146928210Y-121239711D01*
X146840609Y-121370814D01*
X146840602Y-121370827D01*
X146780264Y-121516498D01*
X146780261Y-121516510D01*
X146749500Y-121671153D01*
X146749500Y-121828846D01*
X146780261Y-121983489D01*
X146780264Y-121983501D01*
X146840602Y-122129172D01*
X146840609Y-122129185D01*
X146928210Y-122260288D01*
X146928213Y-122260292D01*
X147039707Y-122371786D01*
X147039711Y-122371789D01*
X147170814Y-122459390D01*
X147170827Y-122459397D01*
X147316498Y-122519735D01*
X147316503Y-122519737D01*
X147466131Y-122549500D01*
X147471153Y-122550499D01*
X147471156Y-122550500D01*
X147471158Y-122550500D01*
X147628844Y-122550500D01*
X147628845Y-122550499D01*
X147783497Y-122519737D01*
X147929179Y-122459394D01*
X148060289Y-122371789D01*
X148171789Y-122260289D01*
X148259394Y-122129179D01*
X148319737Y-121983497D01*
X148345417Y-121854397D01*
X148350638Y-121828150D01*
X148383023Y-121766239D01*
X148384518Y-121764716D01*
X149908479Y-120240756D01*
X149969802Y-120207271D01*
X149996160Y-120204437D01*
X150751609Y-120204437D01*
X150818648Y-120224122D01*
X150820500Y-120225335D01*
X150952189Y-120313327D01*
X150952202Y-120313334D01*
X151027445Y-120344500D01*
X151097878Y-120373674D01*
X151252528Y-120404436D01*
X151252531Y-120404437D01*
X151252533Y-120404437D01*
X151410219Y-120404437D01*
X151410220Y-120404436D01*
X151564872Y-120373674D01*
X151710554Y-120313331D01*
X151824314Y-120237319D01*
X151854613Y-120227831D01*
X151884359Y-120216737D01*
X151887714Y-120217466D01*
X151890991Y-120216441D01*
X151921609Y-120224840D01*
X151952632Y-120231589D01*
X151956346Y-120234369D01*
X151958371Y-120234925D01*
X151980886Y-120252740D01*
X152091485Y-120363339D01*
X152123578Y-120418924D01*
X152136716Y-120467952D01*
X152140423Y-120481785D01*
X152163847Y-120522356D01*
X152164339Y-120523207D01*
X152164340Y-120523211D01*
X152164341Y-120523211D01*
X152219479Y-120618714D01*
X152219481Y-120618717D01*
X152264181Y-120663417D01*
X152297666Y-120724740D01*
X152300500Y-120751098D01*
X152300500Y-124664387D01*
X152300499Y-124664405D01*
X152300499Y-124830111D01*
X152300498Y-124830111D01*
X152300499Y-124830114D01*
X152341423Y-124982842D01*
X152369391Y-125031284D01*
X152420477Y-125119769D01*
X152420481Y-125119774D01*
X152539349Y-125238642D01*
X152539355Y-125238647D01*
X154069681Y-126768973D01*
X154103166Y-126830296D01*
X154106000Y-126856654D01*
X154106000Y-132169830D01*
X154105999Y-132169848D01*
X154105999Y-132335554D01*
X154105998Y-132335554D01*
X154146923Y-132488285D01*
X154158306Y-132508000D01*
X154158307Y-132508003D01*
X154225975Y-132625209D01*
X154225981Y-132625217D01*
X154672925Y-133072161D01*
X154706410Y-133133484D01*
X154701426Y-133203176D01*
X154659554Y-133259109D01*
X154594090Y-133283526D01*
X154546240Y-133277548D01*
X154490594Y-133259109D01*
X154410297Y-133232501D01*
X154410295Y-133232500D01*
X154307510Y-133222000D01*
X153507498Y-133222000D01*
X153507480Y-133222001D01*
X153404703Y-133232500D01*
X153404700Y-133232501D01*
X153238168Y-133287685D01*
X153238163Y-133287687D01*
X153088842Y-133379789D01*
X152964789Y-133503842D01*
X152872687Y-133653163D01*
X152872686Y-133653166D01*
X152817501Y-133819703D01*
X152817501Y-133819704D01*
X152817500Y-133819704D01*
X152807000Y-133922483D01*
X152807000Y-135272501D01*
X152807001Y-135272518D01*
X152817500Y-135375296D01*
X152817501Y-135375299D01*
X152866833Y-135524172D01*
X152872686Y-135541834D01*
X152964788Y-135691156D01*
X153088844Y-135815212D01*
X153238166Y-135907314D01*
X153404703Y-135962499D01*
X153507491Y-135973000D01*
X154307508Y-135972999D01*
X154307516Y-135972998D01*
X154307519Y-135972998D01*
X154368330Y-135966786D01*
X154410297Y-135962499D01*
X154576834Y-135907314D01*
X154726156Y-135815212D01*
X154850212Y-135691156D01*
X154942314Y-135541834D01*
X154997499Y-135375297D01*
X155008000Y-135272509D01*
X155007999Y-133922492D01*
X154997499Y-133819703D01*
X154942314Y-133653166D01*
X154897226Y-133580067D01*
X154878787Y-133512676D01*
X154899710Y-133446013D01*
X154953352Y-133401243D01*
X155022682Y-133392582D01*
X155064768Y-133407586D01*
X155068216Y-133409577D01*
X155220943Y-133450501D01*
X155220945Y-133450501D01*
X155386654Y-133450501D01*
X155386670Y-133450500D01*
X156249903Y-133450500D01*
X156316942Y-133470185D01*
X156337584Y-133486819D01*
X158113181Y-135262416D01*
X158146666Y-135323739D01*
X158149500Y-135350097D01*
X158149500Y-138470234D01*
X158129815Y-138537273D01*
X158128602Y-138539125D01*
X158040609Y-138670814D01*
X158040602Y-138670827D01*
X157980264Y-138816498D01*
X157980261Y-138816510D01*
X157949500Y-138971153D01*
X157949500Y-139128846D01*
X157980261Y-139283489D01*
X157980264Y-139283501D01*
X158040602Y-139429172D01*
X158040609Y-139429185D01*
X158128210Y-139560288D01*
X158128213Y-139560292D01*
X158239707Y-139671786D01*
X158239711Y-139671789D01*
X158370814Y-139759390D01*
X158370827Y-139759397D01*
X158516498Y-139819735D01*
X158516503Y-139819737D01*
X158671153Y-139850499D01*
X158671156Y-139850500D01*
X158671158Y-139850500D01*
X158828844Y-139850500D01*
X158828845Y-139850499D01*
X158983497Y-139819737D01*
X159129179Y-139759394D01*
X159260289Y-139671789D01*
X159371789Y-139560289D01*
X159427714Y-139476592D01*
X159437922Y-139461315D01*
X159446434Y-139454200D01*
X159451551Y-139444353D01*
X159472768Y-139432191D01*
X159491534Y-139416509D01*
X159502543Y-139415126D01*
X159512170Y-139409609D01*
X159536594Y-139410849D01*
X159560859Y-139407802D01*
X159570866Y-139412590D01*
X159581950Y-139413153D01*
X159601827Y-139427402D01*
X159623886Y-139437956D01*
X159629717Y-139447395D01*
X159638736Y-139453861D01*
X159647753Y-139476592D01*
X159660606Y-139497399D01*
X159661080Y-139510189D01*
X159664499Y-139518807D01*
X159662709Y-139554056D01*
X159647768Y-139630283D01*
X159643187Y-139647207D01*
X159577010Y-139837266D01*
X159570088Y-139853376D01*
X159477767Y-140032197D01*
X159468643Y-140047168D01*
X159352018Y-140211190D01*
X159340872Y-140224726D01*
X159204239Y-140368591D01*
X159201826Y-140371062D01*
X159193147Y-140379705D01*
X159189301Y-140383374D01*
X159161103Y-140409144D01*
X159155917Y-140415645D01*
X159146486Y-140426174D01*
X155506993Y-144050687D01*
X155498567Y-144059077D01*
X155482983Y-144069562D01*
X155465051Y-144092454D01*
X155459635Y-144097849D01*
X155459636Y-144097849D01*
X155450127Y-144107318D01*
X155445801Y-144112932D01*
X155435539Y-144126966D01*
X155308756Y-144266647D01*
X155295735Y-144279052D01*
X155283526Y-144289100D01*
X155136250Y-144410305D01*
X155121575Y-144420694D01*
X154944782Y-144527497D01*
X154928756Y-144535655D01*
X154738377Y-144615761D01*
X154721337Y-144621516D01*
X154521368Y-144673241D01*
X154503677Y-144676470D01*
X154297851Y-144698778D01*
X154284490Y-144699500D01*
X121003481Y-144699500D01*
X120996528Y-144699305D01*
X120704703Y-144682916D01*
X120690885Y-144681359D01*
X120406172Y-144632984D01*
X120392615Y-144629890D01*
X120115100Y-144549939D01*
X120101975Y-144545346D01*
X119835165Y-144434830D01*
X119822637Y-144428797D01*
X119569874Y-144289100D01*
X119558100Y-144281702D01*
X119322569Y-144114584D01*
X119311697Y-144105914D01*
X119096357Y-143913475D01*
X119086524Y-143903642D01*
X118894085Y-143688302D01*
X118885415Y-143677430D01*
X118718297Y-143441899D01*
X118710899Y-143430125D01*
X118681836Y-143377541D01*
X118571198Y-143177355D01*
X118565172Y-143164841D01*
X118454653Y-142898024D01*
X118450060Y-142884899D01*
X118410084Y-142746141D01*
X118370108Y-142607382D01*
X118367015Y-142593827D01*
X118345829Y-142469136D01*
X118318638Y-142309103D01*
X118317084Y-142295306D01*
X118300695Y-142003472D01*
X118300500Y-141996519D01*
X118300500Y-137824866D01*
X121544500Y-137824866D01*
X121544500Y-137945133D01*
X121567959Y-138063068D01*
X121567961Y-138063076D01*
X121613980Y-138174177D01*
X121613985Y-138174186D01*
X121680793Y-138274170D01*
X121680796Y-138274174D01*
X121765825Y-138359203D01*
X121765829Y-138359206D01*
X121865813Y-138426014D01*
X121865822Y-138426019D01*
X121880501Y-138432099D01*
X121976924Y-138472039D01*
X122094866Y-138495499D01*
X122094870Y-138495500D01*
X122094871Y-138495500D01*
X122215130Y-138495500D01*
X122215131Y-138495499D01*
X122333076Y-138472039D01*
X122411468Y-138439567D01*
X122480935Y-138432099D01*
X122543414Y-138463374D01*
X122579067Y-138523462D01*
X122580209Y-138579908D01*
X122557600Y-138686281D01*
X122524408Y-138747762D01*
X122463245Y-138781539D01*
X122436310Y-138784500D01*
X122087333Y-138784500D01*
X121955419Y-138814608D01*
X121955411Y-138814611D01*
X121833495Y-138873323D01*
X121727694Y-138957694D01*
X121643323Y-139063495D01*
X121584611Y-139185411D01*
X121584608Y-139185419D01*
X121554500Y-139317333D01*
X121554500Y-141852666D01*
X121584608Y-141984580D01*
X121584611Y-141984588D01*
X121643323Y-142106504D01*
X121727694Y-142212305D01*
X121788289Y-142260626D01*
X121833493Y-142296675D01*
X121955412Y-142355389D01*
X121955416Y-142355389D01*
X121955419Y-142355391D01*
X122087333Y-142385499D01*
X122087338Y-142385499D01*
X122087340Y-142385500D01*
X122115438Y-142385500D01*
X122436310Y-142385500D01*
X122503349Y-142405185D01*
X122549104Y-142457989D01*
X122557600Y-142483719D01*
X122583885Y-142607384D01*
X122589486Y-142633731D01*
X122657928Y-142787455D01*
X122756836Y-142923589D01*
X122756837Y-142923590D01*
X122756838Y-142923591D01*
X122756840Y-142923594D01*
X122832907Y-142992084D01*
X122881886Y-143036185D01*
X123027614Y-143120321D01*
X123027616Y-143120321D01*
X123027619Y-143120323D01*
X123083464Y-143138467D01*
X123187650Y-143172320D01*
X123355000Y-143189909D01*
X123522350Y-143172320D01*
X123682386Y-143120321D01*
X123828114Y-143036185D01*
X123926071Y-142947983D01*
X123953159Y-142923594D01*
X123953159Y-142923592D01*
X123953164Y-142923589D01*
X124052072Y-142787455D01*
X124120514Y-142633731D01*
X124152400Y-142483718D01*
X124185592Y-142422237D01*
X124246755Y-142388461D01*
X124273690Y-142385500D01*
X124622658Y-142385500D01*
X124622660Y-142385500D01*
X124622662Y-142385499D01*
X124622666Y-142385499D01*
X124754580Y-142355391D01*
X124754581Y-142355390D01*
X124754588Y-142355389D01*
X124876507Y-142296675D01*
X124982305Y-142212305D01*
X125066675Y-142106507D01*
X125125389Y-141984588D01*
X125128944Y-141969011D01*
X125155499Y-141852666D01*
X125155500Y-141852658D01*
X125155500Y-139317341D01*
X125155499Y-139317333D01*
X125128719Y-139200000D01*
X134650000Y-139200000D01*
X134650000Y-144000000D01*
X141950000Y-144000000D01*
X141950000Y-139200000D01*
X139224000Y-139200000D01*
X139156961Y-139180315D01*
X139111206Y-139127511D01*
X139100000Y-139076000D01*
X139100000Y-138500000D01*
X137500000Y-138500000D01*
X137500000Y-139076000D01*
X137480315Y-139143039D01*
X137427511Y-139188794D01*
X137376000Y-139200000D01*
X134650000Y-139200000D01*
X125128719Y-139200000D01*
X125125390Y-139185415D01*
X125125388Y-139185411D01*
X125066675Y-139063493D01*
X125030626Y-139018289D01*
X124982305Y-138957694D01*
X124876504Y-138873323D01*
X124754588Y-138814611D01*
X124754580Y-138814608D01*
X124622666Y-138784500D01*
X124622660Y-138784500D01*
X124594562Y-138784500D01*
X124273690Y-138784500D01*
X124206651Y-138764815D01*
X124160896Y-138712011D01*
X124152400Y-138686281D01*
X124149112Y-138670814D01*
X124129790Y-138579909D01*
X124135106Y-138510243D01*
X124177243Y-138454509D01*
X124242823Y-138430404D01*
X124298532Y-138439567D01*
X124376924Y-138472039D01*
X124494866Y-138495499D01*
X124494870Y-138495500D01*
X124494871Y-138495500D01*
X124615130Y-138495500D01*
X124615131Y-138495499D01*
X124733076Y-138472039D01*
X124844180Y-138426018D01*
X124944171Y-138359206D01*
X125029206Y-138274171D01*
X125096018Y-138174180D01*
X125142039Y-138063076D01*
X125165500Y-137945129D01*
X125165500Y-137824871D01*
X125142039Y-137706924D01*
X125096018Y-137595820D01*
X125096017Y-137595819D01*
X125096014Y-137595813D01*
X125029206Y-137495829D01*
X125029203Y-137495825D01*
X124944174Y-137410796D01*
X124944170Y-137410793D01*
X124844186Y-137343985D01*
X124844177Y-137343980D01*
X124733076Y-137297961D01*
X124733068Y-137297959D01*
X124615133Y-137274500D01*
X124615129Y-137274500D01*
X124494871Y-137274500D01*
X124494866Y-137274500D01*
X124376931Y-137297959D01*
X124376923Y-137297961D01*
X124265822Y-137343980D01*
X124265813Y-137343985D01*
X124165829Y-137410793D01*
X124165825Y-137410796D01*
X124080796Y-137495825D01*
X124080793Y-137495829D01*
X124013985Y-137595813D01*
X124013980Y-137595822D01*
X123967961Y-137706923D01*
X123967959Y-137706931D01*
X123944500Y-137824866D01*
X123944500Y-137945133D01*
X123948610Y-137965794D01*
X123942383Y-138035385D01*
X123899520Y-138090563D01*
X123833630Y-138113807D01*
X123765633Y-138097739D01*
X123764993Y-138097372D01*
X123682386Y-138049679D01*
X123682380Y-138049676D01*
X123522353Y-137997681D01*
X123522350Y-137997680D01*
X123355000Y-137980091D01*
X123187650Y-137997680D01*
X123187647Y-137997680D01*
X123187646Y-137997681D01*
X123027619Y-138049676D01*
X123027616Y-138049678D01*
X122945005Y-138097373D01*
X122877105Y-138113844D01*
X122811078Y-138090992D01*
X122767888Y-138036070D01*
X122761247Y-137966517D01*
X122761318Y-137966150D01*
X122765500Y-137945129D01*
X122765500Y-137824871D01*
X122742039Y-137706924D01*
X122696018Y-137595820D01*
X122696017Y-137595819D01*
X122696014Y-137595813D01*
X122629206Y-137495829D01*
X122629203Y-137495825D01*
X122544174Y-137410796D01*
X122544170Y-137410793D01*
X122444186Y-137343985D01*
X122444177Y-137343980D01*
X122333076Y-137297961D01*
X122333068Y-137297959D01*
X122215133Y-137274500D01*
X122215129Y-137274500D01*
X122094871Y-137274500D01*
X122094866Y-137274500D01*
X121976931Y-137297959D01*
X121976923Y-137297961D01*
X121865822Y-137343980D01*
X121865813Y-137343985D01*
X121765829Y-137410793D01*
X121765825Y-137410796D01*
X121680796Y-137495825D01*
X121680793Y-137495829D01*
X121613985Y-137595813D01*
X121613980Y-137595822D01*
X121567961Y-137706923D01*
X121567959Y-137706931D01*
X121544500Y-137824866D01*
X118300500Y-137824866D01*
X118300500Y-135066153D01*
X120549500Y-135066153D01*
X120549500Y-135223846D01*
X120580261Y-135378489D01*
X120580264Y-135378501D01*
X120640602Y-135524172D01*
X120640609Y-135524185D01*
X120728210Y-135655288D01*
X120728213Y-135655292D01*
X120839707Y-135766786D01*
X120839711Y-135766789D01*
X120970814Y-135854390D01*
X120970827Y-135854397D01*
X121098577Y-135907312D01*
X121116503Y-135914737D01*
X121271153Y-135945499D01*
X121271156Y-135945500D01*
X121271158Y-135945500D01*
X121428844Y-135945500D01*
X121428845Y-135945499D01*
X121583497Y-135914737D01*
X121729179Y-135854394D01*
X121860289Y-135766789D01*
X121971789Y-135655289D01*
X122059394Y-135524179D01*
X122119737Y-135378497D01*
X122140818Y-135272516D01*
X122150638Y-135223150D01*
X122183023Y-135161239D01*
X122184518Y-135159716D01*
X123257416Y-134086819D01*
X123318739Y-134053334D01*
X123345097Y-134050500D01*
X125468003Y-134050500D01*
X125535042Y-134070185D01*
X125580797Y-134122989D01*
X125590741Y-134192147D01*
X125561716Y-134255703D01*
X125555684Y-134262181D01*
X125300511Y-134517353D01*
X125239188Y-134550838D01*
X125237022Y-134551289D01*
X125116508Y-134575261D01*
X125116498Y-134575264D01*
X124970827Y-134635602D01*
X124970814Y-134635609D01*
X124839711Y-134723210D01*
X124839707Y-134723213D01*
X124728213Y-134834707D01*
X124728210Y-134834711D01*
X124640609Y-134965814D01*
X124640602Y-134965827D01*
X124580264Y-135111498D01*
X124580261Y-135111510D01*
X124549500Y-135266153D01*
X124549500Y-135423846D01*
X124580261Y-135578489D01*
X124580264Y-135578501D01*
X124640602Y-135724172D01*
X124640609Y-135724185D01*
X124728210Y-135855288D01*
X124728213Y-135855292D01*
X124839707Y-135966786D01*
X124839711Y-135966789D01*
X124970814Y-136054390D01*
X124970827Y-136054397D01*
X125116498Y-136114735D01*
X125116503Y-136114737D01*
X125271153Y-136145499D01*
X125271156Y-136145500D01*
X125271158Y-136145500D01*
X125428844Y-136145500D01*
X125428845Y-136145499D01*
X125583497Y-136114737D01*
X125729179Y-136054394D01*
X125860289Y-135966789D01*
X125971789Y-135855289D01*
X126059394Y-135724179D01*
X126119737Y-135578497D01*
X126150500Y-135423842D01*
X126150500Y-135417196D01*
X126170185Y-135350157D01*
X126186814Y-135329520D01*
X130750287Y-130766046D01*
X130811608Y-130732563D01*
X130881300Y-130737547D01*
X130937233Y-130779419D01*
X130959583Y-130829537D01*
X130980261Y-130933491D01*
X130980264Y-130933501D01*
X131040602Y-131079172D01*
X131040609Y-131079185D01*
X131128210Y-131210288D01*
X131128213Y-131210292D01*
X131239707Y-131321786D01*
X131239711Y-131321789D01*
X131370814Y-131409390D01*
X131370827Y-131409397D01*
X131516498Y-131469735D01*
X131516503Y-131469737D01*
X131671153Y-131500499D01*
X131671156Y-131500500D01*
X131671158Y-131500500D01*
X131828844Y-131500500D01*
X131828845Y-131500499D01*
X131983497Y-131469737D01*
X132129179Y-131409394D01*
X132242779Y-131333489D01*
X132260875Y-131321398D01*
X132327553Y-131300520D01*
X132329766Y-131300500D01*
X139263388Y-131300500D01*
X139263404Y-131300501D01*
X139271000Y-131300501D01*
X139429111Y-131300501D01*
X139429114Y-131300501D01*
X139581842Y-131259577D01*
X139642259Y-131224695D01*
X139718773Y-131180520D01*
X139830577Y-131068716D01*
X139830577Y-131068714D01*
X139840780Y-131058512D01*
X139840784Y-131058506D01*
X139878137Y-131021153D01*
X145799500Y-131021153D01*
X145799500Y-131178846D01*
X145830261Y-131333489D01*
X145830264Y-131333501D01*
X145890602Y-131479172D01*
X145890609Y-131479185D01*
X145978210Y-131610288D01*
X145978213Y-131610292D01*
X146089707Y-131721786D01*
X146089711Y-131721789D01*
X146220814Y-131809390D01*
X146220827Y-131809397D01*
X146366498Y-131869735D01*
X146366503Y-131869737D01*
X146521153Y-131900499D01*
X146521156Y-131900500D01*
X146521158Y-131900500D01*
X146678844Y-131900500D01*
X146678845Y-131900499D01*
X146833497Y-131869737D01*
X146979179Y-131809394D01*
X147110289Y-131721789D01*
X147221789Y-131610289D01*
X147309394Y-131479179D01*
X147369737Y-131333497D01*
X147396847Y-131197207D01*
X147400638Y-131178150D01*
X147433023Y-131116239D01*
X147434519Y-131114715D01*
X150708506Y-127840727D01*
X150708511Y-127840724D01*
X150718714Y-127830520D01*
X150718716Y-127830520D01*
X150830520Y-127718716D01*
X150898771Y-127600501D01*
X150909577Y-127581785D01*
X150950501Y-127429057D01*
X150950501Y-127270943D01*
X150950501Y-127263348D01*
X150950500Y-127263330D01*
X150950500Y-126729765D01*
X150970185Y-126662726D01*
X150971398Y-126660874D01*
X150981593Y-126645617D01*
X151059394Y-126529179D01*
X151063414Y-126519475D01*
X151096156Y-126440426D01*
X151119737Y-126383497D01*
X151150500Y-126228842D01*
X151150500Y-126071158D01*
X151150500Y-126071155D01*
X151150499Y-126071153D01*
X151119738Y-125916510D01*
X151119737Y-125916503D01*
X151119735Y-125916498D01*
X151059397Y-125770827D01*
X151059390Y-125770814D01*
X150971789Y-125639711D01*
X150971786Y-125639707D01*
X150860292Y-125528213D01*
X150860288Y-125528210D01*
X150729185Y-125440609D01*
X150729172Y-125440602D01*
X150583501Y-125380264D01*
X150583489Y-125380261D01*
X150428845Y-125349500D01*
X150428842Y-125349500D01*
X150271158Y-125349500D01*
X150271155Y-125349500D01*
X150116510Y-125380261D01*
X150116498Y-125380264D01*
X149970827Y-125440602D01*
X149970814Y-125440609D01*
X149839711Y-125528210D01*
X149839707Y-125528213D01*
X149728213Y-125639707D01*
X149728210Y-125639711D01*
X149640609Y-125770814D01*
X149640602Y-125770827D01*
X149580264Y-125916498D01*
X149580261Y-125916510D01*
X149549500Y-126071153D01*
X149549500Y-126228846D01*
X149580261Y-126383489D01*
X149580264Y-126383501D01*
X149640602Y-126529172D01*
X149640609Y-126529185D01*
X149728602Y-126660874D01*
X149749480Y-126727551D01*
X149749500Y-126729765D01*
X149749500Y-127049903D01*
X149729815Y-127116942D01*
X149713181Y-127137584D01*
X146585339Y-130265425D01*
X146524016Y-130298910D01*
X146521850Y-130299361D01*
X146366508Y-130330261D01*
X146366498Y-130330264D01*
X146220827Y-130390602D01*
X146220814Y-130390609D01*
X146089711Y-130478210D01*
X146089707Y-130478213D01*
X145978213Y-130589707D01*
X145978210Y-130589711D01*
X145890609Y-130720814D01*
X145890602Y-130720827D01*
X145830264Y-130866498D01*
X145830261Y-130866510D01*
X145799500Y-131021153D01*
X139878137Y-131021153D01*
X142361474Y-128537819D01*
X142422797Y-128504334D01*
X142449155Y-128501500D01*
X146162274Y-128501500D01*
X146162290Y-128501501D01*
X146169886Y-128501501D01*
X146327997Y-128501501D01*
X146328000Y-128501501D01*
X146480728Y-128460577D01*
X146530847Y-128431639D01*
X146617659Y-128381520D01*
X146729463Y-128269716D01*
X146729463Y-128269714D01*
X146739671Y-128259507D01*
X146739673Y-128259504D01*
X147508506Y-127490671D01*
X147508511Y-127490667D01*
X147518714Y-127480463D01*
X147518716Y-127480463D01*
X147630520Y-127368659D01*
X147705503Y-127238784D01*
X147709577Y-127231728D01*
X147750501Y-127079000D01*
X147750501Y-126920886D01*
X147750501Y-126913291D01*
X147750500Y-126913273D01*
X147750500Y-125883940D01*
X147770185Y-125816901D01*
X147786814Y-125796263D01*
X147872789Y-125710289D01*
X147960394Y-125579179D01*
X148020737Y-125433497D01*
X148051500Y-125278842D01*
X148051500Y-125121158D01*
X148051500Y-125121155D01*
X148051499Y-125121153D01*
X148051225Y-125119774D01*
X148020737Y-124966503D01*
X147988929Y-124889711D01*
X147960397Y-124820827D01*
X147960390Y-124820814D01*
X147872789Y-124689711D01*
X147872786Y-124689707D01*
X147761292Y-124578213D01*
X147761288Y-124578210D01*
X147630185Y-124490609D01*
X147630172Y-124490602D01*
X147484501Y-124430264D01*
X147484489Y-124430261D01*
X147329845Y-124399500D01*
X147329842Y-124399500D01*
X147172158Y-124399500D01*
X147172155Y-124399500D01*
X147017510Y-124430261D01*
X147017498Y-124430264D01*
X146871827Y-124490602D01*
X146871814Y-124490609D01*
X146740711Y-124578210D01*
X146740707Y-124578213D01*
X146629208Y-124689712D01*
X146629186Y-124689740D01*
X146629170Y-124689750D01*
X146624903Y-124694018D01*
X146624093Y-124693208D01*
X146571437Y-124729071D01*
X146501593Y-124730937D01*
X146464447Y-124714171D01*
X146429184Y-124690609D01*
X146429172Y-124690602D01*
X146283501Y-124630264D01*
X146283489Y-124630261D01*
X146128845Y-124599500D01*
X146128842Y-124599500D01*
X145971158Y-124599500D01*
X145971155Y-124599500D01*
X145816510Y-124630261D01*
X145816498Y-124630264D01*
X145670827Y-124690602D01*
X145670814Y-124690609D01*
X145539711Y-124778210D01*
X145539707Y-124778213D01*
X145428213Y-124889707D01*
X145428210Y-124889711D01*
X145340609Y-125020814D01*
X145340602Y-125020827D01*
X145280264Y-125166498D01*
X145280261Y-125166510D01*
X145249500Y-125321153D01*
X145249500Y-125478846D01*
X145280261Y-125633489D01*
X145280264Y-125633501D01*
X145340602Y-125779172D01*
X145340606Y-125779179D01*
X145378602Y-125836044D01*
X145399480Y-125902721D01*
X145399500Y-125904935D01*
X145399500Y-126720234D01*
X145379815Y-126787273D01*
X145378602Y-126789125D01*
X145290609Y-126920814D01*
X145290602Y-126920827D01*
X145230264Y-127066498D01*
X145230261Y-127066510D01*
X145203571Y-127200691D01*
X145171186Y-127262602D01*
X145110471Y-127297176D01*
X145081954Y-127300500D01*
X142235727Y-127300500D01*
X142235711Y-127300499D01*
X142228115Y-127300499D01*
X142070000Y-127300499D01*
X141993636Y-127320961D01*
X141917271Y-127341423D01*
X141917266Y-127341426D01*
X141780347Y-127420475D01*
X141780339Y-127420481D01*
X139137641Y-130063181D01*
X139076318Y-130096666D01*
X139049960Y-130099500D01*
X132329766Y-130099500D01*
X132262727Y-130079815D01*
X132260875Y-130078602D01*
X132129185Y-129990609D01*
X132129172Y-129990602D01*
X131983501Y-129930264D01*
X131983491Y-129930261D01*
X131879537Y-129909583D01*
X131817626Y-129877198D01*
X131783052Y-129816482D01*
X131786793Y-129746712D01*
X131816046Y-129700288D01*
X133478516Y-128037819D01*
X133539839Y-128004334D01*
X133566197Y-128001500D01*
X138929431Y-128001500D01*
X138929447Y-128001501D01*
X138937043Y-128001501D01*
X139095154Y-128001501D01*
X139095157Y-128001501D01*
X139247885Y-127960577D01*
X139336219Y-127909577D01*
X139384816Y-127881520D01*
X139496620Y-127769716D01*
X139496620Y-127769714D01*
X139506824Y-127759511D01*
X139506827Y-127759506D01*
X141829516Y-125436819D01*
X141856443Y-125422115D01*
X141882262Y-125405523D01*
X141888462Y-125404631D01*
X141890839Y-125403334D01*
X141917197Y-125400500D01*
X141970234Y-125400500D01*
X142037273Y-125420185D01*
X142039125Y-125421398D01*
X142170814Y-125509390D01*
X142170827Y-125509397D01*
X142216254Y-125528213D01*
X142316503Y-125569737D01*
X142471153Y-125600499D01*
X142471156Y-125600500D01*
X142471158Y-125600500D01*
X142628844Y-125600500D01*
X142628845Y-125600499D01*
X142783497Y-125569737D01*
X142929179Y-125509394D01*
X143060289Y-125421789D01*
X143171789Y-125310289D01*
X143259394Y-125179179D01*
X143319737Y-125033497D01*
X143350500Y-124878842D01*
X143350500Y-124721158D01*
X143350500Y-124721155D01*
X143350499Y-124721153D01*
X143344422Y-124690602D01*
X143319737Y-124566503D01*
X143288298Y-124490602D01*
X143259397Y-124420827D01*
X143259390Y-124420814D01*
X143171789Y-124289711D01*
X143171786Y-124289707D01*
X143060292Y-124178213D01*
X143060288Y-124178210D01*
X142929185Y-124090609D01*
X142929172Y-124090602D01*
X142783501Y-124030264D01*
X142783492Y-124030261D01*
X142748878Y-124023376D01*
X142686967Y-123990990D01*
X142652394Y-123930273D01*
X142651454Y-123925951D01*
X142619738Y-123766508D01*
X142619737Y-123766507D01*
X142619737Y-123766503D01*
X142619735Y-123766498D01*
X142559397Y-123620827D01*
X142559390Y-123620814D01*
X142471789Y-123489711D01*
X142471786Y-123489707D01*
X142360292Y-123378213D01*
X142360288Y-123378210D01*
X142229185Y-123290609D01*
X142229172Y-123290602D01*
X142083501Y-123230264D01*
X142083489Y-123230261D01*
X141928845Y-123199500D01*
X141928842Y-123199500D01*
X141771158Y-123199500D01*
X141771155Y-123199500D01*
X141616510Y-123230261D01*
X141616498Y-123230264D01*
X141470827Y-123290602D01*
X141470814Y-123290609D01*
X141339711Y-123378210D01*
X141339707Y-123378213D01*
X141228213Y-123489707D01*
X141228210Y-123489711D01*
X141140609Y-123620814D01*
X141140602Y-123620827D01*
X141080264Y-123766498D01*
X141080261Y-123766508D01*
X141049362Y-123921848D01*
X141016977Y-123983759D01*
X141015426Y-123985337D01*
X138637584Y-126363181D01*
X138576261Y-126396666D01*
X138549903Y-126399500D01*
X133020940Y-126399500D01*
X132980019Y-126410464D01*
X132980019Y-126410465D01*
X132942751Y-126420451D01*
X132868214Y-126440423D01*
X132868209Y-126440426D01*
X132731290Y-126519475D01*
X132731282Y-126519481D01*
X132619478Y-126631286D01*
X126437584Y-132813181D01*
X126376261Y-132846666D01*
X126349903Y-132849500D01*
X123131669Y-132849500D01*
X123131653Y-132849499D01*
X123124057Y-132849499D01*
X122965943Y-132849499D01*
X122858587Y-132878265D01*
X122813210Y-132890424D01*
X122813209Y-132890425D01*
X122763096Y-132919359D01*
X122763095Y-132919360D01*
X122719689Y-132944420D01*
X122676285Y-132969479D01*
X122676282Y-132969481D01*
X121335339Y-134310425D01*
X121274016Y-134343910D01*
X121271850Y-134344361D01*
X121116508Y-134375261D01*
X121116498Y-134375264D01*
X120970827Y-134435602D01*
X120970814Y-134435609D01*
X120839711Y-134523210D01*
X120839707Y-134523213D01*
X120728213Y-134634707D01*
X120728210Y-134634711D01*
X120640609Y-134765814D01*
X120640602Y-134765827D01*
X120580264Y-134911498D01*
X120580261Y-134911510D01*
X120549500Y-135066153D01*
X118300500Y-135066153D01*
X118300500Y-129143713D01*
X118819500Y-129143713D01*
X118819500Y-129356287D01*
X118852754Y-129566243D01*
X118911392Y-129746712D01*
X118918444Y-129768414D01*
X119014951Y-129957820D01*
X119139890Y-130129786D01*
X119290213Y-130280109D01*
X119462179Y-130405048D01*
X119462181Y-130405049D01*
X119462184Y-130405051D01*
X119651588Y-130501557D01*
X119853757Y-130567246D01*
X120063713Y-130600500D01*
X120063714Y-130600500D01*
X120276286Y-130600500D01*
X120276287Y-130600500D01*
X120486243Y-130567246D01*
X120688412Y-130501557D01*
X120877816Y-130405051D01*
X120964138Y-130342335D01*
X121049786Y-130280109D01*
X121049788Y-130280106D01*
X121049792Y-130280104D01*
X121200104Y-130129792D01*
X121200106Y-130129788D01*
X121200109Y-130129786D01*
X121325048Y-129957820D01*
X121325047Y-129957820D01*
X121325051Y-129957816D01*
X121421557Y-129768412D01*
X121487246Y-129566243D01*
X121520500Y-129356287D01*
X121520500Y-129143713D01*
X121487246Y-128933757D01*
X121421557Y-128731588D01*
X121325051Y-128542184D01*
X121295493Y-128501500D01*
X121237511Y-128421694D01*
X121237508Y-128421691D01*
X121208322Y-128381520D01*
X121200104Y-128370208D01*
X121182031Y-128352135D01*
X123899500Y-128352135D01*
X123899500Y-130147870D01*
X123899501Y-130147876D01*
X123905908Y-130207483D01*
X123956202Y-130342328D01*
X123956206Y-130342335D01*
X124042452Y-130457544D01*
X124042455Y-130457547D01*
X124157664Y-130543793D01*
X124157671Y-130543797D01*
X124292517Y-130594091D01*
X124292516Y-130594091D01*
X124299444Y-130594835D01*
X124352127Y-130600500D01*
X126147872Y-130600499D01*
X126207483Y-130594091D01*
X126342331Y-130543796D01*
X126457546Y-130457546D01*
X126543796Y-130342331D01*
X126594091Y-130207483D01*
X126600500Y-130147873D01*
X126600499Y-128352128D01*
X126594091Y-128292517D01*
X126580667Y-128256526D01*
X126543797Y-128157671D01*
X126543793Y-128157664D01*
X126457547Y-128042455D01*
X126457544Y-128042452D01*
X126342335Y-127956206D01*
X126342328Y-127956202D01*
X126207482Y-127905908D01*
X126207483Y-127905908D01*
X126147883Y-127899501D01*
X126147881Y-127899500D01*
X126147873Y-127899500D01*
X126147864Y-127899500D01*
X124352129Y-127899500D01*
X124352123Y-127899501D01*
X124292516Y-127905908D01*
X124157671Y-127956202D01*
X124157664Y-127956206D01*
X124042455Y-128042452D01*
X124042452Y-128042455D01*
X123956206Y-128157664D01*
X123956202Y-128157671D01*
X123905908Y-128292517D01*
X123899501Y-128352116D01*
X123899501Y-128352123D01*
X123899500Y-128352135D01*
X121182031Y-128352135D01*
X121049792Y-128219896D01*
X121049786Y-128219890D01*
X120877820Y-128094951D01*
X120688414Y-127998444D01*
X120688413Y-127998443D01*
X120688412Y-127998443D01*
X120486243Y-127932754D01*
X120486241Y-127932753D01*
X120486240Y-127932753D01*
X120324957Y-127907208D01*
X120276287Y-127899500D01*
X120063713Y-127899500D01*
X120015042Y-127907208D01*
X119853760Y-127932753D01*
X119651585Y-127998444D01*
X119462179Y-128094951D01*
X119290213Y-128219890D01*
X119139890Y-128370213D01*
X119014951Y-128542179D01*
X118918444Y-128731585D01*
X118852753Y-128933760D01*
X118819500Y-129143713D01*
X118300500Y-129143713D01*
X118300500Y-108856571D01*
X118300501Y-108844709D01*
X118301339Y-108841960D01*
X118300505Y-108797567D01*
X118300506Y-108796440D01*
X118300570Y-108796220D01*
X118300673Y-108790021D01*
X118311373Y-108584610D01*
X118313520Y-108567219D01*
X118332349Y-108471153D01*
X127649500Y-108471153D01*
X127649500Y-108628846D01*
X127680261Y-108783489D01*
X127680264Y-108783501D01*
X127740602Y-108929172D01*
X127740609Y-108929185D01*
X127828602Y-109060874D01*
X127849480Y-109127551D01*
X127849500Y-109129765D01*
X127849500Y-115863330D01*
X127849499Y-115863348D01*
X127849499Y-116029054D01*
X127849498Y-116029054D01*
X127876679Y-116130491D01*
X127890423Y-116181785D01*
X127890440Y-116181815D01*
X127890451Y-116181854D01*
X127890484Y-116181936D01*
X127890504Y-116181925D01*
X127969477Y-116318712D01*
X127969481Y-116318717D01*
X128088349Y-116437585D01*
X128088355Y-116437590D01*
X135365139Y-123714374D01*
X135365149Y-123714385D01*
X135369479Y-123718715D01*
X135369480Y-123718716D01*
X135481284Y-123830520D01*
X135481286Y-123830521D01*
X135481290Y-123830524D01*
X135618209Y-123909573D01*
X135618216Y-123909577D01*
X135730019Y-123939534D01*
X135770942Y-123950500D01*
X135770943Y-123950500D01*
X138220234Y-123950500D01*
X138287273Y-123970185D01*
X138289125Y-123971398D01*
X138420814Y-124059390D01*
X138420827Y-124059397D01*
X138496181Y-124090609D01*
X138566503Y-124119737D01*
X138721153Y-124150499D01*
X138721156Y-124150500D01*
X138721158Y-124150500D01*
X138878844Y-124150500D01*
X138878845Y-124150499D01*
X139033497Y-124119737D01*
X139179179Y-124059394D01*
X139310289Y-123971789D01*
X139421789Y-123860289D01*
X139509394Y-123729179D01*
X139569737Y-123583497D01*
X139600500Y-123428842D01*
X139600500Y-123271158D01*
X139600500Y-123271155D01*
X139600499Y-123271153D01*
X139569738Y-123116510D01*
X139569737Y-123116503D01*
X139569735Y-123116498D01*
X139509397Y-122970827D01*
X139509390Y-122970814D01*
X139421789Y-122839711D01*
X139421786Y-122839707D01*
X139310292Y-122728213D01*
X139310288Y-122728210D01*
X139179185Y-122640609D01*
X139179172Y-122640602D01*
X139033501Y-122580264D01*
X139033489Y-122580261D01*
X138878845Y-122549500D01*
X138878842Y-122549500D01*
X138721158Y-122549500D01*
X138721155Y-122549500D01*
X138566510Y-122580261D01*
X138566498Y-122580264D01*
X138420827Y-122640602D01*
X138420814Y-122640609D01*
X138289125Y-122728602D01*
X138222447Y-122749480D01*
X138220234Y-122749500D01*
X136150097Y-122749500D01*
X136083058Y-122729815D01*
X136062416Y-122713181D01*
X134415388Y-121066153D01*
X139043183Y-121066153D01*
X139043183Y-121223846D01*
X139073944Y-121378489D01*
X139073947Y-121378501D01*
X139134285Y-121524172D01*
X139134292Y-121524185D01*
X139221893Y-121655288D01*
X139221896Y-121655292D01*
X139333390Y-121766786D01*
X139333394Y-121766789D01*
X139464497Y-121854390D01*
X139464510Y-121854397D01*
X139610181Y-121914735D01*
X139610186Y-121914737D01*
X139764836Y-121945499D01*
X139764839Y-121945500D01*
X139764841Y-121945500D01*
X139922527Y-121945500D01*
X139922528Y-121945499D01*
X140077180Y-121914737D01*
X140222862Y-121854394D01*
X140262139Y-121828150D01*
X140354558Y-121766398D01*
X140421236Y-121745520D01*
X140423449Y-121745500D01*
X142718331Y-121745500D01*
X142718347Y-121745501D01*
X142725943Y-121745501D01*
X142884054Y-121745501D01*
X142884057Y-121745501D01*
X143036785Y-121704577D01*
X143097202Y-121669695D01*
X143173716Y-121625520D01*
X143177292Y-121621943D01*
X143188377Y-121615337D01*
X143202194Y-121611780D01*
X143227672Y-121600235D01*
X143380997Y-121569737D01*
X143526679Y-121509394D01*
X143657789Y-121421789D01*
X143769289Y-121310289D01*
X143856894Y-121179179D01*
X143917237Y-121033497D01*
X143948000Y-120878842D01*
X143948000Y-120721158D01*
X143948000Y-120721155D01*
X143947999Y-120721153D01*
X143943739Y-120699736D01*
X143917237Y-120566503D01*
X143908123Y-120544500D01*
X143856897Y-120420827D01*
X143856890Y-120420814D01*
X143769289Y-120289711D01*
X143769286Y-120289707D01*
X143657792Y-120178213D01*
X143657788Y-120178210D01*
X143526685Y-120090609D01*
X143526672Y-120090602D01*
X143381001Y-120030264D01*
X143380989Y-120030261D01*
X143226345Y-119999500D01*
X143226342Y-119999500D01*
X143068658Y-119999500D01*
X143068655Y-119999500D01*
X142914010Y-120030261D01*
X142913998Y-120030264D01*
X142768327Y-120090602D01*
X142768314Y-120090609D01*
X142637211Y-120178210D01*
X142637207Y-120178213D01*
X142525713Y-120289707D01*
X142525710Y-120289711D01*
X142438107Y-120420817D01*
X142438106Y-120420820D01*
X142418584Y-120467952D01*
X142374744Y-120522356D01*
X142308450Y-120544421D01*
X142304023Y-120544500D01*
X140423449Y-120544500D01*
X140356410Y-120524815D01*
X140354558Y-120523602D01*
X140222868Y-120435609D01*
X140222855Y-120435602D01*
X140077184Y-120375264D01*
X140077172Y-120375261D01*
X139922528Y-120344500D01*
X139922525Y-120344500D01*
X139764841Y-120344500D01*
X139764838Y-120344500D01*
X139610193Y-120375261D01*
X139610181Y-120375264D01*
X139464510Y-120435602D01*
X139464497Y-120435609D01*
X139333394Y-120523210D01*
X139333390Y-120523213D01*
X139221896Y-120634707D01*
X139221893Y-120634711D01*
X139134292Y-120765814D01*
X139134285Y-120765827D01*
X139073947Y-120911498D01*
X139073944Y-120911510D01*
X139043183Y-121066153D01*
X134415388Y-121066153D01*
X132029514Y-118680279D01*
X131996029Y-118618956D01*
X132001013Y-118549264D01*
X132042885Y-118493331D01*
X132108349Y-118468914D01*
X132149311Y-118473503D01*
X132149334Y-118473392D01*
X132150651Y-118473654D01*
X132153194Y-118473939D01*
X132155307Y-118474580D01*
X132290639Y-118501500D01*
X132290642Y-118501500D01*
X133417996Y-118501500D01*
X133519625Y-118481284D01*
X133553328Y-118474580D01*
X133630320Y-118442688D01*
X133653572Y-118435634D01*
X133733497Y-118419737D01*
X133879179Y-118359394D01*
X134010289Y-118271789D01*
X134121789Y-118160289D01*
X134209394Y-118029179D01*
X134269737Y-117883497D01*
X134300500Y-117728842D01*
X134300500Y-117571158D01*
X134300500Y-117571155D01*
X134300499Y-117571153D01*
X134269738Y-117416510D01*
X134269737Y-117416503D01*
X134269735Y-117416498D01*
X134209397Y-117270827D01*
X134209390Y-117270814D01*
X134121789Y-117139711D01*
X134121786Y-117139707D01*
X134010292Y-117028213D01*
X134010288Y-117028210D01*
X133874114Y-116937221D01*
X133875430Y-116935250D01*
X133833070Y-116893652D01*
X133817599Y-116825517D01*
X133841420Y-116759834D01*
X133853664Y-116745571D01*
X133930520Y-116668716D01*
X133998010Y-116551819D01*
X134009577Y-116531785D01*
X134050501Y-116379057D01*
X134050501Y-116220943D01*
X134050501Y-116213348D01*
X134050500Y-116213330D01*
X134050500Y-111950097D01*
X134070185Y-111883058D01*
X134086819Y-111862416D01*
X134314665Y-111634570D01*
X134375984Y-111601088D01*
X134378151Y-111600637D01*
X134378840Y-111600500D01*
X134378842Y-111600500D01*
X134533497Y-111569737D01*
X134679179Y-111509394D01*
X134810289Y-111421789D01*
X134921789Y-111310289D01*
X135009394Y-111179179D01*
X135012806Y-111170943D01*
X135069735Y-111033501D01*
X135069737Y-111033497D01*
X135100500Y-110878842D01*
X135100500Y-110721158D01*
X135100500Y-110721155D01*
X135100499Y-110721153D01*
X135086597Y-110651265D01*
X135069737Y-110566503D01*
X135028314Y-110466498D01*
X135009397Y-110420827D01*
X135009390Y-110420814D01*
X134921789Y-110289711D01*
X134921786Y-110289707D01*
X134810292Y-110178213D01*
X134810288Y-110178210D01*
X134679185Y-110090609D01*
X134679172Y-110090602D01*
X134533501Y-110030264D01*
X134533489Y-110030261D01*
X134378845Y-109999500D01*
X134378842Y-109999500D01*
X134221158Y-109999500D01*
X134221155Y-109999500D01*
X134066510Y-110030261D01*
X134066498Y-110030264D01*
X133927066Y-110088018D01*
X133857596Y-110095487D01*
X133795117Y-110064211D01*
X133791933Y-110061138D01*
X133783915Y-110053120D01*
X133783911Y-110053117D01*
X133652808Y-109965516D01*
X133652795Y-109965509D01*
X133507124Y-109905171D01*
X133507112Y-109905168D01*
X133352468Y-109874407D01*
X133352465Y-109874407D01*
X133194781Y-109874407D01*
X133194778Y-109874407D01*
X133040133Y-109905168D01*
X133040121Y-109905171D01*
X132894451Y-109965509D01*
X132894433Y-109965519D01*
X132882255Y-109973656D01*
X132815577Y-109994531D01*
X132765917Y-109985112D01*
X132633501Y-109930264D01*
X132633489Y-109930261D01*
X132478845Y-109899500D01*
X132478842Y-109899500D01*
X132321158Y-109899500D01*
X132321155Y-109899500D01*
X132166510Y-109930261D01*
X132166498Y-109930264D01*
X132020827Y-109990602D01*
X132020814Y-109990609D01*
X131889711Y-110078210D01*
X131889707Y-110078213D01*
X131778213Y-110189707D01*
X131778210Y-110189711D01*
X131690609Y-110320814D01*
X131690602Y-110320827D01*
X131630264Y-110466498D01*
X131630261Y-110466508D01*
X131599362Y-110621848D01*
X131590597Y-110638603D01*
X131586578Y-110657082D01*
X131567832Y-110682123D01*
X131566977Y-110683759D01*
X131565427Y-110685337D01*
X131530440Y-110720323D01*
X131481286Y-110769478D01*
X131481285Y-110769478D01*
X131481284Y-110769479D01*
X131369481Y-110881282D01*
X131369479Y-110881285D01*
X131340325Y-110931783D01*
X131340324Y-110931785D01*
X131290423Y-111018214D01*
X131290423Y-111018215D01*
X131249499Y-111170943D01*
X131249499Y-111170945D01*
X131249499Y-111339046D01*
X131249500Y-111339059D01*
X131249500Y-112120234D01*
X131229815Y-112187273D01*
X131228602Y-112189125D01*
X131140609Y-112320814D01*
X131140602Y-112320827D01*
X131080264Y-112466498D01*
X131080261Y-112466510D01*
X131049500Y-112621153D01*
X131049500Y-112778846D01*
X131080261Y-112933489D01*
X131080264Y-112933501D01*
X131140602Y-113079172D01*
X131140609Y-113079185D01*
X131228210Y-113210288D01*
X131228213Y-113210292D01*
X131339707Y-113321786D01*
X131339711Y-113321789D01*
X131470814Y-113409390D01*
X131470827Y-113409397D01*
X131616498Y-113469735D01*
X131616503Y-113469737D01*
X131771153Y-113500499D01*
X131771156Y-113500500D01*
X131771158Y-113500500D01*
X131928844Y-113500500D01*
X131928845Y-113500499D01*
X132083497Y-113469737D01*
X132202550Y-113420423D01*
X132272017Y-113412955D01*
X132297450Y-113420422D01*
X132416506Y-113469737D01*
X132571156Y-113500499D01*
X132571159Y-113500500D01*
X132725500Y-113500500D01*
X132792539Y-113520185D01*
X132838294Y-113572989D01*
X132849500Y-113624500D01*
X132849500Y-115999903D01*
X132829815Y-116066942D01*
X132813181Y-116087584D01*
X132635339Y-116265425D01*
X132574016Y-116298910D01*
X132571850Y-116299361D01*
X132416508Y-116330261D01*
X132416498Y-116330264D01*
X132270827Y-116390602D01*
X132270814Y-116390609D01*
X132157061Y-116466617D01*
X132090383Y-116487495D01*
X132023003Y-116469010D01*
X132000489Y-116451196D01*
X131502054Y-115952761D01*
X131468569Y-115891438D01*
X131470659Y-115839891D01*
X131468549Y-115839472D01*
X131500499Y-115678846D01*
X131500500Y-115678844D01*
X131500500Y-115521155D01*
X131500499Y-115521153D01*
X131469737Y-115366503D01*
X131454139Y-115328846D01*
X131409397Y-115220827D01*
X131409390Y-115220814D01*
X131321789Y-115089711D01*
X131321786Y-115089707D01*
X131210292Y-114978213D01*
X131210288Y-114978210D01*
X131079185Y-114890609D01*
X131079172Y-114890602D01*
X130933501Y-114830264D01*
X130933489Y-114830261D01*
X130778845Y-114799500D01*
X130778842Y-114799500D01*
X130621158Y-114799500D01*
X130621155Y-114799500D01*
X130466510Y-114830261D01*
X130466498Y-114830264D01*
X130320827Y-114890602D01*
X130320814Y-114890609D01*
X130189711Y-114978210D01*
X130189707Y-114978213D01*
X130078213Y-115089707D01*
X130078210Y-115089711D01*
X129990609Y-115220814D01*
X129990602Y-115220827D01*
X129930264Y-115366498D01*
X129930261Y-115366510D01*
X129899500Y-115521153D01*
X129899500Y-115678846D01*
X129930261Y-115833489D01*
X129930264Y-115833501D01*
X129990061Y-115977864D01*
X129999500Y-116025316D01*
X129999500Y-116072370D01*
X129999500Y-116210358D01*
X129999500Y-116210360D01*
X129999499Y-116210360D01*
X130026420Y-116345694D01*
X130027063Y-116347814D01*
X130027073Y-116348978D01*
X130027608Y-116351666D01*
X130027098Y-116351767D01*
X130027684Y-116417681D01*
X129990433Y-116476792D01*
X129927137Y-116506380D01*
X129857893Y-116497051D01*
X129820720Y-116471485D01*
X129086819Y-115737584D01*
X129053334Y-115676261D01*
X129050500Y-115649903D01*
X129050500Y-109129765D01*
X129070185Y-109062726D01*
X129071398Y-109060874D01*
X129159390Y-108929185D01*
X129159390Y-108929184D01*
X129159394Y-108929179D01*
X129219737Y-108783497D01*
X129250500Y-108628842D01*
X129250500Y-108471158D01*
X129250500Y-108471155D01*
X129250499Y-108471153D01*
X129226955Y-108352792D01*
X129219737Y-108316503D01*
X129219735Y-108316498D01*
X129159397Y-108170827D01*
X129159390Y-108170814D01*
X129071789Y-108039711D01*
X129071786Y-108039707D01*
X128960292Y-107928213D01*
X128960288Y-107928210D01*
X128829185Y-107840609D01*
X128829172Y-107840602D01*
X128683501Y-107780264D01*
X128683489Y-107780261D01*
X128528845Y-107749500D01*
X128528842Y-107749500D01*
X128371158Y-107749500D01*
X128371155Y-107749500D01*
X128216510Y-107780261D01*
X128216498Y-107780264D01*
X128070827Y-107840602D01*
X128070814Y-107840609D01*
X127939711Y-107928210D01*
X127939707Y-107928213D01*
X127828213Y-108039707D01*
X127828210Y-108039711D01*
X127740609Y-108170814D01*
X127740602Y-108170827D01*
X127680264Y-108316498D01*
X127680261Y-108316510D01*
X127649500Y-108471153D01*
X118332349Y-108471153D01*
X118338210Y-108441253D01*
X118338217Y-108441215D01*
X118352233Y-108369707D01*
X118356809Y-108352801D01*
X118422994Y-108162720D01*
X118429902Y-108146642D01*
X118522241Y-107967787D01*
X118531349Y-107952840D01*
X118647990Y-107788797D01*
X118659116Y-107775285D01*
X118799374Y-107627600D01*
X118802636Y-107624295D01*
X118806299Y-107620725D01*
X118809057Y-107618123D01*
X118838895Y-107590857D01*
X118838899Y-107590849D01*
X118840860Y-107588392D01*
X118851251Y-107576912D01*
X121501606Y-104993713D01*
X136379500Y-104993713D01*
X136379500Y-105206286D01*
X136412753Y-105416239D01*
X136478444Y-105618414D01*
X136574951Y-105807820D01*
X136699890Y-105979786D01*
X136850213Y-106130109D01*
X137022179Y-106255048D01*
X137022181Y-106255049D01*
X137022184Y-106255051D01*
X137211588Y-106351557D01*
X137413757Y-106417246D01*
X137623713Y-106450500D01*
X137623714Y-106450500D01*
X137836286Y-106450500D01*
X137836287Y-106450500D01*
X138046243Y-106417246D01*
X138248412Y-106351557D01*
X138437816Y-106255051D01*
X138474760Y-106228210D01*
X138609786Y-106130109D01*
X138609788Y-106130106D01*
X138609792Y-106130104D01*
X138760104Y-105979792D01*
X138760106Y-105979788D01*
X138760109Y-105979786D01*
X138885048Y-105807820D01*
X138885047Y-105807820D01*
X138885051Y-105807816D01*
X138889514Y-105799054D01*
X138937488Y-105748259D01*
X139005308Y-105731463D01*
X139071444Y-105753999D01*
X139110486Y-105799056D01*
X139114951Y-105807820D01*
X139239890Y-105979786D01*
X139390213Y-106130109D01*
X139562179Y-106255048D01*
X139562181Y-106255049D01*
X139562184Y-106255051D01*
X139751588Y-106351557D01*
X139953757Y-106417246D01*
X140163713Y-106450500D01*
X140163714Y-106450500D01*
X140376286Y-106450500D01*
X140376287Y-106450500D01*
X140586243Y-106417246D01*
X140788412Y-106351557D01*
X140977816Y-106255051D01*
X141014760Y-106228210D01*
X141149786Y-106130109D01*
X141149788Y-106130106D01*
X141149792Y-106130104D01*
X141300104Y-105979792D01*
X141300106Y-105979788D01*
X141300109Y-105979786D01*
X141425048Y-105807820D01*
X141425047Y-105807820D01*
X141425051Y-105807816D01*
X141429514Y-105799054D01*
X141477488Y-105748259D01*
X141545308Y-105731463D01*
X141611444Y-105753999D01*
X141650486Y-105799056D01*
X141654951Y-105807820D01*
X141779890Y-105979786D01*
X141930213Y-106130109D01*
X142102179Y-106255048D01*
X142102181Y-106255049D01*
X142102184Y-106255051D01*
X142291588Y-106351557D01*
X142493757Y-106417246D01*
X142703713Y-106450500D01*
X142703714Y-106450500D01*
X142916286Y-106450500D01*
X142916287Y-106450500D01*
X143126243Y-106417246D01*
X143328412Y-106351557D01*
X143517816Y-106255051D01*
X143554760Y-106228210D01*
X143689786Y-106130109D01*
X143689788Y-106130106D01*
X143689792Y-106130104D01*
X143840104Y-105979792D01*
X143840106Y-105979788D01*
X143840109Y-105979786D01*
X143965048Y-105807820D01*
X143965047Y-105807820D01*
X143965051Y-105807816D01*
X144061557Y-105618412D01*
X144127246Y-105416243D01*
X144160500Y-105206287D01*
X144160500Y-104993713D01*
X144127246Y-104783757D01*
X144061557Y-104581588D01*
X143965051Y-104392184D01*
X143965049Y-104392181D01*
X143965048Y-104392179D01*
X143840109Y-104220213D01*
X143689786Y-104069890D01*
X143517820Y-103944951D01*
X143328414Y-103848444D01*
X143328413Y-103848443D01*
X143328412Y-103848443D01*
X143126243Y-103782754D01*
X143126241Y-103782753D01*
X143126240Y-103782753D01*
X142964957Y-103757208D01*
X142916287Y-103749500D01*
X142703713Y-103749500D01*
X142655042Y-103757208D01*
X142493760Y-103782753D01*
X142291585Y-103848444D01*
X142102179Y-103944951D01*
X141930213Y-104069890D01*
X141779890Y-104220213D01*
X141654949Y-104392182D01*
X141650484Y-104400946D01*
X141602509Y-104451742D01*
X141534688Y-104468536D01*
X141468553Y-104445998D01*
X141429516Y-104400946D01*
X141425050Y-104392182D01*
X141300109Y-104220213D01*
X141149786Y-104069890D01*
X140977820Y-103944951D01*
X140788414Y-103848444D01*
X140788413Y-103848443D01*
X140788412Y-103848443D01*
X140586243Y-103782754D01*
X140586241Y-103782753D01*
X140586240Y-103782753D01*
X140424957Y-103757208D01*
X140376287Y-103749500D01*
X140163713Y-103749500D01*
X140115042Y-103757208D01*
X139953760Y-103782753D01*
X139751585Y-103848444D01*
X139562179Y-103944951D01*
X139390213Y-104069890D01*
X139239890Y-104220213D01*
X139114949Y-104392182D01*
X139110484Y-104400946D01*
X139062509Y-104451742D01*
X138994688Y-104468536D01*
X138928553Y-104445998D01*
X138889516Y-104400946D01*
X138885050Y-104392182D01*
X138760109Y-104220213D01*
X138609786Y-104069890D01*
X138437820Y-103944951D01*
X138248414Y-103848444D01*
X138248413Y-103848443D01*
X138248412Y-103848443D01*
X138046243Y-103782754D01*
X138046241Y-103782753D01*
X138046240Y-103782753D01*
X137884957Y-103757208D01*
X137836287Y-103749500D01*
X137623713Y-103749500D01*
X137575042Y-103757208D01*
X137413760Y-103782753D01*
X137211585Y-103848444D01*
X137022179Y-103944951D01*
X136850213Y-104069890D01*
X136699890Y-104220213D01*
X136574951Y-104392179D01*
X136478444Y-104581585D01*
X136412753Y-104783760D01*
X136379500Y-104993713D01*
X121501606Y-104993713D01*
X122682534Y-103842708D01*
X122690243Y-103838334D01*
X122716479Y-103809624D01*
X122738600Y-103788064D01*
X122738601Y-103788061D01*
X122743813Y-103782982D01*
X122746249Y-103780296D01*
X122864444Y-103667028D01*
X122877006Y-103656494D01*
X122883312Y-103651881D01*
X123029205Y-103545145D01*
X123043055Y-103536357D01*
X123208636Y-103446088D01*
X123223514Y-103439213D01*
X123399569Y-103371610D01*
X123415231Y-103366759D01*
X123598671Y-103323008D01*
X123614845Y-103320267D01*
X123802433Y-103301137D01*
X123814980Y-103300498D01*
X154148547Y-103298957D01*
X154155263Y-103298957D01*
X154158011Y-103299794D01*
G37*
G04 #@! TD.AperFunction*
M02*
