%TF.GenerationSoftware,KiCad,Pcbnew,9.0.2*%
%TF.CreationDate,2025-12-17T16:44:21-05:00*%
%TF.ProjectId,Quectel_l96_Carrier_Board,51756563-7465-46c5-9f6c-39365f436172,rev?*%
%TF.SameCoordinates,Original*%
%TF.FileFunction,Legend,Top*%
%TF.FilePolarity,Positive*%
%FSLAX46Y46*%
G04 Gerber Fmt 4.6, Leading zero omitted, Abs format (unit mm)*
G04 Created by KiCad (PCBNEW 9.0.2) date 2025-12-17 16:44:21*
%MOMM*%
%LPD*%
G01*
G04 APERTURE LIST*
%ADD10C,0.100000*%
%ADD11C,0.120000*%
G04 APERTURE END LIST*
D10*
X144620038Y-37572306D02*
X144572419Y-37667544D01*
X144572419Y-37667544D02*
X144572419Y-37810401D01*
X144572419Y-37810401D02*
X144620038Y-37953258D01*
X144620038Y-37953258D02*
X144715276Y-38048496D01*
X144715276Y-38048496D02*
X144810514Y-38096115D01*
X144810514Y-38096115D02*
X145000990Y-38143734D01*
X145000990Y-38143734D02*
X145143847Y-38143734D01*
X145143847Y-38143734D02*
X145334323Y-38096115D01*
X145334323Y-38096115D02*
X145429561Y-38048496D01*
X145429561Y-38048496D02*
X145524800Y-37953258D01*
X145524800Y-37953258D02*
X145572419Y-37810401D01*
X145572419Y-37810401D02*
X145572419Y-37715163D01*
X145572419Y-37715163D02*
X145524800Y-37572306D01*
X145524800Y-37572306D02*
X145477180Y-37524687D01*
X145477180Y-37524687D02*
X145143847Y-37524687D01*
X145143847Y-37524687D02*
X145143847Y-37715163D01*
X145572419Y-37096115D02*
X144572419Y-37096115D01*
X144572419Y-37096115D02*
X145572419Y-36524687D01*
X145572419Y-36524687D02*
X144572419Y-36524687D01*
X145572419Y-36048496D02*
X144572419Y-36048496D01*
X144572419Y-36048496D02*
X144572419Y-35810401D01*
X144572419Y-35810401D02*
X144620038Y-35667544D01*
X144620038Y-35667544D02*
X144715276Y-35572306D01*
X144715276Y-35572306D02*
X144810514Y-35524687D01*
X144810514Y-35524687D02*
X145000990Y-35477068D01*
X145000990Y-35477068D02*
X145143847Y-35477068D01*
X145143847Y-35477068D02*
X145334323Y-35524687D01*
X145334323Y-35524687D02*
X145429561Y-35572306D01*
X145429561Y-35572306D02*
X145524800Y-35667544D01*
X145524800Y-35667544D02*
X145572419Y-35810401D01*
X145572419Y-35810401D02*
X145572419Y-36048496D01*
X143072419Y-37524687D02*
X142596228Y-37858020D01*
X143072419Y-38096115D02*
X142072419Y-38096115D01*
X142072419Y-38096115D02*
X142072419Y-37715163D01*
X142072419Y-37715163D02*
X142120038Y-37619925D01*
X142120038Y-37619925D02*
X142167657Y-37572306D01*
X142167657Y-37572306D02*
X142262895Y-37524687D01*
X142262895Y-37524687D02*
X142405752Y-37524687D01*
X142405752Y-37524687D02*
X142500990Y-37572306D01*
X142500990Y-37572306D02*
X142548609Y-37619925D01*
X142548609Y-37619925D02*
X142596228Y-37715163D01*
X142596228Y-37715163D02*
X142596228Y-38096115D01*
X142548609Y-37096115D02*
X142548609Y-36762782D01*
X143072419Y-36619925D02*
X143072419Y-37096115D01*
X143072419Y-37096115D02*
X142072419Y-37096115D01*
X142072419Y-37096115D02*
X142072419Y-36619925D01*
X143024800Y-36238972D02*
X143072419Y-36096115D01*
X143072419Y-36096115D02*
X143072419Y-35858020D01*
X143072419Y-35858020D02*
X143024800Y-35762782D01*
X143024800Y-35762782D02*
X142977180Y-35715163D01*
X142977180Y-35715163D02*
X142881942Y-35667544D01*
X142881942Y-35667544D02*
X142786704Y-35667544D01*
X142786704Y-35667544D02*
X142691466Y-35715163D01*
X142691466Y-35715163D02*
X142643847Y-35762782D01*
X142643847Y-35762782D02*
X142596228Y-35858020D01*
X142596228Y-35858020D02*
X142548609Y-36048496D01*
X142548609Y-36048496D02*
X142500990Y-36143734D01*
X142500990Y-36143734D02*
X142453371Y-36191353D01*
X142453371Y-36191353D02*
X142358133Y-36238972D01*
X142358133Y-36238972D02*
X142262895Y-36238972D01*
X142262895Y-36238972D02*
X142167657Y-36191353D01*
X142167657Y-36191353D02*
X142120038Y-36143734D01*
X142120038Y-36143734D02*
X142072419Y-36048496D01*
X142072419Y-36048496D02*
X142072419Y-35810401D01*
X142072419Y-35810401D02*
X142120038Y-35667544D01*
X142548609Y-35238972D02*
X142548609Y-34905639D01*
X143072419Y-34762782D02*
X143072419Y-35238972D01*
X143072419Y-35238972D02*
X142072419Y-35238972D01*
X142072419Y-35238972D02*
X142072419Y-34762782D01*
X142072419Y-34477067D02*
X142072419Y-33905639D01*
X143072419Y-34191353D02*
X142072419Y-34191353D01*
X139472419Y-38238972D02*
X139472419Y-37667544D01*
X140472419Y-37953258D02*
X139472419Y-37953258D01*
X139472419Y-37429448D02*
X140472419Y-36762782D01*
X139472419Y-36762782D02*
X140472419Y-37429448D01*
X138072419Y-37524687D02*
X137596228Y-37858020D01*
X138072419Y-38096115D02*
X137072419Y-38096115D01*
X137072419Y-38096115D02*
X137072419Y-37715163D01*
X137072419Y-37715163D02*
X137120038Y-37619925D01*
X137120038Y-37619925D02*
X137167657Y-37572306D01*
X137167657Y-37572306D02*
X137262895Y-37524687D01*
X137262895Y-37524687D02*
X137405752Y-37524687D01*
X137405752Y-37524687D02*
X137500990Y-37572306D01*
X137500990Y-37572306D02*
X137548609Y-37619925D01*
X137548609Y-37619925D02*
X137596228Y-37715163D01*
X137596228Y-37715163D02*
X137596228Y-38096115D01*
X137072419Y-37191353D02*
X138072419Y-36524687D01*
X137072419Y-36524687D02*
X138072419Y-37191353D01*
X135148609Y-37762782D02*
X135148609Y-38096115D01*
X135672419Y-38096115D02*
X134672419Y-38096115D01*
X134672419Y-38096115D02*
X134672419Y-37619925D01*
X134672419Y-37048496D02*
X134672419Y-36858020D01*
X134672419Y-36858020D02*
X134720038Y-36762782D01*
X134720038Y-36762782D02*
X134815276Y-36667544D01*
X134815276Y-36667544D02*
X135005752Y-36619925D01*
X135005752Y-36619925D02*
X135339085Y-36619925D01*
X135339085Y-36619925D02*
X135529561Y-36667544D01*
X135529561Y-36667544D02*
X135624800Y-36762782D01*
X135624800Y-36762782D02*
X135672419Y-36858020D01*
X135672419Y-36858020D02*
X135672419Y-37048496D01*
X135672419Y-37048496D02*
X135624800Y-37143734D01*
X135624800Y-37143734D02*
X135529561Y-37238972D01*
X135529561Y-37238972D02*
X135339085Y-37286591D01*
X135339085Y-37286591D02*
X135005752Y-37286591D01*
X135005752Y-37286591D02*
X134815276Y-37238972D01*
X134815276Y-37238972D02*
X134720038Y-37143734D01*
X134720038Y-37143734D02*
X134672419Y-37048496D01*
X135672419Y-36191353D02*
X134672419Y-36191353D01*
X134672419Y-36191353D02*
X135672419Y-35619925D01*
X135672419Y-35619925D02*
X134672419Y-35619925D01*
X131972419Y-38238972D02*
X131972419Y-37667544D01*
X132972419Y-37953258D02*
X131972419Y-37953258D01*
X132972419Y-37334210D02*
X131972419Y-37334210D01*
X132972419Y-36858020D02*
X131972419Y-36858020D01*
X131972419Y-36858020D02*
X132686704Y-36524687D01*
X132686704Y-36524687D02*
X131972419Y-36191354D01*
X131972419Y-36191354D02*
X132972419Y-36191354D01*
X132448609Y-35715163D02*
X132448609Y-35381830D01*
X132972419Y-35238973D02*
X132972419Y-35715163D01*
X132972419Y-35715163D02*
X131972419Y-35715163D01*
X131972419Y-35715163D02*
X131972419Y-35238973D01*
X129372419Y-38191353D02*
X129372419Y-37572306D01*
X129372419Y-37572306D02*
X129753371Y-37905639D01*
X129753371Y-37905639D02*
X129753371Y-37762782D01*
X129753371Y-37762782D02*
X129800990Y-37667544D01*
X129800990Y-37667544D02*
X129848609Y-37619925D01*
X129848609Y-37619925D02*
X129943847Y-37572306D01*
X129943847Y-37572306D02*
X130181942Y-37572306D01*
X130181942Y-37572306D02*
X130277180Y-37619925D01*
X130277180Y-37619925D02*
X130324800Y-37667544D01*
X130324800Y-37667544D02*
X130372419Y-37762782D01*
X130372419Y-37762782D02*
X130372419Y-38048496D01*
X130372419Y-38048496D02*
X130324800Y-38143734D01*
X130324800Y-38143734D02*
X130277180Y-38191353D01*
X130372419Y-37143734D02*
X129372419Y-37143734D01*
X129372419Y-37143734D02*
X129372419Y-36905639D01*
X129372419Y-36905639D02*
X129420038Y-36762782D01*
X129420038Y-36762782D02*
X129515276Y-36667544D01*
X129515276Y-36667544D02*
X129610514Y-36619925D01*
X129610514Y-36619925D02*
X129800990Y-36572306D01*
X129800990Y-36572306D02*
X129943847Y-36572306D01*
X129943847Y-36572306D02*
X130134323Y-36619925D01*
X130134323Y-36619925D02*
X130229561Y-36667544D01*
X130229561Y-36667544D02*
X130324800Y-36762782D01*
X130324800Y-36762782D02*
X130372419Y-36905639D01*
X130372419Y-36905639D02*
X130372419Y-37143734D01*
X130467657Y-36381830D02*
X130467657Y-35619925D01*
X129848609Y-35048496D02*
X129848609Y-35381829D01*
X130372419Y-35381829D02*
X129372419Y-35381829D01*
X129372419Y-35381829D02*
X129372419Y-34905639D01*
X130372419Y-34524686D02*
X129372419Y-34524686D01*
X129372419Y-34143734D02*
X130372419Y-33477068D01*
X129372419Y-33477068D02*
X130372419Y-34143734D01*
X126972419Y-38238972D02*
X127972419Y-37905639D01*
X127972419Y-37905639D02*
X126972419Y-37572306D01*
X127877180Y-36667544D02*
X127924800Y-36715163D01*
X127924800Y-36715163D02*
X127972419Y-36858020D01*
X127972419Y-36858020D02*
X127972419Y-36953258D01*
X127972419Y-36953258D02*
X127924800Y-37096115D01*
X127924800Y-37096115D02*
X127829561Y-37191353D01*
X127829561Y-37191353D02*
X127734323Y-37238972D01*
X127734323Y-37238972D02*
X127543847Y-37286591D01*
X127543847Y-37286591D02*
X127400990Y-37286591D01*
X127400990Y-37286591D02*
X127210514Y-37238972D01*
X127210514Y-37238972D02*
X127115276Y-37191353D01*
X127115276Y-37191353D02*
X127020038Y-37096115D01*
X127020038Y-37096115D02*
X126972419Y-36953258D01*
X126972419Y-36953258D02*
X126972419Y-36858020D01*
X126972419Y-36858020D02*
X127020038Y-36715163D01*
X127020038Y-36715163D02*
X127067657Y-36667544D01*
X127877180Y-35667544D02*
X127924800Y-35715163D01*
X127924800Y-35715163D02*
X127972419Y-35858020D01*
X127972419Y-35858020D02*
X127972419Y-35953258D01*
X127972419Y-35953258D02*
X127924800Y-36096115D01*
X127924800Y-36096115D02*
X127829561Y-36191353D01*
X127829561Y-36191353D02*
X127734323Y-36238972D01*
X127734323Y-36238972D02*
X127543847Y-36286591D01*
X127543847Y-36286591D02*
X127400990Y-36286591D01*
X127400990Y-36286591D02*
X127210514Y-36238972D01*
X127210514Y-36238972D02*
X127115276Y-36191353D01*
X127115276Y-36191353D02*
X127020038Y-36096115D01*
X127020038Y-36096115D02*
X126972419Y-35953258D01*
X126972419Y-35953258D02*
X126972419Y-35858020D01*
X126972419Y-35858020D02*
X127020038Y-35715163D01*
X127020038Y-35715163D02*
X127067657Y-35667544D01*
D11*
%TO.C,J1*%
X128670000Y-38820000D02*
X146560000Y-38820000D01*
X146560000Y-41580000D02*
X146560000Y-38820000D01*
X128670000Y-41580000D02*
X128670000Y-38820000D01*
X128670000Y-41580000D02*
X146560000Y-41580000D01*
X127400000Y-41580000D02*
X126020000Y-41580000D01*
X126020000Y-41580000D02*
X126020000Y-40200000D01*
%TO.C,C23*%
X128860000Y-54812164D02*
X128860000Y-55027836D01*
X128140000Y-54812164D02*
X128140000Y-55027836D01*
%TO.C,C22*%
X128890000Y-52540580D02*
X128890000Y-52259420D01*
X129910000Y-52540580D02*
X129910000Y-52259420D01*
%TO.C,C21*%
X129960000Y-54792164D02*
X129960000Y-55007836D01*
X129240000Y-54792164D02*
X129240000Y-55007836D01*
%TO.C,U5*%
X132290000Y-45230000D02*
X134590000Y-45230000D01*
X132290000Y-45530000D02*
X132290000Y-45230000D01*
X132290000Y-59450000D02*
X132290000Y-58900000D01*
X139810000Y-45230000D02*
X142110000Y-45230000D01*
X142110000Y-45230000D02*
X142110000Y-45530000D01*
X142110000Y-59450000D02*
X132290000Y-59450000D01*
X142110000Y-59450000D02*
X142110000Y-58900000D01*
X131770000Y-45530000D02*
X131530000Y-45200000D01*
X132010000Y-45200000D01*
X131770000Y-45530000D01*
G36*
X131770000Y-45530000D02*
G01*
X131530000Y-45200000D01*
X132010000Y-45200000D01*
X131770000Y-45530000D01*
G37*
%TD*%
M02*
