%TF.GenerationSoftware,KiCad,Pcbnew,9.0.2*%
%TF.CreationDate,2025-09-05T22:55:57-04:00*%
%TF.ProjectId,GPSWatch,47505357-6174-4636-982e-6b696361645f,rev?*%
%TF.SameCoordinates,Original*%
%TF.FileFunction,Soldermask,Top*%
%TF.FilePolarity,Negative*%
%FSLAX46Y46*%
G04 Gerber Fmt 4.6, Leading zero omitted, Abs format (unit mm)*
G04 Created by KiCad (PCBNEW 9.0.2) date 2025-09-05 22:55:57*
%MOMM*%
%LPD*%
G01*
G04 APERTURE LIST*
G04 Aperture macros list*
%AMRoundRect*
0 Rectangle with rounded corners*
0 $1 Rounding radius*
0 $2 $3 $4 $5 $6 $7 $8 $9 X,Y pos of 4 corners*
0 Add a 4 corners polygon primitive as box body*
4,1,4,$2,$3,$4,$5,$6,$7,$8,$9,$2,$3,0*
0 Add four circle primitives for the rounded corners*
1,1,$1+$1,$2,$3*
1,1,$1+$1,$4,$5*
1,1,$1+$1,$6,$7*
1,1,$1+$1,$8,$9*
0 Add four rect primitives between the rounded corners*
20,1,$1+$1,$2,$3,$4,$5,0*
20,1,$1+$1,$4,$5,$6,$7,0*
20,1,$1+$1,$6,$7,$8,$9,0*
20,1,$1+$1,$8,$9,$2,$3,0*%
G04 Aperture macros list end*
%ADD10C,0.010000*%
%ADD11RoundRect,0.375000X0.375000X-0.625000X0.375000X0.625000X-0.375000X0.625000X-0.375000X-0.625000X0*%
%ADD12RoundRect,0.500000X1.400000X-0.500000X1.400000X0.500000X-1.400000X0.500000X-1.400000X-0.500000X0*%
%ADD13RoundRect,0.140000X-0.170000X0.140000X-0.170000X-0.140000X0.170000X-0.140000X0.170000X0.140000X0*%
%ADD14RoundRect,0.135000X-0.135000X-0.185000X0.135000X-0.185000X0.135000X0.185000X-0.135000X0.185000X0*%
%ADD15RoundRect,0.140000X-0.140000X-0.170000X0.140000X-0.170000X0.140000X0.170000X-0.140000X0.170000X0*%
%ADD16RoundRect,0.250000X-0.123744X-0.512652X0.512652X0.123744X0.123744X0.512652X-0.512652X-0.123744X0*%
%ADD17RoundRect,0.225000X0.225000X0.250000X-0.225000X0.250000X-0.225000X-0.250000X0.225000X-0.250000X0*%
%ADD18RoundRect,0.225000X0.250000X-0.225000X0.250000X0.225000X-0.250000X0.225000X-0.250000X-0.225000X0*%
%ADD19RoundRect,0.225000X-0.225000X-0.250000X0.225000X-0.250000X0.225000X0.250000X-0.225000X0.250000X0*%
%ADD20O,0.800000X0.800000*%
%ADD21R,1.300000X0.450000*%
%ADD22O,1.800000X1.150000*%
%ADD23O,2.000000X1.450000*%
%ADD24RoundRect,0.050000X0.100000X-0.285000X0.100000X0.285000X-0.100000X0.285000X-0.100000X-0.285000X0*%
%ADD25R,1.700000X1.700000*%
%ADD26C,1.700000*%
%ADD27RoundRect,0.140000X0.170000X-0.140000X0.170000X0.140000X-0.170000X0.140000X-0.170000X-0.140000X0*%
%ADD28RoundRect,0.102000X-1.075000X-0.350000X1.075000X-0.350000X1.075000X0.350000X-1.075000X0.350000X0*%
%ADD29RoundRect,0.102000X-0.350000X-1.075000X0.350000X-1.075000X0.350000X1.075000X-0.350000X1.075000X0*%
%ADD30RoundRect,0.140000X0.140000X0.170000X-0.140000X0.170000X-0.140000X-0.170000X0.140000X-0.170000X0*%
%ADD31RoundRect,0.075000X-0.662500X-0.075000X0.662500X-0.075000X0.662500X0.075000X-0.662500X0.075000X0*%
%ADD32RoundRect,0.075000X-0.075000X-0.662500X0.075000X-0.662500X0.075000X0.662500X-0.075000X0.662500X0*%
%ADD33RoundRect,0.135000X0.135000X0.185000X-0.135000X0.185000X-0.135000X-0.185000X0.135000X-0.185000X0*%
%ADD34RoundRect,0.250000X-0.275000X0.450000X-0.275000X-0.450000X0.275000X-0.450000X0.275000X0.450000X0*%
%ADD35RoundRect,0.135000X0.185000X-0.135000X0.185000X0.135000X-0.185000X0.135000X-0.185000X-0.135000X0*%
%ADD36RoundRect,0.250000X0.512652X-0.123744X-0.123744X0.512652X-0.512652X0.123744X0.123744X-0.512652X0*%
%ADD37C,4.400000*%
%ADD38R,0.800000X1.000000*%
%ADD39C,0.900000*%
%ADD40R,1.500000X0.700000*%
%ADD41RoundRect,0.135000X-0.185000X0.135000X-0.185000X-0.135000X0.185000X-0.135000X0.185000X0.135000X0*%
%ADD42RoundRect,0.195000X-0.555000X-0.455000X0.555000X-0.455000X0.555000X0.455000X-0.555000X0.455000X0*%
%ADD43RoundRect,0.255000X-0.595000X-1.045000X0.595000X-1.045000X0.595000X1.045000X-0.595000X1.045000X0*%
%ADD44RoundRect,0.150000X-0.512500X-0.150000X0.512500X-0.150000X0.512500X0.150000X-0.512500X0.150000X0*%
%ADD45R,1.100000X0.850000*%
%ADD46R,1.100000X0.750000*%
%ADD47R,1.000000X1.200000*%
%ADD48R,1.350000X1.550000*%
%ADD49R,1.350000X1.900000*%
%ADD50R,1.800000X1.170000*%
%ADD51RoundRect,0.102000X-1.200000X0.950000X-1.200000X-0.950000X1.200000X-0.950000X1.200000X0.950000X0*%
%ADD52RoundRect,0.218750X-0.256250X0.218750X-0.256250X-0.218750X0.256250X-0.218750X0.256250X0.218750X0*%
%ADD53RoundRect,0.250000X0.350000X0.625000X-0.350000X0.625000X-0.350000X-0.625000X0.350000X-0.625000X0*%
%ADD54O,1.200000X1.750000*%
G04 APERTURE END LIST*
D10*
%TO.C,U6*%
X144312500Y-116825000D02*
X143862500Y-116825000D01*
X143862500Y-116425000D01*
X144312500Y-116425000D01*
X144312500Y-116825000D01*
G36*
X144312500Y-116825000D02*
G01*
X143862500Y-116825000D01*
X143862500Y-116425000D01*
X144312500Y-116425000D01*
X144312500Y-116825000D01*
G37*
X144312500Y-117325000D02*
X143862500Y-117325000D01*
X143862500Y-116925000D01*
X144312500Y-116925000D01*
X144312500Y-117325000D01*
G36*
X144312500Y-117325000D02*
G01*
X143862500Y-117325000D01*
X143862500Y-116925000D01*
X144312500Y-116925000D01*
X144312500Y-117325000D01*
G37*
X144312500Y-117825000D02*
X143862500Y-117825000D01*
X143862500Y-117425000D01*
X144312500Y-117425000D01*
X144312500Y-117825000D01*
G36*
X144312500Y-117825000D02*
G01*
X143862500Y-117825000D01*
X143862500Y-117425000D01*
X144312500Y-117425000D01*
X144312500Y-117825000D01*
G37*
X144312500Y-118325000D02*
X143862500Y-118325000D01*
X143862500Y-117925000D01*
X144312500Y-117925000D01*
X144312500Y-118325000D01*
G36*
X144312500Y-118325000D02*
G01*
X143862500Y-118325000D01*
X143862500Y-117925000D01*
X144312500Y-117925000D01*
X144312500Y-118325000D01*
G37*
X144787500Y-116775000D02*
X144437500Y-116775000D01*
X144437500Y-116375000D01*
X144787500Y-116375000D01*
X144787500Y-116775000D01*
G36*
X144787500Y-116775000D02*
G01*
X144437500Y-116775000D01*
X144437500Y-116375000D01*
X144787500Y-116375000D01*
X144787500Y-116775000D01*
G37*
X144787500Y-118375000D02*
X144437500Y-118375000D01*
X144437500Y-117975000D01*
X144787500Y-117975000D01*
X144787500Y-118375000D01*
G36*
X144787500Y-118375000D02*
G01*
X144437500Y-118375000D01*
X144437500Y-117975000D01*
X144787500Y-117975000D01*
X144787500Y-118375000D01*
G37*
X145287500Y-116775000D02*
X144937500Y-116775000D01*
X144937500Y-116375000D01*
X145287500Y-116375000D01*
X145287500Y-116775000D01*
G36*
X145287500Y-116775000D02*
G01*
X144937500Y-116775000D01*
X144937500Y-116375000D01*
X145287500Y-116375000D01*
X145287500Y-116775000D01*
G37*
X145287500Y-118375000D02*
X144937500Y-118375000D01*
X144937500Y-117975000D01*
X145287500Y-117975000D01*
X145287500Y-118375000D01*
G36*
X145287500Y-118375000D02*
G01*
X144937500Y-118375000D01*
X144937500Y-117975000D01*
X145287500Y-117975000D01*
X145287500Y-118375000D01*
G37*
X145862500Y-116825000D02*
X145412500Y-116825000D01*
X145412500Y-116425000D01*
X145862500Y-116425000D01*
X145862500Y-116825000D01*
G36*
X145862500Y-116825000D02*
G01*
X145412500Y-116825000D01*
X145412500Y-116425000D01*
X145862500Y-116425000D01*
X145862500Y-116825000D01*
G37*
X145862500Y-117325000D02*
X145412500Y-117325000D01*
X145412500Y-116925000D01*
X145862500Y-116925000D01*
X145862500Y-117325000D01*
G36*
X145862500Y-117325000D02*
G01*
X145412500Y-117325000D01*
X145412500Y-116925000D01*
X145862500Y-116925000D01*
X145862500Y-117325000D01*
G37*
X145862500Y-117825000D02*
X145412500Y-117825000D01*
X145412500Y-117425000D01*
X145862500Y-117425000D01*
X145862500Y-117825000D01*
G36*
X145862500Y-117825000D02*
G01*
X145412500Y-117825000D01*
X145412500Y-117425000D01*
X145862500Y-117425000D01*
X145862500Y-117825000D01*
G37*
X145862500Y-118325000D02*
X145412500Y-118325000D01*
X145412500Y-117925000D01*
X145862500Y-117925000D01*
X145862500Y-118325000D01*
G36*
X145862500Y-118325000D02*
G01*
X145412500Y-118325000D01*
X145412500Y-117925000D01*
X145862500Y-117925000D01*
X145862500Y-118325000D01*
G37*
%TD*%
D11*
%TO.C,U2*%
X142500000Y-100800000D03*
X144800000Y-100800000D03*
D12*
X144800000Y-94500000D03*
D11*
X147100000Y-100800000D03*
%TD*%
D13*
%TO.C,C16*%
X160900000Y-120270000D03*
X160900000Y-121230000D03*
%TD*%
D14*
%TO.C,R15*%
X168365000Y-93325000D03*
X169385000Y-93325000D03*
%TD*%
D15*
%TO.C,C15*%
X146670000Y-116600000D03*
X147630000Y-116600000D03*
%TD*%
D13*
%TO.C,C18*%
X143037500Y-116545000D03*
X143037500Y-117505000D03*
%TD*%
D15*
%TO.C,C4*%
X153545000Y-114300000D03*
X154505000Y-114300000D03*
%TD*%
D16*
%TO.C,SW4*%
X170218091Y-131763675D03*
X172763675Y-129218091D03*
X171236325Y-132781909D03*
X173781909Y-130236325D03*
%TD*%
D14*
%TO.C,R10*%
X137190000Y-123575000D03*
X138210000Y-123575000D03*
%TD*%
D17*
%TO.C,C13*%
X143045000Y-103145000D03*
X141495000Y-103145000D03*
%TD*%
D18*
%TO.C,C10*%
X162925000Y-97750000D03*
X162925000Y-96200000D03*
%TD*%
D19*
%TO.C,C9*%
X168712500Y-98237500D03*
X170262500Y-98237500D03*
%TD*%
D15*
%TO.C,C6*%
X142945000Y-111730000D03*
X143905000Y-111730000D03*
%TD*%
%TO.C,C7*%
X142945000Y-110730000D03*
X143905000Y-110730000D03*
%TD*%
D20*
%TO.C,J1*%
X170925000Y-109650000D03*
X170925000Y-104650000D03*
D21*
X169825000Y-108450000D03*
X169825000Y-107800000D03*
X169825000Y-107150000D03*
X169825000Y-106500000D03*
X169825000Y-105850000D03*
D22*
X173675000Y-111025000D03*
D23*
X169875000Y-110875000D03*
X169875000Y-103425000D03*
D22*
X173675000Y-103275000D03*
%TD*%
D14*
%TO.C,R6*%
X164815000Y-104485000D03*
X165835000Y-104485000D03*
%TD*%
D19*
%TO.C,C5*%
X153800000Y-113025000D03*
X155350000Y-113025000D03*
%TD*%
D24*
%TO.C,U4*%
X164200000Y-103350000D03*
X164700000Y-103350000D03*
X165200000Y-103350000D03*
X165700000Y-103350000D03*
X165700000Y-101870000D03*
X165200000Y-101870000D03*
X164700000Y-101870000D03*
X164200000Y-101870000D03*
%TD*%
D25*
%TO.C,J5*%
X151515000Y-99700000D03*
D26*
X154055000Y-99700000D03*
X156595000Y-99700000D03*
X159135000Y-99700000D03*
%TD*%
D27*
%TO.C,C12*%
X149325000Y-96505000D03*
X149325000Y-95545000D03*
%TD*%
D28*
%TO.C,U5*%
X148425000Y-119950000D03*
X148425000Y-120950000D03*
X148425000Y-121950000D03*
X148425000Y-122950000D03*
X148425000Y-123950000D03*
X148425000Y-124950000D03*
X148425000Y-125950000D03*
X148425000Y-126950000D03*
X148425000Y-127950000D03*
X148425000Y-128950000D03*
X148425000Y-129950000D03*
X148425000Y-130950000D03*
X148425000Y-132100000D03*
X158025000Y-132100000D03*
X158025000Y-130950000D03*
X158025000Y-129950000D03*
X158025000Y-128950000D03*
X158025000Y-127950000D03*
X158025000Y-126950000D03*
X158025000Y-125950000D03*
X158025000Y-124950000D03*
X158025000Y-123950000D03*
X158025000Y-122950000D03*
X158025000Y-121950000D03*
X158025000Y-120950000D03*
X158025000Y-119950000D03*
D29*
X155225000Y-119150000D03*
X154225000Y-119150000D03*
X153225000Y-119150000D03*
X152225000Y-119150000D03*
X151225000Y-119150000D03*
%TD*%
D30*
%TO.C,C22*%
X145555000Y-122425000D03*
X144595000Y-122425000D03*
%TD*%
D13*
%TO.C,C1*%
X155425000Y-105470000D03*
X155425000Y-106430000D03*
%TD*%
D15*
%TO.C,C17*%
X153620000Y-97300000D03*
X154580000Y-97300000D03*
%TD*%
D31*
%TO.C,U1*%
X145562500Y-105725000D03*
X145562500Y-106225000D03*
X145562500Y-106725000D03*
X145562500Y-107225000D03*
X145562500Y-107725000D03*
X145562500Y-108225000D03*
X145562500Y-108725000D03*
X145562500Y-109225000D03*
X145562500Y-109725000D03*
X145562500Y-110225000D03*
X145562500Y-110725000D03*
X145562500Y-111225000D03*
D32*
X146975000Y-112637500D03*
X147475000Y-112637500D03*
X147975000Y-112637500D03*
X148475000Y-112637500D03*
X148975000Y-112637500D03*
X149475000Y-112637500D03*
X149975000Y-112637500D03*
X150475000Y-112637500D03*
X150975000Y-112637500D03*
X151475000Y-112637500D03*
X151975000Y-112637500D03*
X152475000Y-112637500D03*
D31*
X153887500Y-111225000D03*
X153887500Y-110725000D03*
X153887500Y-110225000D03*
X153887500Y-109725000D03*
X153887500Y-109225000D03*
X153887500Y-108725000D03*
X153887500Y-108225000D03*
X153887500Y-107725000D03*
X153887500Y-107225000D03*
X153887500Y-106725000D03*
X153887500Y-106225000D03*
X153887500Y-105725000D03*
D32*
X152475000Y-104312500D03*
X151975000Y-104312500D03*
X151475000Y-104312500D03*
X150975000Y-104312500D03*
X150475000Y-104312500D03*
X149975000Y-104312500D03*
X149475000Y-104312500D03*
X148975000Y-104312500D03*
X148475000Y-104312500D03*
X147975000Y-104312500D03*
X147475000Y-104312500D03*
X146975000Y-104312500D03*
%TD*%
D33*
%TO.C,R3*%
X165672500Y-94637500D03*
X164652500Y-94637500D03*
%TD*%
D34*
%TO.C,SW5*%
X137445000Y-110975000D03*
X137445000Y-114575000D03*
X136005000Y-110975000D03*
X136005000Y-114575000D03*
%TD*%
D14*
%TO.C,R8*%
X155165000Y-102150000D03*
X156185000Y-102150000D03*
%TD*%
D35*
%TO.C,R17*%
X161250000Y-106985000D03*
X161250000Y-105965000D03*
%TD*%
D36*
%TO.C,SW3*%
X172663675Y-97581909D03*
X170118091Y-95036325D03*
X173681909Y-96563675D03*
X171136325Y-94018091D03*
%TD*%
D14*
%TO.C,R11*%
X142515000Y-123600000D03*
X143535000Y-123600000D03*
%TD*%
D37*
%TO.C,H1*%
X163400000Y-130700000D03*
%TD*%
D33*
%TO.C,R9*%
X159785000Y-102100000D03*
X158765000Y-102100000D03*
%TD*%
D13*
%TO.C,C24*%
X139975000Y-107445000D03*
X139975000Y-108405000D03*
%TD*%
D38*
%TO.C,SW2*%
X138185000Y-94450000D03*
X135975000Y-94450000D03*
D39*
X137075000Y-96600000D03*
X137075000Y-99600000D03*
D38*
X138185000Y-101750000D03*
X135975000Y-101750000D03*
D40*
X138835000Y-95850000D03*
X138835000Y-98850000D03*
X138835000Y-100350000D03*
%TD*%
D41*
%TO.C,R5*%
X166825000Y-102475000D03*
X166825000Y-103495000D03*
%TD*%
D30*
%TO.C,C23*%
X145530000Y-121425000D03*
X144570000Y-121425000D03*
%TD*%
D41*
%TO.C,R4*%
X168512500Y-95887500D03*
X168512500Y-96907500D03*
%TD*%
D30*
%TO.C,C21*%
X145555000Y-123450000D03*
X144595000Y-123450000D03*
%TD*%
D42*
%TO.C,SW1*%
X138425000Y-132550000D03*
X140425000Y-132550000D03*
X142425000Y-132550000D03*
D43*
X144225000Y-128400000D03*
X136625000Y-128400000D03*
%TD*%
D41*
%TO.C,R1*%
X168100000Y-100215000D03*
X168100000Y-101235000D03*
%TD*%
D30*
%TO.C,C20*%
X137280000Y-116100000D03*
X136320000Y-116100000D03*
%TD*%
D27*
%TO.C,C8*%
X140450000Y-112830000D03*
X140450000Y-111870000D03*
%TD*%
D30*
%TO.C,C14*%
X143300000Y-104445000D03*
X142340000Y-104445000D03*
%TD*%
D14*
%TO.C,R16*%
X170490000Y-127925000D03*
X171510000Y-127925000D03*
%TD*%
D18*
%TO.C,C11*%
X150675000Y-96500000D03*
X150675000Y-94950000D03*
%TD*%
D27*
%TO.C,C19*%
X140000000Y-105550000D03*
X140000000Y-104590000D03*
%TD*%
D44*
%TO.C,U3*%
X164700000Y-95975000D03*
X164700000Y-96925000D03*
X164700000Y-97875000D03*
X166975000Y-97875000D03*
X166975000Y-95975000D03*
%TD*%
D41*
%TO.C,R2*%
X169175000Y-100215000D03*
X169175000Y-101235000D03*
%TD*%
D13*
%TO.C,C2*%
X143950000Y-105745000D03*
X143950000Y-106705000D03*
%TD*%
D45*
%TO.C,J4*%
X173512500Y-116370000D03*
X173512500Y-117470000D03*
X173512500Y-118570000D03*
X173512500Y-119670000D03*
X173512500Y-120770000D03*
X173512500Y-121870000D03*
X173512500Y-122970000D03*
D46*
X173512500Y-124020000D03*
D47*
X167362500Y-113735000D03*
X163662500Y-113735000D03*
D48*
X173387500Y-113910000D03*
D49*
X162687500Y-117235000D03*
X162687500Y-123205000D03*
D50*
X173162500Y-125230000D03*
%TD*%
D51*
%TO.C,Y1*%
X137450000Y-104450000D03*
X137450000Y-108550000D03*
%TD*%
D52*
%TO.C,FB1*%
X141725000Y-110962500D03*
X141725000Y-112537500D03*
%TD*%
D35*
%TO.C,R13*%
X138975000Y-116285000D03*
X138975000Y-115265000D03*
%TD*%
D41*
%TO.C,R12*%
X140475000Y-98865000D03*
X140475000Y-99885000D03*
%TD*%
D35*
%TO.C,R7*%
X163075000Y-101780000D03*
X163075000Y-100760000D03*
%TD*%
D15*
%TO.C,C3*%
X146795000Y-102750000D03*
X147755000Y-102750000D03*
%TD*%
D53*
%TO.C,J2*%
X166675000Y-99875000D03*
D54*
X164675000Y-99875000D03*
%TD*%
M02*
