%TF.GenerationSoftware,KiCad,Pcbnew,9.0.2*%
%TF.CreationDate,2025-09-04T21:02:57-04:00*%
%TF.ProjectId,GPSWatch,47505357-6174-4636-982e-6b696361645f,rev?*%
%TF.SameCoordinates,Original*%
%TF.FileFunction,Copper,L2,Bot*%
%TF.FilePolarity,Positive*%
%FSLAX46Y46*%
G04 Gerber Fmt 4.6, Leading zero omitted, Abs format (unit mm)*
G04 Created by KiCad (PCBNEW 9.0.2) date 2025-09-04 21:02:57*
%MOMM*%
%LPD*%
G01*
G04 APERTURE LIST*
G04 Aperture macros list*
%AMRoundRect*
0 Rectangle with rounded corners*
0 $1 Rounding radius*
0 $2 $3 $4 $5 $6 $7 $8 $9 X,Y pos of 4 corners*
0 Add a 4 corners polygon primitive as box body*
4,1,4,$2,$3,$4,$5,$6,$7,$8,$9,$2,$3,0*
0 Add four circle primitives for the rounded corners*
1,1,$1+$1,$2,$3*
1,1,$1+$1,$4,$5*
1,1,$1+$1,$6,$7*
1,1,$1+$1,$8,$9*
0 Add four rect primitives between the rounded corners*
20,1,$1+$1,$2,$3,$4,$5,0*
20,1,$1+$1,$4,$5,$6,$7,0*
20,1,$1+$1,$6,$7,$8,$9,0*
20,1,$1+$1,$8,$9,$2,$3,0*%
G04 Aperture macros list end*
%TA.AperFunction,ComponentPad*%
%ADD10C,4.400000*%
%TD*%
%TA.AperFunction,HeatsinkPad*%
%ADD11O,1.800000X1.150000*%
%TD*%
%TA.AperFunction,HeatsinkPad*%
%ADD12O,2.000000X1.450000*%
%TD*%
%TA.AperFunction,ComponentPad*%
%ADD13RoundRect,0.250000X0.350000X0.625000X-0.350000X0.625000X-0.350000X-0.625000X0.350000X-0.625000X0*%
%TD*%
%TA.AperFunction,ComponentPad*%
%ADD14O,1.200000X1.750000*%
%TD*%
%TA.AperFunction,ComponentPad*%
%ADD15R,1.700000X1.700000*%
%TD*%
%TA.AperFunction,ComponentPad*%
%ADD16C,1.700000*%
%TD*%
%TA.AperFunction,ViaPad*%
%ADD17C,0.700000*%
%TD*%
%TA.AperFunction,Conductor*%
%ADD18C,0.300000*%
%TD*%
%TA.AperFunction,Conductor*%
%ADD19C,0.500000*%
%TD*%
G04 APERTURE END LIST*
D10*
%TO.P,H1,1,1*%
%TO.N,GND*%
X163400000Y-130700000D03*
%TD*%
D11*
%TO.P,J1,6,Shield*%
%TO.N,GND*%
X173675000Y-111025000D03*
D12*
X169875000Y-110875000D03*
X169875000Y-103425000D03*
D11*
X173675000Y-103275000D03*
%TD*%
D13*
%TO.P,J2,1,Pin_1*%
%TO.N,/VBAT*%
X166675000Y-99875000D03*
D14*
%TO.P,J2,2,Pin_2*%
%TO.N,GND*%
X164675000Y-99875000D03*
%TD*%
D15*
%TO.P,J5,1,Pin_1*%
%TO.N,GND*%
X151515000Y-99700000D03*
D16*
%TO.P,J5,2,Pin_2*%
%TO.N,+3.3V*%
X154055000Y-99700000D03*
%TO.P,J5,3,Pin_3*%
%TO.N,/DISP_SCL*%
X156595000Y-99700000D03*
%TO.P,J5,4,Pin_4*%
%TO.N,/DISP_SDA*%
X159135000Y-99700000D03*
%TD*%
D17*
%TO.N,GND*%
X144125000Y-133150000D03*
X144575000Y-124600000D03*
%TO.N,Net-(U1-BOOT0)*%
X148525000Y-101875000D03*
X140550000Y-101800000D03*
%TO.N,/BTN_SEL*%
X158700000Y-104000000D03*
%TO.N,GND*%
X163622064Y-95197064D03*
X165150000Y-105300000D03*
X144750000Y-112000000D03*
X138750000Y-110450000D03*
X139625000Y-109525000D03*
X140325000Y-110925000D03*
X141000000Y-104650000D03*
X142800000Y-104400000D03*
X143100000Y-106450000D03*
X148090686Y-105709314D03*
X152351164Y-107051164D03*
X155550000Y-114300000D03*
X152350000Y-114225000D03*
%TO.N,/ACC_MISO*%
X148275000Y-115525000D03*
%TO.N,/ACC_SCK*%
X147488066Y-114681753D03*
%TO.N,GND*%
X141775000Y-118250000D03*
%TO.N,+3.3V*%
X141925000Y-117125000D03*
X146575000Y-115750000D03*
%TO.N,/ACC_MISO*%
X147522504Y-118325000D03*
%TO.N,/ACC_SCK*%
X145497222Y-118825002D03*
%TO.N,+3.3V*%
X140575000Y-114350000D03*
X143100000Y-120100000D03*
%TO.N,GND*%
X136550000Y-130825000D03*
X136525000Y-126100000D03*
X144325000Y-126225000D03*
X144425000Y-130550000D03*
X160600000Y-122275000D03*
X170325000Y-129150000D03*
X171550000Y-124875000D03*
X164025000Y-123200000D03*
%TO.N,+3.3V*%
X161950000Y-120350000D03*
%TO.N,GND*%
X164250000Y-118550000D03*
%TO.N,/SD_SCK*%
X161300000Y-115625000D03*
X167400000Y-116125000D03*
%TO.N,GND*%
X171900000Y-114425000D03*
%TO.N,+3.3V*%
X172150000Y-119575000D03*
%TO.N,GND*%
X172425449Y-121469999D03*
%TO.N,+3.3V*%
X148868537Y-109343537D03*
%TO.N,GND*%
X147375000Y-108275000D03*
%TO.N,/BATSTAT*%
X146790935Y-110068411D03*
X166950000Y-101375000D03*
%TO.N,GND*%
X170475000Y-101225000D03*
X149250000Y-100375000D03*
%TO.N,/DISP_SDA*%
X153925000Y-102524000D03*
X155475000Y-103825000D03*
%TO.N,/BTN_SEL*%
X168725000Y-94161325D03*
%TO.N,GND*%
X167544295Y-93325000D03*
X150075000Y-98850000D03*
X155750000Y-97275000D03*
X152125000Y-94825000D03*
X148300000Y-95275000D03*
X140525000Y-94900000D03*
X146400000Y-130100000D03*
X146350000Y-131000000D03*
X146500000Y-132100000D03*
X146375000Y-129075000D03*
X146500000Y-124000000D03*
X146500000Y-123025000D03*
X150700000Y-116725000D03*
X156250000Y-118550000D03*
X159900000Y-132075000D03*
X159925000Y-130975000D03*
X160100000Y-127925000D03*
X160100000Y-126900000D03*
X160075000Y-125000000D03*
X160125000Y-124000000D03*
X171200000Y-99200000D03*
X146375000Y-114850000D03*
%TD*%
D18*
%TO.N,Net-(U1-BOOT0)*%
X148525000Y-101875000D02*
X148575000Y-101925000D01*
X140550000Y-101800000D02*
X148450000Y-101800000D01*
%TO.N,/BTN_SEL*%
X162350000Y-100350000D02*
X158700000Y-104000000D01*
X162350000Y-98500000D02*
X162350000Y-100350000D01*
X166688675Y-94161325D02*
X162350000Y-98500000D01*
X168725000Y-94161325D02*
X166688675Y-94161325D01*
%TO.N,/ACC_MISO*%
X148275000Y-117572504D02*
X147522504Y-118325000D01*
X148275000Y-115525000D02*
X148275000Y-117572504D01*
%TO.N,/ACC_SCK*%
X147488066Y-114681753D02*
X147488066Y-117266280D01*
X147488066Y-117266280D02*
X146927173Y-117827173D01*
D19*
%TO.N,+3.3V*%
X143100000Y-118725000D02*
X143600000Y-118725000D01*
X143100000Y-118725000D02*
X143100000Y-120100000D01*
X143600000Y-118725000D02*
X146575000Y-115750000D01*
X143050000Y-116000000D02*
X141925000Y-117125000D01*
X143100000Y-116000000D02*
X143050000Y-116000000D01*
X143100000Y-116000000D02*
X143100000Y-118725000D01*
D18*
%TO.N,/ACC_MISO*%
X147522504Y-118325000D02*
X147522504Y-118152496D01*
%TO.N,/ACC_SCK*%
X145954346Y-118800000D02*
X146927173Y-117827173D01*
X145522224Y-118800000D02*
X145954346Y-118800000D01*
X145497222Y-118825002D02*
X145522224Y-118800000D01*
D19*
%TO.N,+3.3V*%
X143100000Y-120100000D02*
X143100000Y-120125000D01*
D18*
%TO.N,/SD_SCK*%
X161800000Y-116125000D02*
X161300000Y-115625000D01*
X167400000Y-116125000D02*
X161800000Y-116125000D01*
D19*
%TO.N,+3.3V*%
X148868537Y-109343537D02*
X143862075Y-114350000D01*
D18*
%TO.N,/BATSTAT*%
X146790935Y-110068411D02*
X147027243Y-110068411D01*
X149700000Y-107395654D02*
X149700000Y-107375000D01*
X147027243Y-110068411D02*
X149700000Y-107395654D01*
X166950000Y-101375000D02*
X163399000Y-104926000D01*
X152149000Y-104926000D02*
X149700000Y-107375000D01*
X163399000Y-104926000D02*
X152149000Y-104926000D01*
%TO.N,/DISP_SDA*%
X155226000Y-103825000D02*
X153925000Y-102524000D01*
X155475000Y-103825000D02*
X155226000Y-103825000D01*
%TO.N,+3.3V*%
X171375000Y-120350000D02*
X172150000Y-119575000D01*
X161950000Y-120350000D02*
X171375000Y-120350000D01*
%TO.N,Net-(U1-BOOT0)*%
X140525000Y-101800000D02*
X140550000Y-101800000D01*
X148450000Y-101800000D02*
X148525000Y-101875000D01*
D19*
%TO.N,+3.3V*%
X143100000Y-115112075D02*
X143100000Y-116000000D01*
X143862075Y-114350000D02*
X143100000Y-115112075D01*
X148875000Y-109337075D02*
X148868537Y-109343537D01*
X148875000Y-109325000D02*
X148875000Y-109337075D01*
X143862075Y-114350000D02*
X140575000Y-114350000D01*
%TD*%
%TA.AperFunction,Conductor*%
%TO.N,GND*%
G36*
X170908363Y-92920185D02*
G01*
X170929005Y-92936819D01*
X174963181Y-96970995D01*
X174996666Y-97032318D01*
X174999500Y-97058676D01*
X174999500Y-102454859D01*
X174979815Y-102521898D01*
X174927011Y-102567653D01*
X174857853Y-102577597D01*
X174794297Y-102548572D01*
X174787819Y-102542540D01*
X174700317Y-102455038D01*
X174563423Y-102355578D01*
X174412659Y-102278760D01*
X174251726Y-102226469D01*
X174084609Y-102200000D01*
X173925000Y-102200000D01*
X173925000Y-103000000D01*
X173425000Y-103000000D01*
X173425000Y-102200000D01*
X173265391Y-102200000D01*
X173098273Y-102226469D01*
X172937340Y-102278760D01*
X172786576Y-102355578D01*
X172649683Y-102455038D01*
X172649682Y-102455038D01*
X172530038Y-102574682D01*
X172530038Y-102574683D01*
X172430578Y-102711576D01*
X172353760Y-102862340D01*
X172301469Y-103023273D01*
X172301196Y-103025000D01*
X173234943Y-103025000D01*
X173194225Y-103041866D01*
X173116866Y-103119225D01*
X173075000Y-103220299D01*
X173075000Y-103329701D01*
X173116866Y-103430775D01*
X173194225Y-103508134D01*
X173234943Y-103525000D01*
X172301196Y-103525000D01*
X172301469Y-103526726D01*
X172353760Y-103687659D01*
X172430578Y-103838423D01*
X172530038Y-103975316D01*
X172530038Y-103975317D01*
X172649682Y-104094961D01*
X172786576Y-104194421D01*
X172937340Y-104271239D01*
X173098273Y-104323530D01*
X173265391Y-104350000D01*
X173425000Y-104350000D01*
X173425000Y-103550000D01*
X173925000Y-103550000D01*
X173925000Y-104350000D01*
X174084609Y-104350000D01*
X174251726Y-104323530D01*
X174412659Y-104271239D01*
X174563423Y-104194421D01*
X174700316Y-104094961D01*
X174700317Y-104094961D01*
X174787819Y-104007460D01*
X174849142Y-103973975D01*
X174918834Y-103978959D01*
X174974767Y-104020831D01*
X174999184Y-104086295D01*
X174999500Y-104095141D01*
X174999500Y-110204859D01*
X174979815Y-110271898D01*
X174927011Y-110317653D01*
X174857853Y-110327597D01*
X174794297Y-110298572D01*
X174787819Y-110292540D01*
X174700317Y-110205038D01*
X174563423Y-110105578D01*
X174412659Y-110028760D01*
X174251726Y-109976469D01*
X174084609Y-109950000D01*
X173925000Y-109950000D01*
X173925000Y-110750000D01*
X173425000Y-110750000D01*
X173425000Y-109950000D01*
X173265391Y-109950000D01*
X173098273Y-109976469D01*
X172937340Y-110028760D01*
X172786576Y-110105578D01*
X172649683Y-110205038D01*
X172649682Y-110205038D01*
X172530038Y-110324682D01*
X172530038Y-110324683D01*
X172430578Y-110461576D01*
X172353760Y-110612340D01*
X172301469Y-110773273D01*
X172301196Y-110775000D01*
X173234943Y-110775000D01*
X173194225Y-110791866D01*
X173116866Y-110869225D01*
X173075000Y-110970299D01*
X173075000Y-111079701D01*
X173116866Y-111180775D01*
X173194225Y-111258134D01*
X173234943Y-111275000D01*
X172301196Y-111275000D01*
X172301469Y-111276726D01*
X172353760Y-111437659D01*
X172430578Y-111588423D01*
X172530038Y-111725316D01*
X172530038Y-111725317D01*
X172649682Y-111844961D01*
X172786576Y-111944421D01*
X172937340Y-112021239D01*
X173098273Y-112073530D01*
X173265391Y-112100000D01*
X173425000Y-112100000D01*
X173425000Y-111300000D01*
X173925000Y-111300000D01*
X173925000Y-112100000D01*
X174084609Y-112100000D01*
X174251726Y-112073530D01*
X174412659Y-112021239D01*
X174563423Y-111944421D01*
X174700316Y-111844961D01*
X174700317Y-111844961D01*
X174787819Y-111757460D01*
X174849142Y-111723975D01*
X174918834Y-111728959D01*
X174974767Y-111770831D01*
X174999184Y-111836295D01*
X174999500Y-111845141D01*
X174999500Y-129841324D01*
X174979815Y-129908363D01*
X174963181Y-129929005D01*
X171029005Y-133863181D01*
X170967682Y-133896666D01*
X170941324Y-133899500D01*
X136504428Y-133899500D01*
X136495582Y-133899184D01*
X136473622Y-133897613D01*
X136295442Y-133884869D01*
X136277931Y-133882351D01*
X136086212Y-133840646D01*
X136069236Y-133835662D01*
X135885390Y-133767090D01*
X135869298Y-133759740D01*
X135697095Y-133665711D01*
X135682210Y-133656146D01*
X135525132Y-133538558D01*
X135511762Y-133526972D01*
X135373027Y-133388237D01*
X135361441Y-133374867D01*
X135243849Y-133217784D01*
X135234288Y-133202904D01*
X135140259Y-133030701D01*
X135132909Y-133014609D01*
X135072091Y-132851551D01*
X135064334Y-132830755D01*
X135059355Y-132813797D01*
X135017647Y-132622063D01*
X135015130Y-132604556D01*
X135000816Y-132404418D01*
X135000500Y-132395572D01*
X135000500Y-131020168D01*
X138414500Y-131020168D01*
X138414500Y-131179831D01*
X138445645Y-131336406D01*
X138445648Y-131336418D01*
X138506742Y-131483914D01*
X138506744Y-131483918D01*
X138595439Y-131616659D01*
X138595445Y-131616667D01*
X138708332Y-131729554D01*
X138708340Y-131729560D01*
X138841081Y-131818255D01*
X138841085Y-131818257D01*
X138988581Y-131879351D01*
X138988586Y-131879353D01*
X139145168Y-131910499D01*
X139145172Y-131910500D01*
X139145173Y-131910500D01*
X139304828Y-131910500D01*
X139304829Y-131910499D01*
X139461414Y-131879353D01*
X139608916Y-131818256D01*
X139608918Y-131818255D01*
X139674844Y-131774203D01*
X139741664Y-131729557D01*
X139854557Y-131616664D01*
X139943256Y-131483916D01*
X140004353Y-131336414D01*
X140018765Y-131263955D01*
X140051149Y-131202048D01*
X140111864Y-131167473D01*
X140174313Y-131168882D01*
X140240371Y-131187678D01*
X140424999Y-131204786D01*
X140425000Y-131204786D01*
X140425001Y-131204786D01*
X140471157Y-131200509D01*
X140609629Y-131187678D01*
X140675686Y-131168883D01*
X140745548Y-131169469D01*
X140804008Y-131207735D01*
X140831234Y-131263958D01*
X140845645Y-131336406D01*
X140845648Y-131336418D01*
X140906742Y-131483914D01*
X140906744Y-131483918D01*
X140995439Y-131616659D01*
X140995445Y-131616667D01*
X141108332Y-131729554D01*
X141108340Y-131729560D01*
X141241081Y-131818255D01*
X141241085Y-131818257D01*
X141388581Y-131879351D01*
X141388586Y-131879353D01*
X141545168Y-131910499D01*
X141545172Y-131910500D01*
X141545173Y-131910500D01*
X141704828Y-131910500D01*
X141704829Y-131910499D01*
X141861414Y-131879353D01*
X142008916Y-131818256D01*
X142008918Y-131818255D01*
X142074844Y-131774203D01*
X142141664Y-131729557D01*
X142254557Y-131616664D01*
X142343256Y-131483916D01*
X142404353Y-131336414D01*
X142435500Y-131179827D01*
X142435500Y-131020173D01*
X142404353Y-130863586D01*
X142404351Y-130863581D01*
X142343257Y-130716085D01*
X142343255Y-130716081D01*
X142254560Y-130583340D01*
X142254554Y-130583332D01*
X142141667Y-130470445D01*
X142141659Y-130470439D01*
X142106712Y-130447088D01*
X142061906Y-130393476D01*
X142053199Y-130324151D01*
X142083353Y-130261124D01*
X142106711Y-130240884D01*
X142135289Y-130221789D01*
X142246789Y-130110289D01*
X142334394Y-129979179D01*
X142394737Y-129833497D01*
X142425500Y-129678842D01*
X142425500Y-129600000D01*
X142425500Y-129534108D01*
X142425500Y-128334108D01*
X142425500Y-127134108D01*
X142425500Y-127121158D01*
X142425500Y-127121155D01*
X142425499Y-127121153D01*
X142419936Y-127093186D01*
X142394737Y-126966503D01*
X142394735Y-126966498D01*
X142334397Y-126820827D01*
X142334390Y-126820814D01*
X142246789Y-126689711D01*
X142246786Y-126689707D01*
X142135292Y-126578213D01*
X142135288Y-126578210D01*
X142004185Y-126490609D01*
X142004172Y-126490602D01*
X141858501Y-126430264D01*
X141858489Y-126430261D01*
X141703845Y-126399500D01*
X141703842Y-126399500D01*
X141690892Y-126399500D01*
X141505222Y-126399500D01*
X141438183Y-126379815D01*
X141392428Y-126327011D01*
X141389595Y-126320293D01*
X141324450Y-126152133D01*
X141324446Y-126152124D01*
X141226838Y-125994482D01*
X141226836Y-125994480D01*
X141101922Y-125857455D01*
X140953952Y-125745714D01*
X140787981Y-125663069D01*
X140787968Y-125663064D01*
X140609627Y-125612321D01*
X140609628Y-125612321D01*
X140425001Y-125595214D01*
X140424999Y-125595214D01*
X140240371Y-125612321D01*
X140062031Y-125663064D01*
X140062018Y-125663069D01*
X139896047Y-125745714D01*
X139748077Y-125857455D01*
X139623163Y-125994480D01*
X139623161Y-125994482D01*
X139525553Y-126152124D01*
X139525549Y-126152133D01*
X139460405Y-126320293D01*
X139417832Y-126375695D01*
X139352066Y-126399286D01*
X139344778Y-126399500D01*
X139146155Y-126399500D01*
X138991510Y-126430261D01*
X138991498Y-126430264D01*
X138845827Y-126490602D01*
X138845814Y-126490609D01*
X138714711Y-126578210D01*
X138714707Y-126578213D01*
X138603213Y-126689707D01*
X138603210Y-126689711D01*
X138515609Y-126820814D01*
X138515602Y-126820827D01*
X138455264Y-126966498D01*
X138455261Y-126966510D01*
X138424500Y-127121153D01*
X138424500Y-129678846D01*
X138455261Y-129833489D01*
X138455264Y-129833501D01*
X138515602Y-129979172D01*
X138515609Y-129979185D01*
X138603210Y-130110288D01*
X138603213Y-130110292D01*
X138714707Y-130221786D01*
X138714711Y-130221789D01*
X138743288Y-130240884D01*
X138788093Y-130294496D01*
X138796800Y-130363821D01*
X138766645Y-130426849D01*
X138743289Y-130447088D01*
X138708332Y-130470445D01*
X138595445Y-130583332D01*
X138595439Y-130583340D01*
X138506744Y-130716081D01*
X138506742Y-130716085D01*
X138445648Y-130863581D01*
X138445645Y-130863593D01*
X138414500Y-131020168D01*
X135000500Y-131020168D01*
X135000500Y-114266228D01*
X139724500Y-114266228D01*
X139724500Y-114433771D01*
X139757182Y-114598074D01*
X139757184Y-114598082D01*
X139821295Y-114752860D01*
X139914373Y-114892162D01*
X140032837Y-115010626D01*
X140125494Y-115072537D01*
X140172137Y-115103703D01*
X140326918Y-115167816D01*
X140491228Y-115200499D01*
X140491232Y-115200500D01*
X140491233Y-115200500D01*
X140658768Y-115200500D01*
X140658769Y-115200499D01*
X140823082Y-115167816D01*
X140962808Y-115109938D01*
X141010261Y-115100500D01*
X142225500Y-115100500D01*
X142292539Y-115120185D01*
X142338294Y-115172989D01*
X142349500Y-115224500D01*
X142349500Y-115587770D01*
X142329815Y-115654809D01*
X142313181Y-115675451D01*
X141702092Y-116286539D01*
X141661864Y-116313419D01*
X141522139Y-116371295D01*
X141382837Y-116464373D01*
X141264373Y-116582837D01*
X141171295Y-116722139D01*
X141107184Y-116876917D01*
X141107182Y-116876925D01*
X141074500Y-117041228D01*
X141074500Y-117208771D01*
X141107182Y-117373074D01*
X141107184Y-117373082D01*
X141171295Y-117527860D01*
X141264373Y-117667162D01*
X141382837Y-117785626D01*
X141475494Y-117847537D01*
X141522137Y-117878703D01*
X141522138Y-117878703D01*
X141522139Y-117878704D01*
X141557201Y-117893227D01*
X141676918Y-117942816D01*
X141841228Y-117975499D01*
X141841232Y-117975500D01*
X141841233Y-117975500D01*
X142008768Y-117975500D01*
X142008769Y-117975499D01*
X142173082Y-117942816D01*
X142178045Y-117940759D01*
X142247514Y-117933290D01*
X142309994Y-117964563D01*
X142345648Y-118024652D01*
X142349500Y-118055320D01*
X142349500Y-119664739D01*
X142340061Y-119712192D01*
X142282184Y-119851917D01*
X142282182Y-119851925D01*
X142249500Y-120016228D01*
X142249500Y-120183771D01*
X142282182Y-120348074D01*
X142282184Y-120348082D01*
X142346295Y-120502860D01*
X142439373Y-120642162D01*
X142557837Y-120760626D01*
X142650494Y-120822537D01*
X142697137Y-120853703D01*
X142697138Y-120853703D01*
X142697139Y-120853704D01*
X142700937Y-120855277D01*
X142851918Y-120917816D01*
X143016228Y-120950499D01*
X143016232Y-120950500D01*
X143016233Y-120950500D01*
X143183768Y-120950500D01*
X143183769Y-120950499D01*
X143348082Y-120917816D01*
X143502863Y-120853703D01*
X143642162Y-120760626D01*
X143760626Y-120642162D01*
X143853703Y-120502863D01*
X143917816Y-120348082D01*
X143934098Y-120266228D01*
X161099500Y-120266228D01*
X161099500Y-120433771D01*
X161132182Y-120598074D01*
X161132184Y-120598082D01*
X161196295Y-120752860D01*
X161289373Y-120892162D01*
X161407837Y-121010626D01*
X161423959Y-121021398D01*
X161547137Y-121103703D01*
X161701918Y-121167816D01*
X161866228Y-121200499D01*
X161866232Y-121200500D01*
X161866233Y-121200500D01*
X162033768Y-121200500D01*
X162033769Y-121200499D01*
X162198082Y-121167816D01*
X162352863Y-121103703D01*
X162476041Y-121021398D01*
X162542719Y-121000520D01*
X162544932Y-121000500D01*
X171439071Y-121000500D01*
X171523615Y-120983682D01*
X171564744Y-120975501D01*
X171683127Y-120926465D01*
X171696070Y-120917817D01*
X171696073Y-120917815D01*
X171742870Y-120886546D01*
X171789669Y-120855277D01*
X172189293Y-120455652D01*
X172250614Y-120422169D01*
X172252781Y-120421718D01*
X172271360Y-120418022D01*
X172398082Y-120392816D01*
X172552863Y-120328703D01*
X172692162Y-120235626D01*
X172810626Y-120117162D01*
X172903703Y-119977863D01*
X172967816Y-119823082D01*
X173000500Y-119658767D01*
X173000500Y-119491233D01*
X172967816Y-119326918D01*
X172903703Y-119172137D01*
X172837518Y-119073084D01*
X172810626Y-119032837D01*
X172692162Y-118914373D01*
X172552860Y-118821295D01*
X172398082Y-118757184D01*
X172398074Y-118757182D01*
X172233771Y-118724500D01*
X172233767Y-118724500D01*
X172066233Y-118724500D01*
X172066228Y-118724500D01*
X171901925Y-118757182D01*
X171901917Y-118757184D01*
X171747139Y-118821295D01*
X171607837Y-118914373D01*
X171489373Y-119032837D01*
X171396295Y-119172139D01*
X171332184Y-119326917D01*
X171332182Y-119326923D01*
X171303281Y-119472219D01*
X171294515Y-119488976D01*
X171290496Y-119507453D01*
X171271751Y-119532494D01*
X171270896Y-119534130D01*
X171269346Y-119535708D01*
X171141871Y-119663182D01*
X171080551Y-119696666D01*
X171054192Y-119699500D01*
X162544932Y-119699500D01*
X162477893Y-119679815D01*
X162476041Y-119678602D01*
X162352860Y-119596295D01*
X162198082Y-119532184D01*
X162198074Y-119532182D01*
X162033771Y-119499500D01*
X162033767Y-119499500D01*
X161866233Y-119499500D01*
X161866228Y-119499500D01*
X161701925Y-119532182D01*
X161701917Y-119532184D01*
X161547139Y-119596295D01*
X161407837Y-119689373D01*
X161289373Y-119807837D01*
X161196295Y-119947139D01*
X161132184Y-120101917D01*
X161132182Y-120101925D01*
X161099500Y-120266228D01*
X143934098Y-120266228D01*
X143950500Y-120183767D01*
X143950500Y-120016233D01*
X143917816Y-119851918D01*
X143859938Y-119712191D01*
X143858312Y-119704014D01*
X143855523Y-119699674D01*
X143850500Y-119664739D01*
X143850500Y-119516428D01*
X143870185Y-119449389D01*
X143922989Y-119403634D01*
X143927019Y-119401878D01*
X143955495Y-119390084D01*
X144004729Y-119357186D01*
X144078416Y-119307952D01*
X144454624Y-118931742D01*
X144515945Y-118898259D01*
X144585636Y-118903243D01*
X144641570Y-118945114D01*
X144663920Y-118995234D01*
X144679404Y-119073076D01*
X144679406Y-119073084D01*
X144743517Y-119227862D01*
X144836595Y-119367164D01*
X144955059Y-119485628D01*
X145027648Y-119534130D01*
X145094359Y-119578705D01*
X145249140Y-119642818D01*
X145413450Y-119675501D01*
X145413454Y-119675502D01*
X145413455Y-119675502D01*
X145580990Y-119675502D01*
X145580991Y-119675501D01*
X145745304Y-119642818D01*
X145900085Y-119578705D01*
X146039384Y-119485628D01*
X146061846Y-119463164D01*
X146102323Y-119436183D01*
X146113483Y-119431588D01*
X146144090Y-119425501D01*
X146262473Y-119376465D01*
X146276393Y-119367164D01*
X146369015Y-119305277D01*
X146746825Y-118927465D01*
X146808143Y-118893983D01*
X146877835Y-118898967D01*
X146922183Y-118927468D01*
X146980341Y-118985626D01*
X147050998Y-119032837D01*
X147119641Y-119078703D01*
X147274422Y-119142816D01*
X147421830Y-119172137D01*
X147438732Y-119175499D01*
X147438736Y-119175500D01*
X147438737Y-119175500D01*
X147606272Y-119175500D01*
X147606273Y-119175499D01*
X147770586Y-119142816D01*
X147925367Y-119078703D01*
X148064666Y-118985626D01*
X148183130Y-118867162D01*
X148276207Y-118727863D01*
X148340320Y-118573082D01*
X148369222Y-118427781D01*
X148401606Y-118365870D01*
X148403100Y-118364349D01*
X148780277Y-117987173D01*
X148851465Y-117880631D01*
X148900501Y-117762248D01*
X148911301Y-117707952D01*
X148925500Y-117636573D01*
X148925500Y-116119931D01*
X148945185Y-116052892D01*
X148946398Y-116051040D01*
X148952951Y-116041233D01*
X149028703Y-115927863D01*
X149092816Y-115773082D01*
X149125500Y-115608767D01*
X149125500Y-115541228D01*
X160449500Y-115541228D01*
X160449500Y-115708771D01*
X160482182Y-115873074D01*
X160482184Y-115873082D01*
X160546295Y-116027860D01*
X160639373Y-116167162D01*
X160757837Y-116285626D01*
X160850494Y-116347537D01*
X160897137Y-116378703D01*
X161051918Y-116442816D01*
X161136011Y-116459543D01*
X161197218Y-116471718D01*
X161259129Y-116504102D01*
X161260652Y-116505598D01*
X161385331Y-116630277D01*
X161491873Y-116701465D01*
X161610256Y-116750501D01*
X161610260Y-116750501D01*
X161610261Y-116750502D01*
X161735928Y-116775500D01*
X161735931Y-116775500D01*
X166805068Y-116775500D01*
X166872107Y-116795185D01*
X166873959Y-116796398D01*
X166997137Y-116878703D01*
X167151918Y-116942816D01*
X167316228Y-116975499D01*
X167316232Y-116975500D01*
X167316233Y-116975500D01*
X167483768Y-116975500D01*
X167483769Y-116975499D01*
X167648082Y-116942816D01*
X167802863Y-116878703D01*
X167942162Y-116785626D01*
X168060626Y-116667162D01*
X168153703Y-116527863D01*
X168217816Y-116373082D01*
X168250500Y-116208767D01*
X168250500Y-116041233D01*
X168217816Y-115876918D01*
X168153703Y-115722137D01*
X168077952Y-115608768D01*
X168060626Y-115582837D01*
X167942162Y-115464373D01*
X167802860Y-115371295D01*
X167648082Y-115307184D01*
X167648074Y-115307182D01*
X167483771Y-115274500D01*
X167483767Y-115274500D01*
X167316233Y-115274500D01*
X167316228Y-115274500D01*
X167151925Y-115307182D01*
X167151917Y-115307184D01*
X166997139Y-115371295D01*
X166873959Y-115453602D01*
X166807281Y-115474480D01*
X166805068Y-115474500D01*
X162238990Y-115474500D01*
X162171951Y-115454815D01*
X162126196Y-115402011D01*
X162119941Y-115382641D01*
X162119585Y-115382750D01*
X162117817Y-115376924D01*
X162117816Y-115376918D01*
X162053703Y-115222137D01*
X162017406Y-115167815D01*
X161960626Y-115082837D01*
X161842162Y-114964373D01*
X161702860Y-114871295D01*
X161548082Y-114807184D01*
X161548074Y-114807182D01*
X161383771Y-114774500D01*
X161383767Y-114774500D01*
X161216233Y-114774500D01*
X161216228Y-114774500D01*
X161051925Y-114807182D01*
X161051917Y-114807184D01*
X160897139Y-114871295D01*
X160757837Y-114964373D01*
X160639373Y-115082837D01*
X160546295Y-115222139D01*
X160482184Y-115376917D01*
X160482182Y-115376925D01*
X160449500Y-115541228D01*
X149125500Y-115541228D01*
X149125500Y-115441233D01*
X149092816Y-115276918D01*
X149028703Y-115122137D01*
X148997537Y-115075494D01*
X148935626Y-114982837D01*
X148817162Y-114864373D01*
X148677860Y-114771295D01*
X148523082Y-114707184D01*
X148523076Y-114707182D01*
X148434841Y-114689631D01*
X148372930Y-114657246D01*
X148338356Y-114596530D01*
X148337416Y-114592205D01*
X148305883Y-114433677D01*
X148305882Y-114433671D01*
X148241769Y-114278890D01*
X148210603Y-114232247D01*
X148148692Y-114139590D01*
X148030228Y-114021126D01*
X147890926Y-113928048D01*
X147736148Y-113863937D01*
X147736140Y-113863935D01*
X147571837Y-113831253D01*
X147571833Y-113831253D01*
X147404299Y-113831253D01*
X147404294Y-113831253D01*
X147239991Y-113863935D01*
X147239983Y-113863937D01*
X147085205Y-113928048D01*
X146945903Y-114021126D01*
X146827439Y-114139590D01*
X146734361Y-114278892D01*
X146670250Y-114433670D01*
X146670248Y-114433678D01*
X146637566Y-114597981D01*
X146637566Y-114771612D01*
X146635784Y-114771612D01*
X146624334Y-114831990D01*
X146576270Y-114882701D01*
X146513949Y-114899500D01*
X146491228Y-114899500D01*
X146326925Y-114932182D01*
X146326917Y-114932184D01*
X146172139Y-114996295D01*
X146032837Y-115089373D01*
X145914373Y-115207837D01*
X145821296Y-115347137D01*
X145763419Y-115486864D01*
X145736539Y-115527091D01*
X144062181Y-117201450D01*
X144000858Y-117234935D01*
X143931166Y-117229951D01*
X143875233Y-117188079D01*
X143850816Y-117122615D01*
X143850500Y-117113769D01*
X143850500Y-115474305D01*
X143870185Y-115407266D01*
X143886819Y-115386624D01*
X144172943Y-115100500D01*
X144445027Y-114828416D01*
X144445027Y-114828415D01*
X148648440Y-110625000D01*
X168399327Y-110625000D01*
X169253590Y-110625000D01*
X169203963Y-110710956D01*
X169175000Y-110819048D01*
X169175000Y-110930952D01*
X169203963Y-111039044D01*
X169253590Y-111125000D01*
X168399327Y-111125000D01*
X168405164Y-111161855D01*
X168405164Y-111161858D01*
X168464746Y-111345234D01*
X168464747Y-111345237D01*
X168552288Y-111517043D01*
X168665616Y-111673027D01*
X168665620Y-111673032D01*
X168801967Y-111809379D01*
X168801972Y-111809383D01*
X168957956Y-111922711D01*
X169129762Y-112010252D01*
X169129765Y-112010253D01*
X169313143Y-112069835D01*
X169503591Y-112100000D01*
X169625000Y-112100000D01*
X169625000Y-111300000D01*
X170125000Y-111300000D01*
X170125000Y-112100000D01*
X170246409Y-112100000D01*
X170436856Y-112069835D01*
X170620234Y-112010253D01*
X170620237Y-112010252D01*
X170792043Y-111922711D01*
X170948027Y-111809383D01*
X170948032Y-111809379D01*
X171084379Y-111673032D01*
X171084383Y-111673027D01*
X171197711Y-111517043D01*
X171285252Y-111345237D01*
X171285253Y-111345234D01*
X171332566Y-111199619D01*
X171344835Y-111161858D01*
X171344835Y-111161855D01*
X171350673Y-111125000D01*
X170496410Y-111125000D01*
X170546037Y-111039044D01*
X170575000Y-110930952D01*
X170575000Y-110819048D01*
X170546037Y-110710956D01*
X170496410Y-110625000D01*
X171350673Y-110625000D01*
X171344836Y-110588146D01*
X171344833Y-110588136D01*
X171337630Y-110565967D01*
X171335633Y-110496125D01*
X171371712Y-110436292D01*
X171386658Y-110424552D01*
X171499035Y-110349464D01*
X171624464Y-110224035D01*
X171723013Y-110076547D01*
X171790894Y-109912666D01*
X171825500Y-109738691D01*
X171825500Y-109561309D01*
X171825500Y-109561306D01*
X171825499Y-109561304D01*
X171790896Y-109387341D01*
X171790893Y-109387332D01*
X171723016Y-109223459D01*
X171723009Y-109223446D01*
X171624464Y-109075965D01*
X171624461Y-109075961D01*
X171499038Y-108950538D01*
X171499034Y-108950535D01*
X171351553Y-108851990D01*
X171351540Y-108851983D01*
X171187667Y-108784106D01*
X171187658Y-108784103D01*
X171013694Y-108749500D01*
X171013691Y-108749500D01*
X170836309Y-108749500D01*
X170836306Y-108749500D01*
X170662341Y-108784103D01*
X170662332Y-108784106D01*
X170498459Y-108851983D01*
X170498446Y-108851990D01*
X170350965Y-108950535D01*
X170350961Y-108950538D01*
X170225538Y-109075961D01*
X170225535Y-109075965D01*
X170126990Y-109223446D01*
X170126983Y-109223459D01*
X170059106Y-109387332D01*
X170059103Y-109387341D01*
X170024500Y-109561304D01*
X170024500Y-109738695D01*
X170059104Y-109912658D01*
X170059107Y-109912670D01*
X170115561Y-110048962D01*
X170125000Y-110096414D01*
X170125000Y-110450000D01*
X169625000Y-110450000D01*
X169625000Y-109650000D01*
X169503591Y-109650000D01*
X169313143Y-109680164D01*
X169129765Y-109739746D01*
X169129762Y-109739747D01*
X168957956Y-109827288D01*
X168801972Y-109940616D01*
X168801967Y-109940620D01*
X168665620Y-110076967D01*
X168665616Y-110076972D01*
X168552288Y-110232956D01*
X168464747Y-110404762D01*
X168464746Y-110404765D01*
X168405164Y-110588141D01*
X168405164Y-110588144D01*
X168399327Y-110625000D01*
X148648440Y-110625000D01*
X149091445Y-110181995D01*
X149131667Y-110155119D01*
X149271400Y-110097240D01*
X149410699Y-110004163D01*
X149529163Y-109885699D01*
X149622240Y-109746400D01*
X149686353Y-109591619D01*
X149719037Y-109427304D01*
X149719037Y-109259770D01*
X149686353Y-109095455D01*
X149622240Y-108940674D01*
X149562981Y-108851987D01*
X149529163Y-108801374D01*
X149459375Y-108731586D01*
X149425890Y-108670263D01*
X149430874Y-108600571D01*
X149459375Y-108556224D01*
X150205271Y-107810328D01*
X150205276Y-107810323D01*
X150240081Y-107758232D01*
X150255496Y-107739448D01*
X152382127Y-105612819D01*
X152443450Y-105579334D01*
X152469808Y-105576500D01*
X163463071Y-105576500D01*
X163547615Y-105559682D01*
X163588744Y-105551501D01*
X163707127Y-105502465D01*
X163813669Y-105431277D01*
X166069945Y-103175000D01*
X168399327Y-103175000D01*
X169253590Y-103175000D01*
X169203963Y-103260956D01*
X169175000Y-103369048D01*
X169175000Y-103480952D01*
X169203963Y-103589044D01*
X169253590Y-103675000D01*
X168399327Y-103675000D01*
X168405164Y-103711855D01*
X168405164Y-103711858D01*
X168464746Y-103895234D01*
X168464747Y-103895237D01*
X168552288Y-104067043D01*
X168665616Y-104223027D01*
X168665620Y-104223032D01*
X168801967Y-104359379D01*
X168801972Y-104359383D01*
X168957956Y-104472711D01*
X169129762Y-104560252D01*
X169129765Y-104560253D01*
X169313143Y-104619835D01*
X169503591Y-104650000D01*
X169625000Y-104650000D01*
X169625000Y-103850000D01*
X170125000Y-103850000D01*
X170125000Y-104203586D01*
X170115561Y-104251038D01*
X170059106Y-104387332D01*
X170059103Y-104387341D01*
X170024500Y-104561304D01*
X170024500Y-104738695D01*
X170059103Y-104912658D01*
X170059106Y-104912667D01*
X170126983Y-105076540D01*
X170126990Y-105076553D01*
X170225535Y-105224034D01*
X170225538Y-105224038D01*
X170350961Y-105349461D01*
X170350965Y-105349464D01*
X170498446Y-105448009D01*
X170498459Y-105448016D01*
X170621363Y-105498923D01*
X170662334Y-105515894D01*
X170662336Y-105515894D01*
X170662341Y-105515896D01*
X170836304Y-105550499D01*
X170836307Y-105550500D01*
X170836309Y-105550500D01*
X171013693Y-105550500D01*
X171013694Y-105550499D01*
X171071682Y-105538964D01*
X171187658Y-105515896D01*
X171187661Y-105515894D01*
X171187666Y-105515894D01*
X171351547Y-105448013D01*
X171499035Y-105349464D01*
X171624464Y-105224035D01*
X171723013Y-105076547D01*
X171790894Y-104912666D01*
X171825500Y-104738691D01*
X171825500Y-104561309D01*
X171825500Y-104561306D01*
X171825499Y-104561304D01*
X171790896Y-104387341D01*
X171790893Y-104387332D01*
X171723016Y-104223459D01*
X171723009Y-104223446D01*
X171624464Y-104075965D01*
X171624461Y-104075961D01*
X171499038Y-103950538D01*
X171499030Y-103950532D01*
X171386669Y-103875455D01*
X171341863Y-103821843D01*
X171333156Y-103752518D01*
X171337629Y-103734031D01*
X171344836Y-103711851D01*
X171344836Y-103711849D01*
X171350673Y-103675000D01*
X170496410Y-103675000D01*
X170546037Y-103589044D01*
X170575000Y-103480952D01*
X170575000Y-103369048D01*
X170546037Y-103260956D01*
X170496410Y-103175000D01*
X171350673Y-103175000D01*
X171344835Y-103138144D01*
X171344835Y-103138141D01*
X171332566Y-103100381D01*
X171285253Y-102954765D01*
X171285252Y-102954762D01*
X171197711Y-102782956D01*
X171084383Y-102626972D01*
X171084379Y-102626967D01*
X170948032Y-102490620D01*
X170948027Y-102490616D01*
X170792043Y-102377288D01*
X170620237Y-102289747D01*
X170620234Y-102289746D01*
X170436856Y-102230164D01*
X170246409Y-102200000D01*
X170125000Y-102200000D01*
X170125000Y-103000000D01*
X169625000Y-103000000D01*
X169625000Y-102200000D01*
X169503591Y-102200000D01*
X169313143Y-102230164D01*
X169129765Y-102289746D01*
X169129762Y-102289747D01*
X168957956Y-102377288D01*
X168801972Y-102490616D01*
X168801967Y-102490620D01*
X168665620Y-102626967D01*
X168665616Y-102626972D01*
X168552288Y-102782956D01*
X168464747Y-102954762D01*
X168464746Y-102954765D01*
X168405164Y-103138141D01*
X168405164Y-103138144D01*
X168399327Y-103175000D01*
X166069945Y-103175000D01*
X166989293Y-102255652D01*
X167050614Y-102222169D01*
X167052781Y-102221718D01*
X167071360Y-102218022D01*
X167198082Y-102192816D01*
X167352863Y-102128703D01*
X167492162Y-102035626D01*
X167610626Y-101917162D01*
X167703703Y-101777863D01*
X167767816Y-101623082D01*
X167800500Y-101458767D01*
X167800500Y-101291233D01*
X167767816Y-101126918D01*
X167703703Y-100972137D01*
X167702112Y-100969757D01*
X167701662Y-100968320D01*
X167700834Y-100966770D01*
X167701128Y-100966612D01*
X167681234Y-100903084D01*
X167699677Y-100835768D01*
X167709814Y-100819334D01*
X167764999Y-100652797D01*
X167775500Y-100550009D01*
X167775499Y-99199992D01*
X167764999Y-99097203D01*
X167709814Y-98930666D01*
X167617712Y-98781344D01*
X167493656Y-98657288D01*
X167344334Y-98565186D01*
X167177797Y-98510001D01*
X167177795Y-98510000D01*
X167075010Y-98499500D01*
X166274998Y-98499500D01*
X166274980Y-98499501D01*
X166172203Y-98510000D01*
X166172200Y-98510001D01*
X166005668Y-98565185D01*
X166005663Y-98565187D01*
X165856342Y-98657289D01*
X165732289Y-98781342D01*
X165692420Y-98845981D01*
X165640472Y-98892705D01*
X165571509Y-98903928D01*
X165507427Y-98876084D01*
X165499200Y-98868565D01*
X165391602Y-98760967D01*
X165251524Y-98659195D01*
X165097257Y-98580591D01*
X164932589Y-98527087D01*
X164932581Y-98527085D01*
X164925000Y-98525884D01*
X164925000Y-99594670D01*
X164905255Y-99574925D01*
X164819745Y-99525556D01*
X164724370Y-99500000D01*
X164625630Y-99500000D01*
X164530255Y-99525556D01*
X164444745Y-99574925D01*
X164425000Y-99594670D01*
X164425000Y-98525884D01*
X164424999Y-98525884D01*
X164417418Y-98527085D01*
X164417410Y-98527087D01*
X164252742Y-98580591D01*
X164098475Y-98659195D01*
X163958397Y-98760967D01*
X163835967Y-98883397D01*
X163734195Y-99023475D01*
X163655591Y-99177742D01*
X163602085Y-99342415D01*
X163575000Y-99513428D01*
X163575000Y-99625000D01*
X164394670Y-99625000D01*
X164374925Y-99644745D01*
X164325556Y-99730255D01*
X164300000Y-99825630D01*
X164300000Y-99924370D01*
X164325556Y-100019745D01*
X164374925Y-100105255D01*
X164394670Y-100125000D01*
X163575000Y-100125000D01*
X163575000Y-100236571D01*
X163602085Y-100407584D01*
X163655591Y-100572257D01*
X163734195Y-100726524D01*
X163835967Y-100866602D01*
X163958397Y-100989032D01*
X164098475Y-101090804D01*
X164252744Y-101169408D01*
X164417415Y-101222914D01*
X164417414Y-101222914D01*
X164424999Y-101224115D01*
X164425000Y-101224114D01*
X164425000Y-100155330D01*
X164444745Y-100175075D01*
X164530255Y-100224444D01*
X164625630Y-100250000D01*
X164724370Y-100250000D01*
X164819745Y-100224444D01*
X164905255Y-100175075D01*
X164925000Y-100155330D01*
X164925000Y-101224115D01*
X164932584Y-101222914D01*
X165097255Y-101169408D01*
X165251524Y-101090804D01*
X165391598Y-100989035D01*
X165499199Y-100881434D01*
X165560522Y-100847949D01*
X165630214Y-100852933D01*
X165686148Y-100894804D01*
X165692420Y-100904019D01*
X165732287Y-100968655D01*
X165856344Y-101092712D01*
X166004904Y-101184344D01*
X166051629Y-101236292D01*
X166062852Y-101305254D01*
X166035008Y-101369337D01*
X166027489Y-101377564D01*
X163165873Y-104239181D01*
X163104550Y-104272666D01*
X163078192Y-104275500D01*
X159663457Y-104275500D01*
X159643243Y-104269564D01*
X159622208Y-104268438D01*
X159610392Y-104259918D01*
X159596418Y-104255815D01*
X159582624Y-104239896D01*
X159565535Y-104227574D01*
X159560200Y-104214018D01*
X159550663Y-104203011D01*
X159547665Y-104182160D01*
X159539951Y-104162557D01*
X159541279Y-104137752D01*
X159540719Y-104133853D01*
X159541839Y-104127313D01*
X159546717Y-104102785D01*
X159579100Y-104040873D01*
X159580598Y-104039347D01*
X162855277Y-100764669D01*
X162926466Y-100658126D01*
X162956079Y-100586632D01*
X162975501Y-100539744D01*
X163000500Y-100414069D01*
X163000500Y-98820808D01*
X163020185Y-98753769D01*
X163036819Y-98733127D01*
X166921802Y-94848144D01*
X166983125Y-94814659D01*
X167009483Y-94811825D01*
X168130068Y-94811825D01*
X168197107Y-94831510D01*
X168198959Y-94832723D01*
X168322137Y-94915028D01*
X168476918Y-94979141D01*
X168641228Y-95011824D01*
X168641232Y-95011825D01*
X168641233Y-95011825D01*
X168808768Y-95011825D01*
X168808769Y-95011824D01*
X168973082Y-94979141D01*
X169127863Y-94915028D01*
X169267162Y-94821951D01*
X169385626Y-94703487D01*
X169478703Y-94564188D01*
X169542816Y-94409407D01*
X169575500Y-94245092D01*
X169575500Y-94077558D01*
X169542816Y-93913243D01*
X169486417Y-93777085D01*
X169478704Y-93758464D01*
X169385626Y-93619162D01*
X169267162Y-93500698D01*
X169127860Y-93407620D01*
X168973082Y-93343509D01*
X168973074Y-93343507D01*
X168808771Y-93310825D01*
X168808767Y-93310825D01*
X168641233Y-93310825D01*
X168641228Y-93310825D01*
X168476925Y-93343507D01*
X168476917Y-93343509D01*
X168322139Y-93407620D01*
X168198959Y-93489927D01*
X168132281Y-93510805D01*
X168130068Y-93510825D01*
X166624604Y-93510825D01*
X166498936Y-93535822D01*
X166498930Y-93535824D01*
X166380549Y-93584859D01*
X166274001Y-93656051D01*
X161844726Y-98085326D01*
X161773534Y-98191874D01*
X161724499Y-98310255D01*
X161724497Y-98310261D01*
X161699500Y-98435928D01*
X161699500Y-100029192D01*
X161679815Y-100096231D01*
X161663181Y-100116873D01*
X158660708Y-103119345D01*
X158599385Y-103152830D01*
X158597219Y-103153281D01*
X158451923Y-103182182D01*
X158451917Y-103182184D01*
X158297139Y-103246295D01*
X158157837Y-103339373D01*
X158039373Y-103457837D01*
X157946295Y-103597139D01*
X157882184Y-103751917D01*
X157882182Y-103751925D01*
X157849500Y-103916228D01*
X157849500Y-103916233D01*
X157849500Y-104083767D01*
X157853283Y-104102785D01*
X157858161Y-104127310D01*
X157851932Y-104196902D01*
X157809069Y-104252078D01*
X157743179Y-104275322D01*
X157736543Y-104275500D01*
X156394551Y-104275500D01*
X156327512Y-104255815D01*
X156281757Y-104203011D01*
X156271813Y-104133853D01*
X156279990Y-104104048D01*
X156292814Y-104073086D01*
X156292816Y-104073082D01*
X156325500Y-103908767D01*
X156325500Y-103741233D01*
X156292816Y-103576918D01*
X156228703Y-103422137D01*
X156175034Y-103341816D01*
X156135626Y-103282837D01*
X156017162Y-103164373D01*
X155877860Y-103071295D01*
X155723082Y-103007184D01*
X155723074Y-103007182D01*
X155558771Y-102974500D01*
X155558767Y-102974500D01*
X155391233Y-102974500D01*
X155376340Y-102977462D01*
X155306749Y-102971233D01*
X155264471Y-102943525D01*
X154805654Y-102484708D01*
X154772169Y-102423385D01*
X154771718Y-102421218D01*
X154755993Y-102342162D01*
X154742816Y-102275918D01*
X154693227Y-102156201D01*
X154678704Y-102121139D01*
X154585626Y-101981837D01*
X154467162Y-101863373D01*
X154327860Y-101770295D01*
X154173082Y-101706184D01*
X154173074Y-101706182D01*
X154008771Y-101673500D01*
X154008767Y-101673500D01*
X153841233Y-101673500D01*
X153841228Y-101673500D01*
X153676925Y-101706182D01*
X153676917Y-101706184D01*
X153522139Y-101770295D01*
X153382837Y-101863373D01*
X153264373Y-101981837D01*
X153171295Y-102121139D01*
X153107184Y-102275917D01*
X153107182Y-102275925D01*
X153074500Y-102440228D01*
X153074500Y-102607771D01*
X153107182Y-102772074D01*
X153107184Y-102772082D01*
X153171295Y-102926860D01*
X153264373Y-103066162D01*
X153382837Y-103184626D01*
X153436226Y-103220299D01*
X153522137Y-103277703D01*
X153676918Y-103341816D01*
X153761011Y-103358543D01*
X153822218Y-103370718D01*
X153884129Y-103403102D01*
X153885708Y-103404654D01*
X154544873Y-104063819D01*
X154578358Y-104125142D01*
X154573374Y-104194834D01*
X154531502Y-104250767D01*
X154466038Y-104275184D01*
X154457192Y-104275500D01*
X152084929Y-104275500D01*
X151959261Y-104300497D01*
X151959255Y-104300499D01*
X151840874Y-104349534D01*
X151734326Y-104420726D01*
X151734325Y-104420727D01*
X149194724Y-106960329D01*
X149194721Y-106960332D01*
X149180922Y-106980984D01*
X149180921Y-106980988D01*
X149159917Y-107012422D01*
X149144496Y-107031211D01*
X146990876Y-109184830D01*
X146929553Y-109218315D01*
X146879006Y-109218767D01*
X146874702Y-109217911D01*
X146707168Y-109217911D01*
X146707163Y-109217911D01*
X146542860Y-109250593D01*
X146542852Y-109250595D01*
X146388074Y-109314706D01*
X146248772Y-109407784D01*
X146130308Y-109526248D01*
X146037230Y-109665550D01*
X145973119Y-109820328D01*
X145973117Y-109820336D01*
X145940435Y-109984639D01*
X145940435Y-110152182D01*
X145973117Y-110316485D01*
X145973119Y-110316493D01*
X146037230Y-110471271D01*
X146130308Y-110610573D01*
X146247539Y-110727804D01*
X146281024Y-110789127D01*
X146276040Y-110858819D01*
X146247539Y-110903166D01*
X143587526Y-113563181D01*
X143526203Y-113596666D01*
X143499845Y-113599500D01*
X141010261Y-113599500D01*
X140962808Y-113590061D01*
X140823082Y-113532184D01*
X140823074Y-113532182D01*
X140658771Y-113499500D01*
X140658767Y-113499500D01*
X140491233Y-113499500D01*
X140491228Y-113499500D01*
X140326925Y-113532182D01*
X140326917Y-113532184D01*
X140172139Y-113596295D01*
X140032837Y-113689373D01*
X139914373Y-113807837D01*
X139821295Y-113947139D01*
X139757184Y-114101917D01*
X139757182Y-114101925D01*
X139724500Y-114266228D01*
X135000500Y-114266228D01*
X135000500Y-101716228D01*
X139699500Y-101716228D01*
X139699500Y-101883771D01*
X139732182Y-102048074D01*
X139732184Y-102048082D01*
X139796295Y-102202860D01*
X139889373Y-102342162D01*
X140007837Y-102460626D01*
X140099538Y-102521898D01*
X140147137Y-102553703D01*
X140301918Y-102617816D01*
X140466228Y-102650499D01*
X140466232Y-102650500D01*
X140466233Y-102650500D01*
X140633768Y-102650500D01*
X140633769Y-102650499D01*
X140798082Y-102617816D01*
X140952863Y-102553703D01*
X141076041Y-102471398D01*
X141142719Y-102450520D01*
X141144932Y-102450500D01*
X147846350Y-102450500D01*
X147913389Y-102470185D01*
X147934032Y-102486820D01*
X147982834Y-102535623D01*
X147982837Y-102535626D01*
X148075494Y-102597537D01*
X148122137Y-102628703D01*
X148276918Y-102692816D01*
X148441228Y-102725499D01*
X148441232Y-102725500D01*
X148441233Y-102725500D01*
X148608768Y-102725500D01*
X148608769Y-102725499D01*
X148773082Y-102692816D01*
X148927863Y-102628703D01*
X149067162Y-102535626D01*
X149185626Y-102417162D01*
X149278703Y-102277863D01*
X149342816Y-102123082D01*
X149375500Y-101958767D01*
X149375500Y-101791233D01*
X149342816Y-101626918D01*
X149278703Y-101472137D01*
X149228591Y-101397139D01*
X149185626Y-101332837D01*
X149067162Y-101214373D01*
X148927860Y-101121295D01*
X148773082Y-101057184D01*
X148773074Y-101057182D01*
X148608771Y-101024500D01*
X148608767Y-101024500D01*
X148441233Y-101024500D01*
X148441228Y-101024500D01*
X148276925Y-101057182D01*
X148276917Y-101057184D01*
X148122140Y-101121295D01*
X148122134Y-101121298D01*
X148111206Y-101128601D01*
X148044529Y-101149480D01*
X148042313Y-101149500D01*
X141144932Y-101149500D01*
X141077893Y-101129815D01*
X141076041Y-101128602D01*
X140952860Y-101046295D01*
X140798082Y-100982184D01*
X140798074Y-100982182D01*
X140633771Y-100949500D01*
X140633767Y-100949500D01*
X140466233Y-100949500D01*
X140466228Y-100949500D01*
X140301925Y-100982182D01*
X140301917Y-100982184D01*
X140147139Y-101046295D01*
X140007837Y-101139373D01*
X139889373Y-101257837D01*
X139796295Y-101397139D01*
X139732184Y-101551917D01*
X139732182Y-101551925D01*
X139699500Y-101716228D01*
X135000500Y-101716228D01*
X135000500Y-99668995D01*
X136374499Y-99668995D01*
X136401418Y-99804322D01*
X136401421Y-99804332D01*
X136454221Y-99931804D01*
X136454228Y-99931817D01*
X136530885Y-100046541D01*
X136530888Y-100046545D01*
X136628454Y-100144111D01*
X136628458Y-100144114D01*
X136743182Y-100220771D01*
X136743195Y-100220778D01*
X136870667Y-100273578D01*
X136870672Y-100273580D01*
X136870676Y-100273580D01*
X136870677Y-100273581D01*
X137006004Y-100300500D01*
X137006007Y-100300500D01*
X137143995Y-100300500D01*
X137235041Y-100282389D01*
X137279328Y-100273580D01*
X137406811Y-100220775D01*
X137521542Y-100144114D01*
X137619114Y-100046542D01*
X137695775Y-99931811D01*
X137748580Y-99804328D01*
X137775500Y-99668993D01*
X137775500Y-99531007D01*
X137775500Y-99531004D01*
X137748581Y-99395677D01*
X137748580Y-99395676D01*
X137748580Y-99395672D01*
X137743645Y-99383757D01*
X137695778Y-99268195D01*
X137695771Y-99268182D01*
X137619114Y-99153458D01*
X137619111Y-99153454D01*
X137521545Y-99055888D01*
X137521541Y-99055885D01*
X137406817Y-98979228D01*
X137406804Y-98979221D01*
X137279332Y-98926421D01*
X137279320Y-98926418D01*
X137249408Y-98920468D01*
X137249407Y-98920468D01*
X137143995Y-98899500D01*
X137143993Y-98899500D01*
X137006007Y-98899500D01*
X137006005Y-98899500D01*
X136870677Y-98926418D01*
X136870667Y-98926421D01*
X136743195Y-98979221D01*
X136743182Y-98979228D01*
X136628458Y-99055885D01*
X136628454Y-99055888D01*
X136530888Y-99153454D01*
X136530885Y-99153458D01*
X136454228Y-99268182D01*
X136454221Y-99268195D01*
X136401421Y-99395667D01*
X136401418Y-99395677D01*
X136374500Y-99531004D01*
X136374500Y-99531007D01*
X136374500Y-99668993D01*
X136374500Y-99668995D01*
X136374499Y-99668995D01*
X135000500Y-99668995D01*
X135000500Y-98802155D01*
X150165000Y-98802155D01*
X150165000Y-99450000D01*
X151081988Y-99450000D01*
X151049075Y-99507007D01*
X151015000Y-99634174D01*
X151015000Y-99765826D01*
X151049075Y-99892993D01*
X151081988Y-99950000D01*
X150165000Y-99950000D01*
X150165000Y-100597844D01*
X150171401Y-100657372D01*
X150171403Y-100657379D01*
X150221645Y-100792086D01*
X150221649Y-100792093D01*
X150307809Y-100907187D01*
X150307812Y-100907190D01*
X150422906Y-100993350D01*
X150422913Y-100993354D01*
X150557620Y-101043596D01*
X150557627Y-101043598D01*
X150617155Y-101049999D01*
X150617172Y-101050000D01*
X151265000Y-101050000D01*
X151265000Y-100133012D01*
X151322007Y-100165925D01*
X151449174Y-100200000D01*
X151580826Y-100200000D01*
X151707993Y-100165925D01*
X151765000Y-100133012D01*
X151765000Y-101050000D01*
X152412828Y-101050000D01*
X152412844Y-101049999D01*
X152472372Y-101043598D01*
X152472379Y-101043596D01*
X152607086Y-100993354D01*
X152607093Y-100993350D01*
X152722187Y-100907190D01*
X152722190Y-100907187D01*
X152808350Y-100792093D01*
X152808354Y-100792086D01*
X152857422Y-100660529D01*
X152899293Y-100604595D01*
X152964757Y-100580178D01*
X153033030Y-100595030D01*
X153061285Y-100616181D01*
X153175213Y-100730109D01*
X153347179Y-100855048D01*
X153347181Y-100855049D01*
X153347184Y-100855051D01*
X153536588Y-100951557D01*
X153738757Y-101017246D01*
X153948713Y-101050500D01*
X153948714Y-101050500D01*
X154161286Y-101050500D01*
X154161287Y-101050500D01*
X154371243Y-101017246D01*
X154573412Y-100951557D01*
X154762816Y-100855051D01*
X154849471Y-100792093D01*
X154934786Y-100730109D01*
X154934788Y-100730106D01*
X154934792Y-100730104D01*
X155085104Y-100579792D01*
X155085106Y-100579788D01*
X155085109Y-100579786D01*
X155194086Y-100429789D01*
X155210051Y-100407816D01*
X155214514Y-100399054D01*
X155262488Y-100348259D01*
X155330308Y-100331463D01*
X155396444Y-100353999D01*
X155435486Y-100399056D01*
X155439951Y-100407820D01*
X155564890Y-100579786D01*
X155715213Y-100730109D01*
X155887179Y-100855048D01*
X155887181Y-100855049D01*
X155887184Y-100855051D01*
X156076588Y-100951557D01*
X156278757Y-101017246D01*
X156488713Y-101050500D01*
X156488714Y-101050500D01*
X156701286Y-101050500D01*
X156701287Y-101050500D01*
X156911243Y-101017246D01*
X157113412Y-100951557D01*
X157302816Y-100855051D01*
X157389471Y-100792093D01*
X157474786Y-100730109D01*
X157474788Y-100730106D01*
X157474792Y-100730104D01*
X157625104Y-100579792D01*
X157625106Y-100579788D01*
X157625109Y-100579786D01*
X157734086Y-100429789D01*
X157750051Y-100407816D01*
X157754514Y-100399054D01*
X157802488Y-100348259D01*
X157870308Y-100331463D01*
X157936444Y-100353999D01*
X157975486Y-100399056D01*
X157979951Y-100407820D01*
X158104890Y-100579786D01*
X158255213Y-100730109D01*
X158427179Y-100855048D01*
X158427181Y-100855049D01*
X158427184Y-100855051D01*
X158616588Y-100951557D01*
X158818757Y-101017246D01*
X159028713Y-101050500D01*
X159028714Y-101050500D01*
X159241286Y-101050500D01*
X159241287Y-101050500D01*
X159451243Y-101017246D01*
X159653412Y-100951557D01*
X159842816Y-100855051D01*
X159929471Y-100792093D01*
X160014786Y-100730109D01*
X160014788Y-100730106D01*
X160014792Y-100730104D01*
X160165104Y-100579792D01*
X160165106Y-100579788D01*
X160165109Y-100579786D01*
X160274086Y-100429789D01*
X160290051Y-100407816D01*
X160386557Y-100218412D01*
X160452246Y-100016243D01*
X160485500Y-99806287D01*
X160485500Y-99593713D01*
X160452246Y-99383757D01*
X160386557Y-99181588D01*
X160290051Y-98992184D01*
X160290049Y-98992181D01*
X160290048Y-98992179D01*
X160165109Y-98820213D01*
X160014786Y-98669890D01*
X159842820Y-98544951D01*
X159653414Y-98448444D01*
X159653413Y-98448443D01*
X159653412Y-98448443D01*
X159451243Y-98382754D01*
X159451241Y-98382753D01*
X159451240Y-98382753D01*
X159289957Y-98357208D01*
X159241287Y-98349500D01*
X159028713Y-98349500D01*
X158980042Y-98357208D01*
X158818760Y-98382753D01*
X158616585Y-98448444D01*
X158427179Y-98544951D01*
X158255213Y-98669890D01*
X158104890Y-98820213D01*
X157979949Y-98992182D01*
X157975484Y-99000946D01*
X157927509Y-99051742D01*
X157859688Y-99068536D01*
X157793553Y-99045998D01*
X157754516Y-99000946D01*
X157750050Y-98992182D01*
X157625109Y-98820213D01*
X157474786Y-98669890D01*
X157302820Y-98544951D01*
X157113414Y-98448444D01*
X157113413Y-98448443D01*
X157113412Y-98448443D01*
X156911243Y-98382754D01*
X156911241Y-98382753D01*
X156911240Y-98382753D01*
X156749957Y-98357208D01*
X156701287Y-98349500D01*
X156488713Y-98349500D01*
X156440042Y-98357208D01*
X156278760Y-98382753D01*
X156076585Y-98448444D01*
X155887179Y-98544951D01*
X155715213Y-98669890D01*
X155564890Y-98820213D01*
X155439949Y-98992182D01*
X155435484Y-99000946D01*
X155387509Y-99051742D01*
X155319688Y-99068536D01*
X155253553Y-99045998D01*
X155214516Y-99000946D01*
X155210050Y-98992182D01*
X155085109Y-98820213D01*
X154934786Y-98669890D01*
X154762820Y-98544951D01*
X154573414Y-98448444D01*
X154573413Y-98448443D01*
X154573412Y-98448443D01*
X154371243Y-98382754D01*
X154371241Y-98382753D01*
X154371240Y-98382753D01*
X154209957Y-98357208D01*
X154161287Y-98349500D01*
X153948713Y-98349500D01*
X153900042Y-98357208D01*
X153738760Y-98382753D01*
X153536585Y-98448444D01*
X153347179Y-98544951D01*
X153175215Y-98669889D01*
X153061285Y-98783819D01*
X152999962Y-98817303D01*
X152930270Y-98812319D01*
X152874337Y-98770447D01*
X152857422Y-98739470D01*
X152808354Y-98607913D01*
X152808350Y-98607906D01*
X152722190Y-98492812D01*
X152722187Y-98492809D01*
X152607093Y-98406649D01*
X152607086Y-98406645D01*
X152472379Y-98356403D01*
X152472372Y-98356401D01*
X152412844Y-98350000D01*
X151765000Y-98350000D01*
X151765000Y-99266988D01*
X151707993Y-99234075D01*
X151580826Y-99200000D01*
X151449174Y-99200000D01*
X151322007Y-99234075D01*
X151265000Y-99266988D01*
X151265000Y-98350000D01*
X150617155Y-98350000D01*
X150557627Y-98356401D01*
X150557620Y-98356403D01*
X150422913Y-98406645D01*
X150422906Y-98406649D01*
X150307812Y-98492809D01*
X150307809Y-98492812D01*
X150221649Y-98607906D01*
X150221645Y-98607913D01*
X150171403Y-98742620D01*
X150171401Y-98742627D01*
X150165000Y-98802155D01*
X135000500Y-98802155D01*
X135000500Y-96668995D01*
X136374499Y-96668995D01*
X136401418Y-96804322D01*
X136401421Y-96804332D01*
X136454221Y-96931804D01*
X136454228Y-96931817D01*
X136530885Y-97046541D01*
X136530888Y-97046545D01*
X136628454Y-97144111D01*
X136628458Y-97144114D01*
X136743182Y-97220771D01*
X136743195Y-97220778D01*
X136870667Y-97273578D01*
X136870672Y-97273580D01*
X136870676Y-97273580D01*
X136870677Y-97273581D01*
X137006004Y-97300500D01*
X137006007Y-97300500D01*
X137143995Y-97300500D01*
X137235041Y-97282389D01*
X137279328Y-97273580D01*
X137406811Y-97220775D01*
X137521542Y-97144114D01*
X137619114Y-97046542D01*
X137695775Y-96931811D01*
X137748580Y-96804328D01*
X137775500Y-96668993D01*
X137775500Y-96531007D01*
X137775500Y-96531004D01*
X137748581Y-96395677D01*
X137748580Y-96395676D01*
X137748580Y-96395672D01*
X137748578Y-96395667D01*
X137695778Y-96268195D01*
X137695771Y-96268182D01*
X137619114Y-96153458D01*
X137619111Y-96153454D01*
X137521545Y-96055888D01*
X137521541Y-96055885D01*
X137406817Y-95979228D01*
X137406804Y-95979221D01*
X137279332Y-95926421D01*
X137279322Y-95926418D01*
X137143995Y-95899500D01*
X137143993Y-95899500D01*
X137006007Y-95899500D01*
X137006005Y-95899500D01*
X136870677Y-95926418D01*
X136870667Y-95926421D01*
X136743195Y-95979221D01*
X136743182Y-95979228D01*
X136628458Y-96055885D01*
X136628454Y-96055888D01*
X136530888Y-96153454D01*
X136530885Y-96153458D01*
X136454228Y-96268182D01*
X136454221Y-96268195D01*
X136401421Y-96395667D01*
X136401418Y-96395677D01*
X136374500Y-96531004D01*
X136374500Y-96531007D01*
X136374500Y-96668993D01*
X136374500Y-96668995D01*
X136374499Y-96668995D01*
X135000500Y-96668995D01*
X135000500Y-94404427D01*
X135000816Y-94395581D01*
X135015130Y-94195443D01*
X135017646Y-94177938D01*
X135059356Y-93986199D01*
X135064333Y-93969248D01*
X135132911Y-93785385D01*
X135140259Y-93769298D01*
X135202815Y-93654734D01*
X135234291Y-93597089D01*
X135243845Y-93582221D01*
X135361448Y-93425123D01*
X135373020Y-93411769D01*
X135511769Y-93273020D01*
X135525123Y-93261448D01*
X135682221Y-93143845D01*
X135697089Y-93134291D01*
X135869298Y-93040258D01*
X135885385Y-93032911D01*
X136069248Y-92964333D01*
X136086199Y-92959356D01*
X136277938Y-92917646D01*
X136295436Y-92915130D01*
X136495582Y-92900816D01*
X136504428Y-92900500D01*
X136565892Y-92900500D01*
X170841324Y-92900500D01*
X170908363Y-92920185D01*
G37*
%TD.AperFunction*%
%TD*%
M02*
