%TF.GenerationSoftware,KiCad,Pcbnew,9.0.2*%
%TF.CreationDate,2025-09-04T21:02:57-04:00*%
%TF.ProjectId,GPSWatch,47505357-6174-4636-982e-6b696361645f,rev?*%
%TF.SameCoordinates,Original*%
%TF.FileFunction,Profile,NP*%
%FSLAX46Y46*%
G04 Gerber Fmt 4.6, Leading zero omitted, Abs format (unit mm)*
G04 Created by KiCad (PCBNEW 9.0.2) date 2025-09-04 21:02:57*
%MOMM*%
%LPD*%
G01*
G04 APERTURE LIST*
%TA.AperFunction,Profile*%
%ADD10C,0.050000*%
%TD*%
G04 APERTURE END LIST*
D10*
X134500000Y-94400000D02*
X134500000Y-132400000D01*
X171100000Y-92400000D02*
X136500000Y-92400000D01*
X136500000Y-134400000D02*
X171200000Y-134400000D01*
X171100000Y-92400000D02*
X175500000Y-96800000D01*
X171200000Y-134400000D02*
X175500000Y-130100000D01*
X136500000Y-134400000D02*
G75*
G02*
X134500000Y-132400000I0J2000000D01*
G01*
X134500000Y-94400000D02*
G75*
G02*
X136500000Y-92400000I2000000J0D01*
G01*
X175500000Y-130100000D02*
X175500000Y-96800000D01*
%TO.C,SW1*%
X138925000Y-127200000D02*
X138925000Y-128400000D01*
X138925000Y-129600000D02*
X138925000Y-128400000D01*
X139225000Y-126900000D02*
X139925000Y-126900000D01*
X139225000Y-129900000D02*
X139925000Y-129900000D01*
X139925000Y-126600000D02*
X139925000Y-126900000D01*
X139925000Y-130200000D02*
X139925000Y-129900000D01*
X140925000Y-126600000D02*
X140925000Y-126900000D01*
X140925000Y-130200000D02*
X140925000Y-129900000D01*
X141625000Y-126900000D02*
X140925000Y-126900000D01*
X141625000Y-129900000D02*
X140925000Y-129900000D01*
X141925000Y-127200000D02*
X141925000Y-128400000D01*
X141925000Y-129600000D02*
X141925000Y-128400000D01*
X138925000Y-127200000D02*
G75*
G02*
X139225000Y-126900000I300000J0D01*
G01*
X139225000Y-129900000D02*
G75*
G02*
X138925000Y-129600000I0J300000D01*
G01*
X139925000Y-126600000D02*
G75*
G02*
X140925000Y-126600000I500000J0D01*
G01*
X140925000Y-130200000D02*
G75*
G02*
X139925000Y-130200000I-500000J0D01*
G01*
X141625000Y-126900000D02*
G75*
G02*
X141925000Y-127200000I0J-300000D01*
G01*
X141925000Y-129600000D02*
G75*
G02*
X141625000Y-129900000I-300000J0D01*
G01*
X139535000Y-131100000D02*
G75*
G02*
X138915000Y-131100000I-310000J0D01*
G01*
X138915000Y-131100000D02*
G75*
G02*
X139535000Y-131100000I310000J0D01*
G01*
X141935000Y-131100000D02*
G75*
G02*
X141315000Y-131100000I-310000J0D01*
G01*
X141315000Y-131100000D02*
G75*
G02*
X141935000Y-131100000I310000J0D01*
G01*
%TD*%
M02*
