M48
; DRILL file {KiCad 9.0.2} date 2025-09-05T22:56:02-0400
; FORMAT={-:-/ absolute / metric / decimal}
; #@! TF.CreationDate,2025-09-05T22:56:02-04:00
; #@! TF.GenerationSoftware,Kicad,Pcbnew,9.0.2
; #@! TF.FileFunction,MixedPlating,1,2
FMAT,2
METRIC
; #@! TA.AperFunction,Plated,PTH,ViaDrill
T1C0.300
; #@! TA.AperFunction,Plated,PTH,ComponentDrill
T2C0.550
; #@! TA.AperFunction,Plated,PTH,ComponentDrill
T3C0.750
; #@! TA.AperFunction,Plated,PTH,ComponentDrill
T4C0.850
; #@! TA.AperFunction,Plated,PTH,ComponentDrill
T5C1.000
; #@! TA.AperFunction,Plated,PTH,ComponentDrill
T6C2.200
; #@! TA.AperFunction,NonPlated,NPTH,ComponentDrill
T7C0.800
; #@! TA.AperFunction,NonPlated,NPTH,ComponentDrill
T8C0.900
%
G90
G05
T1
X136.525Y-126.1
X136.55Y-130.825
X138.75Y-110.45
X139.625Y-109.525
X140.325Y-110.925
X140.525Y-94.9
X140.55Y-101.8
X140.575Y-114.35
X141.0Y-104.65
X141.775Y-118.25
X141.925Y-117.125
X142.3Y-105.5
X143.1Y-106.45
X143.1Y-120.1
X144.125Y-133.15
X144.325Y-126.225
X144.425Y-130.55
X144.575Y-124.6
X144.75Y-112.0
X145.497Y-118.825
X146.35Y-131.0
X146.375Y-114.85
X146.375Y-129.075
X146.4Y-130.1
X146.5Y-123.025
X146.5Y-124.0
X146.5Y-132.1
X146.575Y-115.75
X146.791Y-110.068
X147.375Y-108.275
X147.488Y-114.682
X147.523Y-118.325
X148.091Y-105.709
X148.275Y-115.525
X148.3Y-95.275
X148.525Y-101.875
X148.869Y-109.344
X150.075Y-98.85
X150.7Y-116.725
X152.125Y-94.825
X152.35Y-114.225
X152.351Y-107.051
X152.7Y-97.3
X153.4Y-95.7
X153.925Y-102.524
X155.475Y-103.825
X155.55Y-114.3
X155.75Y-97.275
X156.25Y-118.55
X158.7Y-104.0
X159.9Y-132.075
X159.925Y-130.975
X160.075Y-125.0
X160.1Y-126.9
X160.1Y-127.925
X160.125Y-124.0
X160.6Y-122.275
X161.3Y-115.625
X161.95Y-120.35
X163.622Y-95.197
X164.025Y-123.2
X164.25Y-118.55
X165.15Y-105.3
X166.95Y-101.375
X167.4Y-116.125
X167.544Y-93.325
X168.725Y-94.161
X170.325Y-129.15
X170.475Y-101.225
X171.2Y-99.2
X171.55Y-124.875
X171.9Y-114.425
X172.15Y-119.575
X172.425Y-121.47
T3
X164.675Y-99.875
X166.675Y-99.875
T5
X151.515Y-99.7
X154.055Y-99.7
X156.595Y-99.7
X159.135Y-99.7
T6
X163.4Y-130.7
T7
X170.925Y-104.65
X170.925Y-109.65
T8
X137.075Y-96.6
X137.075Y-99.6
T2
G00X173.35Y-103.275
M15
G01X174.0Y-103.275
M16
G05
G00X173.35Y-111.025
M15
G01X174.0Y-111.025
M16
G05
T4
G00X169.6Y-103.425
M15
G01X170.15Y-103.425
M16
G05
G00X169.6Y-110.875
M15
G01X170.15Y-110.875
M16
G05
M30
